<svg id="Layer_1" data-name="Layer 1" xmlns="http://www.w3.org/2000/svg" viewBox="0 0 756 152"><title>uchicago_wordmark_maroon-transparent</title><path d="M751.81,10.72l0-.1v-.1c-.1-1.84-.16-4.21-.16-6.68V3.35l-.48.11c-.61.14-3.74.14-6.76.14h-9.34c-1.92,0-3.61,0-5.87-.15h-.1l-.09,0a1.19,1.19,0,0,0-.5,1,1,1,0,0,0,.36,1l1,.17c2.58.31,2.71.59,2.71,6V29.89c0,5.36-.13,5.64-2.71,6l-1.4.17-.09.09a1.3,1.3,0,0,0-.28,1.11,1,1,0,0,0,.47.79l.1,0h.1c2.37-.1,4.09-.15,6.33-.15,2,0,3.81,0,6.74.15h.09l.09,0a1.16,1.16,0,0,0,.5-1,1,1,0,0,0-.36-.95l-1.9-.22c-2.59-.22-2.74-.55-2.74-6V22.83c0-1,0-1,1.28-1h3.46a17.94,17.94,0,0,1,3.79.23,2,2,0,0,1,1.36,1.65l.54,2.11.09.08a1.48,1.48,0,0,0,1.9-.08l.07-.1v-.12c0-.53,0-1.21-.09-2,0-.92-.11-2-.11-3s.06-2.11.11-3.07c.05-.79.09-1.5.09-2.05v-.12l-.07-.1a1.17,1.17,0,0,0-1-.4,1.28,1.28,0,0,0-1,.37l-.54,2.19c-.29,1.23-.63,1.35-1,1.49a19.11,19.11,0,0,1-4.19.29h-3.46c-1.28,0-1.28,0-1.28-1V7.6c0-1.64,0-1.64,1.13-1.64h3.1a21.65,21.65,0,0,1,4.82.29c2.18.57,2.83,2,3.27,4.51l0,.14.1.09a1.18,1.18,0,0,0,.77.26,1.19,1.19,0,0,0,1.06-.53Zm-34.08,9.87c0-8.57-5.63-17.8-18-17.8-10.52,0-18.46,7.87-18.46,18.31,0,8.75,6.34,17.6,18.46,17.6a17.66,17.66,0,0,0,18-18.11Zm-5.86,1.58c0,10.46-6.19,14.18-11.48,14.18-10.48,0-13.28-10.61-13.28-16.87,0-10.58,6.33-14.34,11.75-14.34,9.61,0,13,9.17,13,17Zm-41.52,86.54c0,21.93,16.32,41.3,43.37,41.3C737.24,150,756,132.1,756,107.49c0-21.44-14.14-41.79-42.28-41.79-25.1,0-43.37,18.64-43.37,43Zm12.18-3.9c0-26.68,16.45-35.33,29.12-35.33,23.27,0,32.17,21.69,32.17,41.79,0,24-13.89,35-28.51,35-24,0-32.78-23.4-32.78-41.43ZM655.61,5.4a1.16,1.16,0,0,0,.37-1,1.16,1.16,0,0,0-.52-.91l-.1-.07h-.13a72.44,72.44,0,0,1-9.55,0h-.1l-.1,0a1,1,0,0,0-.53.79,1.27,1.27,0,0,0,.33,1.1l.1.1,1,.12a4.6,4.6,0,0,1,1.78.49,56.56,56.56,0,0,1-3,6l-.23.44c-1.23,2.36-2.64,4.91-4.42,8-1.34-2.42-2.64-5.08-3.91-7.65-.5-1-1-2-1.49-3a29,29,0,0,1-1.53-3.73c0-.11.24-.31,1.8-.53l.79-.12.09-.1a1.34,1.34,0,0,0,.29-1.21.92.92,0,0,0-.6-.7l-.07,0h-.08c-1.25.1-3.06.15-5.4.15s-4.21-.05-5.86-.15h-.12l-.1.06a1,1,0,0,0-.48.75,1.38,1.38,0,0,0,.28,1.11l.09.11,1.56.28c1.34.22,2,.34,3.72,3.65l6,11.68c1.44,2.76,1.59,3.33,1.59,6.11v2.59c0,5.51-.13,5.79-2.7,6.06l-1.71.17-.1.1a1.29,1.29,0,0,0-.27,1.11,1,1,0,0,0,.48.78l.08,0h.1c2.74-.1,4.52-.15,6.64-.15s3.88,0,6.89.15h.1l.09,0a1,1,0,0,0,.48-.79,1.34,1.34,0,0,0-.28-1.11l-.1-.1-2.07-.16c-2.35-.17-2.69-.56-2.69-6.06V27.14c0-3.8.11-4.18,2.33-8l3.2-5.53.84-1.45c2-3.49,3.44-6,5.59-6.38l1.53-.27.08-.08ZM637.82,67.53a72.58,72.58,0,0,0-15.47-1.83c-18.4,0-30.46,5.73-38.63,14.26a41.82,41.82,0,0,0-11,28.87A38.35,38.35,0,0,0,584,136.49C593.35,146,606.63,150,621.13,150a95.58,95.58,0,0,0,21.81-3.17,27.29,27.29,0,0,1,6-1.1,1,1,0,0,0,.13-1.46c-2.19-.85-2.93-3.78-2.93-8.65v-6.83c0-6.21.13-9.62,5.24-10.23l1.95-.24a2.13,2.13,0,0,0-.12-3c-4,.24-8.16.36-12.91.36-7.19,0-13.89-.12-17.43-.36-.85.36-1,2.56,0,3l5.36.61c7.56.85,7.92,1.58,7.92,11.81v4.88c0,3.9-.6,6.09-1.21,6.94-1.35,2.07-5.85,3.66-13.41,3.66-24.49,0-36.55-18.4-36.55-41.79,0-18.28,10.36-35.09,34-35.09,12.43,0,21.57,4.14,25,17.3.73.73,2.93.61,3.29-.37a136.47,136.47,0,0,1-1.83-17.66c-1.46.24-5.24-.61-7.55-1.1ZM617.05,2.82l0-.14L617,2.55c-.18-.38-.71-.42-.93-.42a1.22,1.22,0,0,0-.47.08l-.13,0-.07.12c-.65,1.13-.92,1.22-3.62,1.22h-21c-2.27,0-3.29-.12-3.5-1.25l0-.12-.09-.09a1,1,0,0,0-.7-.21,1.62,1.62,0,0,0-.76.16l-.14.1,0,.16a52.74,52.74,0,0,1-1.92,7.5l0,.16.07.15a1.42,1.42,0,0,0,1.91.49l.08-.06,0-.1a9,9,0,0,1,2.19-3.37c1.12-1,3.65-1.16,6-1.16h2.8c1.13,0,1.13,0,1.13,1.23v22.7c0,5.5-.32,5.74-2.79,6l-1.83.15-.17.06a1.1,1.1,0,0,0-.46,1,1.08,1.08,0,0,0,.49.93l.09,0h.09c3.11-.1,5-.15,7-.15s3.62,0,6.63.15h.1l.09,0a1.19,1.19,0,0,0,.5-1,1,1,0,0,0-.35-1l-1.81-.22c-2.54-.22-2.69-.55-2.69-6V7.13A3.27,3.27,0,0,1,602.83,6a3.21,3.21,0,0,1,1-.08h3.6c2.73,0,4.58.39,5.66,1.19.48.35.9,1.64,1.12,3.44v.11l.07.09a1.22,1.22,0,0,0,.92.36,1.13,1.13,0,0,0,1-.54l0-.1V10.4a30.2,30.2,0,0,1,.75-7.58Zm-46.28,27V11.71c0-5.55.15-5.89,2.73-6.11l1.37-.11.09-.06a1,1,0,0,0,.35-1,1.19,1.19,0,0,0-.5-1l-.08,0h-.1c-2.41.1-4.2.15-6.28.15s-3.93-.05-6.39-.15h-.1l-.09,0c-.41.21-.48.81-.49,1a1,1,0,0,0,.35.95l.08.06,1.37.11c2.59.22,2.74.56,2.74,6.11V29.78c0,5.47-.13,5.75-2.75,6.06l-1.4.17-.1.1a1.31,1.31,0,0,0-.28,1.1,1,1,0,0,0,.48.79l.09,0h.1c2.59-.1,4.28-.15,6.39-.15s3.69,0,6.28.15h.1l.08,0a1.21,1.21,0,0,0,.5-1,1,1,0,0,0-.35-.95l-1.44-.22c-2.63-.31-2.75-.59-2.75-6.06ZM562.4,145c-5.24-.61-6.82-2.44-10.36-12.92l-16.69-49c-1.82-5.36-3.77-11-5.36-16.33a1.72,1.72,0,0,0-1.82-1.1,13.64,13.64,0,0,1-6.34,4.63c.37,2-.37,4.27-2.07,8.65l-12.43,32.9c-5.12,13.65-8.53,21.57-10.72,27.17-1.71,4.39-4.39,5.73-7.31,6l-4,.36c-.73.61-.49,2.56.24,3.05,3.29-.12,7.68-.36,11.7-.36,5.72.12,9.5.12,12.67.36a2,2,0,0,0,.24-3.05l-4-.36c-2.92-.24-3.53-1-3.53-2.44s.85-4.63,2.68-10.11l4.26-12.79c.86-2.56,1.59-2.93,4.63-2.93h18.4c3.65,0,4.14.37,5,3l5.36,16.57a25.09,25.09,0,0,1,1.58,6.46c0,1.21-1.7,1.95-4.26,2.19l-3.54.36a2,2,0,0,0,.25,3.05c3.53-.12,8.16-.36,14-.36,5.48,0,9.75.12,14.74.36.61-.49.85-2.44,0-3.05L562.4,145ZM531,111.88H516c-3.41,0-3.53-.12-2.56-2.92l7.68-21.2A75.83,75.83,0,0,1,524,80.57h.25c.73,1.46,1.82,4.75,2.8,7.67l6.58,19.86c1.1,3.29.85,3.78-2.68,3.78Zm5-101.49c0-2,.74-5.25,5.65-5.25,4.48,0,5.84,2.92,6.53,5.45l.08.15a1,1,0,0,0,.77.31,1.42,1.42,0,0,0,1.12-.5l.06-.1v-.11A22.33,22.33,0,0,0,549.22,4l-.1-.26h-.27a6.52,6.52,0,0,1-1.68-.29,20.44,20.44,0,0,0-4.82-.67c-6.42,0-10.74,3.67-10.74,9.12,0,4.64,3.54,7.67,5.66,9.06l4.82,3.15c3.51,2.26,4,4.59,4,6.78,0,2.71-1.84,5.45-6,5.45-5.14,0-7.38-4-8.36-7.29l0-.11a.9.9,0,0,0-.77-.35,1.36,1.36,0,0,0-1.09.5l-.07.11v.13c.1,2.3.75,6.05,1.42,7.28l0,.09.1.06a16.22,16.22,0,0,0,8.11,1.93c6.7,0,11.2-3.93,11.2-9.78,0-4.06-2.13-7.36-6.52-10.08l-4.07-2.54c-1.54-1-4.13-3-4.13-5.91ZM523.15,38.11a.82.82,0,0,0,.31-.78.74.74,0,0,0-.46-.6l-.11,0a5.64,5.64,0,0,1-3.28-1.33c-3.5-2.93-6.28-7.21-10.12-13.41-.27-.43-.31-.62-.3-.71,1.68-.7,6.45-3.19,6.45-8.78A7.93,7.93,0,0,0,511.22,5c-2.55-1.38-5.81-1.57-8.67-1.57-4.64,0-8.25.13-11.35.41l-.14,0a1,1,0,0,0-.52.87A1.17,1.17,0,0,0,491,5.83l.08.06,1.73.22c1.65.2,1.89.56,1.89,5.55V29.88c0,5.37-.12,5.65-2.7,6l-1.42.17-.1.12a1.39,1.39,0,0,0-.25,1.16,1,1,0,0,0,.48.71l.08,0h.1c2.26-.1,4.11-.15,6.33-.15s3.86,0,6,.15h.1l.09,0a1.34,1.34,0,0,0,.17-1.92l-.08-.07-1.18-.17c-2.61-.36-2.71-.58-2.71-6V23.49c0-.73,0-.73,2-.73s2.61.47,3.28,1.45,1.67,2.55,2.54,3.92,1.77,2.79,2.44,3.75c3.49,5,6.12,6.56,10.83,6.56a7.91,7.91,0,0,0,2.35-.27l.12-.06Zm-15.3-18.89a8.26,8.26,0,0,1-5,1.24,16.83,16.83,0,0,1-3.21-.15,8.18,8.18,0,0,1-.06-1.39V7c0-1.14,0-1.24,2.91-1.24,5.71,0,7.74,4,7.74,7.43,0,2.82-.76,4.72-2.39,6ZM481.61,30.67l0-.12-.05-.12a1.32,1.32,0,0,0-1.2-.7,1.08,1.08,0,0,0-.65.19l-.12.14c-1.46,2.91-2.77,4.38-3.44,4.75-1.09.55-2.62.72-6.32.72-4.23,0-5.32-.5-5.85-1-.73-.77-.87-2.42-.87-5V22.32c0-1,0-1,1.29-1h2.94a17.64,17.64,0,0,1,3.82.24c.7.18,1.07.63,1.29,1.64l.45,2,.08.16a1.23,1.23,0,0,0,.95.36,1.11,1.11,0,0,0,1-.46l0-.09v-.11c0-.49,0-1.15-.08-1.88-.06-.93-.12-2-.12-3s.06-2.15.12-3.11c.05-.78.08-1.47.08-2V15l0-.09a1.09,1.09,0,0,0-1-.47,1.23,1.23,0,0,0-.95.36L472.52,17c-.23,1.16-.51,1.33-.95,1.48a19.26,19.26,0,0,1-4.2.28h-2.94c-1.29,0-1.29,0-1.29-1V7.6c0-1.64,0-1.64,1.14-1.64h3.65a24.88,24.88,0,0,1,4.84.29c2.31.58,2.77,2,3.48,4.26l.09.3.08.13a1,1,0,0,0,.82.33,1.32,1.32,0,0,0,1.07-.46l.07-.11-.06-.75a45.33,45.33,0,0,0-.78-6.24l-.12-.33-.34.08c-.57.14-3.72.14-6.76.14h-9.55c-1.95,0-3.63,0-6-.15h-.1l-.09,0a1.22,1.22,0,0,0-.5,1,1,1,0,0,0,.35,1l1,.17c2.6.31,2.75.64,2.75,6V29.89c0,5.5-.32,5.73-2.79,6L453.6,36l-.11.1a1.31,1.31,0,0,0-.27,1.1,1,1,0,0,0,.47.79l.09,0h.1c2.94-.1,4.7-.15,6.89-.15h4.57c4.43,0,8.88,0,13.6.15h.25l.11-.22a44.69,44.69,0,0,0,2.31-7.15ZM446.79,5.38a1.33,1.33,0,0,0,.27-1.08,1,1,0,0,0-.46-.8l-.1-.06h-.12c-1.7.1-3.25.15-4.9.15-2,0-3.91-.05-5.25-.15h-.12l-.1.06a1.15,1.15,0,0,0-.51.9,1.14,1.14,0,0,0,.35,1l.09.08,1,.12c1.78.2,1.94.57,1.94.57A5,5,0,0,1,438.48,8c-.87,2.21-3.29,8-4.71,11.36-.38.87-.85,2-1.38,3.23-1,2.29-2.13,5.06-3.13,7.25-2.4-5.52-4.61-11.06-6.86-16.72a69.47,69.47,0,0,1-2.5-7c.08-.16.52-.38,2-.58l.88-.12.08-.07a1.21,1.21,0,0,0,.36-1,1.18,1.18,0,0,0-.51-.9l-.1,0h-.12c-2.26.11-4,.15-6.12.15s-3.74-.05-5.26-.15H411l-.11.07a1.16,1.16,0,0,0-.52.91,1.16,1.16,0,0,0,.37,1l.09.08,1,.12c2,.23,2.65,1.13,3.8,3.92l8.93,22a56.24,56.24,0,0,1,2.32,6.71l.05.19.18.07a2.42,2.42,0,0,0,.91.18,1.43,1.43,0,0,0,.78-.22l.11-.07,0-.13c.87-2.73,3.31-8.71,5.27-13.21L437,18.82a121.29,121.29,0,0,1,5.66-11.63A2.88,2.88,0,0,1,445,5.6l1.67-.11.11-.11ZM413.64,76.06a40.47,40.47,0,0,0-15.35,32.29c0,15.71,7.55,26.8,17.3,33.5,8.89,6,19.37,8.17,30.34,8.17a71.56,71.56,0,0,0,19.25-2.81,25.8,25.8,0,0,1,4.26-1.22c1.83-2.31,5-10.35,5.85-16.69a2.58,2.58,0,0,0-3.17-.49c-2.8,7.19-9.75,17.43-25.46,17.43-20,0-36.19-14.14-36.19-39.72,0-25.22,15.84-37,34.48-37,17.67,0,23.15,9.5,25,17.79a2.57,2.57,0,0,0,3.29-.24c-1-7.44-1.58-15.11-1.71-17.91a9.36,9.36,0,0,1-3.41-.49,93.73,93.73,0,0,0-21.56-2.93c-12.68,0-24,3.42-32.9,10.36ZM398.06,29.78V11.71c0-5.49.18-5.89,2.74-6.11l1.37-.11.09-.06a1,1,0,0,0,.35-1,1.19,1.19,0,0,0-.5-1l-.09,0h-.1c-2.4.1-4.19.15-6.28.15s-3.92-.05-6.38-.15h-.1l-.08,0c-.42.21-.49.8-.51,1a1.05,1.05,0,0,0,.36,1l.08.06,1.37.11c2.56.22,2.74.62,2.74,6.11V29.78c0,5.47-.13,5.75-2.75,6.06L389,36l-.1.1a1.33,1.33,0,0,0-.28,1.11,1,1,0,0,0,.48.78l.09,0h.1c2.58-.1,4.28-.15,6.38-.15s3.76,0,6.28.15h.1l.09,0a1.2,1.2,0,0,0,.5-1,1,1,0,0,0-.35-1l-1.44-.22c-2.63-.31-2.76-.59-2.76-6.06Zm-25.48,99.77V86.17c0-12.91.24-15,7.43-15.59l3.05-.25c.73-.49.48-2.68-.25-3-6.09.24-10.23.36-15.1.36-5.12,0-9.26-.12-15.35-.36-.74.36-1,2.55-.25,3l3.05.25c7.19.61,7.43,2.68,7.43,15.59v43.38c0,12.91-.24,14.62-7.43,15.47l-3.05.36c-.73.74-.49,2.69.25,3.05,6.09-.24,10.23-.36,15.35-.36,4.87,0,9,.12,15.1.36.73-.36,1-2.56.25-3.05L380,145c-7.19-.85-7.43-2.56-7.43-15.47ZM378.86,5.38a1.23,1.23,0,0,0,.32-1,1.11,1.11,0,0,0-.49-.84l-.1-.07h-.13c-1.66.1-3,.15-5.2.15-1.8,0-3.47,0-6-.15h-.08l-.07,0a1,1,0,0,0-.57.77,1.24,1.24,0,0,0,.35,1.16l.09.08,1,.12c1.74.22,2.63.48,2.87.84.6.95.95,4.71.95,10.29V27.6c0,.49,0,1.06,0,1.45-1.76-1.82-3.6-3.88-5.89-6.45l-7.06-7.92c-5-5.63-7.9-9.33-8.55-11l-.12-.29-.3,0a16.67,16.67,0,0,1-2.28.14c-.89,0-3.59,0-5.71-.15h-.11l-.09.05a1,1,0,0,0-.52.77,1.35,1.35,0,0,0,.31,1.12l.1.1,1,.12a5.07,5.07,0,0,1,2.9,1.09,4.3,4.3,0,0,1,1,3.39V25.22c0,2.45,0,8.2-.63,9.83-.12.26-.55.61-1.92.79l-1.51.17-.09.1a1.32,1.32,0,0,0,.15,1.86l.11.08h.14c1.76-.1,3.12-.15,5.25-.15,1.72,0,3.44,0,5.93.15H354l.11-.07a1.13,1.13,0,0,0,.45-.77,1.41,1.41,0,0,0-.26-1.05l-.1-.14-1.76-.17c-1.22-.1-2.07-.38-2.28-.77-.55-1-.86-4.72-.86-10.31V13.69a22.14,22.14,0,0,1,.11-2.57c.8.9,2.15,2.49,3.36,3.92.83,1,1.59,1.89,2.09,2.46l11.78,13.4c3.91,4.45,5.79,6.67,6.47,7.63l.12.17h.2a1.29,1.29,0,0,0,1.33-.83l0-.08v-.08c-.07-.6-.15-2.61-.15-8.84V16.05c0-2.6,0-8,.72-9.6.06-.13.67-.56,2.55-.85l.84-.12.09-.1Zm-45.51-.07a1.37,1.37,0,0,0,.27-1.07,1.05,1.05,0,0,0-.46-.73l-.11-.07h-.12c-1.77.1-3.14.15-5.31.15-1.95,0-3.83-.05-5.77-.15h-.13l-.1.08a1.09,1.09,0,0,0-.45.79,1.27,1.27,0,0,0,.26,1l.11.13,1.43.11c1.16.09,2,.4,2.23.87.59,1,.91,4.71.91,10.31v5.84c0,6-1.69,13.12-9.76,13.12-6.77,0-9.92-4.19-9.92-13.17v-11c0-5.4.18-5.79,2.69-6l1.32-.11.08-.06a1,1,0,0,0,.36-.93,1.16,1.16,0,0,0-.5-1l-.09,0h-.1c-2.41.1-4.11.15-6.23.15s-3.88-.05-6.28-.15h-.09l-.09,0a1.1,1.1,0,0,0-.5,1,1,1,0,0,0,.35.94l.08.06,1.37.11c2.52.22,2.69.61,2.69,6v12c0,6.14,1.26,9.92,4.1,12.28,2.23,1.91,5.51,2.88,9.74,2.88,4,0,7.83-1.47,10-3.83,2.46-2.64,3.65-6.69,3.65-12.4V16.73c0-2.57,0-8.6.68-10.19a2.7,2.7,0,0,1,2.21-1l1.39-.11.1-.13ZM275,70.33c.73-.49.49-2.68-.24-3-5.24.24-9.38.36-14.14.36-5.23,0-9.38-.24-15.35-.36-.73.36-1,2.55-.24,3l3.17.25c6.33.48,7.19,2.56,7.19,15.35v43.86c0,12.79-.25,14-7.07,15.23l-2.07.36c-.73.74-.49,2.69.24,3.05,4.75-.12,8.9-.36,14.13-.36,4.76,0,8.9.12,15.48.36.73-.36,1-2.56.24-3.05L272.8,145c-6.82-.73-7.43-2.44-7.43-15.23V112.61c0-3.65.24-3.9,6.09-3.9H306.3c5.85,0,6.1.25,6.1,3.9v17.18c0,12.79,0,14-7.44,15.23l-2.31.36c-.73.74-.49,2.69.24,3.05,5.36-.24,9.75-.36,14.74-.36,4.76,0,8.9.12,14.75.36.73-.36,1-2.56.24-3.05L329.7,145c-7.07-.85-7.31-2.44-7.31-15.23V85.93c0-12.79.24-14.62,7.31-15.35l2.56-.25c.73-.49.48-2.68-.25-3-5.48.24-9.62.36-14.38.36-5,0-9.13-.12-14.74-.36-.73.36-1,2.55-.24,3l2.31.25c7.19.73,7.44,2.56,7.44,15.35v14c0,3.78-.25,3.9-6.1,3.9H271.46c-5.85,0-6.09-.12-6.09-3.9v-14c0-12.79.24-14.62,7.31-15.35l2.31-.25Zm-4.91-39.66,0-.12-.05-.12a1.32,1.32,0,0,0-1.19-.7,1.09,1.09,0,0,0-.66.19l-.12.14c-1.46,2.91-2.77,4.38-3.43,4.75-1.1.55-2.63.72-6.33.72-4.23,0-5.32-.5-5.85-1-.72-.77-.86-2.42-.86-5V22.32c0-1,0-1,1.28-1h3a17.59,17.59,0,0,1,3.81.24c.71.18,1.07.64,1.29,1.64l.45,2,.08.16a1.24,1.24,0,0,0,1,.36,1.1,1.1,0,0,0,1-.46l.06-.09v-.11c0-.49,0-1.15-.09-1.88,0-.93-.12-2-.12-3s.07-2.15.12-3.11c.05-.78.09-1.47.09-2V15l-.05-.09a1.12,1.12,0,0,0-1-.47,1.23,1.23,0,0,0-.95.36L261,17c-.23,1.16-.52,1.33-1,1.48a19.08,19.08,0,0,1-4.19.28h-3c-1.28,0-1.28,0-1.28-1V7.6c0-1.64,0-1.64,1.13-1.64h3.65a24.82,24.82,0,0,1,4.84.29c2.31.58,2.78,2,3.48,4.26l.1.3.07.13a1,1,0,0,0,.82.33,1.32,1.32,0,0,0,1.07-.46l.08-.11-.07-.75A45.33,45.33,0,0,0,266,3.71l-.12-.33-.34.08c-.56.14-3.71.14-6.76.14h-9.54c-2,0-3.63,0-6-.15h-.1l-.09,0a1.19,1.19,0,0,0-.5,1,1,1,0,0,0,.35,1l1,.17c2.6.31,2.75.64,2.75,6V29.89c0,5.5-.31,5.73-2.79,6l-1.81.17-.1.1a1.29,1.29,0,0,0-.28,1.11,1,1,0,0,0,.48.78l.09,0h.09c2.94-.1,4.71-.15,6.9-.15h4.57c4.42,0,8.87,0,13.59.15h.25l.11-.22a45,45,0,0,0,2.32-7.15Zm-42.43-.78V11.61c0-5.41.15-5.75,2.69-6l1.06-.1.18-.07a1,1,0,0,0,.36-1,1.2,1.2,0,0,0-.5-1l-.09,0h-.1c-2.45.11-4.13.15-6,.15-2.2,0-4-.06-6.12-.15h-.1l-.09,0a1.19,1.19,0,0,0-.5,1,1,1,0,0,0,.35,1L220,5.6c2.59.26,2.74.6,2.74,6v5.83c0,1.24,0,1.24-2.14,1.24H206c-2.15,0-2.15,0-2.15-1.24V11.61c0-5.41.15-5.75,2.69-6l1-.1.17-.07a1,1,0,0,0,.36-1,1.19,1.19,0,0,0-.5-1l-.09,0h-.1c-2.31.11-4,.15-5.87.15-1.33,0-2.49,0-3.75-.08l-2.64-.07H195l-.08,0c-.42.2-.49.8-.5,1a1,1,0,0,0,.35,1l.09.06,1.42.11c2.24.17,2.63.63,2.63,6V29.89c0,5.28-.09,5.5-2.62,6l-1,.17-.09.09a1.32,1.32,0,0,0-.28,1.11,1,1,0,0,0,.48.78l.09,0h.1l2-.07c1.2,0,2.44-.08,3.85-.08,1.9,0,3.52,0,6.43.15h.1l.09,0a1.19,1.19,0,0,0,.5-1,1,1,0,0,0-.36-.95l-1.65-.22c-2.43-.26-2.74-.5-2.74-6V22.72c0-1.23,0-1.23,2.15-1.23h14.52c2.14,0,2.14,0,2.14,1.23v7.17c0,5.4,0,5.51-2.76,6l-1.09.17-.09.09a1.3,1.3,0,0,0-.28,1.11A1,1,0,0,0,219,38l.09,0h.1c2.43-.11,4.21-.15,6.12-.15s3.77,0,6.13.15h.1l.09,0a1.19,1.19,0,0,0,.5-1,1,1,0,0,0-.35-1l-1.39-.22c-2.58-.31-2.7-.59-2.7-6ZM185.91,2.82l0-.14-.06-.14c-.2-.38-.76-.41-.93-.41a1.24,1.24,0,0,0-.48.08l-.13,0-.06.12c-.66,1.13-.93,1.22-3.63,1.22h-21c-2.28,0-3.29-.12-3.51-1.25l0-.12-.09-.09a1,1,0,0,0-.7-.21,1.56,1.56,0,0,0-.75.16l-.14.1,0,.16a54.75,54.75,0,0,1-1.91,7.5l-.06.16.08.15a1.41,1.41,0,0,0,1.9.49l.08-.06,0-.1a9,9,0,0,1,2.19-3.37c1.12-1,3.65-1.16,6-1.16h2.79c1.14,0,1.14,0,1.14,1.23v22.7c0,5.5-.32,5.73-2.79,6L162,36l-.17.06a1.09,1.09,0,0,0-.45,1,1.08,1.08,0,0,0,.48.94l.09,0h.1c3.1-.1,5-.15,7-.15s3.62,0,6.64.15h.1l.09,0a1.18,1.18,0,0,0,.49-1,1,1,0,0,0-.35-.95l-1.81-.22c-2.54-.22-2.69-.55-2.69-6V7.13A3.27,3.27,0,0,1,171.68,6a3.21,3.21,0,0,1,1-.08h3.61c2.72,0,4.57.39,5.66,1.19.48.35.89,1.64,1.11,3.44v.11l.08.09a1.17,1.17,0,0,0,.92.36,1.12,1.12,0,0,0,1-.54l0-.1V10.4a30.72,30.72,0,0,1,.76-7.58ZM151.33,108.35c0,15.71,7.55,26.8,17.3,33.5,8.89,6,19.37,8.17,30.33,8.17a71.49,71.49,0,0,0,19.25-2.81,25.91,25.91,0,0,1,4.27-1.22c1.83-2.31,5-10.35,5.85-16.69a2.58,2.58,0,0,0-3.17-.49c-2.8,7.19-9.75,17.43-25.46,17.43-20,0-36.19-14.14-36.19-39.72,0-25.22,15.84-37,34.48-37,17.66,0,23.15,9.5,25,17.79a2.56,2.56,0,0,0,3.28-.24c-1-7.44-1.58-15.11-1.7-17.91a9.33,9.33,0,0,1-3.41-.49,93.74,93.74,0,0,0-21.57-2.93c-12.67,0-24,3.42-32.89,10.36a40.47,40.47,0,0,0-15.35,32.29ZM119.64,87.79V2.92C51.46-3.65,0,2.92,0,2.92V87.8c5.43,57.53,59.31,64.29,59.83,64.2,9.62-1.74,54.79-10.82,59.81-64.21ZM19.21,109a19.67,19.67,0,0,0,3.55,1.57c1.45,3.81,0,7.55-.78,6A37.12,37.12,0,0,1,19.21,109Zm.07-41.71-.09-.09c-.11,0-7.57,4.71-12.43,2.45,3.62-2,16.14-10,19.56-12.21a2.93,2.93,0,0,0,2.78-.59c-1.3.08-5.64.75-3.45-3.13.84,3.48,6.93.28,9.11-.22,6.08-1.4,6,5.1,5.52,7.79-.19,1,1.86,1.71,2.88,1.57-1.75,4.29-4.72.24-5.08,1.88-.14.67-2.13,1.19-2.13,2.84,0,2.25.9,1,1,2.77s-.72.38-.54,2.21c.29,2.91,5.1-.39,7.09.4,1,.39,1.66,1.28,2.63,1.11.28-.24.15-1.34.11-1.73-.11-.92-1.81-1-2.61-2.29-.69-1.1.79-4.41,1.59-5.38,1.15,5.46,6.27,3.75,7,9.49.48,1.62-1.76,3.43.06,6.08-1.35,1.31-3,7.52-.15,10.45C51.66,92,51,95,53.55,96.81a8.59,8.59,0,0,0,.06,6.25C52,103.07,52.35,94.27,43,94c-.21-.06-.26,1,0,1.48,1.13,2,2.64,1.86,2.32,6.51-.11,1.59-1-.28-1.55-.72-1.13-1-2-1.14-2.51-4.41A8.39,8.39,0,0,0,38,105.3s-.84-2.29-1.8-4.65c0-.12,3.87-4.85,4.5-6,7.92-14.26-5.12,4.61-5.15,4.54a17.8,17.8,0,0,0-1.72-3.46,31.14,31.14,0,0,0,3.26-4.67c6.12-12.76-3.65,4.24-4,3.93-.74-.66-1.35-1.49-1.82-1.2-.11,2-.58,1.7-.44,3.7a25.47,25.47,0,0,1-4.75,4.56s-.38-3.54-.28-3.66c.77-.94,3.79-4.17,4.4-5.13,10-15.77-4.7,3.79-4.73,3.63a6.58,6.58,0,0,0-1.77-2.54A68.57,68.57,0,0,0,27.8,88.3c6.11-12.56-4.91,5.57-5,5.5a3.26,3.26,0,0,0-.6-.24c-.31-.1.34-3.62.76-5.73.83-4.19-1.39-.81-2,5.82a5.86,5.86,0,0,0-2.47.7c.34,1.77.76.41,1.5,2.11.89,2-1.24,5.38.61,7.82.72,1,.76.79.62,1.41-1.14-.08-1.83-.11-2.55.88-1.4-6.36-1.35-9.41-1-15.87.15-2.94,1.11-7.37.67-7.46s-7.07,17.05-8.67,20.41c-2.81-1,1.74-15.77,7.53-22.91.54-2.27-3,2.3-5.17,4.12-2,1.67-4.44,3.85-7.14,3.1,3.47-3.67,11.42-10.53,12.31-12.25.74-1.47-5.43,4.58-11.95,2.33,4.22-2.26,14.06-7.28,14.08-10.78ZM31,99.48a15.07,15.07,0,0,0,.37,4.31c.74,2.39.37,1.65-.64.83A8.48,8.48,0,0,1,28.81,102c-.09-.74.5-.78,2.2-2.48Zm15.75-38.6c-.95-1.63,1.14-3.17,1.14-3.17-.07,4.56,5.76,1.43,8.8,2.87a3.25,3.25,0,0,1,1.55,1.66C55,60,48.93,64.58,46.76,60.88ZM12.48,24.46c-5.2,0-5.09-7.8,0-7.8s5.12,7.8,0,7.8Zm0,15.57a3.9,3.9,0,1,1,0-7.79c5.12,0,5.15,7.79,0,7.79Zm9.87-16.82H17.82V18.75h4.53v4.46Zm0,15.54H17.82V34.29h4.53v4.46ZM59,46.43a28.22,28.22,0,0,0-10.32-3c-5.38-.35-16.26,4-24.62,3.38V10.15s9.53,1.26,13.44-.25c13.31-5.13,21.5.6,21.5.6V46.43Zm9.19,6a1.47,1.47,0,0,1-1.05,1.73,2.78,2.78,0,0,0,3.35-1.47C71.24,55.84,68,56,67,56.21c0,0,1.63.47,1.72,1.53.21,2.7,2,2.47,2.32,2.26-.06.32-.6,2-2.55.48-.33.33.54.83.71,2.17.22,1.7.16,3.27,2.12,4.3-1.2,1-2.61-1.53-2.74-1.23s1.67,1.24-.32,5.92c-.9-.52-.4-.42-1.45-1.67-.8-.67-1.12-.82-.45.29A8,8,0,0,1,67.43,76c-1-.42-.72-1.19-1.86-2.24a5.61,5.61,0,0,0,1.53,3.73A9,9,0,0,1,69.89,82c.16,1.66-.36,3.86-.56,6-1-.14-1.81-2.91-2-2.75s.13,2.71,2,4.43c.89,2.61.53,4,.29,4.1s-1.3-2.67-1.84-2.18c2.62,6.67.78,9,.09,11-.54-2.1-.81-3.68-1.49-6.06-1.43,1.12-1.77,2.78-3.52,4.3,0-2.72-1.57-9.28-2.82-10.81-.05-.07-2.25,5.89-3.25,8.53a15.11,15.11,0,0,0,0,11.07c-3.23-4.6-3.58-13.17-.79-14.32.24-.61-.17-2.63-.79-2.38-.18,1-.06,1.83-.88,2.79-2.14-.63-1.16-3.24-1-4.11,2.78-3.33,1-4.1.91-4-.3.76-.56,1.69-1.41,2-1.78-3.06-.64-7.87,2.75-11.46.14-1.35-1.52,1-2.6.91-.28-2.58.66-7.07,5.44-7.23-.91-.27-1.4-.43-1.62-1.2,1.44-.21,6-.56,5.23-4.13a6,6,0,0,1-1.75,1.79c-.8.48-1.66.52-2.11-.18,2.1-.69,1.41-3.25-1.34-2.5A1.94,1.94,0,0,1,54.65,64c.61.61,1.85.16,2.57-.31,3.09-2,5,.9,5.39,1.53.12,0,1.38-2.91-3-3.69A3.85,3.85,0,0,0,55.26,59c-1-3.46-3.95-1.75-3.85-.19-3.15-2.32.06-5.25,1.33-5.7.88.07.69,2.87,2.24,2.4.37-.12-1.21-1.93-.6-2.75,1.42-.81,1.39,1,2.09.35a3.32,3.32,0,0,1,2.89-2c3.22-.46,5.73,3.07,8.82,1.34Zm29-5.4c-7,.48-21.53-3.51-25.22-3.51-7.62,0-11.3,3-11.3,3s0-34.58,0-35.83c0,0,10-4.69,17.29-2,8.92,3.3,19.23,1.84,19.23,1.84V47Zm9.21-14.13c3.86-.56,4.44,4,4.44,4h0a3.92,3.92,0,0,0-4.16-.26,16.86,16.86,0,0,1-8.19,2.81v-7s.82,1.46,7.91.42ZM111,23.34c0-.2-.07-.52-.13-1-.1-.69-2.1-1.09-3.51-.48-2,.86-6.91,3.69-8.72,3.15V18.09c4.45,1.93,6.19.19,7.62.19a4.37,4.37,0,0,1,4.61,4.09c.06.45.1.77.13,1Zm-5,72.08c-1.3.34-4.73,1.71-5.55,3A42.07,42.07,0,0,0,97.73,82c-1.49-3.42.66,8,.81,10.6,0,.12-12.3-15.81-4.87-3.54a20.89,20.89,0,0,0,4.93,5.3,14.67,14.67,0,0,1-.52,5c-.75.61-16.75-21.29-7.91-6.12,1.1,1.88,7.51,7.56,7.46,7.68a10.56,10.56,0,0,1-2.12,3c-.17-.17-3.69-2.77-3.72-2.92-.26-1.7-.27-3.3-2.36-2.1,0,0-7.88-9.17-4.23-2.74a10.69,10.69,0,0,0,3.06,3.62,10.64,10.64,0,0,0-1.61,3.42c-.16.7-6.84-7.4-4.22-2.31.84,1.63,3.89,3.41,3.86,3.53a18.62,18.62,0,0,1-1,2.75c-.42.85-6.28,5.52-6.28,5.52s1.15-3.7,3.64-5.52a17.11,17.11,0,0,1,2.37-1.4,2.13,2.13,0,0,0-1.23-1.68,12.42,12.42,0,0,0-3.63.2c.26-1.38-1-4.37-.94-7.67a6.18,6.18,0,0,0-3.32,2.64c-.32,5.45-1.5,3.82-2.61,7.74-1.21-1.64.08-4-1.1-5.55-1.62-2.11-1.87-3.54-2.11-6.15.38-.21,2-2,.53-5.88-.25-6,2.45-8.35-2.37-12.58.4-.13.69-3.16.69-3.16,3.56,1.9,2.85-2.2,4.24-3,2.2-1.28,1.8-2.6.81-4.25,6.29,1.79-.28,6.09,2.57,6.18,2.06.07,3.44-.46,4.34-1.84s-.16-2.37,2.5-4.75c.27-.24,1-1.83-1.14-2.26-.46-.1,0-1.91,0-1.91-1.7,1.43-2.23,3.45-5,2.18a2.86,2.86,0,0,0-2.87.26,1.26,1.26,0,0,1,.86-1.52c3-1,3.72-2.19,3.55-2.84-.4-1.55-.52,0-.43-1.64,0-.64.79-1.52,1.41-2.28,2-2.44,3.45-1.52,4-1.31a6.66,6.66,0,0,1,2.48-1.27c1.87-.74,5.92.48,8.19,1.53a6,6,0,0,0,3.69.52,1.2,1.2,0,0,1-.93,1.15c-.71.22-1.55,0-1.5.52,0,.3,1,.35,1.61.52,3.36.91,7.71,3.92,4.85,3.29-.34-.08,2.06,1.79,3.87,4.22l6.4,6.22c-.29.35-2.54,0-9.65-6.63-1,.9,8.65,8.18,12.64,15.91-.34.24-5.32-1.57-7.11-3.42-2.76-2.85-5.93-10.12-7.24-9.06-.15.07,5.25,8.49,7.93,13.48a23,23,0,0,1,2.55,8.88c.42,13.45-1.6,12.41-1.6,12.42-3.15-10.61-4.63-22.92-9.22-28.6-1.84-2.27,4.91,9.94,5.2,20.94Zm-13.93,12.1c-1.43,1.24-2.35,1.69-2,1.07a18.54,18.54,0,0,0,.79-1.8c.07-.17,1.25.73,1.25.73Zm-.94-1.67a18.55,18.55,0,0,0,.46-2.91,4.61,4.61,0,0,0,.1-.74c0-.12,3.08,2.56,3.25,2.67a16.19,16.19,0,0,1-2.16,2c-.53-.45-1.68-.91-1.65-1Zm10,3.42c-4.27,4.22-10.68,2.69-15.72,5-4.58,1.66-7.89,5.89-12.68,7-1.41.46-1.65,1.16-.75,1.14.53,0,3.45,3,8.13.68,1.56-.78,6.41-3.49,7.23-3.64-2.62,2.5-3.94,4.73-6.29,6a22.55,22.55,0,0,1-13.12,1.77c-2.59-.5-4.58,1.88-3.92,1.83a3.54,3.54,0,0,1,3.87,1c1.69,1.33,4.15,3,6.26.51.7-.81,4.05-2.55,7.2.64-3.35-.17-3,5.85-9.36,5.14-2.35,0-7.54-5.38-9-3.72-2.62,2.94,5.64,5.74,2.06,9.45-3.23,3.34-7.09-2.67-7.09-2.67,2,.85,5.73,1.39,4.1-1.89-.65-1.3-1.89-2.47-1.89-4.87-.28-1.2-7.67,9.52-12.56,4.67-1.92-1.9-5.82-6.07-9.34-7.66,9.33-.79,10.76,2.94,11.2,3.54,3,4,5.75-.06,6.38-.78,1-1.1,2.35-2.63,1.86-2.86-3.62-1.72-7.75-2.08-10.84-.66,6.61-9.09,11.76-.58,11.76-.58.72.45-.19-5.39-6.73-5.72-4.09-.2-7.68,3.48-10.5,3.48-2.29,0-9.24-4.7-10.87-8.86,4,3,9.2,4.75,12.41,2.84,6-3.6,13.65,1.83,14,1.18-1.69-1.32-5.53-6.47-15.9-3.54-4,2.31-5.73-1.71-8.2-1.78,4.21-3.73,7.12-1.83,8.59-1.72.35,0-1.75-1.73-3.23-1.88A69.6,69.6,0,0,1,19.45,108c-.06,0,1-2.31,5.88-.64,0,0-4.42-2.71-4.38-6.18.14-2.15,1.18-4.44-.46-6.23,6.65-.27,1.93,9,6.6,11.4a3.2,3.2,0,0,1,.7-4,7.43,7.43,0,0,0,5,4.58,3.61,3.61,0,0,0,.88-1c-1.76-2.91-2-6.29-1.52-10.17l.07,0c.38,0,1,1.33,1.47,2.3,1,2.08.95,5.09,2.88,7.56,1.07,1.36,1.74,2.73,2.7,3.39a6.76,6.76,0,0,0,0-3.07c-.22-1.58-1.21-4.34,1.49-6.78,1.26,3.64,3,2.59,3.2,4.33a9,9,0,0,1,0,3.93c.13,2.59,2.48,3.31,4.56,5,4.7,2.55,7.82,3.94,9.87,7.22,1-5.53-13.93-6.64-12-17.31-.2-4.26.53-4.62-2.49-7.22,6,.18,9.25,10,9.58,11.8.6,3.3,2.6,3.47,5.35,7.77.39.14-4.92-11.46,1.41-21.39,0,0,2.14,5.16,1.13,8.55-.61,2,0,4.29.07,5.56s-.26-4.7,4.26-7.81c.28,2.27,2.46,5.79.4,9.57-2.52,4.59-2.7,2.94-2.74,8.59.23-.1.88-3.9,2.6-6.05,3.65-4.55,1-7,4.6-10.95.28,2,.78,1.19,1,2.95.47,3.94-3.65,8.26-2.73,8.13s2.73-1.06,3.29-4.06c0,0,1.52,2.74.13,3.65-2.51,1.65-3,3.42-2.64,5.42,2-2.41,4.76-5.08,4.29-8.5.23-2.07,2.47-2.91,2.91-7.71a3.3,3.3,0,0,1,1.67-2.19c-.35,2.7,1.75,5.49-.64,8.79.55.29,2.56-2.58,5.51-1.53-5.91,1.07-4.19,7.47-8.72,10.44-1.37.9-1.13,1.9-1.54,2,4-.23,7.16-5,7.7-5.41,4.07-2.75,5-3.17,6.59-7.63.64-1.7.17-2.45,2.43-4.74,1,2.26-.45,6.93-.79,7.94-.73,2.15-3.29,4-2.75,4,10.91-4.82,10.77-8,13.38-11.49.78-1.32,4.66-3.6,6.11-3.82-.35.72-1.86,1.93-1.93,3.24a11,11,0,0,1-2.13,5.81c.68.84,2-1.59,3.31-.37-1.76.58-2.54,2.55-3.91,3.7Zm1.82-.64a23.08,23.08,0,0,1-3.66,8.86c-1.33,1.94-1.88-1.84-.73-5.49a10.84,10.84,0,0,0,4.39-3.37ZM94.64,28a3.92,3.92,0,0,0-1.12-.19c-.34,0-.52.47-.1.58a6.26,6.26,0,0,0,1.23.19c.33,0,.22-.48,0-.58ZM93.4,29.55a6.68,6.68,0,0,0,1.22.19c.31,0,.21-.48,0-.57A4.32,4.32,0,0,0,93.5,29c-.35,0-.52.46-.1.58Zm0,7a11,11,0,0,0-1.48-1.23,11,11,0,0,1-1.46,1A9.93,9.93,0,0,0,89,34.88c-.4.27-1.55,1.32-2,1.6.7,0,1.74.24,1.78.89s0,3.82,0,4.42a6.08,6.08,0,0,0,1.55,0c0-.46,0-4.25,0-4.71a5.29,5.29,0,0,0,.58-.34A12.1,12.1,0,0,0,92.35,38c.29-.22,1.05-.88,1.38-1.2s0-.57-.33-.29ZM91.48,31a6.32,6.32,0,0,0,1-2.77A3.64,3.64,0,0,0,90.1,25a4.67,4.67,0,0,0-3.34,4.22c0,1.11.91,3.39,2.85,3.4A15.14,15.14,0,0,1,91.48,31Zm-1.23.43a5.81,5.81,0,0,1-2.07-2.05,2.28,2.28,0,0,1,.76-3c.9.34,2,1.23,2.06,2a4.36,4.36,0,0,1-.75,3Zm0-8.44,1.45-1.6a8.45,8.45,0,0,1-1-1,31.31,31.31,0,0,1,.14-3.7,3.08,3.08,0,0,0-2.37-1c-.89.13-1.8,1.27-2.09,1.66a.68.68,0,0,0,0,.82,6.11,6.11,0,0,0,.65.43.67.67,0,0,0-.12-.06,3.81,3.81,0,0,0-1,2.28A4.06,4.06,0,0,0,87,23.08a5.49,5.49,0,0,1,2.4-1.28A1.82,1.82,0,0,0,90.2,23Zm-.88-3.68a12.43,12.43,0,0,1-2.65-1.35c-.14-.11-.15-.17,0-.44.33-.49.7-.91,1-.89s1.67.77,1.62,1.18a11.59,11.59,0,0,1,.06,1.5Zm0,2.16a2.93,2.93,0,0,0-1.18.35,2.39,2.39,0,0,1-.66-2.93l-.32-.18a12.4,12.4,0,0,0,2.14.93c0,.55,0,1,0,1.22a5.19,5.19,0,0,0,0,.61Zm-4.2-6.56a17.53,17.53,0,0,1-2.71-.09,2.4,2.4,0,0,1,.19-1.93c.19-.41-.19-.59-.34-.17a6.11,6.11,0,0,1-2.5,2.52c-.62.24.75.81.66.79A18.74,18.74,0,0,0,81,20.77c.2.55.83,1.45,1.26,1.17.28-.17.88-1.37,1.07-1.52s0-.73-.27-.45-.57-.16-.66-.44a20.44,20.44,0,0,1-.24-3.72s2.73-.33,3-.33.2-.59,0-.59Zm-7.49,6.23,1.13-1.46A2.43,2.43,0,0,1,77,18.71l0-3.63-1.15-1.15-.39,0-1.81,1.59c-.19.27.3.27.54-.06l1.31.75.06,3.52a3.24,3.24,0,0,0,1,1.35Zm-1-8.07.64-.55v-.88l-.86-.83-.85.72,0,1,.53.52Zm-2.89-1.12a15.4,15.4,0,0,0-2.66.17c-.58.08-.58.37-.1.42s.57.15.82.8-.92,3.59-1.21,4.29A19.8,19.8,0,0,1,69.06,14c0-.26.54-.52.77-.58.45-.14.44-.46.1-.52-1-.14-4.33-.44-4.93-.51-.43,0-.62.46-.1.46s1.1-.14,1.69.72a41.5,41.5,0,0,1,3.33,7.51c.25-.4,2.39-6.59,2.51-7.25a2,2,0,0,1,1.23-1.45c.65-.17.59-.45.11-.49Zm-10.13,15c0,2.57,1,2.79,2.23,3.46a6.53,6.53,0,0,0,4.36.14c.53-.16.82-.19.8.27,0,.28.4.22.4,0s0-2.37,0-2.61-.39-.23-.39,0a1.3,1.3,0,0,1-.35,1c-1,1.42-3.37,1.37-4.66-.37-.44-.59-.84-1.38-.33-1.54a16,16,0,0,1,3.08.26,14,14,0,0,1,2.2.28c.16.12.4.27.4,0s0-1.29,0-1.6-.23-.15-.4-.05a18.3,18.3,0,0,1-2.29.48,11.09,11.09,0,0,1-3,.1c-.5-.17-.33-1.18.12-1.76a3.11,3.11,0,0,1,4.88-.17,1.35,1.35,0,0,1,.33,1c0,.23.38.26.38,0s0-2.85,0-3-.38-.28-.38,0-.42.3-.83.19a8,8,0,0,0-4.27.69c-.94.54-2.39,1.78-2.37,3.34Zm.46,4.57c0,.73.29,7,.22,7.9,0,.5.62,1,1.23,1.44A10,10,0,0,1,67,39.11c.31-.26.09-.43-.15-.34-.48.23-1,0-1-.5s-.05-6,0-6.76c-.38,0-1.42,0-1.77-.05Zm5.19,5.14a3.8,3.8,0,0,0-1.15,2.17A2.9,2.9,0,0,0,69,40.71,9.6,9.6,0,0,1,71.49,39c.15.59.57.68,1.07,1.06.29-.33,1.37-1.65,1.61-1.89s.1-.46-.24-.22-.57.08-1.14-.53a29.29,29.29,0,0,1,.09-3.18c-.51-.56-1-1.32-1.6-1.27-.89.08-2,1.63-2.31,2a2.05,2.05,0,0,0,.18,1.54c.06.06.09.06.14.11Zm.62.45c.5.28.75.11,1.52,0,0,.48,0,.92,0,1.15a8.2,8.2,0,0,1-1.24.69c-.38-.31-.94-.58-.26-1.87Zm-.4-2.23c.32-.49.53-.59.78-.59s1.14.63,1.09,1.05a10.41,10.41,0,0,1,.06,1.42,2,2,0,0,1-1.91-.48,2.21,2.21,0,0,1,0-1.4Zm5.45-1c-.58.29.77.82.68.8,0,1.52-.33,4,.2,4.8a1.47,1.47,0,0,0,1.55.62c.47-.19,1.08-1.14,1.26-1.29.35-.27,0-.55-.25-.28a.94.94,0,0,1-1.18-.19,20.75,20.75,0,0,1,0-3.68s.94,0,1.2,0,.21-.61,0-.61c-.35,0-1.12-.07-1.16-.21A3.65,3.65,0,0,1,77.46,32c.21-.41-.18-.59-.33-.19a5.46,5.46,0,0,1-2.17,2Zm.28-6.92a5,5,0,0,1-1.51,3.64c1.41-.37,1.59-1.21,2.36-2.2a6.5,6.5,0,0,0,1.8,1.72,20.88,20.88,0,0,0,1.82-1.83,5.07,5.07,0,0,1-2.84-2,1.3,1.3,0,0,1,.07-1.5c.28.37,2.23,1.26,3.11-.24A4.4,4.4,0,0,1,77.93,23a16,16,0,0,1-1.59,1.44,2.11,2.11,0,0,0-1.55-1.18,14.73,14.73,0,0,1-2.4,1.7c-.21.11-.13.57.17.45s.74-.47,1.28-.73a2.3,2.3,0,0,1,1.4,2.18Zm6.75.23a2.49,2.49,0,0,1,1.07-1.49c.39.44.79.94,1.39.94a2,2,0,0,0,1.39-.51c-.49-.39-1.59-1.55-1.81-1.76-.56.31-3,1.56-3.18,3-.29,2.14.38,2.57,1.32,3.74a1.87,1.87,0,0,0,1.82.6c.43-.3,2-1.81,2.19-2s-.07-.36-.27-.17-.12.26-.38.3a3.7,3.7,0,0,1-2-.11A2.58,2.58,0,0,1,82,27.13ZM80.81,34c-.36.37-1,.78-1.57,1.43a1.18,1.18,0,0,1,1.12.61,15.26,15.26,0,0,1,.07,3.15c0,.72.48.88,1,1.48a13.54,13.54,0,0,0,2.72-1.19c0,.6.71,1.27,1.15,1.4.3-.33.63-.51,1.06-.92-.42-.28-.37-.32-.53-.89a30.26,30.26,0,0,1,.05-3.51A6.92,6.92,0,0,0,84.46,34c-.4.37-.95.86-1.58,1.53.47-.06,1.41.13,1.45.53a14.84,14.84,0,0,1,0,2.51c-.11.88-2.47.47-2.51-.12s.13-2.36.14-3.19A4.19,4.19,0,0,0,80.81,34ZM65.09,55.26v-.09c-1.37-.19-2.45-1.15-3.7-1.62a3.53,3.53,0,0,0-3.57.89c0,.47.49.71,1.9-.17a1.56,1.56,0,0,0,.15,2.3,4.91,4.91,0,0,1-1.53-.46c-.08.46.55.63.85.83,2.32,1,3.85-1.28,5.9-1.68Zm-3.92,1.18s.62-.66.62-1.14a1.69,1.69,0,0,0-.62-1.13,13.72,13.72,0,0,1,2.22,1.15l-2.22,1.12ZM48.43,38.82l.67-.74c-.75-.14-.4-.13-.8-.5l0-3-1-1.43-.37,0L45.4,34.57c-.4.36,0,.53.43.14l1,.52,0,3.24c.09.4.44.49.93,1l.64-.64Zm.33-10.63a3,3,0,0,0,2.64,2,13,13,0,0,1,1.05-1.62c.4-.54,0-.87-.3-.25s-1.39,0-1.82-.45-.93-1.93-.47-2.42,1.12-.27,2-.3c.57,0,.69-.54.78-.81a11.18,11.18,0,0,1-1.21-.68A20.9,20.9,0,0,0,49.64,25a3.08,3.08,0,0,0-.88,3.15ZM51,36.26a2.86,2.86,0,0,0-1,2,1.93,1.93,0,0,0,1.05,1.85,6.54,6.54,0,0,1,2.4-1.27A8,8,0,0,0,54.88,40c.27-.32,1.11-1,1.34-1.22s0-.54-.23-.24-.77.07-.94-.2a38,38,0,0,1-.17-3.88c-.49-.54-1.34-1.77-1.9-1.71a4.75,4.75,0,0,0-2.33,1.65,3,3,0,0,0,.22,1.82l.1.08Zm2.17.29a2.55,2.55,0,0,1-1.84-.78,1.51,1.51,0,0,1-.1-1.13c.3-.48.3-.63.56-.62s1.46.76,1.39,1.16a7,7,0,0,1,0,1.37Zm-1.65.11a2,2,0,0,0,1.62.27c0,.39,0,.75,0,.91a1.42,1.42,0,0,0,.12.46,10.8,10.8,0,0,0-1.22.39c-.33-.29-1.55-1.12-.47-2Zm4.71-6.29.68-.73c-.77-.15-.77-.1-1.17-.46l0-3.54-.67-1-.36.05-1.54,1.42c-.41.37,0,.55.42.14l.8.48,0,3.33c.09.4.44.54.93,1l.86-.74ZM55,18c-.32,0-.8.56,1,.75.29,0,.67-.65-1-.75Zm0-1.11c-.31,0-.79.83,1.06.76.29,0,.5-.67-1.06-.76Zm.35,5.56-.79-.82-.79.71v1l.49.5h.49l.59-.53v-.85Zm-1.61-7.57a4,4,0,0,0-2.42-1.32,4.44,4.44,0,0,0-3.25,1.87c-.64,1,.14,1.84,1,2.47-.53.46-1.27,1.16-2,1.79a5.25,5.25,0,0,0,2.61,1,5.57,5.57,0,0,0,3.16-1.26c1.31-1.05.86-2.15-.48-2.94a1.19,1.19,0,0,0-.38-.12,18.72,18.72,0,0,0,1.74-1.48Zm-3.33,2.73c.44.2.89.4,1.38.68.71.4.34,1.16-.42,1.52s-2.16-.65-2.37-1.06c.28-.25.81-.67,1.41-1.14Zm1.4-1.86L51,16.4a2.28,2.28,0,0,1-.64,0,2,2,0,0,1-1.29-1c-.32-.42.5-.77.9-.73a4.73,4.73,0,0,1,1.84,1Zm-5.45,2.87a2.59,2.59,0,0,1-3-1.48c.78-.8,2.11-2.11,2.92-2.78-.53-.49-.75-1.31-1.71-1.38a3.77,3.77,0,0,0-3.11,3.42c-.32,2.36,1.9,3.64,3.65,3.71.59,0,1.32-.76,1.68-.93.78-.39.49-.76-.39-.56Zm-3.19-1.95c-.48-1.57-.3-2.11.68-2.89A2.68,2.68,0,0,0,45,14.9c-.55.54-1.41,1.51-1.77,1.77ZM41,15.27c.33-.33,0-.56-.31-.28-.22-.26-.78-.84-1.08-1.19a13.57,13.57,0,0,1-1.46.93c-.32-.37-.71-.37-1.35-.86a10.4,10.4,0,0,0-1.55,1.35c.74.22,1.3.26,1.34.89s0,3.72,0,4.3a5.72,5.72,0,0,0,1.45,0C38,20,38,16,38,15.53a2.85,2.85,0,0,0,.54-.34,13.44,13.44,0,0,0,1.07,1.08,13.66,13.66,0,0,0,1.34-1Zm-6.12,8.27a3.65,3.65,0,0,0-2.42,1.91,2.94,2.94,0,0,0,.22,1.69,2.82,2.82,0,0,0,.29.24c-.55.52-1.07.95-1.06,1.72a2.14,2.14,0,0,0,1.37,1.73,2.73,2.73,0,0,1,1.71-1.15A1.66,1.66,0,0,0,35.52,31c.27-.3,1.38-1.26,1.6-1.48s.05-.48-.22-.22-.56-.07-.67-.26a34.22,34.22,0,0,1,.14-3.87c-.5-.54-1-1.68-1.54-1.62ZM34.9,27c-.94.61-1.24.59-1.89-.14a1.4,1.4,0,0,1-.14-1.34c.29-.45.8-.92,1.05-.91a2.06,2.06,0,0,1,.91,1.33A8.71,8.71,0,0,1,34.9,27Zm0,1.7c0,.18,0,.34,0,.5a2.87,2.87,0,0,0-.64.22c-.34-.29-2-.83-.91-1.69.66.39.91.09,1.55-.31v1.28Zm-.74-7.17a1.25,1.25,0,0,1-.34-.68c0-.19,0-2.23,0-2.49s-.49-.21-.49,0a2.76,2.76,0,0,1-.29,1.48c-.89,1.39-2.6,2-3.8.26a4.16,4.16,0,0,1-.55-2,4.24,4.24,0,0,1,.57-2,2.18,2.18,0,0,1,3.81.3,10.4,10.4,0,0,1,.24,1.55c0,.24.48.21.49,0s0-3.32,0-3.53-.41-.27-.42,0c0,.48-.3.52-.68.4-.77-.23-2.48-.59-3.47,0A4.13,4.13,0,0,0,27.09,18c0,2.49,1,2.7,2.07,3.37s2.44.22,3.73-.16c.52-.14.58.19.83.55.41.56.75.2.45-.25ZM27.26,25c-.87,1.32-1.34,3.4.16,4.62a2.77,2.77,0,0,0,2.72.79A6.7,6.7,0,0,1,31.06,29a3,3,0,0,1-2.48-.57A2.79,2.79,0,0,1,28,24.81c.8-1.2,2,.51,2.15.74a9.1,9.1,0,0,1,1.17-1.12c-.44-.59-.8-1.13-1.1-1.49A6.78,6.78,0,0,0,27.26,25Zm.61,11.42c-.32,2.37,1.92,3.79,3,4.25a10.87,10.87,0,0,1,1.36-2.06c.41-.48,0-.6-.41-.24-.5.55-2,0-2.37-.68.72-.54,2.58-2.1,3.39-2.77a6.2,6.2,0,0,1-1.49-2.46c-.72.48-3.11,1.49-3.48,4Zm2.31-2.58a5.66,5.66,0,0,0,1.22,1.79,21.65,21.65,0,0,1-2.22,1.68c-.67-.84-1-2.22,1-3.47Zm4.9-.86a18.58,18.58,0,0,1-1.51,1.38c.32.36.86.82.9,1.44s0,3.56.06,4.29c.5,0,.41.05,1.26,0-.08-.5,0-4.3,0-4.84a7.52,7.52,0,0,1,.73-.63c.27.24.89.37.89.78a18.58,18.58,0,0,1,0,2.87,2.86,2.86,0,0,0,.34,2.22c.34-.37,1.58-1.24,1.85-1.46s.12-.4-.22-.31-.43.15-.43-.08c0-.44-.18-2.41-.2-3.67a1.83,1.83,0,0,0-1-1.82A20.51,20.51,0,0,1,36,34.53c-.36-.27-.54-.88-1-1.52ZM40.18,30a10.8,10.8,0,0,0,.91-1.05c.33-.27.06-.55-.22-.29s-.8-.29-.82-.32a11.35,11.35,0,0,1-.34-3.18s1.84-.23,2.08-.23.21-.57,0-.58-1.7.2-1.75.06a3.37,3.37,0,0,1,.19-2.23c.22-.38,0-.76-.15-.36A6.78,6.78,0,0,1,38,24.26c-.61.25-.54.39-.15.49s.64.43.58.42c-.06,1.49-.21,3.32.25,4.1.3.49,1.1,1,1.47.68Zm6.32.66a2.41,2.41,0,0,1-1.26,1.16,14.61,14.61,0,0,0,1.29,1.05,16.7,16.7,0,0,1,1.24-1.3,1.71,1.71,0,0,1-1.27-.91ZM43.6,29c.59,0,1.53.3,2.58.22,1.24-.09,2.22-2,1.68-3.52s-2.09-1.17-3.16-1.52-1.39-.88-.31-1.59c1.26-.81,2.82.5,3,.77.23.42.42.41.42-.13,0-1.18-.07-.51-.19-1.62,0-.4-.33-.43-.35,0s-.5.27-.86.27a4.2,4.2,0,0,0-2.32.33c-.58.34-1.9,1.37-1.16,2.62.44.72,3,1.31,3.6,1.73a1.27,1.27,0,0,1,.18,2c-.76.6-2.81.1-3.13-.26a2.47,2.47,0,0,1-.66-1.38c-.09-.54-.55-.49-.55,0a23.39,23.39,0,0,0,.21,2.61c.08.41.5.28.54,0s.24-.38.51-.4Zm-2.66,5.32c-.48.36.57.87.48.84,0,1.49-.18,3,.33,3.78.32.47,1.32.81,1.49.36a7.05,7.05,0,0,1,1.1-1.54c.31-.27,0-.53-.23-.25-.55.58-.85.31-1.26-.08A5.85,5.85,0,0,1,42.72,35s1-.15,1.25-.15.17-.58,0-.58-1.2,0-1.25-.13a12.31,12.31,0,0,1,.23-2.32c0-.45-.2-.59-.32-.18a8.8,8.8,0,0,1-1.67,2.61Z" style="fill:#7d0013"/></svg>