<?xml version="1.0" standalone="no"?>
<!DOCTYPE svg PUBLIC "-//W3C//DTD SVG 1.1//EN" "http://www.w3.org/Graphics/SVG/1.1/DTD/svg11.dtd" >
<svg xmlns="http://www.w3.org/2000/svg" xmlns:xlink="http://www.w3.org/1999/xlink" version="1.1">
<metadata>
Created by FontForge 20170731 at Thu Aug 27 15:18:55 2015
 By Aleksey,,,
Copyright (c) 2013 Schick Toikka. All rights reserved. Noe Text is a trademark of Schick Toikka. Unauthorised copying or modification of any of its data is illegal.
</metadata>
<defs>
<font id="NoeText-Semibold" horiz-adv-x="600" >
  <font-face 
    font-family="Noe Text Semibold"
    font-weight="600"
    font-stretch="normal"
    units-per-em="1000"
    panose-1="2 10 7 0 9 4 0 0 0 2"
    ascent="750"
    descent="-250"
    x-height="492"
    cap-height="703"
    bbox="-179 -288 1174 1097"
    underline-thickness="50"
    underline-position="-200"
    unicode-range="U+0020-FB02"
  />
<missing-glyph horiz-adv-x="689" 
d="M102 -250v1000h486v-1000h-486zM370 251l168 -401v804zM319 251l-168 403v-804zM345 192l-166 -395h331zM180 703l165 -392l163 392h-328z" />
    <glyph glyph-name="fi" unicode="fi" horiz-adv-x="707" 
d="M104 80v357h-67v55h67v30q1 124 69.5 176t195.5 52q95 0 168 -20l-41 -159h-14l-81 123q-8 13 -26 13q-129 0 -129 -167q0 -7 0.5 -26t0.5 -22h121v-55h-121v-343q0 -16 14 -24l99 -57v-13h-323v13l58 46q9 8 9 21zM474 80v315q0 13 -7 21l-59 63v13h210v-412
q0 -13 9 -21l58 -46v-13h-277v13l57 46q9 8 9 21z" />
    <glyph glyph-name="fl" unicode="fl" horiz-adv-x="691" 
d="M37 492h67v29q0 115 61 172t166 57q69 0 123 -36l148 31v-665q0 -12 8 -20l59 -47v-13h-277v13l58 47q8 8 8 20v565q-37 52 -105 52q-107 0 -107 -152v-20v-23l1 -10h121v-55h-121v-343q0 -16 14 -24l94 -58v-12h-318v12l58 47q9 8 9 21v357h-67v55z" />
    <glyph glyph-name="f_b" unicode="fb" horiz-adv-x="972" 
d="M578 39l-120 -51h-13v657q-37 52 -93 52q-106 0 -106 -152v-12v-14t0.5 -13t0.5 -10v-4h121v-55h-121v-343q0 -16 14 -24l99 -58v-12h-323v12l58 47q9 8 9 21v357h-67v55h67v29q0 114 60 171.5t159 57.5q68 0 118 -36l147 36v-322q60 76 148 76q89 0 144 -64.5t55 -180.5
q0 -127 -65 -199t-159 -72q-84 0 -133 51zM675 425q-53 0 -87 -53v-282q22 -43 77 -43q50 0 83.5 48t33.5 150q0 92 -29 136t-78 44z" />
    <glyph glyph-name="f_k" unicode="fk" horiz-adv-x="950" 
d="M458 80v565q-37 52 -106 52q-106 0 -106 -152v-12v-14t0.5 -13t0.5 -10v-4h121v-55h-121v-343q0 -16 14 -24l94 -58v-12h-318v12l58 47q9 8 9 21v357h-67v55h67v29q0 114 60.5 171.5t164.5 57.5q71 0 125 -36l148 36v-481l157 122q12 10 1 21l-59 67v13h242v-13
l-197 -150q-8 -7 -2 -14l143 -241q11 -17 24 -28l42 -33v-13h-187l-143 239q-12 17 -21 17v-176q0 -13 9 -21l58 -46v-13h-277v13l57 46q9 8 9 21z" />
    <glyph glyph-name="f_h" unicode="fh" horiz-adv-x="1004" 
d="M602 750v-338q59 92 160 92q167 0 167 -216q0 -71 -3 -209q0 -12 9 -20l58 -46v-13h-277v13l57 46q10 8 10 21q0 8 1 91.5t1 117.5q0 134 -84 134q-61 0 -99 -71v-272q0 -13 9 -21l58 -46v-13h-277v13l57 46q9 8 9 21v565q-37 52 -106 52q-106 0 -106 -152v-12v-14
t0.5 -13t0.5 -10v-4h121v-55h-121v-343q0 -16 14 -24l94 -58v-12h-318v12l58 47q9 8 9 21v357h-67v55h67v29q0 114 60.5 171.5t164.5 57.5q71 0 125 -36z" />
    <glyph glyph-name="f_j" unicode="fj" horiz-adv-x="679" 
d="M37 0v13l58 46q9 8 9 21v357h-67v55h67v30q0 124 68.5 176t196.5 52q95 0 168 -20l-41 -159h-14l-81 123q-8 13 -26 13q-129 0 -129 -167q0 -7 0.5 -26.5t0.5 -21.5h121v-55h-121v-343q0 -16 14 -24l99 -57v-13h-323zM618 41q0 -138 -69.5 -209.5t-198.5 -76.5l-3 14
q68 26 97.5 84t29.5 164v378q0 13 -7 21l-59 63v13h210v-451z" />
    <glyph glyph-name=".notdef" horiz-adv-x="689" 
d="M102 -250v1000h486v-1000h-486zM370 251l168 -401v804zM319 251l-168 403v-804zM345 192l-166 -395h331zM180 703l165 -392l163 392h-328z" />
    <glyph glyph-name=".null" horiz-adv-x="0" 
 />
    <glyph glyph-name="nonmarkingreturn" horiz-adv-x="333" 
 />
    <glyph glyph-name="space" unicode=" " horiz-adv-x="225" 
 />
    <glyph glyph-name="exclam" unicode="!" horiz-adv-x="296" 
d="M155 224h-14l-91 479h196zM60 76q0 37 24.5 62.5t61.5 25.5t61.5 -25.5t24.5 -62.5t-24.5 -62t-61.5 -25t-61.5 25t-24.5 62z" />
    <glyph glyph-name="quotedbl" unicode="&#x22;" horiz-adv-x="428" 
d="M115 751q33 0 51.5 -20.5t18.5 -51.5q0 -23 -7 -42l-56 -186h-14l-56 186q-7 26 -7 42q0 31 18.5 51.5t51.5 20.5zM314 751q32 0 51 -20.5t19 -51.5q0 -16 -7 -42l-56 -186h-15l-55 186q-8 22 -8 42q0 31 18.5 51.5t52.5 20.5z" />
    <glyph glyph-name="numbersign" unicode="#" 
d="M550 172h-121v-172h-62v172h-134v-172h-62v172h-121v59h121v193h-121v59h121v170h62v-170h134v170h62v-170h121v-59h-121v-193h121v-59zM233 424v-193h134v193h-134z" />
    <glyph glyph-name="dollar" unicode="$" horiz-adv-x="586" 
d="M279 -15q-117 0 -219 30v219h15l111 -182q8 -12 21 -16q22 -7 72 -7v215l-60 23q-164 61 -164 200q0 84 59 137t165 61v76h44v-74q76 -2 169 -20v-201h-14l-107 159q-9 13 -26 16q-6 1 -22 1v-217l49 -16q81 -28 125.5 -69t44.5 -119q0 -86 -58 -142.5t-161 -69.5v-75
h-44v71zM408 134q0 36 -21 58t-64 37v-193q85 18 85 98zM186 525q0 -71 93 -105v201q-45 -7 -69 -32.5t-24 -63.5z" />
    <glyph glyph-name="percent" unicode="%" horiz-adv-x="837" 
d="M612 329q-53 0 -53 -150t53 -150t53 149q0 151 -53 151zM612 364q74 0 118 -47.5t44 -138.5t-43 -138t-119 -47q-74 0 -117.5 47t-43.5 138q0 90 43.5 138t117.5 48zM208 674q-53 0 -53 -150q0 -149 53 -149t53 149q0 150 -53 150zM208 710q74 0 118 -47.5t44 -138.5
t-43 -138t-119 -47q-74 0 -117.5 47t-43.5 138q0 90 43.5 138t117.5 48zM658 688l-444 -702l-42 28l444 702z" />
    <glyph glyph-name="ampersand" unicode="&#x26;" horiz-adv-x="768" 
d="M238 -11q-88 0 -146 48t-58 122q0 65 42 111.5t116 71.5q-77 86 -77 176q0 86 56 140t148 54q80 0 130.5 -41t50.5 -105q0 -58 -43 -103t-114 -74l172 -185q23 30 55 91q12 20 0 32l-78 82v14h241v-14l-70 -64q-25 -24 -37 -45q-43 -75 -80 -128q62 -66 107 -66
q32 0 54 22.5t27 62.5h13q5 -19 5 -46q0 -72 -41.5 -114t-109.5 -42q-42 0 -78.5 20.5t-79.5 64.5q-88 -85 -205 -85zM410 108l-194 209q-62 -44 -62 -126q0 -58 40 -96t96 -38q65 0 120 51zM318 414q83 56 83 148q0 51 -24 78t-59 27q-38 0 -61 -26.5t-23 -67.5
q0 -72 84 -159z" />
    <glyph glyph-name="quotesingle" unicode="'" horiz-adv-x="230" 
d="M115 751q33 0 51.5 -20.5t18.5 -51.5q0 -23 -7 -42l-56 -186h-14l-56 186q-7 26 -7 42q0 31 18.5 51.5t51.5 20.5z" />
    <glyph glyph-name="parenleft" unicode="(" horiz-adv-x="381" 
d="M193 307q0 -301 157 -442l-7 -14q-126 45 -194.5 167t-68.5 289q0 166 68.5 288.5t194.5 167.5l7 -14q-157 -141 -157 -442z" />
    <glyph glyph-name="parenright" unicode=")" horiz-adv-x="381" 
d="M188 307q0 301 -157 442l7 14q126 -45 194.5 -167t68.5 -289q0 -166 -68.5 -288.5t-194.5 -167.5l-7 14q157 141 157 442z" />
    <glyph glyph-name="asterisk" unicode="*" horiz-adv-x="457" 
d="M392 387l-104 -75l-61 174l-61 -174l-104 75l146 112l-182 4l40 122l150 -104l-52 176h128l-50 -177l148 105l40 -123l-181 -3z" />
    <glyph glyph-name="plus" unicode="+" 
d="M266 22v187h-186v66h186v187h68v-187h186v-66h-186v-187h-68z" />
    <glyph glyph-name="comma" unicode="," horiz-adv-x="286" 
d="M233 53q0 -81 -50.5 -143.5t-131.5 -78.5l-5 14q99 59 99 136q0 17 -16 21q-71 17 -71 79q0 34 24 58.5t60 24.5q40 0 65.5 -28.5t25.5 -82.5z" />
    <glyph glyph-name="hyphen" unicode="-" horiz-adv-x="411" 
d="M54 216v82h304v-82h-304z" />
    <glyph glyph-name="period" unicode="." horiz-adv-x="286" 
d="M57 76q0 37 24.5 62.5t61.5 25.5q36 0 61 -25.5t25 -62.5t-25 -62t-61 -25q-37 0 -61.5 25t-24.5 62z" />
    <glyph glyph-name="slash" unicode="/" horiz-adv-x="394" 
d="M375 732l-293 -885l-64 21l296 884z" />
    <glyph glyph-name="zero" unicode="0" horiz-adv-x="612" 
d="M306 -12q-124 0 -196 69t-72 193q0 122 74.5 196t194.5 74q123 0 195 -69t72 -193q0 -122 -74 -196t-194 -74zM307 37q109 0 109 216q0 217 -110 217t-110 -216q0 -217 111 -217z" />
    <glyph glyph-name="one" unicode="1" horiz-adv-x="427" 
d="M163 85v308q0 14 -11 20l-92 40v13l249 54v-435q0 -14 9 -21l85 -51v-13h-338v13l89 51q9 6 9 21z" />
    <glyph glyph-name="two" unicode="2" horiz-adv-x="543" 
d="M472 0h-434v17q79 72 138 128q72 68 108.5 121.5t36.5 106.5q0 49 -25.5 75t-67.5 26q-11 0 -21 -2q-16 -3 -21 -13l-73 -139h-15l-55 158q104 42 207 42q104 0 163.5 -40t59.5 -109q0 -143 -286 -262h208q17 0 25.5 4.5t18.5 19.5l47 66h14z" />
    <glyph glyph-name="three" unicode="3" horiz-adv-x="506" 
d="M16 -153l-1 19q52 10 101 27.5t94 44t72 64.5t27 83q0 52 -34 77.5t-89 25.5q-21 0 -46 -5v24q154 43 154 165q0 50 -26 76t-67 26q-13 0 -21 -2q-13 -3 -18 -11l-74 -136h-14l-56 153q97 42 202 42q103 0 163 -37.5t60 -103.5q0 -54 -41 -93.5t-108 -53.5
q73 -2 120 -40.5t47 -104.5q0 -69 -47 -121.5t-124 -83.5q-98 -42 -210 -42q-40 0 -64 7z" />
    <glyph glyph-name="four" unicode="4" horiz-adv-x="557" 
d="M436 -148h-141v177h-287v13l283 466h145v-428h96v-51h-96v-177zM90 80h205v339z" />
    <glyph glyph-name="five" unicode="5" horiz-adv-x="521" 
d="M302 -115q-102 -45 -216 -45q-41 0 -63 7v19q124 23 210 82t86 142q0 52 -32.5 80t-84.5 28q-64 0 -111 -42h-17l13 351q85 -3 249 -3q35 0 52.5 5.5t32.5 22.5l21 25h13l-11 -101q-5 -39 -22.5 -56t-53.5 -17t-122 1t-115 1l-6 -168q60 51 158 51q87 0 137.5 -45.5
t50.5 -122.5q0 -144 -169 -215z" />
    <glyph glyph-name="six" unicode="6" horiz-adv-x="589" 
d="M303 -12q-120 0 -188 76t-68 207q0 93 35 169.5t93.5 125.5t133.5 75t157 26q32 0 59 -7l1 -19q-330 -68 -330 -382q0 -102 30 -164t79 -62q41 0 66.5 44.5t25.5 125.5q0 79 -26.5 118.5t-71.5 39.5q-28 0 -48 -15l-9 12q46 59 129 59q77 0 127.5 -54.5t50.5 -147.5
q0 -103 -68 -165t-178 -62z" />
    <glyph glyph-name="seven" unicode="7" horiz-adv-x="504" 
d="M286 -148h-175v13q148 311 270 522h-242q-13 0 -17.5 -2t-12.5 -11l-62 -69h-14l21 203h438v-14l-63 -96q-11 -16 -20 -45q-44 -146 -123 -501z" />
    <glyph glyph-name="eight" unicode="8" horiz-adv-x="560" 
d="M274 -12q-87 0 -158.5 43.5t-71.5 117.5q0 54 42 94t105 62l-25 14q-46 25 -75 68t-29 98q0 81 62 131t153 50q87 0 147.5 -41t60.5 -110q0 -53 -38.5 -88.5t-91.5 -52.5l37 -21q58 -33 91 -72.5t33 -98.5q0 -86 -68.5 -140t-173.5 -54zM290 250l-69 38
q-30 -21 -49.5 -55t-19.5 -74q0 -56 36 -90.5t91 -34.5q50 0 81.5 28t31.5 69q0 35 -23.5 62t-78.5 57zM178 531q0 -62 85 -108l61 -33q56 47 56 121q0 50 -28 79.5t-75 29.5q-44 0 -71.5 -24.5t-27.5 -64.5z" />
    <glyph glyph-name="nine" unicode="9" horiz-adv-x="589" 
d="M285 520q121 0 188.5 -76t67.5 -208q0 -93 -34.5 -169.5t-93 -125.5t-133.5 -75t-157 -26q-26 0 -59 7l-1 20q160 32 245 124t85 257q0 102 -30.5 164t-79.5 62q-41 0 -66.5 -44.5t-25.5 -125.5q0 -79 27 -118.5t72 -39.5q26 0 48 15l8 -12q-44 -59 -128 -59
q-77 0 -127.5 55t-50.5 147q0 103 68 165.5t177 62.5z" />
    <glyph glyph-name="colon" unicode=":" horiz-adv-x="302" 
d="M65 76q0 37 24.5 62.5t61.5 25.5q36 0 61 -25.5t25 -62.5t-25 -62t-61 -25q-37 0 -61.5 25t-24.5 62zM65 383q0 37 24.5 62.5t61.5 25.5q36 0 61 -25.5t25 -62.5t-25 -62t-61 -25q-37 0 -61.5 25t-24.5 62z" />
    <glyph glyph-name="semicolon" unicode=";" horiz-adv-x="302" 
d="M241 53q0 -81 -50.5 -143.5t-131.5 -78.5l-5 14q99 59 99 136q0 17 -16 21q-71 17 -71 79q0 34 24 58.5t60 24.5q40 0 65.5 -28.5t25.5 -82.5zM65 383q0 37 24.5 62.5t61.5 25.5q36 0 61 -25.5t25 -62.5t-25 -62t-61 -25q-37 0 -61.5 25t-24.5 62z" />
    <glyph glyph-name="less" unicode="&#x3c;" 
d="M480 51l-405 185v12l405 186l25 -61l-288 -130v-2l288 -129z" />
    <glyph glyph-name="equal" unicode="=" 
d="M520 298h-440v66h440v-66zM520 123h-440v66h440v-66z" />
    <glyph glyph-name="greater" unicode="&#x3e;" 
d="M120 54l-25 61l288 129v2l-288 129l25 61l405 -185v-12z" />
    <glyph glyph-name="question" unicode="?" horiz-adv-x="465" 
d="M218 230h-14q-41 33 -41 84q0 54 57 108l29 28q52 50 52 109q0 52 -28 84.5t-72 32.5q-13 0 -25 -3q-12 -4 -17 -15l-72 -150h-14l-62 160q96 47 209 47q114 0 174 -48t60 -127q0 -27 -8.5 -50t-25.5 -43.5t-32 -34t-40 -32.5l-82 -63q-52 -39 -48 -87zM210 -11
q-36 0 -61 25t-25 62t25 62.5t61 25.5q37 0 62 -25.5t25 -62.5t-25 -62t-62 -25z" />
    <glyph glyph-name="at" unicode="@" horiz-adv-x="1076" 
d="M471 66q26 0 55 36.5t55 109.5q26 50 63 202q-8 32 -44 32q-60 0 -114 -100t-54 -203q0 -77 39 -77zM797 503l-77 -327q-10 -44 -10 -79q0 -25 13 -41t34 -16q62 0 115.5 85.5t53.5 196.5q0 149 -92.5 238.5t-235.5 89.5q-123 0 -223 -62t-155 -166.5t-55 -227.5
q0 -90 30.5 -163t83.5 -118.5t121.5 -70t146.5 -24.5q70 0 141.5 20.5t116.5 55.5l10 -10q-46 -58 -127.5 -93t-186.5 -35q-117 0 -214 48t-157.5 146t-60.5 231q0 223 151 368.5t374 145.5q190 0 305 -99.5t115 -260.5q0 -75 -27.5 -141.5t-71 -110.5t-97 -69t-106.5 -25
q-70 0 -101.5 40.5t-16.5 123.5l-4 1q-70 -165 -181 -165q-52 0 -84 42.5t-32 114.5q0 144 85.5 251t189.5 107q64 0 90 -47l127 46h12z" />
    <glyph glyph-name="A" unicode="A" horiz-adv-x="706" 
d="M470 96l-46 125h-233l-30 -83q-6 -16 7 -30l83 -93v-15h-258v15l96 95q13 13 20 29l158 431q6 18 -1 34l-39 86v13h182l224 -594q6 -19 16 -30l56 -64v-15h-303v15l65 60q8 8 3 21zM306 539l-98 -273h199z" />
    <glyph glyph-name="B" unicode="B" horiz-adv-x="688" 
d="M443 371q97 -9 149.5 -53.5t52.5 -122.5q0 -92 -69.5 -143.5t-188.5 -51.5h-359v15l75 61q9 7 9 20v511q0 13 -9 20l-75 61v15h358q106 0 169.5 -45t63.5 -128q0 -68 -47 -111.5t-129 -47.5zM350 45q58 0 91 38t33 113q0 72 -34 106t-93 34h-73v-276q0 -9 3 -12t11 -3h62
zM274 643v-263h70q48 0 76.5 34t28.5 108q0 68 -27 102t-75 34h-58q-15 0 -15 -15z" />
    <glyph glyph-name="C" unicode="C" horiz-adv-x="663" 
d="M395 -15q-179 0 -269 101t-90 264q0 164 95 266t269 102q106 0 197 -24v-227h-14l-133 187q-9 12 -24 14q-18 2 -30 2q-177 0 -177 -314q0 -323 178 -323q12 0 28 2q18 2 25 13l137 193h14v-231q-96 -25 -206 -25z" />
    <glyph glyph-name="D" unicode="D" horiz-adv-x="747" 
d="M338 0h-310v15l75 61q9 7 9 20v511q0 13 -9 20l-75 61v15h332q169 0 261 -89.5t92 -249.5q0 -90 -30 -161t-82.5 -114.5t-119 -66t-143.5 -22.5zM331 45q91 0 144.5 77t53.5 236q0 300 -194 300h-46q-9 0 -12 -3t-3 -12v-582q0 -10 3 -13t12 -3h42z" />
    <glyph glyph-name="E" unicode="E" horiz-adv-x="649" 
d="M482 231h-14l-71 85q-12 14 -30 14h-93v-270q0 -9 3.5 -12t12.5 -3h144q17 0 28 16l111 163h15v-224h-560v15l75 61q9 7 9 20v511q0 13 -9 20l-75 61v15h553v-222h-14l-109 161q-10 16 -27 16h-141q-9 0 -12.5 -3t-3.5 -12v-267h93q17 0 30 15l71 85h14v-245z" />
    <glyph glyph-name="F" unicode="F" horiz-adv-x="605" 
d="M482 231h-14l-71 85q-12 14 -30 14h-93v-228q0 -15 12 -23l102 -64v-15h-360v15l75 61q9 7 9 20v511q0 13 -9 20l-75 61v15h553v-222h-14l-109 161q-10 16 -27 16h-141q-9 0 -12.5 -3t-3.5 -12v-267h93q17 0 30 15l71 85h14v-245z" />
    <glyph glyph-name="G" unicode="G" horiz-adv-x="731" 
d="M367 -15q-160 0 -245.5 101t-85.5 269q0 163 97.5 263t285.5 100q111 0 208 -24v-227h-15l-131 187q-8 12 -24 14q-14 2 -35 2q-204 0 -204 -314q0 -323 180 -323q34 0 63 9q10 4 13 8t3 13v153q0 12 -9 20l-69 61v15h315v-15l-65 -58q-11 -9 -11 -24v-230l-144 19
q-69 -19 -127 -19z" />
    <glyph glyph-name="H" unicode="H" horiz-adv-x="815" 
d="M702 607v-511q0 -12 9 -20l76 -61v-15h-331v15l75 61q9 7 9 20v240h-266v-240q0 -12 9 -20l76 -61v-15h-331v15l75 61q9 7 9 20v511q0 13 -9 20l-75 61v15h331v-15l-76 -61q-9 -8 -9 -20v-224h266v224q0 13 -9 20l-75 61v15h331v-15l-76 -61q-9 -8 -9 -20z" />
    <glyph glyph-name="I" unicode="I" horiz-adv-x="387" 
d="M359 0h-331v15l75 61q9 7 9 20v511q0 13 -9 20l-75 61v15h331v-15l-76 -61q-9 -8 -9 -20v-511q0 -12 9 -20l76 -61v-15z" />
    <glyph glyph-name="J" unicode="J" horiz-adv-x="356" 
d="M261 69q0 -130 -73 -198t-209 -88l-4 14q124 62 124 248v562q0 13 -9 20l-75 61v15h330v-15l-75 -61q-9 -7 -9 -20v-538z" />
    <glyph glyph-name="K" unicode="K" horiz-adv-x="717" 
d="M274 359v-263q0 -12 9 -20l76 -61v-15h-331v15l75 61q9 7 9 20v511q0 13 -9 20l-75 61v15h331v-15l-76 -61q-9 -8 -9 -20v-248l214 225q11 12 2 25l-59 79v15h287v-15l-129 -81q-32 -21 -52 -42l-123 -128l217 -339q15 -24 35 -39l62 -44v-15h-217z" />
    <glyph glyph-name="L" unicode="L" horiz-adv-x="596" 
d="M290 45h128q19 0 30 16l110 168h14v-229h-544v15l75 61q9 7 9 20v511q0 13 -9 20l-75 61v15h331v-15l-76 -61q-9 -8 -9 -20v-547q0 -9 3.5 -12t12.5 -3z" />
    <glyph glyph-name="M" unicode="M" horiz-adv-x="925" 
d="M127 146v434q0 15 -11 26l-83 82v15h238l208 -474l188 474h230v-15l-76 -61q-9 -8 -9 -20v-511q0 -12 9 -20l76 -61v-15h-330v15l75 61q9 7 9 20v440l-211 -536h-25l-238 538v-392q0 -20 13 -34l93 -97v-15h-260v15l92 97q12 12 12 34z" />
    <glyph glyph-name="N" unicode="N" horiz-adv-x="747" 
d="M642 557v-557h-92l-370 527v-381q0 -21 12 -34l93 -97v-15h-259v15l92 97q12 13 12 34v415q0 15 -10 25l-97 102v15h224l345 -491v345q0 19 -12 34l-93 97v15h259v-15l-92 -97q-12 -12 -12 -34z" />
    <glyph glyph-name="O" unicode="O" horiz-adv-x="759" 
d="M381 718q154 0 248.5 -95.5t94.5 -267.5q0 -170 -95.5 -270t-249.5 -100q-155 0 -249.5 96t-94.5 268q0 170 95.5 269.5t250.5 99.5zM378 670q-158 0 -158 -315q0 -160 42 -241t120 -81q156 0 156 316q0 160 -41.5 240.5t-118.5 80.5z" />
    <glyph glyph-name="P" unicode="P" horiz-adv-x="651" 
d="M342 261h-68v-159q0 -15 12 -23l102 -64v-15h-360v15l75 61q9 7 9 20v511q0 13 -9 20l-75 61v15h339q123 0 195 -52.5t72 -158.5q0 -110 -79 -170.5t-213 -60.5zM274 641v-335h62q61 0 95.5 45.5t34.5 130.5q0 87 -32 131.5t-90 44.5h-53q-11 0 -14 -3t-3 -14z" />
    <glyph glyph-name="Q" unicode="Q" horiz-adv-x="759" 
d="M381 718q154 0 248.5 -95.5t94.5 -267.5q0 -170 -95.5 -270t-249.5 -100q-40 0 -82 8l-52 -50l218 -49q80 -19 125 -19q64 0 106 38l38 34l12 -6l-28 -60q-29 -62 -69.5 -91.5t-102.5 -29.5q-47 0 -149 25l-207 50q-32 8 -53 8q-31 0 -52 -14l-10 14l178 162
q-101 34 -158.5 122.5t-57.5 221.5q0 170 95.5 269.5t250.5 99.5zM378 670q-158 0 -158 -315q0 -160 42 -241t120 -81q156 0 156 316q0 160 -41.5 240.5t-118.5 80.5z" />
    <glyph glyph-name="R" unicode="R" horiz-adv-x="713" 
d="M705 0h-208l-135 289q-6 12 -11 15.5t-17 3.5h-60v-211q0 -13 11 -23l72 -59v-15h-329v15l75 61q9 7 9 20v510q0 14 -9 21l-75 61v15h338q121 0 192 -46t71 -137q0 -76 -49.5 -125t-138.5 -63l-20 -3l89 -17q15 -2 22 -17l102 -202q14 -29 28 -40l43 -38v-15zM274 643
v-290h68q52 0 84.5 39.5t32.5 116.5q0 73 -31.5 111t-82.5 38h-54q-10 0 -13.5 -3t-3.5 -12z" />
    <glyph glyph-name="S" unicode="S" horiz-adv-x="585" 
d="M265 -15q-104 0 -208 30v222h15l110 -183q10 -15 22 -18q28 -7 62 -7q70 0 111 32t41 83q0 44 -30 69t-90 51l-82 34q-164 67 -164 208q0 98 73.5 155t197.5 57q84 0 180 -20v-203h-15l-107 160q-9 13 -22 16q-18 3 -40 3q-62 0 -97.5 -31t-35.5 -79q0 -73 101 -114
l90 -37q86 -36 130.5 -78t44.5 -121q0 -104 -77 -166.5t-210 -62.5z" />
    <glyph glyph-name="T" unicode="T" horiz-adv-x="670" 
d="M648 703v-229h-15l-108 167q-8 12 -13 14.5t-17 2.5h-79v-562q0 -13 9 -20l75 -61v-15h-330v15l75 61q9 8 9 20v562h-79q-12 0 -17 -2.5t-13 -14.5l-109 -167h-14v229h626z" />
    <glyph glyph-name="U" unicode="U" horiz-adv-x="727" 
d="M368 -15q-269 0 -269 259v358q0 12 -9 20l-73 66v15h326v-15l-73 -66q-9 -7 -9 -20v-351q0 -98 40 -150t115 -52q74 0 117 50t43 149v309q0 21 -12 34l-93 97v15h260v-15l-93 -97q-12 -13 -12 -34v-312q0 -120 -61.5 -190t-196.5 -70z" />
    <glyph glyph-name="V" unicode="V" horiz-adv-x="673" 
d="M284 0l-215 594q-6 18 -19 33l-53 61v15h302v-15l-64 -60q-9 -9 -4 -21l156 -438l143 396q5 14 -6 26l-83 97v15h258v-15l-93 -92q-17 -17 -23 -34l-205 -562h-94z" />
    <glyph glyph-name="W" unicode="W" horiz-adv-x="1021" 
d="M277 0l-208 594q-6 16 -18 31l-54 63v15h302v-15l-64 -60q-8 -8 -4 -21l148 -436l107 305l-37 118q-9 23 -20 36l-46 58v15h295v-15l-65 -60q-7 -6 -3 -21l132 -434l136 392q4 13 -6 26l-83 97v15h258v-15l-93 -92q-16 -15 -23 -34l-197 -562h-95l-128 399l-140 -399h-94
z" />
    <glyph glyph-name="X" unicode="X" horiz-adv-x="689" 
d="M9 0v15l111 95q18 16 28 30l129 187l-179 262q-12 17 -26 31l-71 68v15h309v-15l-50 -54q-10 -12 -1 -24l121 -186l100 147q11 16 2 28l-63 89v15h255v-15l-110 -95q-17 -13 -29 -30l-126 -183l184 -269q14 -18 27 -31l67 -65v-15h-309v15l51 54q10 11 -1 28l-122 186
l-103 -151q-10 -15 -2 -28l63 -89v-15h-255z" />
    <glyph glyph-name="Y" unicode="Y" horiz-adv-x="677" 
d="M503 0h-331v15l76 61q9 8 9 20v158q0 21 -8 36l-172 302q-12 22 -27 37l-61 59v15h335v-15l-68 -58q-14 -13 -6 -27l144 -267l127 239q7 13 -2 24l-76 89v15h258v-15l-101 -89q-20 -17 -30 -38l-143 -269q-8 -15 -8 -34v-162q0 -13 9 -20l75 -61v-15z" />
    <glyph glyph-name="Z" unicode="Z" horiz-adv-x="608" 
d="M567 0h-544v13l374 645h-196q-12 0 -16.5 -2t-10.5 -11l-114 -174h-15v232h544v-13l-374 -645h195q13 0 18 2t11 11l117 181h15z" />
    <glyph glyph-name="bracketleft" unicode="[" horiz-adv-x="381" 
d="M349 -142l-234 -14v926l234 -13v-15l-127 -34q-12 -3 -12 -18v-766q0 -14 12 -17l127 -35v-14z" />
    <glyph glyph-name="backslash" unicode="\" horiz-adv-x="394" 
d="M312 -153l-294 885l62 20l295 -884z" />
    <glyph glyph-name="bracketright" unicode="]" horiz-adv-x="381" 
d="M266 -156l-233 14v14l126 35q12 3 12 17v766q0 14 -12 18l-126 34v15l233 13v-926z" />
    <glyph glyph-name="asciicircum" unicode="^" horiz-adv-x="571" 
d="M150 297l-60 26l189 412h12l190 -412l-60 -26l-135 297h-2z" />
    <glyph glyph-name="underscore" unicode="_" horiz-adv-x="550" 
d="M520 -112h-490v65h490v-65z" />
    <glyph glyph-name="grave" unicode="`" horiz-adv-x="333" 
d="M278 565h-15l-208 154v13h164z" />
    <glyph glyph-name="a" unicode="a" horiz-adv-x="547" 
d="M243 288q45 0 86 -11q0 21 0.5 48t0.5 30q0 49 -22.5 77t-66.5 28q-10 0 -17 -1q-11 -1 -18 -12l-75 -122h-14l-49 145q86 34 182 34q114 0 166 -43t52 -136q0 -34 -3 -107t-3 -99q0 -52 32 -52q20 0 31 18l11 -8q-8 -40 -38.5 -64.5t-73.5 -24.5q-42 0 -68.5 24
t-29.5 65q-22 -41 -60.5 -65t-86.5 -24q-61 0 -101 36.5t-40 98.5q0 73 57.5 119t147.5 46zM242 67q57 0 84 63q0 28 2 106q-24 6 -45 6q-50 0 -80 -27t-30 -71q0 -35 19 -56t50 -21z" />
    <glyph glyph-name="b" unicode="b" horiz-adv-x="594" 
d="M68 -12v644q0 14 -8 22l-51 49v13l202 34v-322q60 76 149 76q87 0 142.5 -65t55.5 -178q0 -128 -65 -200.5t-159 -72.5q-84 0 -133 51l-120 -51h-13zM298 425q-55 0 -87 -53v-282q22 -43 76 -43q51 0 84.5 48t33.5 152q0 90 -29.5 134t-77.5 44z" />
    <glyph glyph-name="c" unicode="c" horiz-adv-x="495" 
d="M186 276q0 -98 43 -146.5t109 -48.5q73 0 119 55l13 -8q-22 -65 -74.5 -102.5t-126.5 -37.5q-103 0 -169 65t-66 184q0 129 77 198t199 69q82 0 159 -29l-57 -161h-14l-68 131q-7 13 -16 13h-11q-52 0 -84.5 -49.5t-32.5 -132.5z" />
    <glyph glyph-name="d" unicode="d" horiz-adv-x="614" 
d="M297 66q25 0 49 14t37 42v287q-25 36 -76 36q-49 0 -83.5 -46.5t-34.5 -145.5q0 -93 31 -140t77 -47zM590 0h-198v83q-49 -95 -154 -95q-84 0 -143 65.5t-59 186.5q0 129 66.5 196.5t161.5 67.5q73 0 119 -44v172q0 15 -8 22l-50 49v13l202 34v-659q0 -13 9 -22l54 -56
v-13z" />
    <glyph glyph-name="e" unicode="e" horiz-adv-x="535" 
d="M495 246h-312q3 -87 45.5 -127t104.5 -40q93 0 151 66l13 -7q-50 -150 -220 -150q-108 0 -175.5 65.5t-67.5 188.5q0 126 68 194t174 68q99 0 159 -55t60 -171v-32zM272 457q-84 0 -90 -167h173q-1 167 -83 167z" />
    <glyph glyph-name="f" unicode="f" horiz-adv-x="380" 
d="M37 0v13l58 46q9 8 9 21v357h-67v55h67v85q0 86 48.5 129.5t140.5 43.5q77 0 148 -20l-56 -149h-13l-55 112q-6 12 -16 12q-32 0 -44.5 -28t-12.5 -87q0 -48 2 -98h122v-55h-121v-343q0 -16 14 -24l99 -57v-13h-323z" />
    <glyph glyph-name="g" unicode="g" horiz-adv-x="569" 
d="M256 -245q-87 0 -154 31t-67 86q0 35 30.5 60t82.5 37q-43 10 -69 36t-26 62q0 41 31.5 72t82.5 45q-51 16 -83.5 55t-32.5 97q0 78 60.5 123t160.5 45q75 0 137 -28q16 -8 26 2l110 102h13v-141h-108q48 -39 48 -106q0 -77 -61 -121t-162 -44q-39 0 -70 6
q-39 -13 -39 -42q0 -41 89 -41h112q81 0 126.5 -33t45.5 -98q0 -91 -83 -148t-200 -57zM278 -195q67 0 113.5 25.5t46.5 68.5q0 55 -90 58l-140 5l-26 2q-46 -21 -46 -69q0 -42 39 -66t103 -24zM275 214q39 0 63 32t24 92t-23.5 89.5t-63.5 29.5t-64 -29t-24 -89
q0 -61 24.5 -93t63.5 -32z" />
    <glyph glyph-name="h" unicode="h" horiz-adv-x="633" 
d="M414 289q0 134 -84 134q-61 0 -99 -71v-272q0 -13 9 -21l58 -46v-13h-277v13l57 46q9 8 9 21v552q0 15 -8 22l-50 49v13l202 34v-338q59 92 160 92q167 0 167 -216q0 -71 -3 -209q0 -12 9 -20l58 -46v-13h-277v13l57 46q10 8 10 21q0 8 1 91.5t1 117.5z" />
    <glyph glyph-name="i" unicode="i" horiz-adv-x="332" 
d="M84 656q0 37 23.5 60t58.5 23t58.5 -23t23.5 -60q0 -36 -23.5 -59t-58.5 -23q-34 0 -58 23.5t-24 58.5zM102 80v315q0 13 -7 21l-60 63v13h211v-412q0 -13 9 -21l57 -46v-13h-277v13l58 46q9 8 9 21z" />
    <glyph glyph-name="j" unicode="j" horiz-adv-x="301" 
d="M233 41q0 -138 -69.5 -209.5t-198.5 -76.5l-3 14q68 26 97.5 84t29.5 164v378q0 13 -7 21l-59 63v13h210v-451zM69 657q0 36 24 59t59 23q34 0 58 -23t24 -59t-24 -59.5t-58 -23.5q-35 0 -59 23.5t-24 59.5z" />
    <glyph glyph-name="k" unicode="k" horiz-adv-x="582" 
d="M587 0h-187l-148 239q-10 17 -21 17v-176q0 -13 9 -21l58 -46v-13h-277v13l57 46q9 8 9 21v552q0 15 -8 22l-50 49v13l202 34v-481l153 121q13 10 2 22l-60 67v13h241v-13l-192 -150q-7 -6 -2 -14l146 -238q13 -21 24 -29l44 -35v-13z" />
    <glyph glyph-name="l" unicode="l" horiz-adv-x="318" 
d="M298 0h-277v13l57 46q9 8 9 21v552q0 15 -8 22l-50 49v13l202 34v-670q0 -13 9 -21l58 -46v-13z" />
    <glyph glyph-name="m" unicode="m" horiz-adv-x="971" 
d="M637 0h-277v13l57 46q9 7 9 21q2 50 2 209q0 134 -83 134q-61 0 -99 -71v-272q0 -13 9 -21l57 -46v-13h-277v13l58 46q9 8 9 21v315q0 13 -7 21l-60 63v13h200v-96q55 108 170 108q117 0 152 -108q60 108 174 108q165 0 165 -216q0 -27 -1 -107t-1 -102q0 -12 9 -20
l58 -46v-13h-277v13l57 46q9 7 9 22q2 50 2 208q0 134 -82 134q-62 0 -102 -74q5 -30 5 -61q0 -27 -1.5 -107t-1.5 -102q0 -12 9 -20l58 -46v-13z" />
    <glyph glyph-name="n" unicode="n" horiz-adv-x="647" 
d="M637 0h-277v13l57 46q9 7 9 21q2 50 2 209q0 134 -83 134q-61 0 -99 -71v-272q0 -13 9 -21l57 -46v-13h-277v13l58 46q9 8 9 21v315q0 13 -7 21l-60 63v13h200v-96q55 108 170 108q168 0 168 -216q0 -27 -1.5 -107t-1.5 -102q0 -12 9 -20l58 -46v-13z" />
    <glyph glyph-name="o" unicode="o" horiz-adv-x="589" 
d="M293 -12q-119 0 -189.5 67t-70.5 187q0 122 72.5 192t192.5 70q117 0 187.5 -67.5t70.5 -186.5q0 -121 -72 -191.5t-191 -70.5zM297 35q48 0 73.5 54t25.5 155q0 102 -26 157t-77 55q-49 0 -74.5 -53.5t-25.5 -154.5q0 -103 26.5 -158t77.5 -55z" />
    <glyph glyph-name="p" unicode="p" horiz-adv-x="615" 
d="M348 -235h-326v13l58 46q9 8 9 21v550q0 13 -8 21l-59 63v13h199v-89q51 101 163 101q86 0 140 -65t54 -180q0 -126 -64 -198.5t-158 -72.5q-79 0 -124 47v-176q0 -15 14 -23l102 -57v-14zM308 46q48 0 82.5 47t34.5 152q0 86 -28.5 133.5t-76.5 47.5q-56 0 -88 -65v-270
q27 -45 76 -45z" />
    <glyph glyph-name="q" unicode="q" horiz-adv-x="595" 
d="M242 -12q-88 0 -147 64.5t-59 182.5q0 131 66 200t160 69q83 0 129 -49l124 49h12v-658q0 -15 9 -22l50 -46v-13h-284v13l71 47q10 7 10 21v211q-49 -69 -141 -69zM299 62q55 0 84 45v296q-24 43 -78 43q-48 0 -82 -46.5t-34 -147.5q0 -94 30.5 -142t79.5 -48z" />
    <glyph glyph-name="r" unicode="r" horiz-adv-x="455" 
d="M362 0h-327v13l58 46q9 8 9 21v315q0 13 -7 21l-60 63v13h200v-121q46 133 137 133q40 0 70 -30l-47 -153h-13l-68 76q-7 7 -12 7q-8 0 -19 -11q-23 -23 -37 -66v-233q0 -16 13 -23l103 -57v-14z" />
    <glyph glyph-name="s" unicode="s" horiz-adv-x="488" 
d="M329 105q0 25 -19.5 39.5t-62.5 28.5l-79 26q-118 39 -118 148q0 71 56.5 114t149.5 43q94 0 177 -26l-47 -140h-13l-69 111q-6 10 -15 11q-10 2 -29 2q-40 0 -66 -19t-26 -51q0 -46 83 -74l84 -28q116 -38 116 -133q0 -81 -63 -125t-166 -44q-100 0 -186 33l50 145h13
l64 -115q8 -14 16 -16q20 -5 47 -5q43 0 72.5 19t30.5 56z" />
    <glyph glyph-name="t" unicode="t" horiz-adv-x="392" 
d="M222 667h12v-175h135v-55h-135v-297q0 -70 61 -70q43 0 69 36l13 -6q-12 -52 -50.5 -82t-99.5 -30q-66 0 -101 36.5t-35 106.5v306h-68v55h44q12 0 17 2.5t13 13.5z" />
    <glyph glyph-name="u" unicode="u" horiz-adv-x="623" 
d="M600 0h-196v97q-57 -109 -172 -109q-157 0 -157 207q0 30 1 105t1 95q0 14 -8 22l-58 62v13h210q-2 -178 -2 -279q0 -70 14.5 -107t60.5 -37q59 0 99 71v255q0 14 -9 22l-58 62v13h210v-401q0 -12 9 -22l55 -56v-13z" />
    <glyph glyph-name="v" unicode="v" horiz-adv-x="514" 
d="M206 429q-9 -9 -5 -22l101 -301l98 255q6 14 -2 25l-66 93v13h195v-13l-66 -94q-8 -12 -22 -48l-130 -337h-115l-148 406q-5 14 -14 29l-31 44v13h253v-13z" />
    <glyph glyph-name="w" unicode="w" horiz-adv-x="814" 
d="M204 427q-8 -9 -4 -20l98 -300l83 224l-25 75q-6 18 -15 31l-29 42v13h250v-13l-48 -50q-8 -9 -4 -22l93 -299l97 253q5 15 -2 25l-68 93v13h197v-13l-66 -94q-8 -12 -22 -48l-129 -337h-112l-94 265l-98 -265h-113l-147 406q-5 14 -14 29l-31 44v13h252v-13z" />
    <glyph glyph-name="x" unicode="x" horiz-adv-x="537" 
d="M6 0v13l76 62q23 18 39 38l87 111l-134 181q-13 21 -20 26l-48 48v13h255v-13l-36 -41q-9 -11 -2 -22l79 -110l70 89q9 12 0 22l-54 62v13h211v-13l-76 -62q-25 -21 -39 -39l-85 -108l134 -184l21 -25l48 -48v-13h-254v13l35 41q10 12 2 22l-81 111l-71 -91q-8 -11 0 -20
l54 -63v-13h-211z" />
    <glyph glyph-name="y" unicode="y" horiz-adv-x="514" 
d="M84 -245q-39 0 -60 13l42 161h12l70 -75q10 -10 16 -10q10 0 22 18q21 29 39 72q4 11 0 22l-178 450q-8 18 -15 29l-31 44v13h256v-13l-49 -52q-7 -8 -3 -20l100 -284l96 241q5 15 -2 25l-66 90v13h194v-13l-66 -96q-5 -7 -21 -45l-132 -329q-49 -120 -95 -180
q-28 -41 -58 -57.5t-71 -16.5z" />
    <glyph glyph-name="z" unicode="z" horiz-adv-x="501" 
d="M353 58l94 147h14l-12 -205h-413v12l267 434h-114q-12 0 -16 -2t-9 -11l-93 -140h-14v199h413v-10l-264 -436h121q12 0 16 2t10 10z" />
    <glyph glyph-name="braceleft" unicode="{" horiz-adv-x="381" 
d="M284 -151q-72 0 -119 41t-47 127q0 95 10 186q4 88 -76 97v15q80 9 76 96q-10 100 -10 186q0 87 47 127.5t119 40.5q38 0 65 -8v-15q-65 -1 -93.5 -36t-28.5 -87q0 -108 9 -200q2 -49 -21 -74.5t-75 -35.5v-3q52 -11 75 -36t21 -74q-9 -93 -9 -200q0 -53 29 -88t93 -36
v-14q-30 -9 -65 -9z" />
    <glyph glyph-name="bar" unicode="|" horiz-adv-x="310" 
d="M189 -235h-68v974h68v-974z" />
    <glyph glyph-name="braceright" unicode="}" horiz-adv-x="381" 
d="M98 -151q-35 0 -65 9v14q63 1 92.5 36t29.5 88q0 97 -10 200q-2 49 21 74t75 36v3q-52 10 -75 35.5t-21 74.5q10 102 10 200q0 52 -29 87t-93 36v15q32 8 65 8q72 0 118.5 -40.5t46.5 -127.5q0 -86 -10 -186q-4 -87 77 -96v-15q-81 -9 -77 -97q10 -91 10 -186
q0 -86 -47 -127t-118 -41z" />
    <glyph glyph-name="asciitilde" unicode="~" 
d="M407 174q-45 0 -112.5 35t-100.5 35q-59 0 -90 -52l-48 42q50 76 136 76q45 0 113 -35t100 -35q61 0 90 52l49 -42q-50 -76 -137 -76z" />
    <glyph glyph-name="uni00A0" unicode="&#xa0;" horiz-adv-x="255" 
 />
    <glyph glyph-name="exclamdown" unicode="&#xa1;" horiz-adv-x="296" 
d="M141 268h14l91 -478h-196zM236 416q0 -37 -24.5 -62.5t-61.5 -25.5t-62 25.5t-25 62.5t25 62.5t62 25.5t61.5 -25.5t24.5 -62.5z" />
    <glyph glyph-name="cent" unicode="&#xa2;" horiz-adv-x="504" 
d="M276 -113v102q-5 -1 -14 -1q-98 4 -160.5 69t-62.5 180q0 117 65 184.5t172 79.5v104h44v-102h13q74 -3 141 -28l-57 -161h-13l-63 121q-7 13 -9 14q-3 3 -12 6v-372q10 -2 23 -2q73 0 120 55l12 -8q-18 -54 -58 -89.5t-97 -45.5v-106h-44zM191 276q0 -136 85 -179v356
q-40 -12 -62.5 -63t-22.5 -114z" />
    <glyph glyph-name="sterling" unicode="&#xa3;" horiz-adv-x="582" 
d="M47 310h72q-18 28 -26.5 42.5t-18 45t-9.5 62.5q0 95 70.5 151t183.5 56q97 0 171 -29l-21 -188h-14l-96 153q-10 15 -28 15q-53 0 -81.5 -38t-28.5 -98q0 -37 22.5 -98.5t25.5 -73.5h131v-44h-127q1 -11 -2 -28q-13 -67 -101 -120h273q22 0 34 15l57 76h15l-18 -209
h-491v16l83 91q37 41 37 97q0 27 -14 62h-99v44z" />
    <glyph glyph-name="currency" unicode="&#xa4;" horiz-adv-x="635" 
d="M315 127q-71 0 -120 28l-90 -90l-40 42l83 85q-45 50 -45 128q0 79 44 129l-82 84l41 41l86 -87q53 32 128 32q70 0 124 -30l85 85l41 -41l-81 -82q42 -48 42 -126q0 -80 -47 -132l86 -86l-41 -42l-91 92q-51 -30 -123 -30zM320 175q81 0 81 147q0 149 -85 149
q-82 0 -82 -147q0 -149 86 -149z" />
    <glyph glyph-name="yen" unicode="&#xa5;" horiz-adv-x="667" 
d="M496 0h-331v15l77 61q9 7 9 20v42h-126v44h126v56h-126v44h106l-149 264q-11 19 -28 38l-53 59v15h318v-15l-59 -58q-12 -12 -5 -27l131 -252l123 226q7 14 -2 23l-75 88v15h256v-15l-99 -88q-22 -20 -32 -39l-128 -234h111v-44h-129v-56h129v-44h-129v-42q0 -13 9 -20
l76 -61v-15z" />
    <glyph glyph-name="brokenbar" unicode="&#xa6;" horiz-adv-x="310" 
d="M189 322h-68v417h68v-417zM189 -235h-68v420h68v-420z" />
    <glyph glyph-name="section" unicode="&#xa7;" horiz-adv-x="518" 
d="M472 276q0 -55 -32 -95t-76 -58q63 -54 63 -125t-50 -114.5t-137 -43.5t-159 27l60 148h13l69 -121q5 -11 10 -14t18 -3q32 0 54 21.5t22 55.5q0 54 -70 101l-122 82q-86 58 -86 143q0 54 31.5 94t75.5 59q-62 52 -62 123t50 115.5t137 44.5q91 0 159 -26l-59 -148h-14
l-68 120q-6 11 -11 14t-18 3q-32 0 -54 -22.5t-22 -57.5q0 -51 70 -99l122 -81q86 -57 86 -143zM301 327l-124 89q-31 -29 -31 -76q0 -57 75 -111l123 -90q31 29 31 77q0 59 -74 111z" />
    <glyph glyph-name="dieresis" unicode="&#xa8;" horiz-adv-x="457" 
d="M55 645q0 31 21 51.5t50 20.5t49.5 -20.5t20.5 -51.5q0 -30 -20.5 -50t-49.5 -20t-50 20t-21 50zM262 645q0 31 20.5 51.5t49.5 20.5t49.5 -20.5t20.5 -51.5q0 -30 -20.5 -50t-49.5 -20t-49.5 20t-20.5 50z" />
    <glyph glyph-name="copyright" unicode="&#xa9;" horiz-adv-x="829" 
d="M415 -15q-155 0 -257.5 102t-102.5 263t102.5 263t257.5 102t257 -102t102 -263t-102 -263t-257 -102zM415 33q134 0 219.5 86.5t85.5 230.5q0 145 -86 231t-219 86t-219.5 -86t-86.5 -231q0 -144 86 -230.5t220 -86.5zM426 130q-109 0 -166.5 61.5t-57.5 157.5
q0 100 59 161t167 61q75 0 138 -14v-152h-12l-88 122q-6 7 -18 7q-8 0 -17 -2q-90 -20 -90 -180q0 -162 87 -181q15 -3 23 -3q12 0 17 8l89 122h12v-154q-63 -14 -143 -14z" />
    <glyph glyph-name="ordfeminine" unicode="&#xaa;" horiz-adv-x="454" 
d="M188 589q29 0 67 -9q1 29 1 62q0 70 -68 70q-10 0 -16 -10l-56 -84h-10l-36 105q79 27 147 27q92 0 123 -50q19 -30 19 -95q0 -13 -1.5 -69t-1.5 -68q0 -37 23 -37q13 0 24 11l8 -8q-22 -63 -82 -63q-28 0 -48 17.5t-23 45.5q-15 -28 -44.5 -45.5t-65.5 -17.5
q-42 0 -71.5 27t-29.5 71q0 53 41.5 86.5t99.5 33.5zM199 432q33 0 54 32q0 4 1 39t1 44q-13 4 -32 4q-33 0 -53.5 -19t-20.5 -49q0 -23 13.5 -37t36.5 -14z" />
    <glyph glyph-name="guillemotleft" unicode="&#xab;" horiz-adv-x="464" 
d="M227 46l-196 210v10l196 210l11 -9l-85 -206l85 -206zM406 46l-195 210v10l195 210l11 -9l-84 -206l84 -206z" />
    <glyph glyph-name="logicalnot" unicode="&#xac;" 
d="M530 98h-61v182h-409v60h470v-242z" />
    <glyph glyph-name="uni00AD" unicode="&#xad;" horiz-adv-x="411" 
d="M54 216v82h304v-82h-304z" />
    <glyph glyph-name="registered" unicode="&#xae;" horiz-adv-x="518" 
d="M258 303q-95 0 -159.5 62.5t-64.5 158.5q0 97 64.5 159.5t159.5 62.5q96 0 160.5 -62.5t64.5 -159.5q0 -96 -64.5 -158.5t-160.5 -62.5zM258 342q81 0 131.5 49t50.5 133t-51 133.5t-131 49.5q-79 0 -129.5 -49.5t-50.5 -133.5t50 -133t130 -49zM173 456v151q0 5 -5 10
l-24 23v8h135q87 0 87 -65q0 -51 -60 -61v-2l19 -5q7 -2 10 -8l34 -61q8 -14 14 -17l12 -6v-10h-85l-41 86q-3 7 -6 8.5t-14 1.5h-9v-54q0 -7 4 -11l25 -22v-9h-125v9l24 22q5 5 5 12zM240 616v-83h13q44 0 44 47q0 20 -10.5 32t-26.5 12h-13q-7 0 -7 -8z" />
    <glyph glyph-name="macron" unicode="&#xaf;" horiz-adv-x="398" 
d="M341 600h-284v66h284v-66z" />
    <glyph glyph-name="degree" unicode="&#xb0;" horiz-adv-x="389" 
d="M194 447q-60 0 -103.5 39.5t-43.5 102.5t43.5 103.5t103.5 40.5t103.5 -39.5t43.5 -102.5t-43.5 -103.5t-103.5 -40.5zM194 691q-41 0 -70.5 -29.5t-29.5 -72.5q0 -42 30 -71t70 -29q41 0 71 29.5t30 72.5q0 42 -30 71t-71 29z" />
    <glyph glyph-name="plusminus" unicode="&#xb1;" 
d="M267 138v140h-187v66h187v135h68v-135h185v-66h-185v-140h-68zM520 9h-440v66h440v-66z" />
    <glyph glyph-name="twosuperior" unicode="&#xb2;" horiz-adv-x="361" 
d="M148 673q-11 0 -16 -8l-47 -84h-13l-36 105q63 24 135 24t107 -26.5t35 -71.5q0 -30 -13.5 -56.5t-43.5 -51.5t-54 -41t-68 -41h122q16 0 26 11l28 34h13l-22 -122h-267v14l62 68q38 42 56 63t37 55.5t19 62.5q0 65 -60 65z" />
    <glyph glyph-name="threesuperior" unicode="&#xb3;" horiz-adv-x="361" 
d="M171 710q70 0 107.5 -25.5t37.5 -66.5q0 -36 -26 -57t-68 -26q48 -5 76.5 -28t28.5 -61q0 -48 -45 -77.5t-127 -29.5q-67 0 -123 18l40 112h13l43 -86q5 -8 18 -8q36 0 55 22t19 51q0 65 -83 74v13q79 11 79 80q0 28 -17 43t-45 15q-15 0 -20 -8l-46 -84h-13l-36 106
q65 23 132 23z" />
    <glyph glyph-name="acute" unicode="&#xb4;" horiz-adv-x="333" 
d="M69 564h-14l59 167h164v-13z" />
    <glyph glyph-name="mu" unicode="&#xb5;" horiz-adv-x="632" 
d="M22 -235v13l57 46q9 8 9 21v550q0 14 -9 22l-58 62v13h210q0 -53 -0.5 -161t-0.5 -119q0 -71 15 -107t60 -36q60 0 98 71v255q0 14 -8 22l-59 62v13h211v-401q0 -13 9 -22l54 -56v-13h-196v97q-23 -46 -64.5 -76t-84.5 -30q-22 0 -33 10v-142q0 -16 13 -23l103 -57v-14
h-326z" />
    <glyph glyph-name="paragraph" unicode="&#xb6;" horiz-adv-x="581" 
d="M540 703v-14l-75 -62q-10 -7 -10 -21v-841h-57v938h142zM260 -235v541h-8q-101 0 -157.5 52.5t-56.5 145.5q0 87 54.5 143t158.5 56h66v-938h-57z" />
    <glyph glyph-name="periodcentered" unicode="&#xb7;" horiz-adv-x="286" 
d="M57 297q0 37 24.5 62.5t61.5 25.5q36 0 61 -25.5t25 -62.5t-25 -62t-61 -25q-37 0 -61.5 25t-24.5 62z" />
    <glyph glyph-name="cedilla" unicode="&#xb8;" horiz-adv-x="349" 
d="M294 -147q0 -46 -35.5 -72.5t-84.5 -26.5q-42 0 -75 19.5t-44 50.5l9 8q29 -29 72 -29q25 0 43 13t18 38q0 27 -24.5 40t-62.5 4l-6 6l69 107h7l-6 -71q48 8 84 -17t36 -70z" />
    <glyph glyph-name="onesuperior" unicode="&#xb9;" horiz-adv-x="361" 
d="M307 345h-241v13l66 40q5 4 5 13v216q0 8 -5 10l-64 36v13l167 25v-300q0 -9 6 -13l66 -40v-13z" />
    <glyph glyph-name="ordmasculine" unicode="&#xba;" horiz-adv-x="441" 
d="M220 411q66 0 66 149t-66 149q-65 0 -65 -149t65 -149zM220 370q-78 0 -128 50t-50 139q0 90 51 140.5t130 50.5t127.5 -49.5t48.5 -139.5t-50.5 -140.5t-128.5 -50.5z" />
    <glyph glyph-name="guillemotright" unicode="&#xbb;" horiz-adv-x="464" 
d="M253 256l-195 -210l-11 9l84 206l-84 206l11 9l195 -210v-10zM433 256l-196 -210l-10 9l84 206l-85 206l11 9l196 -210v-10z" />
    <glyph glyph-name="onequarter" unicode="&#xbc;" horiz-adv-x="790" 
d="M307 345h-241v13l66 40q5 4 5 13v216q0 8 -5 10l-64 36v13l167 25v-300q0 -9 6 -13l66 -40v-13zM637 688l-444 -702l-42 28l444 702zM733 0h-177v13l32 21q7 4 7 12v39h-156v7l162 266h93v-237h17q8 0 14 7l36 49h13l-13 -92h-67v-39q0 -8 6 -12l33 -21v-13zM595 121v158
l-96 -158h96z" />
    <glyph glyph-name="onehalf" unicode="&#xbd;" horiz-adv-x="790" 
d="M576 328q-11 0 -16 -9l-47 -84h-13l-36 105q63 24 135 24q73 0 107.5 -26.5t34.5 -71.5q0 -30 -13.5 -56t-43.5 -51t-54 -41t-68 -41h122q16 0 26 11l28 33h13l-22 -121h-267v13l62 69q40 45 56.5 64t36 54t19.5 63q0 65 -60 65zM307 345h-241v13l66 40q5 4 5 13v216
q0 8 -5 10l-64 36v13l167 25v-300q0 -9 6 -13l66 -40v-13zM637 688l-444 -702l-42 28l444 702z" />
    <glyph glyph-name="threequarters" unicode="&#xbe;" horiz-adv-x="790" 
d="M171 710q70 0 107.5 -25.5t37.5 -66.5q0 -36 -26 -57t-68 -26q48 -5 76.5 -28t28.5 -61q0 -48 -45 -77.5t-127 -29.5q-67 0 -123 18l40 112h13l43 -86q5 -8 18 -8q36 0 55 22t19 51q0 65 -83 74v13q79 11 79 80q0 28 -17 43t-45 15q-15 0 -20 -8l-46 -84h-13l-36 106
q65 23 132 23zM637 688l-444 -702l-42 28l444 702zM733 0h-177v13l32 21q7 4 7 12v39h-156v7l162 266h93v-237h17q8 0 14 7l36 49h13l-13 -92h-67v-39q0 -8 6 -12l33 -21v-13zM595 121v158l-96 -158h96z" />
    <glyph glyph-name="questiondown" unicode="&#xbf;" horiz-adv-x="465" 
d="M250 263h14q41 -34 41 -84q0 -53 -57 -108l-30 -29q-51 -51 -51 -108q0 -53 27.5 -85t72.5 -32q17 0 25 2q10 3 17 16l72 150h14l62 -161q-97 -47 -209 -47q-114 0 -174.5 48.5t-60.5 126.5q0 50 28 86t79 75l82 62q51 39 48 88zM257 504q37 0 61.5 -25.5t24.5 -62.5
t-24.5 -62.5t-61.5 -25.5q-36 0 -61 25.5t-25 62.5t25 62.5t61 25.5z" />
    <glyph glyph-name="Agrave" unicode="&#xc0;" horiz-adv-x="706" 
d="M470 96l-46 125h-233l-30 -83q-6 -16 7 -30l83 -93v-15h-258v15l96 95q13 13 20 29l158 431q6 18 -1 34l-39 86v13h182l224 -594q6 -19 16 -30l56 -64v-15h-303v15l65 60q8 8 3 21zM306 539l-98 -273h199zM402 761h-15l-208 154v13h164z" />
    <glyph glyph-name="Aacute" unicode="&#xc1;" horiz-adv-x="706" 
d="M470 96l-46 125h-233l-30 -83q-6 -16 7 -30l83 -93v-15h-258v15l96 95q13 13 20 29l158 431q6 18 -1 34l-39 86v13h182l224 -594q6 -19 16 -30l56 -64v-15h-303v15l65 60q8 8 3 21zM306 539l-98 -273h199zM283 760h-14l59 167h164v-13z" />
    <glyph glyph-name="Acircumflex" unicode="&#xc2;" horiz-adv-x="706" 
d="M470 96l-46 125h-233l-30 -83q-6 -16 7 -30l83 -93v-15h-258v15l96 95q13 13 20 29l158 431q6 18 -1 34l-39 86v13h182l224 -594q6 -19 16 -30l56 -64v-15h-303v15l65 60q8 8 3 21zM306 539l-98 -273h199zM327 820l-147 -61l-7 11l148 172h13l148 -172l-8 -11z" />
    <glyph glyph-name="Atilde" unicode="&#xc3;" horiz-adv-x="706" 
d="M470 96l-46 125h-233l-30 -83q-6 -16 7 -30l83 -93v-15h-258v15l96 95q13 13 20 29l158 431q6 18 -1 34l-39 86v13h182l224 -594q6 -19 16 -30l56 -64v-15h-303v15l65 60q8 8 3 21zM306 539l-98 -273h199zM377 768q-23 0 -64 26.5t-59 26.5t-32 -11.5t-34 -39.5h-13
q21 138 105 138q22 0 62.5 -27t60.5 -27q17 0 31 11.5t34 40.5h13q-20 -138 -104 -138z" />
    <glyph glyph-name="Adieresis" unicode="&#xc4;" horiz-adv-x="706" 
d="M470 96l-46 125h-233l-30 -83q-6 -16 7 -30l83 -93v-15h-258v15l96 95q13 13 20 29l158 431q6 18 -1 34l-39 86v13h182l224 -594q6 -19 16 -30l56 -64v-15h-303v15l65 60q8 8 3 21zM306 539l-98 -273h199zM156 841q0 31 21 51.5t50 20.5t49.5 -20.5t20.5 -51.5
q0 -30 -20.5 -50t-49.5 -20t-50 20t-21 50zM363 841q0 31 20.5 51.5t49.5 20.5t49.5 -20.5t20.5 -51.5q0 -30 -20.5 -50t-49.5 -20t-49.5 20t-20.5 50z" />
    <glyph glyph-name="Aring" unicode="&#xc5;" horiz-adv-x="706" 
d="M470 96l-46 125h-233l-30 -83q-6 -16 7 -30l83 -93v-15h-258v15l96 95q13 13 20 29l158 431q6 18 -1 34l-39 86v13h182l224 -594q6 -19 16 -30l56 -64v-15h-303v15l65 60q8 8 3 21zM306 539l-98 -273h199zM395 863q0 29 -19 49t-48 20t-48 -20t-19 -49q0 -30 18.5 -50
t48.5 -20q29 0 48 20t19 50zM212 863q0 51 34.5 81.5t81.5 30.5q46 0 80.5 -30.5t34.5 -81.5t-34.5 -82t-80.5 -31q-47 0 -81.5 30.5t-34.5 82.5z" />
    <glyph glyph-name="AE" unicode="&#xc6;" horiz-adv-x="989" 
d="M-16 0v13l102 92q21 20 37 44l300 463q8 13 -1 22l-55 56v13h552v-222h-14l-109 161q-10 16 -27 16h-138q-10 0 -13 -2.5t-3 -12.5v-277h92q17 0 30 15l71 85h14v-245h-14l-71 85q-12 14 -30 14h-92v-260q0 -10 3 -12.5t13 -2.5h143q18 0 28 16l112 163h14l-1 -224h-561
v13l80 63q9 7 9 20v125h-226l-58 -88q-11 -18 5 -36l72 -84v-13h-264zM257 266h198v306z" />
    <glyph glyph-name="Ccedilla" unicode="&#xc7;" horiz-adv-x="663" 
d="M482 -147q0 -46 -35.5 -72.5t-84.5 -26.5q-42 0 -75 19.5t-44 50.5l9 8q29 -29 72 -29q25 0 43 13t18 38q0 27 -24.5 40t-62.5 4l-6 6l53 83q-154 14 -231.5 113t-77.5 250q0 164 95 266t269 102q106 0 197 -24v-227h-14l-133 187q-9 12 -24 14q-18 2 -30 2
q-177 0 -177 -314q0 -323 178 -323q12 0 28 2q18 2 25 13l137 193h14v-231q-96 -25 -206 -25q-5 0 -15 0.5t-14 0.5l-4 -46q48 8 84 -17t36 -70z" />
    <glyph glyph-name="Egrave" unicode="&#xc8;" horiz-adv-x="649" 
d="M482 231h-14l-71 85q-12 14 -30 14h-93v-270q0 -9 3.5 -12t12.5 -3h144q17 0 28 16l111 163h15v-224h-560v15l75 61q9 7 9 20v511q0 13 -9 20l-75 61v15h553v-222h-14l-109 161q-10 16 -27 16h-141q-9 0 -12.5 -3t-3.5 -12v-267h93q17 0 30 15l71 85h14v-245zM400 761
h-15l-208 154v13h164z" />
    <glyph glyph-name="Eacute" unicode="&#xc9;" horiz-adv-x="649" 
d="M287 760h-14l59 167h164v-13zM482 231h-14l-71 85q-12 14 -30 14h-93v-270q0 -9 3.5 -12t12.5 -3h144q17 0 28 16l111 163h15v-224h-560v15l75 61q9 7 9 20v511q0 13 -9 20l-75 61v15h553v-222h-14l-109 161q-10 16 -27 16h-141q-9 0 -12.5 -3t-3.5 -12v-267h93
q17 0 30 15l71 85h14v-245z" />
    <glyph glyph-name="Ecircumflex" unicode="&#xca;" horiz-adv-x="649" 
d="M331 820l-147 -61l-7 11l148 172h13l148 -172l-8 -11zM482 231h-14l-71 85q-12 14 -30 14h-93v-270q0 -9 3.5 -12t12.5 -3h144q17 0 28 16l111 163h15v-224h-560v15l75 61q9 7 9 20v511q0 13 -9 20l-75 61v15h553v-222h-14l-109 161q-10 16 -27 16h-141q-9 0 -12.5 -3
t-3.5 -12v-267h93q17 0 30 15l71 85h14v-245z" />
    <glyph glyph-name="Edieresis" unicode="&#xcb;" horiz-adv-x="649" 
d="M158 841q0 31 21 51.5t50 20.5t49.5 -20.5t20.5 -51.5q0 -30 -20.5 -50t-49.5 -20t-50 20t-21 50zM365 841q0 31 20.5 51.5t49.5 20.5t49.5 -20.5t20.5 -51.5q0 -30 -20.5 -50t-49.5 -20t-49.5 20t-20.5 50zM482 231h-14l-71 85q-12 14 -30 14h-93v-270q0 -9 3.5 -12
t12.5 -3h144q17 0 28 16l111 163h15v-224h-560v15l75 61q9 7 9 20v511q0 13 -9 20l-75 61v15h553v-222h-14l-109 161q-10 16 -27 16h-141q-9 0 -12.5 -3t-3.5 -12v-267h93q17 0 30 15l71 85h14v-245z" />
    <glyph glyph-name="Igrave" unicode="&#xcc;" horiz-adv-x="387" 
d="M359 0h-331v15l75 61q9 7 9 20v511q0 13 -9 20l-75 61v15h331v-15l-76 -61q-9 -8 -9 -20v-511q0 -12 9 -20l76 -61v-15zM263 761h-15l-208 154v13h164z" />
    <glyph glyph-name="Iacute" unicode="&#xcd;" horiz-adv-x="387" 
d="M359 0h-331v15l75 61q9 7 9 20v511q0 13 -9 20l-75 61v15h331v-15l-76 -61q-9 -8 -9 -20v-511q0 -12 9 -20l76 -61v-15zM148 760h-14l59 167h164v-13z" />
    <glyph glyph-name="Icircumflex" unicode="&#xce;" horiz-adv-x="387" 
d="M359 0h-331v15l75 61q9 7 9 20v511q0 13 -9 20l-75 61v15h331v-15l-76 -61q-9 -8 -9 -20v-511q0 -12 9 -20l76 -61v-15zM194 820l-147 -61l-7 11l148 172h13l148 -172l-8 -11z" />
    <glyph glyph-name="Idieresis" unicode="&#xcf;" horiz-adv-x="387" 
d="M359 0h-331v15l75 61q9 7 9 20v511q0 13 -9 20l-75 61v15h331v-15l-76 -61q-9 -8 -9 -20v-511q0 -12 9 -20l76 -61v-15zM20 841q0 31 21 51.5t50 20.5t49.5 -20.5t20.5 -51.5q0 -30 -20.5 -50t-49.5 -20t-50 20t-21 50zM227 841q0 31 20.5 51.5t49.5 20.5t49.5 -20.5
t20.5 -51.5q0 -30 -20.5 -50t-49.5 -20t-49.5 20t-20.5 50z" />
    <glyph glyph-name="Eth" unicode="&#xd0;" horiz-adv-x="768" 
d="M359 0h-311v15l76 61q9 8 9 20v235h-85v46h85v230q0 12 -9 20l-76 61v15h333q168 0 260 -89.5t92 -249.5q0 -90 -30 -161t-82 -114.5t-118.5 -66t-143.5 -22.5zM351 45q92 0 145.5 77.5t53.5 235.5q0 300 -195 300h-46q-8 0 -11 -3t-3 -12v-266h126v-46h-126v-270
q0 -10 3 -13t12 -3h41z" />
    <glyph glyph-name="Ntilde" unicode="&#xd1;" horiz-adv-x="747" 
d="M642 557v-557h-92l-370 527v-381q0 -21 12 -34l93 -97v-15h-259v15l92 97q12 13 12 34v415q0 15 -10 25l-97 102v15h224l345 -491v345q0 19 -12 34l-93 97v15h259v-15l-92 -97q-12 -12 -12 -34zM433 768q-23 0 -64 26.5t-59 26.5t-32 -11.5t-34 -39.5h-13q21 138 105 138
q22 0 62.5 -27t60.5 -27q17 0 31 11.5t34 40.5h13q-20 -138 -104 -138z" />
    <glyph glyph-name="Ograve" unicode="&#xd2;" horiz-adv-x="759" 
d="M381 718q154 0 248.5 -95.5t94.5 -267.5q0 -170 -95.5 -270t-249.5 -100q-155 0 -249.5 96t-94.5 268q0 170 95.5 269.5t250.5 99.5zM378 670q-158 0 -158 -315q0 -160 42 -241t120 -81q156 0 156 316q0 160 -41.5 240.5t-118.5 80.5zM448 761h-15l-208 154v13h164z" />
    <glyph glyph-name="Oacute" unicode="&#xd3;" horiz-adv-x="759" 
d="M334 760h-14l59 167h164v-13zM381 718q154 0 248.5 -95.5t94.5 -267.5q0 -170 -95.5 -270t-249.5 -100q-155 0 -249.5 96t-94.5 268q0 170 95.5 269.5t250.5 99.5zM378 670q-158 0 -158 -315q0 -160 42 -241t120 -81q156 0 156 316q0 160 -41.5 240.5t-118.5 80.5z" />
    <glyph glyph-name="Ocircumflex" unicode="&#xd4;" horiz-adv-x="759" 
d="M379 820l-147 -61l-7 11l148 172h13l148 -172l-8 -11zM381 718q154 0 248.5 -95.5t94.5 -267.5q0 -170 -95.5 -270t-249.5 -100q-155 0 -249.5 96t-94.5 268q0 170 95.5 269.5t250.5 99.5zM378 670q-158 0 -158 -315q0 -160 42 -241t120 -81q156 0 156 316
q0 160 -41.5 240.5t-118.5 80.5z" />
    <glyph glyph-name="Otilde" unicode="&#xd5;" horiz-adv-x="759" 
d="M381 718q154 0 248.5 -95.5t94.5 -267.5q0 -170 -95.5 -270t-249.5 -100q-155 0 -249.5 96t-94.5 268q0 170 95.5 269.5t250.5 99.5zM378 670q-158 0 -158 -315q0 -160 42 -241t120 -81q156 0 156 316q0 160 -41.5 240.5t-118.5 80.5zM428 768q-23 0 -64 26.5t-59 26.5
t-32 -11.5t-34 -39.5h-13q21 138 105 138q22 0 62.5 -27t60.5 -27q17 0 31 11.5t34 40.5h13q-20 -138 -104 -138z" />
    <glyph glyph-name="Odieresis" unicode="&#xd6;" horiz-adv-x="759" 
d="M205 841q0 31 21 51.5t50 20.5t49.5 -20.5t20.5 -51.5q0 -30 -20.5 -50t-49.5 -20t-50 20t-21 50zM412 841q0 31 20.5 51.5t49.5 20.5t49.5 -20.5t20.5 -51.5q0 -30 -20.5 -50t-49.5 -20t-49.5 20t-20.5 50zM381 718q154 0 248.5 -95.5t94.5 -267.5q0 -170 -95.5 -270
t-249.5 -100q-155 0 -249.5 96t-94.5 268q0 170 95.5 269.5t250.5 99.5zM378 670q-158 0 -158 -315q0 -160 42 -241t120 -81q156 0 156 316q0 160 -41.5 240.5t-118.5 80.5z" />
    <glyph glyph-name="multiply" unicode="&#xd7;" 
d="M463 33l-163 162l-162 -162l-46 47l162 161l-163 162l47 48l162 -163l163 162l46 -46l-162 -162l162 -162z" />
    <glyph glyph-name="Oslash" unicode="&#xd8;" horiz-adv-x="759" 
d="M381 718q63 0 122 -19l38 87l42 -18l-38 -86q84 -41 131.5 -124.5t47.5 -202.5q0 -170 -95.5 -270t-249.5 -100q-72 0 -132 21l-39 -89l-42 18l40 89q-81 42 -126 125t-45 200q0 170 95.5 269.5t250.5 99.5zM538 349q0 144 -42 223l-213 -484q37 -55 99 -55
q156 0 156 316zM378 670q-158 0 -158 -315q0 -132 38 -211l212 480q-36 46 -92 46z" />
    <glyph glyph-name="Ugrave" unicode="&#xd9;" horiz-adv-x="727" 
d="M368 -15q-269 0 -269 259v358q0 12 -9 20l-73 66v15h326v-15l-73 -66q-9 -7 -9 -20v-351q0 -98 40 -150t115 -52q74 0 117 50t43 149v309q0 21 -12 34l-93 97v15h260v-15l-93 -97q-12 -13 -12 -34v-312q0 -120 -61.5 -190t-196.5 -70zM458 761h-15l-208 154v13h164z" />
    <glyph glyph-name="Uacute" unicode="&#xda;" horiz-adv-x="727" 
d="M345 760h-14l59 167h164v-13zM368 -15q-269 0 -269 259v358q0 12 -9 20l-73 66v15h326v-15l-73 -66q-9 -7 -9 -20v-351q0 -98 40 -150t115 -52q74 0 117 50t43 149v309q0 21 -12 34l-93 97v15h260v-15l-93 -97q-12 -13 -12 -34v-312q0 -120 -61.5 -190t-196.5 -70z" />
    <glyph glyph-name="Ucircumflex" unicode="&#xdb;" horiz-adv-x="727" 
d="M389 820l-147 -61l-7 11l148 172h13l148 -172l-8 -11zM368 -15q-269 0 -269 259v358q0 12 -9 20l-73 66v15h326v-15l-73 -66q-9 -7 -9 -20v-351q0 -98 40 -150t115 -52q74 0 117 50t43 149v309q0 21 -12 34l-93 97v15h260v-15l-93 -97q-12 -13 -12 -34v-312
q0 -120 -61.5 -190t-196.5 -70z" />
    <glyph glyph-name="Udieresis" unicode="&#xdc;" horiz-adv-x="727" 
d="M216 841q0 31 21 51.5t50 20.5t49.5 -20.5t20.5 -51.5q0 -30 -20.5 -50t-49.5 -20t-50 20t-21 50zM423 841q0 31 20.5 51.5t49.5 20.5t49.5 -20.5t20.5 -51.5q0 -30 -20.5 -50t-49.5 -20t-49.5 20t-20.5 50zM368 -15q-269 0 -269 259v358q0 12 -9 20l-73 66v15h326v-15
l-73 -66q-9 -7 -9 -20v-351q0 -98 40 -150t115 -52q74 0 117 50t43 149v309q0 21 -12 34l-93 97v15h260v-15l-93 -97q-12 -13 -12 -34v-312q0 -120 -61.5 -190t-196.5 -70z" />
    <glyph glyph-name="Yacute" unicode="&#xdd;" horiz-adv-x="677" 
d="M503 0h-331v15l76 61q9 8 9 20v158q0 21 -8 36l-172 302q-12 22 -27 37l-61 59v15h335v-15l-68 -58q-14 -13 -6 -27l144 -267l127 239q7 13 -2 24l-76 89v15h258v-15l-101 -89q-20 -17 -30 -38l-143 -269q-8 -15 -8 -34v-162q0 -13 9 -20l75 -61v-15zM318 760h-14l59 167
h164v-13z" />
    <glyph glyph-name="Thorn" unicode="&#xde;" horiz-adv-x="649" 
d="M274 197h62q61 0 95 45.5t34 130.5q0 87 -32 131t-90 44h-69v-351zM342 151h-68v-55q0 -12 9 -20l76 -63v-13h-331v13l75 63q9 7 9 20v511q0 13 -9 20l-75 63v13h246v-109h93q123 0 195 -52.5t72 -159.5q0 -110 -79 -170.5t-213 -60.5z" />
    <glyph glyph-name="germandbls" unicode="&#xdf;" horiz-adv-x="674" 
d="M37 0v12l58 47q9 8 9 21v357h-67v55h67v33q0 116 65.5 170.5t182.5 54.5q88 0 147.5 -36t59.5 -100q0 -54 -76 -111l-53 -39q-35 -27 -35 -55q0 -19 16 -33.5t52 -31.5l90 -43q50 -23 77 -56t27 -86q0 -81 -60 -126t-151 -45q-84 0 -159 31l44 142h12l56 -115
q6 -13 18 -17t31 -4q35 0 61 24t26 59q0 28 -19 47.5t-57 38.5l-80 40q-86 40 -86 112q0 32 17 56.5t51 54.5l40 35q53 45 53 108q0 49 -27.5 81t-74.5 32q-48 0 -76.5 -38t-28.5 -108v-567h-210z" />
    <glyph glyph-name="agrave" unicode="&#xe0;" horiz-adv-x="547" 
d="M243 288q45 0 86 -11q0 21 0.5 48t0.5 30q0 49 -22.5 77t-66.5 28q-10 0 -17 -1q-11 -1 -18 -12l-75 -122h-14l-49 145q86 34 182 34q114 0 166 -43t52 -136q0 -34 -3 -107t-3 -99q0 -52 32 -52q20 0 31 18l11 -8q-8 -40 -38.5 -64.5t-73.5 -24.5q-42 0 -68.5 24
t-29.5 65q-22 -41 -60.5 -65t-86.5 -24q-61 0 -101 36.5t-40 98.5q0 73 57.5 119t147.5 46zM242 67q57 0 84 63q0 28 2 106q-24 6 -45 6q-50 0 -80 -27t-30 -71q0 -35 19 -56t50 -21zM337 565h-15l-208 154v13h164z" />
    <glyph glyph-name="aacute" unicode="&#xe1;" horiz-adv-x="547" 
d="M243 288q45 0 86 -11q0 21 0.5 48t0.5 30q0 49 -22.5 77t-66.5 28q-10 0 -17 -1q-11 -1 -18 -12l-75 -122h-14l-49 145q86 34 182 34q114 0 166 -43t52 -136q0 -34 -3 -107t-3 -99q0 -52 32 -52q20 0 31 18l11 -8q-8 -40 -38.5 -64.5t-73.5 -24.5q-42 0 -68.5 24
t-29.5 65q-22 -41 -60.5 -65t-86.5 -24q-61 0 -101 36.5t-40 98.5q0 73 57.5 119t147.5 46zM242 67q57 0 84 63q0 28 2 106q-24 6 -45 6q-50 0 -80 -27t-30 -71q0 -35 19 -56t50 -21zM224 564h-14l59 167h164v-13z" />
    <glyph glyph-name="acircumflex" unicode="&#xe2;" horiz-adv-x="547" 
d="M243 288q45 0 86 -11q0 21 0.5 48t0.5 30q0 49 -22.5 77t-66.5 28q-10 0 -17 -1q-11 -1 -18 -12l-75 -122h-14l-49 145q86 34 182 34q114 0 166 -43t52 -136q0 -34 -3 -107t-3 -99q0 -52 32 -52q20 0 31 18l11 -8q-8 -40 -38.5 -64.5t-73.5 -24.5q-42 0 -68.5 24
t-29.5 65q-22 -41 -60.5 -65t-86.5 -24q-61 0 -101 36.5t-40 98.5q0 73 57.5 119t147.5 46zM242 67q57 0 84 63q0 28 2 106q-24 6 -45 6q-50 0 -80 -27t-30 -71q0 -35 19 -56t50 -21zM268 624l-147 -61l-7 11l148 172h13l148 -172l-8 -11z" />
    <glyph glyph-name="atilde" unicode="&#xe3;" horiz-adv-x="547" 
d="M243 288q45 0 86 -11q0 21 0.5 48t0.5 30q0 49 -22.5 77t-66.5 28q-10 0 -17 -1q-11 -1 -18 -12l-75 -122h-14l-49 145q86 34 182 34q114 0 166 -43t52 -136q0 -34 -3 -107t-3 -99q0 -52 32 -52q20 0 31 18l11 -8q-8 -40 -38.5 -64.5t-73.5 -24.5q-42 0 -68.5 24
t-29.5 65q-22 -41 -60.5 -65t-86.5 -24q-61 0 -101 36.5t-40 98.5q0 73 57.5 119t147.5 46zM242 67q57 0 84 63q0 28 2 106q-24 6 -45 6q-50 0 -80 -27t-30 -71q0 -35 19 -56t50 -21zM318 572q-23 0 -64 26.5t-59 26.5t-32 -11.5t-34 -39.5h-13q21 138 105 138
q22 0 62.5 -27t60.5 -27q17 0 31 11.5t34 40.5h13q-20 -138 -104 -138z" />
    <glyph glyph-name="adieresis" unicode="&#xe4;" horiz-adv-x="547" 
d="M243 288q45 0 86 -11q0 21 0.5 48t0.5 30q0 49 -22.5 77t-66.5 28q-10 0 -17 -1q-11 -1 -18 -12l-75 -122h-14l-49 145q86 34 182 34q114 0 166 -43t52 -136q0 -34 -3 -107t-3 -99q0 -52 32 -52q20 0 31 18l11 -8q-8 -40 -38.5 -64.5t-73.5 -24.5q-42 0 -68.5 24
t-29.5 65q-22 -41 -60.5 -65t-86.5 -24q-61 0 -101 36.5t-40 98.5q0 73 57.5 119t147.5 46zM242 67q57 0 84 63q0 28 2 106q-24 6 -45 6q-50 0 -80 -27t-30 -71q0 -35 19 -56t50 -21zM95 645q0 31 21 51.5t50 20.5t49.5 -20.5t20.5 -51.5q0 -30 -20.5 -50t-49.5 -20t-50 20
t-21 50zM302 645q0 31 20.5 51.5t49.5 20.5t49.5 -20.5t20.5 -51.5q0 -30 -20.5 -50t-49.5 -20t-49.5 20t-20.5 50z" />
    <glyph glyph-name="aring" unicode="&#xe5;" horiz-adv-x="547" 
d="M243 288q45 0 86 -11q0 21 0.5 48t0.5 30q0 49 -22.5 77t-66.5 28q-10 0 -17 -1q-11 -1 -18 -12l-75 -122h-14l-49 145q86 34 182 34q114 0 166 -43t52 -136q0 -34 -3 -107t-3 -99q0 -52 32 -52q20 0 31 18l11 -8q-8 -40 -38.5 -64.5t-73.5 -24.5q-42 0 -68.5 24
t-29.5 65q-22 -41 -60.5 -65t-86.5 -24q-61 0 -101 36.5t-40 98.5q0 73 57.5 119t147.5 46zM242 67q57 0 84 63q0 28 2 106q-24 6 -45 6q-50 0 -80 -27t-30 -71q0 -35 19 -56t50 -21zM335 667q0 29 -19 49t-48 20t-48 -20t-19 -49q0 -30 18.5 -50t48.5 -20q29 0 48 20t19 50
zM152 667q0 51 34.5 81.5t81.5 30.5q46 0 80.5 -30.5t34.5 -81.5t-34.5 -82t-80.5 -31q-47 0 -81.5 30.5t-34.5 82.5z" />
    <glyph glyph-name="ae" unicode="&#xe6;" horiz-adv-x="821" 
d="M468 290h173q-1 87 -21.5 127t-61.5 40q-86 0 -90 -167zM182 -12q-63 0 -103.5 37t-40.5 98q0 73 56.5 119t147.5 46q47 0 83 -10q0 4 2.5 36t2.5 45q0 46 -22.5 73.5t-66.5 27.5q-3 0 -9.5 -0.5t-7.5 -0.5q-13 -2 -18 -12l-75 -122h-14l-49 145q83 34 182 34
q119 0 164 -51q64 51 147 51q100 0 160 -55t60 -171q0 -24 -1 -32h-312q4 -85 46 -126t105 -41q93 0 151 66l12 -7q-48 -150 -219 -150q-69 0 -122 26.5t-82 74.5q-26 -47 -74.5 -74t-102.5 -27zM241 67q61 0 95 64q-13 45 -14 107q-26 4 -39 4q-48 0 -79 -26.5t-31 -73.5
q0 -35 20 -55t48 -20z" />
    <glyph glyph-name="ccedilla" unicode="&#xe7;" horiz-adv-x="495" 
d="M368 -147q0 -46 -35.5 -72.5t-84.5 -26.5q-42 0 -75 19.5t-44 50.5l9 8q29 -29 72 -29q25 0 43 13t18 38q0 27 -24.5 40t-62.5 4l-6 6l55 86q-89 11 -144 74.5t-55 172.5q0 129 77 198t199 69q82 0 159 -29l-57 -161h-14l-68 131q-7 13 -16 13h-11q-52 0 -84.5 -49.5
t-32.5 -132.5q0 -98 43 -146.5t109 -48.5q73 0 119 55l13 -8q-22 -65 -74.5 -102.5t-126.5 -37.5q-12 0 -17 1l-4 -49q48 8 84 -17t36 -70z" />
    <glyph glyph-name="egrave" unicode="&#xe8;" horiz-adv-x="535" 
d="M495 246h-312q3 -87 45.5 -127t104.5 -40q93 0 151 66l13 -7q-50 -150 -220 -150q-108 0 -175.5 65.5t-67.5 188.5q0 126 68 194t174 68q99 0 159 -55t60 -171v-32zM272 457q-84 0 -90 -167h173q-1 167 -83 167zM348 565h-15l-208 154v13h164z" />
    <glyph glyph-name="eacute" unicode="&#xe9;" horiz-adv-x="535" 
d="M495 246h-312q3 -87 45.5 -127t104.5 -40q93 0 151 66l13 -7q-50 -150 -220 -150q-108 0 -175.5 65.5t-67.5 188.5q0 126 68 194t174 68q99 0 159 -55t60 -171v-32zM272 457q-84 0 -90 -167h173q-1 167 -83 167zM234 564h-14l59 167h164v-13z" />
    <glyph glyph-name="ecircumflex" unicode="&#xea;" horiz-adv-x="535" 
d="M495 246h-312q3 -87 45.5 -127t104.5 -40q93 0 151 66l13 -7q-50 -150 -220 -150q-108 0 -175.5 65.5t-67.5 188.5q0 126 68 194t174 68q99 0 159 -55t60 -171v-32zM272 457q-84 0 -90 -167h173q-1 167 -83 167zM279 624l-147 -61l-7 11l148 172h13l148 -172l-8 -11z" />
    <glyph glyph-name="edieresis" unicode="&#xeb;" horiz-adv-x="535" 
d="M495 246h-312q3 -87 45.5 -127t104.5 -40q93 0 151 66l13 -7q-50 -150 -220 -150q-108 0 -175.5 65.5t-67.5 188.5q0 126 68 194t174 68q99 0 159 -55t60 -171v-32zM272 457q-84 0 -90 -167h173q-1 167 -83 167zM105 645q0 31 21 51.5t50 20.5t49.5 -20.5t20.5 -51.5
q0 -30 -20.5 -50t-49.5 -20t-50 20t-21 50zM312 645q0 31 20.5 51.5t49.5 20.5t49.5 -20.5t20.5 -51.5q0 -30 -20.5 -50t-49.5 -20t-49.5 20t-20.5 50z" />
    <glyph glyph-name="igrave" unicode="&#xec;" horiz-adv-x="332" 
d="M102 80v315q0 13 -7 21l-60 63v13h211v-412q0 -13 9 -21l57 -46v-13h-277v13l58 46q9 8 9 21zM243 565h-15l-208 154v13h164z" />
    <glyph glyph-name="iacute" unicode="&#xed;" horiz-adv-x="332" 
d="M128 564h-14l59 167h164v-13zM102 80v315q0 13 -7 21l-60 63v13h211v-412q0 -13 9 -21l57 -46v-13h-277v13l58 46q9 8 9 21z" />
    <glyph glyph-name="icircumflex" unicode="&#xee;" horiz-adv-x="332" 
d="M174 624l-147 -61l-7 11l148 172h13l148 -172l-8 -11zM102 80v315q0 13 -7 21l-60 63v13h211v-412q0 -13 9 -21l57 -46v-13h-277v13l58 46q9 8 9 21z" />
    <glyph glyph-name="idieresis" unicode="&#xef;" horiz-adv-x="332" 
d="M0 645q0 31 21 51.5t50 20.5t49.5 -20.5t20.5 -51.5q0 -30 -20.5 -50t-49.5 -20t-50 20t-21 50zM207 645q0 31 20.5 51.5t49.5 20.5t49.5 -20.5t20.5 -51.5q0 -30 -20.5 -50t-49.5 -20t-49.5 20t-20.5 50zM102 80v315q0 13 -7 21l-60 63v13h211v-412q0 -13 9 -21l57 -46
v-13h-277v13l58 46q9 8 9 21z" />
    <glyph glyph-name="eth" unicode="&#xf0;" horiz-adv-x="588" 
d="M466 717l-90 -56q82 -61 130 -157t48 -214q0 -140 -67.5 -220.5t-194.5 -80.5q-115 0 -187 65.5t-72 186.5t69.5 192t168.5 71q75 0 109 -49q-25 95 -79 161l-109 -67l-21 37l101 62q-52 51 -125 79l4 20q101 -8 186 -59l108 66zM403 252q0 95 -28 149.5t-75 54.5
q-107 0 -107 -212q0 -99 27.5 -154t76.5 -55t77.5 55.5t28.5 161.5z" />
    <glyph glyph-name="ntilde" unicode="&#xf1;" horiz-adv-x="647" 
d="M637 0h-277v13l57 46q9 7 9 21q2 50 2 209q0 134 -83 134q-61 0 -99 -71v-272q0 -13 9 -21l57 -46v-13h-277v13l58 46q9 8 9 21v315q0 13 -7 21l-60 63v13h200v-96q55 108 170 108q168 0 168 -216q0 -27 -1.5 -107t-1.5 -102q0 -12 9 -20l58 -46v-13zM385 572
q-23 0 -64 26.5t-59 26.5t-32 -11.5t-34 -39.5h-13q21 138 105 138q22 0 62.5 -27t60.5 -27q17 0 31 11.5t34 40.5h13q-20 -138 -104 -138z" />
    <glyph glyph-name="ograve" unicode="&#xf2;" horiz-adv-x="589" 
d="M293 -12q-119 0 -189.5 67t-70.5 187q0 122 72.5 192t192.5 70q117 0 187.5 -67.5t70.5 -186.5q0 -121 -72 -191.5t-191 -70.5zM297 35q48 0 73.5 54t25.5 155q0 102 -26 157t-77 55q-49 0 -74.5 -53.5t-25.5 -154.5q0 -103 26.5 -158t77.5 -55zM363 565h-15l-208 154v13
h164z" />
    <glyph glyph-name="oacute" unicode="&#xf3;" horiz-adv-x="589" 
d="M250 564h-14l59 167h164v-13zM293 -12q-119 0 -189.5 67t-70.5 187q0 122 72.5 192t192.5 70q117 0 187.5 -67.5t70.5 -186.5q0 -121 -72 -191.5t-191 -70.5zM297 35q48 0 73.5 54t25.5 155q0 102 -26 157t-77 55q-49 0 -74.5 -53.5t-25.5 -154.5q0 -103 26.5 -158
t77.5 -55z" />
    <glyph glyph-name="ocircumflex" unicode="&#xf4;" horiz-adv-x="589" 
d="M294 624l-147 -61l-7 11l148 172h13l148 -172l-8 -11zM293 -12q-119 0 -189.5 67t-70.5 187q0 122 72.5 192t192.5 70q117 0 187.5 -67.5t70.5 -186.5q0 -121 -72 -191.5t-191 -70.5zM297 35q48 0 73.5 54t25.5 155q0 102 -26 157t-77 55q-49 0 -74.5 -53.5t-25.5 -154.5
q0 -103 26.5 -158t77.5 -55z" />
    <glyph glyph-name="otilde" unicode="&#xf5;" horiz-adv-x="589" 
d="M293 -12q-119 0 -189.5 67t-70.5 187q0 122 72.5 192t192.5 70q117 0 187.5 -67.5t70.5 -186.5q0 -121 -72 -191.5t-191 -70.5zM297 35q48 0 73.5 54t25.5 155q0 102 -26 157t-77 55q-49 0 -74.5 -53.5t-25.5 -154.5q0 -103 26.5 -158t77.5 -55zM344 572q-23 0 -64 26.5
t-59 26.5t-32 -11.5t-34 -39.5h-13q21 138 105 138q22 0 62.5 -27t60.5 -27q17 0 31 11.5t34 40.5h13q-20 -138 -104 -138z" />
    <glyph glyph-name="odieresis" unicode="&#xf6;" horiz-adv-x="589" 
d="M121 645q0 31 21 51.5t50 20.5t49.5 -20.5t20.5 -51.5q0 -30 -20.5 -50t-49.5 -20t-50 20t-21 50zM328 645q0 31 20.5 51.5t49.5 20.5t49.5 -20.5t20.5 -51.5q0 -30 -20.5 -50t-49.5 -20t-49.5 20t-20.5 50zM293 -12q-119 0 -189.5 67t-70.5 187q0 122 72.5 192t192.5 70
q117 0 187.5 -67.5t70.5 -186.5q0 -121 -72 -191.5t-191 -70.5zM297 35q48 0 73.5 54t25.5 155q0 102 -26 157t-77 55q-49 0 -74.5 -53.5t-25.5 -154.5q0 -103 26.5 -158t77.5 -55z" />
    <glyph glyph-name="divide" unicode="&#xf7;" 
d="M225 400q0 33 21.5 52.5t53.5 19.5t52.5 -19.5t20.5 -51.5q0 -33 -20.5 -53t-52.5 -20t-53.5 20t-21.5 52zM520 209h-440v66h440v-66zM225 83q0 33 21.5 53t53.5 20t52.5 -19.5t20.5 -52.5t-20.5 -52.5t-52.5 -19.5t-53.5 19.5t-21.5 51.5z" />
    <glyph glyph-name="oslash" unicode="&#xf8;" horiz-adv-x="592" 
d="M293 -12q-44 0 -85 11l-37 -86l-37 17l36 82q-65 28 -101 87t-36 143q0 122 72.5 192t192.5 70q42 0 83 -11l36 82l37 -17l-35 -79q65 -28 101 -86.5t36 -142.5q0 -121 -72 -191.5t-191 -70.5zM297 36q102 0 102 208q0 81 -24 134l-138 -314q24 -28 60 -28zM191 248
q0 -86 23 -136l137 315q-22 29 -58 29q-102 0 -102 -208z" />
    <glyph glyph-name="ugrave" unicode="&#xf9;" horiz-adv-x="623" 
d="M600 0h-196v97q-57 -109 -172 -109q-157 0 -157 207q0 30 1 105t1 95q0 14 -8 22l-58 62v13h210q-2 -178 -2 -279q0 -70 14.5 -107t60.5 -37q59 0 99 71v255q0 14 -9 22l-58 62v13h210v-401q0 -12 9 -22l55 -56v-13zM370 565h-15l-208 154v13h164z" />
    <glyph glyph-name="uacute" unicode="&#xfa;" horiz-adv-x="623" 
d="M257 564h-14l59 167h164v-13zM600 0h-196v97q-57 -109 -172 -109q-157 0 -157 207q0 30 1 105t1 95q0 14 -8 22l-58 62v13h210q-2 -178 -2 -279q0 -70 14.5 -107t60.5 -37q59 0 99 71v255q0 14 -9 22l-58 62v13h210v-401q0 -12 9 -22l55 -56v-13z" />
    <glyph glyph-name="ucircumflex" unicode="&#xfb;" horiz-adv-x="623" 
d="M301 624l-147 -61l-7 11l148 172h13l148 -172l-8 -11zM600 0h-196v97q-57 -109 -172 -109q-157 0 -157 207q0 30 1 105t1 95q0 14 -8 22l-58 62v13h210q-2 -178 -2 -279q0 -70 14.5 -107t60.5 -37q59 0 99 71v255q0 14 -9 22l-58 62v13h210v-401q0 -12 9 -22l55 -56v-13z
" />
    <glyph glyph-name="udieresis" unicode="&#xfc;" horiz-adv-x="623" 
d="M128 645q0 31 21 51.5t50 20.5t49.5 -20.5t20.5 -51.5q0 -30 -20.5 -50t-49.5 -20t-50 20t-21 50zM335 645q0 31 20.5 51.5t49.5 20.5t49.5 -20.5t20.5 -51.5q0 -30 -20.5 -50t-49.5 -20t-49.5 20t-20.5 50zM600 0h-196v97q-57 -109 -172 -109q-157 0 -157 207
q0 30 1 105t1 95q0 14 -8 22l-58 62v13h210q-2 -178 -2 -279q0 -70 14.5 -107t60.5 -37q59 0 99 71v255q0 14 -9 22l-58 62v13h210v-401q0 -12 9 -22l55 -56v-13z" />
    <glyph glyph-name="yacute" unicode="&#xfd;" horiz-adv-x="514" 
d="M84 -245q-39 0 -60 13l42 161h12l70 -75q10 -10 16 -10q10 0 22 18q21 29 39 72q4 11 0 22l-178 450q-8 18 -15 29l-31 44v13h256v-13l-49 -52q-7 -8 -3 -20l100 -284l96 241q5 15 -2 25l-66 90v13h194v-13l-66 -96q-5 -7 -21 -45l-132 -329q-49 -120 -95 -180
q-28 -41 -58 -57.5t-71 -16.5zM235 564h-14l59 167h164v-13z" />
    <glyph glyph-name="thorn" unicode="&#xfe;" horiz-adv-x="602" 
d="M295 46q48 0 82.5 47.5t34.5 152.5q0 89 -29.5 134t-76.5 45q-53 0 -87 -53v-281q25 -45 76 -45zM219 750v-322q57 76 149 76q87 0 142 -64t55 -180q0 -127 -64 -199.5t-159 -72.5q-78 0 -123 47v-176q0 -15 14 -23l102 -57v-14h-326v13l58 46q9 8 9 21v787q0 14 -8 22
l-51 49v13z" />
    <glyph glyph-name="ydieresis" unicode="&#xff;" horiz-adv-x="514" 
d="M84 -245q-39 0 -60 13l42 161h12l70 -75q10 -10 16 -10q10 0 22 18q21 29 39 72q4 11 0 22l-178 450q-8 18 -15 29l-31 44v13h256v-13l-49 -52q-7 -8 -3 -20l100 -284l96 241q5 15 -2 25l-66 90v13h194v-13l-66 -96q-5 -7 -21 -45l-132 -329q-49 -120 -95 -180
q-28 -41 -58 -57.5t-71 -16.5zM106 645q0 31 21 51.5t50 20.5t49.5 -20.5t20.5 -51.5q0 -30 -20.5 -50t-49.5 -20t-50 20t-21 50zM313 645q0 31 20.5 51.5t49.5 20.5t49.5 -20.5t20.5 -51.5q0 -30 -20.5 -50t-49.5 -20t-49.5 20t-20.5 50z" />
    <glyph glyph-name="Amacron" unicode="&#x100;" horiz-adv-x="706" 
d="M470 96l-46 125h-233l-30 -83q-6 -16 7 -30l83 -93v-15h-258v15l96 95q13 13 20 29l158 431q6 18 -1 34l-39 86v13h182l224 -594q6 -19 16 -30l56 -64v-15h-303v15l65 60q8 8 3 21zM306 539l-98 -273h199zM471 796h-284v66h284v-66z" />
    <glyph glyph-name="amacron" unicode="&#x101;" horiz-adv-x="547" 
d="M243 288q45 0 86 -11q0 21 0.5 48t0.5 30q0 49 -22.5 77t-66.5 28q-10 0 -17 -1q-11 -1 -18 -12l-75 -122h-14l-49 145q86 34 182 34q114 0 166 -43t52 -136q0 -34 -3 -107t-3 -99q0 -52 32 -52q20 0 31 18l11 -8q-8 -40 -38.5 -64.5t-73.5 -24.5q-42 0 -68.5 24
t-29.5 65q-22 -41 -60.5 -65t-86.5 -24q-61 0 -101 36.5t-40 98.5q0 73 57.5 119t147.5 46zM242 67q57 0 84 63q0 28 2 106q-24 6 -45 6q-50 0 -80 -27t-30 -71q0 -35 19 -56t50 -21zM411 600h-284v66h284v-66z" />
    <glyph glyph-name="Abreve" unicode="&#x102;" horiz-adv-x="706" 
d="M470 96l-46 125h-233l-30 -83q-6 -16 7 -30l83 -93v-15h-258v15l96 95q13 13 20 29l158 431q6 18 -1 34l-39 86v13h182l224 -594q6 -19 16 -30l56 -64v-15h-303v15l65 60q8 8 3 21zM306 539l-98 -273h199zM328 759q-60 0 -97.5 41.5t-35.5 126.5h13q12 -39 43.5 -59.5
t76.5 -20.5t77 20.5t43 59.5h14q2 -85 -36 -126.5t-98 -41.5z" />
    <glyph glyph-name="abreve" unicode="&#x103;" horiz-adv-x="547" 
d="M243 288q45 0 86 -11q0 21 0.5 48t0.5 30q0 49 -22.5 77t-66.5 28q-10 0 -17 -1q-11 -1 -18 -12l-75 -122h-14l-49 145q86 34 182 34q114 0 166 -43t52 -136q0 -34 -3 -107t-3 -99q0 -52 32 -52q20 0 31 18l11 -8q-8 -40 -38.5 -64.5t-73.5 -24.5q-42 0 -68.5 24
t-29.5 65q-22 -41 -60.5 -65t-86.5 -24q-61 0 -101 36.5t-40 98.5q0 73 57.5 119t147.5 46zM242 67q57 0 84 63q0 28 2 106q-24 6 -45 6q-50 0 -80 -27t-30 -71q0 -35 19 -56t50 -21zM268 563q-60 0 -97.5 41.5t-35.5 126.5h13q12 -39 43.5 -59.5t76.5 -20.5t77 20.5
t43 59.5h14q2 -85 -36 -126.5t-98 -41.5z" />
    <glyph glyph-name="Aogonek" unicode="&#x104;" horiz-adv-x="706" 
d="M698 -158l9 -6q-14 -36 -46 -59t-74 -23q-41 0 -69.5 26.5t-28.5 69.5q0 47 36.5 87.5t106.5 62.5h-230v15l65 60q8 8 3 21l-46 125h-233l-30 -83q-6 -16 7 -30l83 -93v-15h-258v15l96 95q13 13 20 29l158 431q6 18 -1 34l-39 86v13h182l224 -594q9 -22 16 -30l56 -64
v-15q-55 -1 -90 -38.5t-35 -82.5q0 -30 17 -46t41 -16q35 0 60 25zM306 539l-98 -273h199z" />
    <glyph glyph-name="aogonek" unicode="&#x105;" horiz-adv-x="547" 
d="M243 288q45 0 86 -11q0 21 0.5 48t0.5 30q0 49 -22.5 77t-66.5 28q-3 0 -9.5 -0.5t-7.5 -0.5q-13 -2 -18 -12l-75 -122h-14l-49 145q83 34 182 34q114 0 166 -43t52 -136q0 -34 -3 -107t-3 -99q0 -52 32 -52q20 0 31 18l11 -8q-10 -51 -58 -77q-35 -18 -54.5 -52.5
t-19.5 -68.5q0 -30 17 -46t40 -16q36 0 60 25l10 -6q-15 -36 -47 -59t-74 -23q-40 0 -68.5 26.5t-28.5 69.5q0 41 28.5 78t82.5 60q-43 1 -69 24.5t-29 64.5q-22 -41 -60.5 -65t-86.5 -24q-61 0 -101 36.5t-40 98.5q0 73 57.5 119t147.5 46zM242 67q57 0 84 63q0 28 2 106
q-24 6 -45 6q-50 0 -80 -27t-30 -71q0 -35 19 -56t50 -21z" />
    <glyph glyph-name="Cacute" unicode="&#x106;" horiz-adv-x="663" 
d="M336 760h-14l59 167h164v-13zM395 -15q-179 0 -269 101t-90 264q0 164 95 266t269 102q106 0 197 -24v-227h-14l-133 187q-9 12 -24 14q-18 2 -30 2q-177 0 -177 -314q0 -323 178 -323q12 0 28 2q18 2 25 13l137 193h14v-231q-96 -25 -206 -25z" />
    <glyph glyph-name="cacute" unicode="&#x107;" horiz-adv-x="495" 
d="M186 276q0 -98 43 -146.5t109 -48.5q73 0 119 55l13 -8q-22 -65 -74.5 -102.5t-126.5 -37.5q-103 0 -169 65t-66 184q0 129 77 198t199 69q82 0 159 -29l-57 -161h-14l-68 131q-7 13 -16 13h-11q-52 0 -84.5 -49.5t-32.5 -132.5zM239 564h-14l59 167h164v-13z" />
    <glyph glyph-name="Ccircumflex" unicode="&#x108;" horiz-adv-x="663" 
d="M380 820l-147 -61l-7 11l148 172h13l148 -172l-8 -11zM395 -15q-179 0 -269 101t-90 264q0 164 95 266t269 102q106 0 197 -24v-227h-14l-133 187q-9 12 -24 14q-18 2 -30 2q-177 0 -177 -314q0 -323 178 -323q12 0 28 2q18 2 25 13l137 193h14v-231q-96 -25 -206 -25z
" />
    <glyph glyph-name="ccircumflex" unicode="&#x109;" horiz-adv-x="495" 
d="M186 276q0 -98 43 -146.5t109 -48.5q73 0 119 55l13 -8q-22 -65 -74.5 -102.5t-126.5 -37.5q-103 0 -169 65t-66 184q0 129 77 198t199 69q82 0 159 -29l-57 -161h-14l-68 131q-7 13 -16 13h-11q-52 0 -84.5 -49.5t-32.5 -132.5zM284 624l-147 -61l-7 11l148 172h13
l148 -172l-8 -11z" />
    <glyph glyph-name="Cdotaccent" unicode="&#x10a;" horiz-adv-x="663" 
d="M395 -15q-179 0 -269 101t-90 264q0 164 95 266t269 102q106 0 197 -24v-227h-14l-133 187q-9 12 -24 14q-18 2 -30 2q-177 0 -177 -314q0 -323 178 -323q12 0 28 2q18 2 25 13l137 193h14v-231q-96 -25 -206 -25zM304 852q0 34 22 56t54 22q33 0 55 -22t22 -56
q0 -33 -22 -54.5t-55 -21.5q-32 0 -54 21.5t-22 54.5z" />
    <glyph glyph-name="cdotaccent" unicode="&#x10b;" horiz-adv-x="495" 
d="M186 276q0 -98 43 -146.5t109 -48.5q73 0 119 55l13 -8q-22 -65 -74.5 -102.5t-126.5 -37.5q-103 0 -169 65t-66 184q0 129 77 198t199 69q82 0 159 -29l-57 -161h-14l-68 131q-7 13 -16 13h-11q-52 0 -84.5 -49.5t-32.5 -132.5zM208 656q0 34 22 56t54 22q33 0 55 -22
t22 -56q0 -33 -22 -54.5t-55 -21.5q-32 0 -54 21.5t-22 54.5z" />
    <glyph glyph-name="Ccaron" unicode="&#x10c;" horiz-adv-x="663" 
d="M387 761h-13l-148 172l7 11l147 -61l147 61l8 -11zM395 -15q-179 0 -269 101t-90 264q0 164 95 266t269 102q106 0 197 -24v-227h-14l-133 187q-9 12 -24 14q-18 2 -30 2q-177 0 -177 -314q0 -323 178 -323q12 0 28 2q18 2 25 13l137 193h14v-231q-96 -25 -206 -25z" />
    <glyph glyph-name="ccaron" unicode="&#x10d;" horiz-adv-x="495" 
d="M186 276q0 -98 43 -146.5t109 -48.5q73 0 119 55l13 -8q-22 -65 -74.5 -102.5t-126.5 -37.5q-103 0 -169 65t-66 184q0 129 77 198t199 69q82 0 159 -29l-57 -161h-14l-68 131q-7 13 -16 13h-11q-52 0 -84.5 -49.5t-32.5 -132.5zM291 565h-13l-148 172l7 11l147 -61
l147 61l8 -11z" />
    <glyph glyph-name="Dcaron" unicode="&#x10e;" horiz-adv-x="747" 
d="M359 761h-13l-148 172l7 11l147 -61l147 61l8 -11zM338 0h-310v15l75 61q9 7 9 20v511q0 13 -9 20l-75 61v15h332q169 0 261 -89.5t92 -249.5q0 -90 -30 -161t-82.5 -114.5t-119 -66t-143.5 -22.5zM331 45q91 0 144.5 77t53.5 236q0 300 -194 300h-46q-9 0 -12 -3t-3 -12
v-582q0 -10 3 -13t12 -3h42z" />
    <glyph glyph-name="dcaron" unicode="&#x10f;" horiz-adv-x="693" 
d="M750 703v-12l-134 -228h-12l8 240h138zM297 66q25 0 49 14t37 42v287q-25 36 -76 36q-49 0 -83.5 -46.5t-34.5 -145.5q0 -93 31 -140t77 -47zM590 0h-198v83q-49 -95 -154 -95q-84 0 -143 65.5t-59 186.5q0 129 66.5 196.5t161.5 67.5q73 0 119 -44v172q0 15 -8 22
l-50 49v13l202 34v-659q0 -13 9 -22l54 -56v-13z" />
    <glyph glyph-name="Dcroat" unicode="&#x110;" horiz-adv-x="768" 
d="M359 0h-311v15l76 61q9 8 9 20v235h-85v46h85v230q0 12 -9 20l-76 61v15h333q168 0 260 -89.5t92 -249.5q0 -90 -30 -161t-82 -114.5t-118.5 -66t-143.5 -22.5zM351 45q92 0 145.5 77.5t53.5 235.5q0 300 -195 300h-46q-8 0 -11 -3t-3 -12v-266h126v-46h-126v-270
q0 -10 3 -13t12 -3h41z" />
    <glyph glyph-name="dcroat" unicode="&#x111;" horiz-adv-x="614" 
d="M599 553h-72v-462q0 -13 9 -22l54 -56v-13h-198v83q-49 -95 -154 -95q-84 0 -143 65.5t-59 186.5q0 129 66.5 196.5t161.5 67.5q73 0 119 -44v93h-136v42h136v37q0 15 -8 22l-50 49v13l202 34v-155h72v-42zM297 66q25 0 49 14t37 42v287q-25 36 -76 36q-49 0 -83.5 -46.5
t-34.5 -145.5q0 -93 31 -140t77 -47z" />
    <glyph glyph-name="Emacron" unicode="&#x112;" horiz-adv-x="649" 
d="M482 231h-14l-71 85q-12 14 -30 14h-93v-270q0 -9 3.5 -12t12.5 -3h144q17 0 28 16l111 163h15v-224h-560v15l75 61q9 7 9 20v511q0 13 -9 20l-75 61v15h553v-222h-14l-109 161q-10 16 -27 16h-141q-9 0 -12.5 -3t-3.5 -12v-267h93q17 0 30 15l71 85h14v-245zM474 796
h-284v66h284v-66z" />
    <glyph glyph-name="emacron" unicode="&#x113;" horiz-adv-x="535" 
d="M495 246h-312q3 -87 45.5 -127t104.5 -40q93 0 151 66l13 -7q-50 -150 -220 -150q-108 0 -175.5 65.5t-67.5 188.5q0 126 68 194t174 68q99 0 159 -55t60 -171v-32zM272 457q-84 0 -90 -167h173q-1 167 -83 167zM422 600h-284v66h284v-66z" />
    <glyph glyph-name="Ebreve" unicode="&#x114;" horiz-adv-x="649" 
d="M482 231h-14l-71 85q-12 14 -30 14h-93v-270q0 -9 3.5 -12t12.5 -3h144q17 0 28 16l111 163h15v-224h-560v15l75 61q9 7 9 20v511q0 13 -9 20l-75 61v15h553v-222h-14l-109 161q-10 16 -27 16h-141q-9 0 -12.5 -3t-3.5 -12v-267h93q17 0 30 15l71 85h14v-245zM332 759
q-60 0 -97.5 41.5t-35.5 126.5h13q12 -39 43.5 -59.5t76.5 -20.5t77 20.5t43 59.5h14q2 -85 -36 -126.5t-98 -41.5z" />
    <glyph glyph-name="ebreve" unicode="&#x115;" horiz-adv-x="535" 
d="M495 246h-312q3 -87 45.5 -127t104.5 -40q93 0 151 66l13 -7q-50 -150 -220 -150q-108 0 -175.5 65.5t-67.5 188.5q0 126 68 194t174 68q99 0 159 -55t60 -171v-32zM272 457q-84 0 -90 -167h173q-1 167 -83 167zM279 563q-60 0 -97.5 41.5t-35.5 126.5h13
q12 -39 43.5 -59.5t76.5 -20.5t77 20.5t43 59.5h14q2 -85 -36 -126.5t-98 -41.5z" />
    <glyph glyph-name="Edotaccent" unicode="&#x116;" horiz-adv-x="649" 
d="M482 231h-14l-71 85q-12 14 -30 14h-93v-270q0 -9 3.5 -12t12.5 -3h144q17 0 28 16l111 163h15v-224h-560v15l75 61q9 7 9 20v511q0 13 -9 20l-75 61v15h553v-222h-14l-109 161q-10 16 -27 16h-141q-9 0 -12.5 -3t-3.5 -12v-267h93q17 0 30 15l71 85h14v-245zM255 852
q0 34 22 56t54 22q33 0 55 -22t22 -56q0 -33 -22 -54.5t-55 -21.5q-32 0 -54 21.5t-22 54.5z" />
    <glyph glyph-name="edotaccent" unicode="&#x117;" horiz-adv-x="535" 
d="M495 246h-312q3 -87 45.5 -127t104.5 -40q93 0 151 66l13 -7q-50 -150 -220 -150q-108 0 -175.5 65.5t-67.5 188.5q0 126 68 194t174 68q99 0 159 -55t60 -171v-32zM272 457q-84 0 -90 -167h173q-1 167 -83 167zM203 656q0 34 22 56t54 22q33 0 55 -22t22 -56
q0 -33 -22 -54.5t-55 -21.5q-32 0 -54 21.5t-22 54.5z" />
    <glyph glyph-name="Eogonek" unicode="&#x118;" horiz-adv-x="649" 
d="M577 -158l9 -6q-14 -36 -46 -59t-74 -23q-41 0 -69.5 26.5t-28.5 69.5q0 47 37 87t106 63h-483v15l75 61q9 7 9 20v511q0 13 -9 20l-75 61v15h553v-222h-14l-109 161q-10 16 -27 16h-141q-9 0 -12.5 -3t-3.5 -12v-267h93q17 0 30 15l71 85h14v-245h-14l-71 85
q-12 14 -30 14h-93v-270q0 -9 3.5 -12t12.5 -3h144q17 0 28 16l111 163h15v-224q-65 -3 -97 -39.5t-32 -81.5q0 -30 17 -46t41 -16q35 0 60 25z" />
    <glyph glyph-name="eogonek" unicode="&#x119;" horiz-adv-x="535" 
d="M495 246h-312q3 -87 45.5 -127t104.5 -40q93 0 151 66l13 -7q-16 -49 -42.5 -78t-69.5 -54q-80 -46 -80 -124q0 -32 17 -48.5t40 -16.5q36 0 60 25l10 -6q-15 -36 -47 -59t-74 -23q-40 0 -69 26.5t-29 69.5t27.5 80t82.5 61q-33 -3 -46 -3q-108 0 -175.5 65.5
t-67.5 188.5q0 126 69 194t174 68q99 0 158.5 -55t59.5 -171v-32zM273 457q-85 0 -91 -167h173q-1 87 -20.5 127t-61.5 40z" />
    <glyph glyph-name="Ecaron" unicode="&#x11a;" horiz-adv-x="649" 
d="M338 761h-13l-148 172l7 11l147 -61l147 61l8 -11zM482 231h-14l-71 85q-12 14 -30 14h-93v-270q0 -9 3.5 -12t12.5 -3h144q17 0 28 16l111 163h15v-224h-560v15l75 61q9 7 9 20v511q0 13 -9 20l-75 61v15h553v-222h-14l-109 161q-10 16 -27 16h-141q-9 0 -12.5 -3
t-3.5 -12v-267h93q17 0 30 15l71 85h14v-245z" />
    <glyph glyph-name="ecaron" unicode="&#x11b;" horiz-adv-x="535" 
d="M495 246h-312q3 -87 45.5 -127t104.5 -40q93 0 151 66l13 -7q-50 -150 -220 -150q-108 0 -175.5 65.5t-67.5 188.5q0 126 68 194t174 68q99 0 159 -55t60 -171v-32zM272 457q-84 0 -90 -167h173q-1 167 -83 167zM286 565h-13l-148 172l7 11l147 -61l147 61l8 -11z" />
    <glyph glyph-name="Gcircumflex" unicode="&#x11c;" horiz-adv-x="731" 
d="M392 820l-147 -61l-7 11l148 172h13l148 -172l-8 -11zM367 -15q-160 0 -245.5 101t-85.5 269q0 163 97.5 263t285.5 100q111 0 208 -24v-227h-15l-131 187q-8 12 -24 14q-14 2 -35 2q-204 0 -204 -314q0 -323 180 -323q34 0 63 9q10 4 13 8t3 13v153q0 12 -9 20l-69 61
v15h315v-15l-65 -58q-11 -9 -11 -24v-230l-144 19q-69 -19 -127 -19z" />
    <glyph glyph-name="gcircumflex" unicode="&#x11d;" horiz-adv-x="569" 
d="M256 -245q-87 0 -154 31t-67 86q0 35 30.5 60t82.5 37q-43 10 -69 36t-26 62q0 41 31.5 72t82.5 45q-51 16 -83.5 55t-32.5 97q0 78 60.5 123t160.5 45q75 0 137 -28q16 -8 26 2l110 102h13v-141h-108q48 -39 48 -106q0 -77 -61 -121t-162 -44q-39 0 -70 6
q-39 -13 -39 -42q0 -41 89 -41h112q81 0 126.5 -33t45.5 -98q0 -91 -83 -148t-200 -57zM278 -195q67 0 113.5 25.5t46.5 68.5q0 55 -90 58l-140 5l-26 2q-46 -21 -46 -69q0 -42 39 -66t103 -24zM275 214q39 0 63 32t24 92t-23.5 89.5t-63.5 29.5t-64 -29t-24 -89
q0 -61 24.5 -93t63.5 -32zM286 624l-147 -61l-7 11l148 172h13l148 -172l-8 -11z" />
    <glyph glyph-name="Gbreve" unicode="&#x11e;" horiz-adv-x="731" 
d="M367 -15q-160 0 -245.5 101t-85.5 269q0 163 97.5 263t285.5 100q111 0 208 -24v-227h-15l-131 187q-8 12 -24 14q-14 2 -35 2q-204 0 -204 -314q0 -323 180 -323q34 0 63 9q10 4 13 8t3 13v153q0 12 -9 20l-69 61v15h315v-15l-65 -58q-11 -9 -11 -24v-230l-144 19
q-69 -19 -127 -19zM393 759q-60 0 -97.5 41.5t-35.5 126.5h13q12 -39 43.5 -59.5t76.5 -20.5t77 20.5t43 59.5h14q2 -85 -36 -126.5t-98 -41.5z" />
    <glyph glyph-name="gbreve" unicode="&#x11f;" horiz-adv-x="569" 
d="M256 -245q-87 0 -154 31t-67 86q0 35 30.5 60t82.5 37q-43 10 -69 36t-26 62q0 41 31.5 72t82.5 45q-51 16 -83.5 55t-32.5 97q0 78 60.5 123t160.5 45q75 0 137 -28q16 -8 26 2l110 102h13v-141h-108q48 -39 48 -106q0 -77 -61 -121t-162 -44q-39 0 -70 6
q-39 -13 -39 -42q0 -41 89 -41h112q81 0 126.5 -33t45.5 -98q0 -91 -83 -148t-200 -57zM278 -195q67 0 113.5 25.5t46.5 68.5q0 55 -90 58l-140 5l-26 2q-46 -21 -46 -69q0 -42 39 -66t103 -24zM275 214q39 0 63 32t24 92t-23.5 89.5t-63.5 29.5t-64 -29t-24 -89
q0 -61 24.5 -93t63.5 -32zM287 563q-60 0 -97.5 41.5t-35.5 126.5h13q12 -39 43.5 -59.5t76.5 -20.5t77 20.5t43 59.5h14q2 -85 -36 -126.5t-98 -41.5z" />
    <glyph glyph-name="Gdotaccent" unicode="&#x120;" horiz-adv-x="731" 
d="M367 -15q-160 0 -245.5 101t-85.5 269q0 163 97.5 263t285.5 100q111 0 208 -24v-227h-15l-131 187q-8 12 -24 14q-14 2 -35 2q-204 0 -204 -314q0 -323 180 -323q34 0 63 9q10 4 13 8t3 13v153q0 12 -9 20l-69 61v15h315v-15l-65 -58q-11 -9 -11 -24v-230l-144 19
q-69 -19 -127 -19zM316 852q0 34 22 56t54 22q33 0 55 -22t22 -56q0 -33 -22 -54.5t-55 -21.5q-32 0 -54 21.5t-22 54.5z" />
    <glyph glyph-name="gdotaccent" unicode="&#x121;" horiz-adv-x="569" 
d="M256 -245q-87 0 -154 31t-67 86q0 35 30.5 60t82.5 37q-43 10 -69 36t-26 62q0 41 31.5 72t82.5 45q-51 16 -83.5 55t-32.5 97q0 78 60.5 123t160.5 45q75 0 137 -28q16 -8 26 2l110 102h13v-141h-108q48 -39 48 -106q0 -77 -61 -121t-162 -44q-39 0 -70 6
q-39 -13 -39 -42q0 -41 89 -41h112q81 0 126.5 -33t45.5 -98q0 -91 -83 -148t-200 -57zM278 -195q67 0 113.5 25.5t46.5 68.5q0 55 -90 58l-140 5l-26 2q-46 -21 -46 -69q0 -42 39 -66t103 -24zM275 214q39 0 63 32t24 92t-23.5 89.5t-63.5 29.5t-64 -29t-24 -89
q0 -61 24.5 -93t63.5 -32zM210 656q0 34 22 56t54 22q33 0 55 -22t22 -56q0 -33 -22 -54.5t-55 -21.5q-32 0 -54 21.5t-22 54.5z" />
    <glyph glyph-name="Gcommaaccent" unicode="&#x122;" horiz-adv-x="731" 
d="M328 -288l-5 12q23 15 41 39.5t18 40.5q0 10 -9 10q-24 2 -38.5 18.5t-14.5 42.5q0 27 19 46.5t48 19.5q32 0 51.5 -22.5t19.5 -61.5q0 -51 -37 -91.5t-93 -53.5zM367 -15q-160 0 -245.5 101t-85.5 269q0 163 97.5 263t285.5 100q111 0 208 -24v-227h-15l-131 187
q-8 12 -24 14q-14 2 -35 2q-204 0 -204 -314q0 -323 180 -323q34 0 63 9q10 4 13 8t3 13v153q0 12 -9 20l-69 61v15h315v-15l-65 -58q-11 -9 -11 -24v-230l-144 19q-69 -19 -127 -19z" />
    <glyph glyph-name="gcommaaccent" unicode="&#x123;" horiz-adv-x="569" 
d="M256 -245q-87 0 -154 31t-67 86q0 35 30.5 60t82.5 37q-43 10 -69 36t-26 62q0 41 31.5 72t82.5 45q-51 16 -83.5 55t-32.5 97q0 78 60.5 123t160.5 45q75 0 137 -28q16 -8 26 2l110 102h13v-141h-108q48 -39 48 -106q0 -77 -61 -121t-162 -44q-39 0 -70 6
q-39 -13 -39 -42q0 -41 89 -41h112q81 0 126.5 -33t45.5 -98q0 -91 -83 -148t-200 -57zM278 -195q67 0 113.5 25.5t46.5 68.5q0 55 -90 58l-140 5l-26 2q-46 -21 -46 -69q0 -42 39 -66t103 -24zM275 214q39 0 63 32t24 92t-23.5 89.5t-63.5 29.5t-64 -29t-24 -89
q0 -61 24.5 -93t63.5 -32zM351 794l4 -11q-23 -15 -41 -40t-18 -41q0 -10 9 -10q25 -1 39 -18t14 -43q0 -28 -19 -47t-48 -19q-31 0 -51 22.5t-20 61.5q0 51 37.5 92t93.5 53z" />
    <glyph glyph-name="Hcircumflex" unicode="&#x124;" horiz-adv-x="815" 
d="M407 820l-147 -61l-7 11l148 172h13l148 -172l-8 -11zM702 607v-511q0 -12 9 -20l76 -61v-15h-331v15l75 61q9 7 9 20v240h-266v-240q0 -12 9 -20l76 -61v-15h-331v15l75 61q9 7 9 20v511q0 13 -9 20l-75 61v15h331v-15l-76 -61q-9 -8 -9 -20v-224h266v224q0 13 -9 20
l-75 61v15h331v-15l-76 -61q-9 -8 -9 -20z" />
    <glyph glyph-name="hcircumflex" unicode="&#x125;" horiz-adv-x="633" 
d="M154 825l-147 -61l-7 11l148 172h13l148 -172l-8 -11zM414 289q0 134 -84 134q-61 0 -99 -71v-272q0 -13 9 -21l58 -46v-13h-277v13l57 46q9 8 9 21v552q0 15 -8 22l-50 49v13l202 34v-338q59 92 160 92q167 0 167 -216q0 -71 -3 -209q0 -12 9 -20l58 -46v-13h-277v13
l57 46q10 8 10 21q0 8 1 91.5t1 117.5z" />
    <glyph glyph-name="Hbar" unicode="&#x126;" horiz-adv-x="815" 
d="M702 607v-98h74v-44h-74v-369q0 -12 9 -20l76 -61v-15h-331v15l75 61q9 7 9 20v196h-266v-196q0 -12 9 -20l76 -61v-15h-331v15l75 61q9 7 9 20v369h-74v44h74v98q0 13 -9 20l-75 61v15h331v-15l-76 -61q-9 -8 -9 -20v-98h266v98q0 13 -9 20l-75 61v15h331v-15l-76 -61
q-9 -8 -9 -20zM274 465v-126h266v126h-266z" />
    <glyph glyph-name="hbar" unicode="&#x127;" horiz-adv-x="633" 
d="M414 289q0 134 -84 134q-61 0 -99 -71v-272q0 -13 9 -21l58 -46v-13h-277v13l57 46q9 8 9 21v473h-71v42h71v37q0 15 -8 22l-50 49v13l202 34v-155h136v-42h-136v-141q59 92 160 92q167 0 167 -216q0 -71 -3 -209q0 -12 9 -20l58 -46v-13h-277v13l57 46q10 8 10 21
q0 8 1 91.5t1 117.5z" />
    <glyph glyph-name="Itilde" unicode="&#x128;" horiz-adv-x="387" 
d="M359 0h-331v15l75 61q9 7 9 20v511q0 13 -9 20l-75 61v15h331v-15l-76 -61q-9 -8 -9 -20v-511q0 -12 9 -20l76 -61v-15zM243 768q-23 0 -64 26.5t-59 26.5t-32 -11.5t-34 -39.5h-13q21 138 105 138q22 0 62.5 -27t60.5 -27q17 0 31 11.5t34 40.5h13q-20 -138 -104 -138z
" />
    <glyph glyph-name="itilde" unicode="&#x129;" horiz-adv-x="332" 
d="M102 80v315q0 13 -7 21l-60 63v13h211v-412q0 -13 9 -21l57 -46v-13h-277v13l58 46q9 8 9 21zM223 572q-23 0 -64 26.5t-59 26.5t-32 -11.5t-34 -39.5h-13q21 138 105 138q22 0 62.5 -27t60.5 -27q17 0 31 11.5t34 40.5h13q-20 -138 -104 -138z" />
    <glyph glyph-name="Imacron" unicode="&#x12a;" horiz-adv-x="387" 
d="M359 0h-331v15l75 61q9 7 9 20v511q0 13 -9 20l-75 61v15h331v-15l-76 -61q-9 -8 -9 -20v-511q0 -12 9 -20l76 -61v-15zM337 796h-284v66h284v-66z" />
    <glyph glyph-name="imacron" unicode="&#x12b;" horiz-adv-x="332" 
d="M102 80v315q0 13 -7 21l-60 63v13h211v-412q0 -13 9 -21l57 -46v-13h-277v13l58 46q9 8 9 21zM317 600h-284v66h284v-66z" />
    <glyph glyph-name="Ibreve" unicode="&#x12c;" horiz-adv-x="387" 
d="M359 0h-331v15l75 61q9 7 9 20v511q0 13 -9 20l-75 61v15h331v-15l-76 -61q-9 -8 -9 -20v-511q0 -12 9 -20l76 -61v-15zM193 759q-60 0 -97.5 41.5t-35.5 126.5h13q12 -39 43.5 -59.5t76.5 -20.5t77 20.5t43 59.5h14q2 -85 -36 -126.5t-98 -41.5z" />
    <glyph glyph-name="ibreve" unicode="&#x12d;" horiz-adv-x="332" 
d="M102 80v315q0 13 -7 21l-60 63v13h211v-412q0 -13 9 -21l57 -46v-13h-277v13l58 46q9 8 9 21zM174 563q-60 0 -97.5 41.5t-35.5 126.5h13q12 -39 43.5 -59.5t76.5 -20.5t77 20.5t43 59.5h14q2 -85 -36 -126.5t-98 -41.5z" />
    <glyph glyph-name="Iogonek" unicode="&#x12e;" horiz-adv-x="387" 
d="M296 -158l10 -6q-15 -36 -47 -59t-74 -23q-40 0 -68.5 26.5t-28.5 69.5q0 47 36 87.5t106 62.5h-202v15l75 61q9 7 9 20v511q0 13 -9 20l-75 61v15h331v-15l-76 -61q-9 -8 -9 -20v-511q0 -12 9 -20l76 -61v-15h-57q-63 0 -93 -40t-30 -81q0 -30 17 -46t40 -16q36 0 60 25
z" />
    <glyph glyph-name="iogonek" unicode="&#x12f;" horiz-adv-x="332" 
d="M266 -158l10 -6q-15 -36 -47 -59t-74 -23q-40 0 -69 26.5t-29 69.5q0 47 36.5 87.5t106.5 62.5h-165v13l58 46q9 8 9 21v315q0 13 -7 21l-60 63v13h211v-412q0 -13 9 -21l57 -46v-13h-51q-47 0 -79.5 -37t-32.5 -84q0 -30 17 -46t40 -16q36 0 60 25zM84 656q0 37 23.5 60
t58.5 23t58.5 -23t23.5 -60q0 -36 -23.5 -59t-58.5 -23q-34 0 -58 23.5t-24 58.5z" />
    <glyph glyph-name="Idotaccent" unicode="&#x130;" horiz-adv-x="387" 
d="M359 0h-331v15l75 61q9 7 9 20v511q0 13 -9 20l-75 61v15h331v-15l-76 -61q-9 -8 -9 -20v-511q0 -12 9 -20l76 -61v-15zM117 852q0 34 22 56t54 22q33 0 55 -22t22 -56q0 -33 -22 -54.5t-55 -21.5q-32 0 -54 21.5t-22 54.5z" />
    <glyph glyph-name="dotlessi" unicode="&#x131;" horiz-adv-x="332" 
d="M102 80v315q0 13 -7 21l-60 63v13h211v-412q0 -13 9 -21l57 -46v-13h-277v13l58 46q9 8 9 21z" />
    <glyph glyph-name="IJ" unicode="&#x132;" horiz-adv-x="742" 
d="M359 0h-331v15l75 61q9 7 9 20v511q0 13 -9 20l-75 61v15h331v-15l-76 -61q-9 -8 -9 -20v-511q0 -12 9 -20l76 -61v-15zM647 69q0 -130 -73 -198t-209 -88l-4 14q124 62 124 248v562q0 13 -9 20l-75 61v15h330v-15l-75 -61q-9 -7 -9 -20v-538z" />
    <glyph glyph-name="ij" unicode="&#x133;" horiz-adv-x="633" 
d="M84 656q0 37 23.5 60t58.5 23t58.5 -23t23.5 -60q0 -36 -23.5 -59t-58.5 -23q-34 0 -58 23.5t-24 58.5zM102 80v315q0 13 -7 21l-60 63v13h211v-412q0 -13 9 -21l57 -46v-13h-277v13l58 46q9 8 9 21zM565 41q0 -138 -69.5 -209.5t-198.5 -76.5l-3 14q68 26 97.5 84
t29.5 164v378q0 13 -7 21l-59 63v13h210v-451zM401 657q0 36 24 59t59 23q34 0 58 -23t24 -59t-24 -59.5t-58 -23.5q-35 0 -59 23.5t-24 59.5z" />
    <glyph glyph-name="Jcircumflex" unicode="&#x134;" horiz-adv-x="356" 
d="M180 820l-147 -61l-7 11l148 172h13l148 -172l-8 -11zM261 69q0 -130 -73 -198t-209 -88l-4 14q124 62 124 248v562q0 13 -9 20l-75 61v15h330v-15l-75 -61q-9 -7 -9 -20v-538z" />
    <glyph glyph-name="jcircumflex" unicode="&#x135;" horiz-adv-x="300" 
d="M233 41q0 -138 -69.5 -209.5t-198.5 -76.5l-3 14q68 26 97.5 84t29.5 164v378q0 13 -7 21l-59 63v13h210v-451zM161 624l-147 -61l-7 11l148 172h13l148 -172l-8 -11z" />
    <glyph glyph-name="Kcommaaccent" unicode="&#x136;" horiz-adv-x="715" 
d="M274 359v-263q0 -12 9 -20l76 -61v-15h-331v15l75 61q9 7 9 20v511q0 13 -9 20l-75 61v15h331v-15l-76 -61q-9 -8 -9 -20v-248l214 225q11 12 2 25l-59 79v15h287v-15l-129 -81q-32 -21 -52 -42l-123 -128l217 -339q15 -24 35 -39l62 -44v-15h-217zM324 -288l-5 12
q23 15 41 39.5t18 40.5q0 10 -9 10q-24 2 -38.5 18.5t-14.5 42.5q0 27 19 46.5t48 19.5q32 0 51.5 -22.5t19.5 -61.5q0 -51 -37 -91.5t-93 -53.5z" />
    <glyph glyph-name="kcommaaccent" unicode="&#x137;" horiz-adv-x="582" 
d="M253 -284l-5 12q23 15 41 39.5t18 40.5q0 10 -9 10q-24 2 -38.5 18.5t-14.5 42.5q0 27 19 46.5t48 19.5q32 0 51.5 -22.5t19.5 -61.5q0 -51 -37 -91.5t-93 -53.5zM587 0h-187l-148 239q-10 17 -21 17v-176q0 -13 9 -21l58 -46v-13h-277v13l57 46q9 8 9 21v552q0 15 -8 22
l-50 49v13l202 34v-481l153 121q13 10 2 22l-60 67v13h241v-13l-192 -150q-7 -6 -2 -14l146 -238q13 -21 24 -29l44 -35v-13z" />
    <glyph glyph-name="kgreenlandic" unicode="&#x138;" horiz-adv-x="582" 
d="M582 0h-187l-143 239q-12 17 -21 17v-176q0 -13 9 -21l58 -46v-13h-277v13l57 46q9 8 9 21v315q0 13 -8 22l-58 62v13h210v-223l157 122q12 9 1 21l-59 67v13h242v-13l-197 -150q-6 -5 -2 -14l143 -241q10 -17 24 -28l42 -33v-13z" />
    <glyph glyph-name="Lacute" unicode="&#x139;" horiz-adv-x="596" 
d="M148 760h-14l59 167h164v-13zM290 45h128q19 0 30 16l110 168h14v-229h-544v15l75 61q9 7 9 20v511q0 13 -9 20l-75 61v15h331v-15l-76 -61q-9 -8 -9 -20v-547q0 -9 3.5 -12t12.5 -3z" />
    <glyph glyph-name="lacute" unicode="&#x13a;" horiz-adv-x="318" 
d="M115 775h-14l59 167h164v-13zM298 0h-277v13l57 46q9 8 9 21v552q0 15 -8 22l-50 49v13l202 34v-670q0 -13 9 -21l58 -46v-13z" />
    <glyph glyph-name="Lcommaaccent" unicode="&#x13b;" horiz-adv-x="596" 
d="M256 -288l-5 12q23 15 41 39.5t18 40.5q0 10 -9 10q-24 2 -38.5 18.5t-14.5 42.5q0 27 19 46.5t48 19.5q32 0 51.5 -22.5t19.5 -61.5q0 -51 -37 -91.5t-93 -53.5zM290 45h128q19 0 30 16l110 168h14v-229h-544v15l75 61q9 7 9 20v511q0 13 -9 20l-75 61v15h331v-15
l-76 -61q-9 -8 -9 -20v-547q0 -9 3.5 -12t12.5 -3z" />
    <glyph glyph-name="lcommaaccent" unicode="&#x13c;" horiz-adv-x="318" 
d="M101 -284l-5 12q23 15 41 39.5t18 40.5q0 10 -9 10q-24 2 -38.5 18.5t-14.5 42.5q0 27 19 46.5t48 19.5q32 0 51.5 -22.5t19.5 -61.5q0 -51 -37 -91.5t-93 -53.5zM298 0h-277v13l57 46q9 8 9 21v552q0 15 -8 22l-50 49v13l202 34v-670q0 -13 9 -21l58 -46v-13z" />
    <glyph glyph-name="Lcaron" unicode="&#x13d;" horiz-adv-x="596" 
d="M581 703v-12l-134 -228h-12l8 240h138zM290 45h128q19 0 30 16l110 168h14v-229h-544v15l75 61q9 7 9 20v511q0 13 -9 20l-75 61v15h331v-15l-76 -61q-9 -8 -9 -20v-547q0 -9 3.5 -12t12.5 -3z" />
    <glyph glyph-name="lcaron" unicode="&#x13e;" horiz-adv-x="402" 
d="M460 703v-12l-134 -228h-12l8 240h138zM298 0h-277v13l57 46q9 8 9 21v552q0 15 -8 22l-50 49v13l202 34v-670q0 -13 9 -21l58 -46v-13z" />
    <glyph glyph-name="Ldot" unicode="&#x13f;" horiz-adv-x="596" 
d="M290 45h128q19 0 30 16l110 168h14v-229h-544v15l75 61q9 7 9 20v511q0 13 -9 20l-75 61v15h331v-15l-76 -61q-9 -8 -9 -20v-547q0 -9 3.5 -12t12.5 -3zM377 383q0 34 22 56t54 22q33 0 55 -22t22 -56q0 -33 -22 -54.5t-55 -21.5q-32 0 -54 21.5t-22 54.5z" />
    <glyph glyph-name="ldot" unicode="&#x140;" horiz-adv-x="484" 
d="M298 0h-277v13l57 46q9 8 9 21v552q0 15 -8 22l-50 49v13l202 34v-670q0 -13 9 -21l58 -46v-13zM321 354q0 34 22 56t54 22q33 0 55 -22t22 -56q0 -33 -22 -54.5t-55 -21.5q-32 0 -54 21.5t-22 54.5z" />
    <glyph glyph-name="Lslash" unicode="&#x141;" horiz-adv-x="620" 
d="M314 45h128q12 0 16.5 2.5t12.5 13.5l110 168h15v-229h-545v15l76 61q9 8 9 20v186l-89 -36l-16 42l105 43v276q0 12 -9 20l-76 61v15h331v-15l-75 -61q-9 -7 -9 -20v-212l109 44l16 -42l-125 -51v-286q0 -10 3 -12.5t13 -2.5z" />
    <glyph glyph-name="lslash" unicode="&#x142;" horiz-adv-x="369" 
d="M320 0h-277v12l57 47q9 8 9 21v211l-82 -36l-15 40l97 41v296q0 14 -8 22l-50 50v12l202 34v-354l83 36l16 -40l-99 -43v-269q0 -13 9 -21l58 -47v-12z" />
    <glyph glyph-name="Nacute" unicode="&#x143;" horiz-adv-x="747" 
d="M339 760h-14l59 167h164v-13zM642 557v-557h-92l-370 527v-381q0 -21 12 -34l93 -97v-15h-259v15l92 97q12 13 12 34v415q0 15 -10 25l-97 102v15h224l345 -491v345q0 19 -12 34l-93 97v15h259v-15l-92 -97q-12 -12 -12 -34z" />
    <glyph glyph-name="nacute" unicode="&#x144;" horiz-adv-x="647" 
d="M291 564h-14l59 167h164v-13zM637 0h-277v13l57 46q9 7 9 21q2 50 2 209q0 134 -83 134q-61 0 -99 -71v-272q0 -13 9 -21l57 -46v-13h-277v13l58 46q9 8 9 21v315q0 13 -7 21l-60 63v13h200v-96q55 108 170 108q168 0 168 -216q0 -27 -1.5 -107t-1.5 -102q0 -12 9 -20
l58 -46v-13z" />
    <glyph glyph-name="Ncommaaccent" unicode="&#x145;" horiz-adv-x="747" 
d="M325 -288l-5 12q23 15 41 39.5t18 40.5q0 10 -9 10q-24 2 -38.5 18.5t-14.5 42.5q0 27 19 46.5t48 19.5q32 0 51.5 -22.5t19.5 -61.5q0 -51 -37 -91.5t-93 -53.5zM642 557v-557h-92l-370 527v-381q0 -21 12 -34l93 -97v-15h-259v15l92 97q12 13 12 34v415q0 15 -10 25
l-97 102v15h224l345 -491v345q0 19 -12 34l-93 97v15h259v-15l-92 -97q-12 -12 -12 -34z" />
    <glyph glyph-name="ncommaaccent" unicode="&#x146;" horiz-adv-x="647" 
d="M277 -288l-5 12q23 15 41 39.5t18 40.5q0 10 -9 10q-24 2 -38.5 18.5t-14.5 42.5q0 27 19 46.5t48 19.5q32 0 51.5 -22.5t19.5 -61.5q0 -51 -37 -91.5t-93 -53.5zM637 0h-277v13l57 46q9 7 9 21q2 50 2 209q0 134 -83 134q-61 0 -99 -71v-272q0 -13 9 -21l57 -46v-13
h-277v13l58 46q9 8 9 21v315q0 13 -7 21l-60 63v13h200v-96q55 108 170 108q168 0 168 -216q0 -27 -1.5 -107t-1.5 -102q0 -12 9 -20l58 -46v-13z" />
    <glyph glyph-name="Ncaron" unicode="&#x147;" horiz-adv-x="747" 
d="M390 761h-13l-148 172l7 11l147 -61l147 61l8 -11zM642 557v-557h-92l-370 527v-381q0 -21 12 -34l93 -97v-15h-259v15l92 97q12 13 12 34v415q0 15 -10 25l-97 102v15h224l345 -491v345q0 19 -12 34l-93 97v15h259v-15l-92 -97q-12 -12 -12 -34z" />
    <glyph glyph-name="ncaron" unicode="&#x148;" horiz-adv-x="647" 
d="M342 565h-13l-148 172l7 11l147 -61l147 61l8 -11zM637 0h-277v13l57 46q9 7 9 21q2 50 2 209q0 134 -83 134q-61 0 -99 -71v-272q0 -13 9 -21l57 -46v-13h-277v13l58 46q9 8 9 21v315q0 13 -7 21l-60 63v13h200v-96q55 108 170 108q168 0 168 -216q0 -27 -1.5 -107
t-1.5 -102q0 -12 9 -20l58 -46v-13z" />
    <glyph glyph-name="napostrophe" unicode="&#x149;" horiz-adv-x="770" 
d="M165 642q0 -76 -47.5 -135.5t-122.5 -73.5l-5 13q91 56 91 128q0 16 -15 21q-33 8 -50.5 29.5t-17.5 48.5q0 33 22 55t56 22q39 0 64 -28t25 -80zM760 0h-277v13l57 46q9 7 9 21q2 50 2 209q0 134 -83 134q-61 0 -99 -71v-272q0 -13 9 -21l57 -46v-13h-277v13l58 46
q9 8 9 21v315q0 13 -7 21l-60 63v13h200v-96q55 108 170 108q168 0 168 -216q0 -27 -1.5 -107t-1.5 -102q0 -12 9 -20l58 -46v-13z" />
    <glyph glyph-name="Eng" unicode="&#x14a;" horiz-adv-x="735" 
d="M671 495v-426q0 -245 -282 -286l-5 14q125 62 125 248v451q0 139 -114 139q-79 0 -121 -71v-468q0 -12 9 -20l76 -61v-15h-331v15l75 61q9 7 9 20v511q0 13 -9 20l-75 61v15h246v-76q58 91 182 91q104 0 159.5 -57.5t55.5 -165.5z" />
    <glyph glyph-name="eng" unicode="&#x14b;" horiz-adv-x="645" 
d="M429 17v272q0 134 -84 134q-61 0 -99 -71v-272q0 -13 9 -21l57 -46v-13h-277v13l58 46q9 8 9 21v315q0 13 -7 21l-60 63v13h200v-96q55 108 170 108q168 0 168 -216v-247q0 -138 -70 -209.5t-199 -76.5l-2 14q68 26 97.5 84t29.5 164z" />
    <glyph glyph-name="Omacron" unicode="&#x14c;" horiz-adv-x="759" 
d="M522 796h-284v66h284v-66zM381 718q154 0 248.5 -95.5t94.5 -267.5q0 -170 -95.5 -270t-249.5 -100q-155 0 -249.5 96t-94.5 268q0 170 95.5 269.5t250.5 99.5zM378 670q-158 0 -158 -315q0 -160 42 -241t120 -81q156 0 156 316q0 160 -41.5 240.5t-118.5 80.5z" />
    <glyph glyph-name="omacron" unicode="&#x14d;" horiz-adv-x="589" 
d="M437 600h-284v66h284v-66zM293 -12q-119 0 -189.5 67t-70.5 187q0 122 72.5 192t192.5 70q117 0 187.5 -67.5t70.5 -186.5q0 -121 -72 -191.5t-191 -70.5zM297 35q48 0 73.5 54t25.5 155q0 102 -26 157t-77 55q-49 0 -74.5 -53.5t-25.5 -154.5q0 -103 26.5 -158t77.5 -55
z" />
    <glyph glyph-name="Obreve" unicode="&#x14e;" horiz-adv-x="759" 
d="M381 718q154 0 248.5 -95.5t94.5 -267.5q0 -170 -95.5 -270t-249.5 -100q-155 0 -249.5 96t-94.5 268q0 170 95.5 269.5t250.5 99.5zM378 670q-158 0 -158 -315q0 -160 42 -241t120 -81q156 0 156 316q0 160 -41.5 240.5t-118.5 80.5zM379 759q-60 0 -97.5 41.5
t-35.5 126.5h13q12 -39 43.5 -59.5t76.5 -20.5t77 20.5t43 59.5h14q2 -85 -36 -126.5t-98 -41.5z" />
    <glyph glyph-name="obreve" unicode="&#x14f;" horiz-adv-x="589" 
d="M293 -12q-119 0 -189.5 67t-70.5 187q0 122 72.5 192t192.5 70q117 0 187.5 -67.5t70.5 -186.5q0 -121 -72 -191.5t-191 -70.5zM297 35q48 0 73.5 54t25.5 155q0 102 -26 157t-77 55q-49 0 -74.5 -53.5t-25.5 -154.5q0 -103 26.5 -158t77.5 -55zM295 563
q-60 0 -97.5 41.5t-35.5 126.5h13q12 -39 43.5 -59.5t76.5 -20.5t77 20.5t43 59.5h14q2 -85 -36 -126.5t-98 -41.5z" />
    <glyph glyph-name="Ohungarumlaut" unicode="&#x150;" horiz-adv-x="759" 
d="M305 932h139v-13l-173 -157h-14zM480 932h139v-13l-174 -157h-13zM381 718q154 0 248.5 -95.5t94.5 -267.5q0 -170 -95.5 -270t-249.5 -100q-155 0 -249.5 96t-94.5 268q0 170 95.5 269.5t250.5 99.5zM378 670q-158 0 -158 -315q0 -160 42 -241t120 -81q156 0 156 316
q0 160 -41.5 240.5t-118.5 80.5z" />
    <glyph glyph-name="ohungarumlaut" unicode="&#x151;" horiz-adv-x="589" 
d="M221 736h139v-13l-173 -157h-14zM396 736h139v-13l-174 -157h-13zM293 -12q-119 0 -189.5 67t-70.5 187q0 122 72.5 192t192.5 70q117 0 187.5 -67.5t70.5 -186.5q0 -121 -72 -191.5t-191 -70.5zM297 35q48 0 73.5 54t25.5 155q0 102 -26 157t-77 55q-49 0 -74.5 -53.5
t-25.5 -154.5q0 -103 26.5 -158t77.5 -55z" />
    <glyph glyph-name="OE" unicode="&#x152;" horiz-adv-x="1026" 
d="M966 0h-429q-25 0 -75.5 -6t-76.5 -6q-160 0 -255 95.5t-95 265.5q0 171 96 268.5t253 97.5q29 0 78 -6t71 -6h422v-219h-14l-109 158q-10 16 -27 16h-136q-9 0 -12.5 -3t-3.5 -12v-268h91q17 0 30 15l71 85h14v-244h-14l-71 84q-13 15 -30 15h-91v-270q0 -9 3.5 -12
t12.5 -3h143q17 0 28 16l112 161h14v-222zM398 36q49 0 80 23q13 10 13 32v521q0 22 -13 32q-29 23 -82 23q-176 0 -176 -315q0 -316 178 -316z" />
    <glyph glyph-name="oe" unicode="&#x153;" horiz-adv-x="898" 
d="M296 35q100 0 100 208q0 103 -26 158t-76 55q-101 0 -101 -207q0 -103 26.5 -158.5t76.5 -55.5zM641 -12q-113 0 -173 73q-63 -73 -176 -73q-118 0 -188.5 67t-70.5 187q0 122 72.5 192t192.5 70q114 0 177 -73q65 73 166 73q100 0 159.5 -55t59.5 -171q0 -24 -1 -32
h-312q3 -87 45.5 -127t105.5 -40q93 0 151 66l12 -7q-50 -150 -220 -150zM637 457q-41 0 -64.5 -42t-25.5 -125h173q-1 87 -21.5 127t-61.5 40z" />
    <glyph glyph-name="Racute" unicode="&#x154;" horiz-adv-x="713" 
d="M295 760h-14l59 167h164v-13zM738 0h-208l-135 289q-6 12 -11 15.5t-17 3.5h-60v-211q0 -13 11 -23l72 -59v-15h-329v15l75 61q9 7 9 20v510q0 14 -9 21l-75 61v15h338q121 0 192 -46t71 -137q0 -76 -49.5 -125t-138.5 -63l-20 -3l89 -17q15 -2 22 -17l102 -202
q14 -29 28 -40l43 -38v-15zM307 643v-290h68q52 0 84.5 39.5t32.5 116.5q0 73 -31.5 111t-82.5 38h-54q-10 0 -13.5 -3t-3.5 -12z" />
    <glyph glyph-name="racute" unicode="&#x155;" horiz-adv-x="455" 
d="M201 564h-14l59 167h164v-13zM362 0h-327v13l58 46q9 8 9 21v315q0 13 -7 21l-60 63v13h200v-121q46 133 137 133q40 0 70 -30l-47 -153h-13l-68 76q-7 7 -12 7q-8 0 -19 -11q-23 -23 -37 -66v-233q0 -16 13 -23l103 -57v-14z" />
    <glyph glyph-name="Rcommaaccent" unicode="&#x156;" horiz-adv-x="713" 
d="M310 -288l-5 12q23 15 41 39.5t18 40.5q0 10 -9 10q-24 2 -38.5 18.5t-14.5 42.5q0 27 19 46.5t48 19.5q32 0 51.5 -22.5t19.5 -61.5q0 -51 -37 -91.5t-93 -53.5zM738 0h-208l-135 289q-6 12 -11 15.5t-17 3.5h-60v-211q0 -13 11 -23l72 -59v-15h-329v15l75 61q9 7 9 20
v510q0 14 -9 21l-75 61v15h338q121 0 192 -46t71 -137q0 -76 -49.5 -125t-138.5 -63l-20 -3l89 -17q15 -2 22 -17l102 -202q14 -29 28 -40l43 -38v-15zM307 643v-290h68q52 0 84.5 39.5t32.5 116.5q0 73 -31.5 111t-82.5 38h-54q-10 0 -13.5 -3t-3.5 -12z" />
    <glyph glyph-name="rcommaaccent" unicode="&#x157;" horiz-adv-x="455" 
d="M119 -288l-5 12q23 15 41 39.5t18 40.5q0 10 -9 10q-24 2 -38.5 18.5t-14.5 42.5q0 27 19 46.5t48 19.5q32 0 51.5 -22.5t19.5 -61.5q0 -51 -37 -91.5t-93 -53.5zM362 0h-327v13l58 46q9 8 9 21v315q0 13 -7 21l-60 63v13h200v-121q46 133 137 133q40 0 70 -30l-47 -153
h-13l-68 76q-7 7 -12 7q-8 0 -19 -11q-23 -23 -37 -66v-233q0 -16 13 -23l103 -57v-14z" />
    <glyph glyph-name="Rcaron" unicode="&#x158;" horiz-adv-x="713" 
d="M346 761h-13l-148 172l7 11l147 -61l147 61l8 -11zM738 0h-208l-135 289q-6 12 -11 15.5t-17 3.5h-60v-211q0 -13 11 -23l72 -59v-15h-329v15l75 61q9 7 9 20v510q0 14 -9 21l-75 61v15h338q121 0 192 -46t71 -137q0 -76 -49.5 -125t-138.5 -63l-20 -3l89 -17
q15 -2 22 -17l102 -202q14 -29 28 -40l43 -38v-15zM307 643v-290h68q52 0 84.5 39.5t32.5 116.5q0 73 -31.5 111t-82.5 38h-54q-10 0 -13.5 -3t-3.5 -12z" />
    <glyph glyph-name="rcaron" unicode="&#x159;" horiz-adv-x="455" 
d="M252 565h-13l-148 172l7 11l147 -61l147 61l8 -11zM362 0h-327v13l58 46q9 8 9 21v315q0 13 -7 21l-60 63v13h200v-121q46 133 137 133q40 0 70 -30l-47 -153h-13l-68 76q-7 7 -12 7q-8 0 -19 -11q-23 -23 -37 -66v-233q0 -16 13 -23l103 -57v-14z" />
    <glyph glyph-name="Sacute" unicode="&#x15a;" horiz-adv-x="585" 
d="M258 760h-14l59 167h164v-13zM265 -15q-104 0 -208 30v222h15l110 -183q10 -15 22 -18q28 -7 62 -7q70 0 111 32t41 83q0 44 -30 69t-90 51l-82 34q-164 67 -164 208q0 98 73.5 155t197.5 57q84 0 180 -20v-203h-15l-107 160q-9 13 -22 16q-18 3 -40 3q-62 0 -97.5 -31
t-35.5 -79q0 -73 101 -114l90 -37q86 -36 130.5 -78t44.5 -121q0 -104 -77 -166.5t-210 -62.5z" />
    <glyph glyph-name="sacute" unicode="&#x15b;" horiz-adv-x="488" 
d="M196 564h-14l59 167h164v-13zM329 105q0 25 -19.5 39.5t-62.5 28.5l-79 26q-118 39 -118 148q0 71 56.5 114t149.5 43q94 0 177 -26l-47 -140h-13l-69 111q-6 10 -15 11q-10 2 -29 2q-40 0 -66 -19t-26 -51q0 -46 83 -74l84 -28q116 -38 116 -133q0 -81 -63 -125
t-166 -44q-100 0 -186 33l50 145h13l64 -115q8 -14 16 -16q20 -5 47 -5q43 0 72.5 19t30.5 56z" />
    <glyph glyph-name="Scircumflex" unicode="&#x15c;" horiz-adv-x="585" 
d="M303 820l-147 -61l-7 11l148 172h13l148 -172l-8 -11zM265 -15q-104 0 -208 30v222h15l110 -183q10 -15 22 -18q28 -7 62 -7q70 0 111 32t41 83q0 44 -30 69t-90 51l-82 34q-164 67 -164 208q0 98 73.5 155t197.5 57q84 0 180 -20v-203h-15l-107 160q-9 13 -22 16
q-18 3 -40 3q-62 0 -97.5 -31t-35.5 -79q0 -73 101 -114l90 -37q86 -36 130.5 -78t44.5 -121q0 -104 -77 -166.5t-210 -62.5z" />
    <glyph glyph-name="scircumflex" unicode="&#x15d;" horiz-adv-x="488" 
d="M240 624l-147 -61l-7 11l148 172h13l148 -172l-8 -11zM329 105q0 25 -19.5 39.5t-62.5 28.5l-79 26q-118 39 -118 148q0 71 56.5 114t149.5 43q94 0 177 -26l-47 -140h-13l-69 111q-6 10 -15 11q-10 2 -29 2q-40 0 -66 -19t-26 -51q0 -46 83 -74l84 -28q116 -38 116 -133
q0 -81 -63 -125t-166 -44q-100 0 -186 33l50 145h13l64 -115q8 -14 16 -16q20 -5 47 -5q43 0 72.5 19t30.5 56z" />
    <glyph glyph-name="Scedilla" unicode="&#x15e;" horiz-adv-x="585" 
d="M265 -15q-104 0 -208 30v222h15l110 -183q10 -15 22 -18q28 -7 62 -7q70 0 111 32t41 83q0 44 -30 69t-90 51l-82 34q-164 67 -164 208q0 98 73.5 155t197.5 57q84 0 180 -20v-203h-15l-107 160q-9 13 -22 16q-18 3 -40 3q-62 0 -97.5 -31t-35.5 -79q0 -73 101 -114
l90 -37q86 -36 130.5 -78t44.5 -121q0 -99 -70.5 -160.5t-192.5 -67.5l-4 -46q48 8 84 -17t36 -70q0 -46 -35.5 -72.5t-84.5 -26.5q-42 0 -75 19.5t-44 50.5l9 8q29 -29 72 -29q25 0 43 13t18 38q0 27 -24.5 40t-62.5 4l-6 6l52 81h-2z" />
    <glyph glyph-name="scedilla" unicode="&#x15f;" horiz-adv-x="488" 
d="M351 -147q0 -46 -35.5 -72.5t-84.5 -26.5q-42 0 -75 19.5t-44 50.5l9 8q29 -29 72 -29q25 0 43 13t18 38q0 27 -24.5 40t-62.5 4l-6 6l54 84q-101 2 -179 33l50 145h13l64 -115q8 -14 16 -16q20 -5 47 -5q43 0 72.5 19t30.5 56q0 25 -19.5 39.5t-62.5 28.5l-79 26
q-118 39 -118 148q0 71 56.5 114t149.5 43q94 0 177 -26l-47 -140h-13l-69 111q-6 10 -15 11q-10 2 -29 2q-40 0 -66 -19t-26 -51q0 -46 83 -74l84 -28q116 -38 116 -133q0 -79 -59 -122.5t-157 -46.5l-4 -48q48 8 84 -17t36 -70z" />
    <glyph glyph-name="Scaron" unicode="&#x160;" horiz-adv-x="585" 
d="M310 761h-13l-148 172l7 11l147 -61l147 61l8 -11zM265 -15q-104 0 -208 30v222h15l110 -183q10 -15 22 -18q28 -7 62 -7q70 0 111 32t41 83q0 44 -30 69t-90 51l-82 34q-164 67 -164 208q0 98 73.5 155t197.5 57q84 0 180 -20v-203h-15l-107 160q-9 13 -22 16
q-18 3 -40 3q-62 0 -97.5 -31t-35.5 -79q0 -73 101 -114l90 -37q86 -36 130.5 -78t44.5 -121q0 -104 -77 -166.5t-210 -62.5z" />
    <glyph glyph-name="scaron" unicode="&#x161;" horiz-adv-x="488" 
d="M247 565h-13l-148 172l7 11l147 -61l147 61l8 -11zM329 105q0 25 -19.5 39.5t-62.5 28.5l-79 26q-118 39 -118 148q0 71 56.5 114t149.5 43q94 0 177 -26l-47 -140h-13l-69 111q-6 10 -15 11q-10 2 -29 2q-40 0 -66 -19t-26 -51q0 -46 83 -74l84 -28q116 -38 116 -133
q0 -81 -63 -125t-166 -44q-100 0 -186 33l50 145h13l64 -115q8 -14 16 -16q20 -5 47 -5q43 0 72.5 19t30.5 56z" />
    <glyph glyph-name="Tcommaaccent" unicode="&#x162;" horiz-adv-x="670" 
d="M276 -288l-5 12q23 15 41 39.5t18 40.5q0 10 -9 10q-24 2 -38.5 18.5t-14.5 42.5q0 27 19 46.5t48 19.5q32 0 51.5 -22.5t19.5 -61.5q0 -51 -37 -91.5t-93 -53.5zM648 703v-229h-15l-108 167q-8 12 -13 14.5t-17 2.5h-79v-562q0 -13 9 -20l75 -61v-15h-330v15l75 61
q9 8 9 20v562h-79q-12 0 -17 -2.5t-13 -14.5l-109 -167h-14v229h626z" />
    <glyph glyph-name="tcommaaccent" unicode="&#x163;" horiz-adv-x="392" 
d="M152 -288l-5 12q23 15 41 39.5t18 40.5q0 10 -9 10q-24 2 -38.5 18.5t-14.5 42.5q0 27 19 46.5t48 19.5q32 0 51.5 -22.5t19.5 -61.5q0 -51 -37 -91.5t-93 -53.5zM222 667h12v-175h135v-55h-135v-297q0 -70 61 -70q43 0 69 36l13 -6q-12 -52 -50.5 -82t-99.5 -30
q-66 0 -101 36.5t-35 106.5v306h-68v55h44q12 0 17 2.5t13 13.5z" />
    <glyph glyph-name="Tcaron" unicode="&#x164;" horiz-adv-x="670" 
d="M341 761h-13l-148 172l7 11l147 -61l147 61l8 -11zM648 703v-229h-15l-108 167q-8 12 -13 14.5t-17 2.5h-79v-562q0 -13 9 -20l75 -61v-15h-330v15l75 61q9 8 9 20v562h-79q-12 0 -17 -2.5t-13 -14.5l-109 -167h-14v229h626z" />
    <glyph glyph-name="tcaron" unicode="&#x165;" horiz-adv-x="392" 
d="M429 703v-12l-130 -164h-12l13 176h129zM222 667h12v-175h135v-55h-135v-297q0 -70 61 -70q43 0 69 36l13 -6q-12 -52 -50.5 -82t-99.5 -30q-66 0 -101 36.5t-35 106.5v306h-68v55h44q12 0 17 2.5t13 13.5z" />
    <glyph glyph-name="Tbar" unicode="&#x166;" horiz-adv-x="670" 
d="M648 703v-229h-15l-108 167q-8 12 -13 14.5t-17 2.5h-79v-291h133v-46h-133v-225q0 -13 9 -20l75 -61v-15h-330v15l75 61q9 8 9 20v225h-133v46h133v291h-79q-12 0 -17 -2.5t-13 -14.5l-109 -167h-14v229h626z" />
    <glyph glyph-name="tbar" unicode="&#x167;" horiz-adv-x="392" 
d="M222 667h12v-175h135v-55h-135v-75h135v-41h-135v-181q0 -70 61 -70q43 0 69 36l13 -6q-12 -52 -50.5 -82t-99.5 -30q-66 0 -101 36.5t-35 106.5v190h-68v41h68v75h-68v55h44q12 0 17 2.5t13 13.5z" />
    <glyph glyph-name="Utilde" unicode="&#x168;" horiz-adv-x="727" 
d="M368 -15q-269 0 -269 259v358q0 12 -9 20l-73 66v15h326v-15l-73 -66q-9 -7 -9 -20v-351q0 -98 40 -150t115 -52q74 0 117 50t43 149v309q0 21 -12 34l-93 97v15h260v-15l-93 -97q-12 -13 -12 -34v-312q0 -120 -61.5 -190t-196.5 -70zM439 768q-23 0 -64 26.5t-59 26.5
t-32 -11.5t-34 -39.5h-13q21 138 105 138q22 0 62.5 -27t60.5 -27q17 0 31 11.5t34 40.5h13q-20 -138 -104 -138z" />
    <glyph glyph-name="utilde" unicode="&#x169;" horiz-adv-x="623" 
d="M600 0h-196v97q-57 -109 -172 -109q-157 0 -157 207q0 30 1 105t1 95q0 14 -8 22l-58 62v13h210q-2 -178 -2 -279q0 -70 14.5 -107t60.5 -37q59 0 99 71v255q0 14 -9 22l-58 62v13h210v-401q0 -12 9 -22l55 -56v-13zM351 572q-23 0 -64 26.5t-59 26.5t-32 -11.5
t-34 -39.5h-13q21 138 105 138q22 0 62.5 -27t60.5 -27q17 0 31 11.5t34 40.5h13q-20 -138 -104 -138z" />
    <glyph glyph-name="Umacron" unicode="&#x16a;" horiz-adv-x="727" 
d="M368 -15q-269 0 -269 259v358q0 12 -9 20l-73 66v15h326v-15l-73 -66q-9 -7 -9 -20v-351q0 -98 40 -150t115 -52q74 0 117 50t43 149v309q0 21 -12 34l-93 97v15h260v-15l-93 -97q-12 -13 -12 -34v-312q0 -120 -61.5 -190t-196.5 -70zM532 796h-284v66h284v-66z" />
    <glyph glyph-name="umacron" unicode="&#x16b;" horiz-adv-x="623" 
d="M600 0h-196v97q-57 -109 -172 -109q-157 0 -157 207q0 30 1 105t1 95q0 14 -8 22l-58 62v13h210q-2 -178 -2 -279q0 -70 14.5 -107t60.5 -37q59 0 99 71v255q0 14 -9 22l-58 62v13h210v-401q0 -12 9 -22l55 -56v-13zM444 600h-284v66h284v-66z" />
    <glyph glyph-name="Ubreve" unicode="&#x16c;" horiz-adv-x="727" 
d="M368 -15q-269 0 -269 259v358q0 12 -9 20l-73 66v15h326v-15l-73 -66q-9 -7 -9 -20v-351q0 -98 40 -150t115 -52q74 0 117 50t43 149v309q0 21 -12 34l-93 97v15h260v-15l-93 -97q-12 -13 -12 -34v-312q0 -120 -61.5 -190t-196.5 -70zM390 759q-60 0 -97.5 41.5
t-35.5 126.5h13q12 -39 43.5 -59.5t76.5 -20.5t77 20.5t43 59.5h14q2 -85 -36 -126.5t-98 -41.5z" />
    <glyph glyph-name="ubreve" unicode="&#x16d;" horiz-adv-x="623" 
d="M600 0h-196v97q-57 -109 -172 -109q-157 0 -157 207q0 30 1 105t1 95q0 14 -8 22l-58 62v13h210q-2 -178 -2 -279q0 -70 14.5 -107t60.5 -37q59 0 99 71v255q0 14 -9 22l-58 62v13h210v-401q0 -12 9 -22l55 -56v-13zM302 563q-60 0 -97.5 41.5t-35.5 126.5h13
q12 -39 43.5 -59.5t76.5 -20.5t77 20.5t43 59.5h14q2 -85 -36 -126.5t-98 -41.5z" />
    <glyph glyph-name="Uring" unicode="&#x16e;" horiz-adv-x="727" 
d="M456 863q0 29 -19 49t-48 20t-48 -20t-19 -49q0 -30 18.5 -50t48.5 -20q29 0 48 20t19 50zM273 863q0 51 34.5 81.5t81.5 30.5q46 0 80.5 -30.5t34.5 -81.5t-34.5 -82t-80.5 -31q-47 0 -81.5 30.5t-34.5 82.5zM368 -15q-269 0 -269 259v358q0 12 -9 20l-73 66v15h326v-15
l-73 -66q-9 -7 -9 -20v-351q0 -98 40 -150t115 -52q74 0 117 50t43 149v309q0 21 -12 34l-93 97v15h260v-15l-93 -97q-12 -13 -12 -34v-312q0 -120 -61.5 -190t-196.5 -70z" />
    <glyph glyph-name="uring" unicode="&#x16f;" horiz-adv-x="623" 
d="M368 667q0 29 -19 49t-48 20t-48 -20t-19 -49q0 -30 18.5 -50t48.5 -20q29 0 48 20t19 50zM185 667q0 51 34.5 81.5t81.5 30.5q46 0 80.5 -30.5t34.5 -81.5t-34.5 -82t-80.5 -31q-47 0 -81.5 30.5t-34.5 82.5zM600 0h-196v97q-57 -109 -172 -109q-157 0 -157 207
q0 30 1 105t1 95q0 14 -8 22l-58 62v13h210q-2 -178 -2 -279q0 -70 14.5 -107t60.5 -37q59 0 99 71v255q0 14 -9 22l-58 62v13h210v-401q0 -12 9 -22l55 -56v-13z" />
    <glyph glyph-name="Uhungarumlaut" unicode="&#x170;" horiz-adv-x="727" 
d="M368 -15q-269 0 -269 259v358q0 12 -9 20l-73 66v15h326v-15l-73 -66q-9 -7 -9 -20v-351q0 -98 40 -150t115 -52q74 0 117 50t43 149v309q0 21 -12 34l-93 97v15h260v-15l-93 -97q-12 -13 -12 -34v-312q0 -120 -61.5 -190t-196.5 -70zM316 932h139v-13l-173 -157h-14z
M491 932h139v-13l-174 -157h-13z" />
    <glyph glyph-name="uhungarumlaut" unicode="&#x171;" horiz-adv-x="623" 
d="M600 0h-196v97q-57 -109 -172 -109q-157 0 -157 207q0 30 1 105t1 95q0 14 -8 22l-58 62v13h210q-2 -178 -2 -279q0 -70 14.5 -107t60.5 -37q59 0 99 71v255q0 14 -9 22l-58 62v13h210v-401q0 -12 9 -22l55 -56v-13zM228 736h139v-13l-173 -157h-14zM403 736h139v-13
l-174 -157h-13z" />
    <glyph glyph-name="Uogonek" unicode="&#x172;" horiz-adv-x="727" 
d="M486 -158l9 -6q-14 -36 -46 -59t-74 -23q-41 0 -69.5 26.5t-28.5 69.5q0 41 29 77t88 58h-26q-269 0 -269 259v358q0 12 -9 20l-73 66v15h326v-15l-73 -66q-9 -7 -9 -20v-351q0 -98 40 -150t115 -52q74 0 117 50t43 149v309q0 21 -12 34l-93 97v15h260v-15l-93 -97
q-12 -13 -12 -34v-312q0 -104 -42.5 -166.5t-142.5 -94.5q-37 -12 -55 -41t-18 -64q0 -30 17 -46t41 -16q35 0 60 25z" />
    <glyph glyph-name="uogonek" unicode="&#x173;" horiz-adv-x="623" 
d="M600 0q-59 -1 -92.5 -39t-33.5 -82q0 -30 17 -46t40 -16q36 0 60 25l10 -6q-15 -36 -47 -59t-74 -23q-40 0 -69 26.5t-29 69.5q0 46 36 86.5t102 63.5h-116v97q-57 -109 -172 -109q-157 0 -157 207q0 30 1 105t1 95q0 14 -8 22l-58 62v13h210q-2 -178 -2 -279
q0 -70 14.5 -107t60.5 -37q59 0 99 71v255q0 14 -9 22l-58 62v13h210v-401q0 -12 9 -22l55 -56v-13z" />
    <glyph glyph-name="Wcircumflex" unicode="&#x174;" horiz-adv-x="1021" 
d="M516 820l-147 -61l-7 11l148 172h13l148 -172l-8 -11zM277 0l-208 594q-6 16 -18 31l-54 63v15h302v-15l-64 -60q-8 -8 -4 -21l148 -436l107 305l-37 118q-9 23 -20 36l-46 58v15h295v-15l-65 -60q-7 -6 -3 -21l132 -434l136 392q4 13 -6 26l-83 97v15h258v-15l-93 -92
q-16 -15 -23 -34l-197 -562h-95l-128 399l-140 -399h-94z" />
    <glyph glyph-name="wcircumflex" unicode="&#x175;" horiz-adv-x="814" 
d="M412 624l-147 -61l-7 11l148 172h13l148 -172l-8 -11zM204 427q-8 -9 -4 -20l98 -300l83 224l-25 75q-6 18 -15 31l-29 42v13h250v-13l-48 -50q-8 -9 -4 -22l93 -299l97 253q5 15 -2 25l-68 93v13h197v-13l-66 -94q-8 -12 -22 -48l-129 -337h-112l-94 265l-98 -265h-113
l-147 406q-5 14 -14 29l-31 44v13h252v-13z" />
    <glyph glyph-name="Ycircumflex" unicode="&#x176;" horiz-adv-x="677" 
d="M503 0h-331v15l76 61q9 8 9 20v158q0 21 -8 36l-172 302q-12 22 -27 37l-61 59v15h335v-15l-68 -58q-14 -13 -6 -27l144 -267l127 239q7 13 -2 24l-76 89v15h258v-15l-101 -89q-20 -17 -30 -38l-143 -269q-8 -15 -8 -34v-162q0 -13 9 -20l75 -61v-15zM362 820l-147 -61
l-7 11l148 172h13l148 -172l-8 -11z" />
    <glyph glyph-name="ycircumflex" unicode="&#x177;" horiz-adv-x="514" 
d="M84 -245q-39 0 -60 13l42 161h12l70 -75q10 -10 16 -10q10 0 22 18q21 29 39 72q4 11 0 22l-178 450q-8 18 -15 29l-31 44v13h256v-13l-49 -52q-7 -8 -3 -20l100 -284l96 241q5 15 -2 25l-66 90v13h194v-13l-66 -96q-5 -7 -21 -45l-132 -329q-49 -120 -95 -180
q-28 -41 -58 -57.5t-71 -16.5zM280 624l-147 -61l-7 11l148 172h13l148 -172l-8 -11z" />
    <glyph glyph-name="Ydieresis" unicode="&#x178;" horiz-adv-x="677" 
d="M503 0h-331v15l76 61q9 8 9 20v158q0 21 -8 36l-172 302q-12 22 -27 37l-61 59v15h335v-15l-68 -58q-14 -13 -6 -27l144 -267l127 239q7 13 -2 24l-76 89v15h258v-15l-101 -89q-20 -17 -30 -38l-143 -269q-8 -15 -8 -34v-162q0 -13 9 -20l75 -61v-15zM189 841
q0 31 21 51.5t50 20.5t49.5 -20.5t20.5 -51.5q0 -30 -20.5 -50t-49.5 -20t-50 20t-21 50zM396 841q0 31 20.5 51.5t49.5 20.5t49.5 -20.5t20.5 -51.5q0 -30 -20.5 -50t-49.5 -20t-49.5 20t-20.5 50z" />
    <glyph glyph-name="Zacute" unicode="&#x179;" horiz-adv-x="608" 
d="M279 760h-14l59 167h164v-13zM567 0h-544v13l374 645h-196q-12 0 -16.5 -2t-10.5 -11l-114 -174h-15v232h544v-13l-374 -645h195q13 0 18 2t11 11l117 181h15z" />
    <glyph glyph-name="zacute" unicode="&#x17a;" horiz-adv-x="501" 
d="M222 564h-14l59 167h164v-13zM353 58l94 147h14l-12 -205h-413v12l267 434h-114q-12 0 -16 -2t-9 -11l-93 -140h-14v199h413v-10l-264 -436h121q12 0 16 2t10 10z" />
    <glyph glyph-name="Zdotaccent" unicode="&#x17b;" horiz-adv-x="608" 
d="M567 0h-544v13l374 645h-196q-12 0 -16.5 -2t-10.5 -11l-114 -174h-15v232h544v-13l-374 -645h195q13 0 18 2t11 11l117 181h15zM248 852q0 34 22 56t54 22q33 0 55 -22t22 -56q0 -33 -22 -54.5t-55 -21.5q-32 0 -54 21.5t-22 54.5z" />
    <glyph glyph-name="zdotaccent" unicode="&#x17c;" horiz-adv-x="501" 
d="M353 58l94 147h14l-12 -205h-413v12l267 434h-114q-12 0 -16 -2t-9 -11l-93 -140h-14v199h413v-10l-264 -436h121q12 0 16 2t10 10zM191 656q0 34 22 56t54 22q33 0 55 -22t22 -56q0 -33 -22 -54.5t-55 -21.5q-32 0 -54 21.5t-22 54.5z" />
    <glyph glyph-name="Zcaron" unicode="&#x17d;" horiz-adv-x="608" 
d="M331 761h-13l-148 172l7 11l147 -61l147 61l8 -11zM567 0h-544v13l374 645h-196q-12 0 -16.5 -2t-10.5 -11l-114 -174h-15v232h544v-13l-374 -645h195q13 0 18 2t11 11l117 181h15z" />
    <glyph glyph-name="zcaron" unicode="&#x17e;" horiz-adv-x="501" 
d="M274 565h-13l-148 172l7 11l147 -61l147 61l8 -11zM353 58l94 147h14l-12 -205h-413v12l267 434h-114q-12 0 -16 -2t-9 -11l-93 -140h-14v199h413v-10l-264 -436h121q12 0 16 2t10 10z" />
    <glyph glyph-name="florin" unicode="&#x192;" horiz-adv-x="458" 
d="M74 337h76l16 94q57 319 251 319q74 0 126 -26l-65 -144h-13l-40 107q-5 12 -9 15.5t-13 3.5q-49 0 -72 -84q-1 -5 -21 -117l-29 -168h113v-46h-120l-36 -210q-10 -61 -29 -114.5t-50 -103t-79 -79t-107 -29.5q-64 0 -111 25l64 145h12l43 -109q5 -12 7.5 -15t11.5 -3
q39 0 65 85q12 41 28 126l49 282h-68v46z" />
    <glyph glyph-name="uni01B5" unicode="&#x1b5;" horiz-adv-x="608" 
d="M99 330v46h134l164 282h-196q-12 0 -16.5 -2t-10.5 -11l-114 -174h-15v232h544v-13l-183 -314h107v-46h-133l-165 -285h195q13 0 18 2t11 11l117 181h15l-4 -239h-544v13l184 317h-108z" />
    <glyph glyph-name="uni01B6" unicode="&#x1b6;" horiz-adv-x="499" 
d="M101 224v42h91l111 180h-114q-12 0 -16 -2t-9 -11l-93 -140h-14v199h413v-10l-131 -216h67v-42h-91l-109 -178h121q12 0 16.5 2t9.5 10l94 147h14l-12 -205h-413v12l131 212h-66z" />
    <glyph glyph-name="Aringacute" unicode="&#x1fa;" horiz-adv-x="706" 
d="M470 96l-46 125h-233l-30 -83q-6 -16 7 -30l83 -93v-15h-258v15l96 95q13 13 20 29l158 431q6 18 -1 34l-39 86v13h182l224 -594q6 -19 16 -30l56 -64v-15h-303v15l65 60q8 8 3 21zM306 539l-98 -273h199zM212 863q0 28 20 75l66 159h154v-13l-160 -117q16 8 36 8
q46 0 80.5 -30.5t34.5 -81.5t-34.5 -82t-80.5 -31q-47 0 -81.5 30.5t-34.5 82.5zM395 863q0 29 -19 49t-48 20t-48 -20t-19 -49q0 -30 18.5 -50t48.5 -20q29 0 48 20t19 50z" />
    <glyph glyph-name="aringacute" unicode="&#x1fb;" horiz-adv-x="547" 
d="M243 288q45 0 86 -11q0 21 0.5 48t0.5 30q0 49 -22.5 77t-66.5 28q-10 0 -17 -1q-11 -1 -18 -12l-75 -122h-14l-49 145q86 34 182 34q114 0 166 -43t52 -136q0 -34 -3 -107t-3 -99q0 -52 32 -52q20 0 31 18l11 -8q-8 -40 -38.5 -64.5t-73.5 -24.5q-42 0 -68.5 24
t-29.5 65q-22 -41 -60.5 -65t-86.5 -24q-61 0 -101 36.5t-40 98.5q0 73 57.5 119t147.5 46zM242 67q57 0 84 63q0 28 2 106q-24 6 -45 6q-50 0 -80 -27t-30 -71q0 -35 19 -56t50 -21zM157 667q0 28 20 75l66 159h154v-13l-160 -117q16 8 36 8q46 0 80.5 -30.5t34.5 -81.5
t-34.5 -82t-80.5 -31q-47 0 -81.5 30.5t-34.5 82.5zM340 667q0 29 -19 49t-48 20t-48 -20t-19 -49q0 -30 18.5 -50t48.5 -20q29 0 48 20t19 50z" />
    <glyph glyph-name="AEacute" unicode="&#x1fc;" horiz-adv-x="989" 
d="M590 768h-14l59 167h164v-13zM-16 0v13l102 92q21 20 37 44l300 463q8 13 -1 22l-55 56v13h552v-222h-14l-109 161q-10 16 -27 16h-138q-10 0 -13 -2.5t-3 -12.5v-277h92q17 0 30 15l71 85h14v-245h-14l-71 85q-12 14 -30 14h-92v-260q0 -10 3 -12.5t13 -2.5h143
q18 0 28 16l112 163h14l-1 -224h-561v13l80 63q9 7 9 20v125h-226l-58 -88q-11 -18 5 -36l72 -84v-13h-264zM257 266h198v306z" />
    <glyph glyph-name="aeacute" unicode="&#x1fd;" horiz-adv-x="821" 
d="M367 564h-14l59 167h164v-13zM468 290h173q-1 87 -21.5 127t-61.5 40q-86 0 -90 -167zM182 -12q-63 0 -103.5 37t-40.5 98q0 73 56.5 119t147.5 46q47 0 83 -10q0 4 2.5 36t2.5 45q0 46 -22.5 73.5t-66.5 27.5q-3 0 -9.5 -0.5t-7.5 -0.5q-13 -2 -18 -12l-75 -122h-14
l-49 145q83 34 182 34q119 0 164 -51q64 51 147 51q100 0 160 -55t60 -171q0 -24 -1 -32h-312q4 -85 46 -126t105 -41q93 0 151 66l12 -7q-48 -150 -219 -150q-69 0 -122 26.5t-82 74.5q-26 -47 -74.5 -74t-102.5 -27zM241 67q61 0 95 64q-13 45 -14 107q-26 4 -39 4
q-48 0 -79 -26.5t-31 -73.5q0 -35 20 -55t48 -20z" />
    <glyph glyph-name="Oslashacute" unicode="&#x1fe;" horiz-adv-x="759" 
d="M381 718q63 0 122 -19l38 87l42 -18l-38 -86q84 -41 131.5 -124.5t47.5 -202.5q0 -170 -95.5 -270t-249.5 -100q-72 0 -132 21l-39 -89l-42 18l40 89q-81 42 -126 125t-45 200q0 170 95.5 269.5t250.5 99.5zM538 349q0 144 -42 223l-213 -484q37 -55 99 -55
q156 0 156 316zM378 670q-158 0 -158 -315q0 -132 38 -211l212 480q-36 46 -92 46zM334 775h-14l59 167h164v-13z" />
    <glyph glyph-name="oslashacute" unicode="&#x1ff;" horiz-adv-x="592" 
d="M293 -12q-44 0 -85 11l-37 -86l-37 17l36 82q-65 28 -101 87t-36 143q0 122 72.5 192t192.5 70q42 0 83 -11l36 82l37 -17l-35 -79q65 -28 101 -86.5t36 -142.5q0 -121 -72 -191.5t-191 -70.5zM297 36q102 0 102 208q0 81 -24 134l-138 -314q24 -28 60 -28zM191 248
q0 -86 23 -136l137 315q-22 29 -58 29q-102 0 -102 -208zM249 564h-14l59 167h164v-13z" />
    <glyph glyph-name="Scommaaccent" unicode="&#x218;" horiz-adv-x="585" 
d="M228 -288l-5 12q23 15 41 39.5t18 40.5q0 10 -9 10q-24 2 -38.5 18.5t-14.5 42.5q0 27 19 46.5t48 19.5q32 0 51.5 -22.5t19.5 -61.5q0 -51 -37 -91.5t-93 -53.5zM265 -15q-104 0 -208 30v222h15l110 -183q10 -15 22 -18q28 -7 62 -7q70 0 111 32t41 83q0 44 -30 69
t-90 51l-82 34q-164 67 -164 208q0 98 73.5 155t197.5 57q84 0 180 -20v-203h-15l-107 160q-9 13 -22 16q-18 3 -40 3q-62 0 -97.5 -31t-35.5 -79q0 -73 101 -114l90 -37q86 -36 130.5 -78t44.5 -121q0 -104 -77 -166.5t-210 -62.5z" />
    <glyph glyph-name="scommaaccent" unicode="&#x219;" horiz-adv-x="488" 
d="M172 -288l-5 12q23 15 41 39.5t18 40.5q0 10 -9 10q-24 2 -38.5 18.5t-14.5 42.5q0 27 19 46.5t48 19.5q32 0 51.5 -22.5t19.5 -61.5q0 -51 -37 -91.5t-93 -53.5zM329 105q0 25 -19.5 39.5t-62.5 28.5l-79 26q-118 39 -118 148q0 71 56.5 114t149.5 43q94 0 177 -26
l-47 -140h-13l-69 111q-6 10 -15 11q-10 2 -29 2q-40 0 -66 -19t-26 -51q0 -46 83 -74l84 -28q116 -38 116 -133q0 -81 -63 -125t-166 -44q-100 0 -186 33l50 145h13l64 -115q8 -14 16 -16q20 -5 47 -5q43 0 72.5 19t30.5 56z" />
    <glyph glyph-name="uni021A" unicode="&#x21a;" horiz-adv-x="670" 
d="M276 -288l-5 12q23 15 41 39.5t18 40.5q0 10 -9 10q-24 2 -38.5 18.5t-14.5 42.5q0 27 19 46.5t48 19.5q32 0 51.5 -22.5t19.5 -61.5q0 -51 -37 -91.5t-93 -53.5zM648 703v-229h-15l-108 167q-8 12 -13 14.5t-17 2.5h-79v-562q0 -13 9 -20l75 -61v-15h-330v15l75 61
q9 8 9 20v562h-79q-12 0 -17 -2.5t-13 -14.5l-109 -167h-14v229h626z" />
    <glyph glyph-name="uni021B" unicode="&#x21b;" horiz-adv-x="392" 
d="M152 -288l-5 12q23 15 41 39.5t18 40.5q0 10 -9 10q-24 2 -38.5 18.5t-14.5 42.5q0 27 19 46.5t48 19.5q32 0 51.5 -22.5t19.5 -61.5q0 -51 -37 -91.5t-93 -53.5zM222 667h12v-175h135v-55h-135v-297q0 -70 61 -70q43 0 69 36l13 -6q-12 -52 -50.5 -82t-99.5 -30
q-66 0 -101 36.5t-35 106.5v306h-68v55h44q12 0 17 2.5t13 13.5z" />
    <glyph glyph-name="dotlessj" unicode="&#x237;" horiz-adv-x="300" 
d="M233 41q0 -138 -69.5 -209.5t-198.5 -76.5l-3 14q68 26 97.5 84t29.5 164v378q0 13 -7 21l-59 63v13h210v-451z" />
    <glyph glyph-name="circumflex" unicode="&#x2c6;" horiz-adv-x="419" 
d="M209 624l-147 -61l-7 11l148 172h13l148 -172l-8 -11z" />
    <glyph glyph-name="caron" unicode="&#x2c7;" horiz-adv-x="419" 
d="M216 565h-13l-148 172l7 11l147 -61l147 61l8 -11z" />
    <glyph glyph-name="breve" unicode="&#x2d8;" horiz-adv-x="385" 
d="M192 563q-60 0 -97.5 41.5t-35.5 126.5h13q12 -39 43.5 -59.5t76.5 -20.5t77 20.5t43 59.5h14q2 -85 -36 -126.5t-98 -41.5z" />
    <glyph glyph-name="dotaccent" unicode="&#x2d9;" horiz-adv-x="274" 
d="M61 656q0 34 22 56t54 22q33 0 55 -22t22 -56q0 -33 -22 -54.5t-55 -21.5q-32 0 -54 21.5t-22 54.5z" />
    <glyph glyph-name="ring" unicode="&#x2da;" horiz-adv-x="341" 
d="M238 667q0 29 -19 49t-48 20t-48 -20t-19 -49q0 -30 18.5 -50t48.5 -20q29 0 48 20t19 50zM55 667q0 51 34.5 81.5t81.5 30.5q46 0 80.5 -30.5t34.5 -81.5t-34.5 -82t-80.5 -31q-47 0 -81.5 30.5t-34.5 82.5z" />
    <glyph glyph-name="ogonek" unicode="&#x2db;" horiz-adv-x="328" 
d="M264 -158l9 -6q-14 -36 -46 -59t-74 -23q-41 0 -69.5 26.5t-28.5 69.5q0 48 38.5 89t110.5 63h19q-37 -21 -57 -55t-20 -68q0 -30 17 -46t41 -16q35 0 60 25z" />
    <glyph glyph-name="tilde" unicode="&#x2dc;" horiz-adv-x="418" 
d="M258 572q-23 0 -64 26.5t-59 26.5t-32 -11.5t-34 -39.5h-13q21 138 105 138q22 0 62.5 -27t60.5 -27q17 0 31 11.5t34 40.5h13q-20 -138 -104 -138z" />
    <glyph glyph-name="hungarumlaut" unicode="&#x2dd;" horiz-adv-x="472" 
d="M103 736h139v-13l-173 -157h-14zM278 736h139v-13l-174 -157h-13z" />
    <glyph glyph-name="pi" unicode="&#x3c0;" horiz-adv-x="674" 
d="M638 0h-277v13l58 46q9 8 9 21v366h-182v-366q0 -13 9 -21l57 -46v-13h-277v13l58 46q9 8 9 21v315q0 13 -7 21l-60 63v13h603v-13l-59 -63q-7 -8 -7 -21v-315q0 -13 8 -21l58 -46v-13z" />
    <glyph glyph-name="Wgrave" unicode="&#x1e80;" horiz-adv-x="1021" 
d="M277 0l-208 594q-6 16 -18 31l-54 63v15h302v-15l-64 -60q-8 -8 -4 -21l148 -436l107 305l-37 118q-9 23 -20 36l-46 58v15h295v-15l-65 -60q-7 -6 -3 -21l132 -434l136 392q4 13 -6 26l-83 97v15h258v-15l-93 -92q-16 -15 -23 -34l-197 -562h-95l-128 399l-140 -399h-94
zM585 761h-15l-208 154v13h164z" />
    <glyph glyph-name="wgrave" unicode="&#x1e81;" horiz-adv-x="814" 
d="M204 427q-8 -9 -4 -20l98 -300l83 224l-25 75q-6 18 -15 31l-29 42v13h250v-13l-48 -50q-8 -9 -4 -22l93 -299l97 253q5 15 -2 25l-68 93v13h197v-13l-66 -94q-8 -12 -22 -48l-129 -337h-112l-94 265l-98 -265h-113l-147 406q-5 14 -14 29l-31 44v13h252v-13zM480 565
h-15l-208 154v13h164z" />
    <glyph glyph-name="Wacute" unicode="&#x1e82;" horiz-adv-x="1021" 
d="M471 760h-14l59 167h164v-13zM277 0l-208 594q-6 16 -18 31l-54 63v15h302v-15l-64 -60q-8 -8 -4 -21l148 -436l107 305l-37 118q-9 23 -20 36l-46 58v15h295v-15l-65 -60q-7 -6 -3 -21l132 -434l136 392q4 13 -6 26l-83 97v15h258v-15l-93 -92q-16 -15 -23 -34
l-197 -562h-95l-128 399l-140 -399h-94z" />
    <glyph glyph-name="wacute" unicode="&#x1e83;" horiz-adv-x="814" 
d="M367 564h-14l59 167h164v-13zM204 427q-8 -9 -4 -20l98 -300l83 224l-25 75q-6 18 -15 31l-29 42v13h250v-13l-48 -50q-8 -9 -4 -22l93 -299l97 253q5 15 -2 25l-68 93v13h197v-13l-66 -94q-8 -12 -22 -48l-129 -337h-112l-94 265l-98 -265h-113l-147 406q-5 14 -14 29
l-31 44v13h252v-13z" />
    <glyph glyph-name="Wdieresis" unicode="&#x1e84;" horiz-adv-x="1021" 
d="M342 841q0 31 21 51.5t50 20.5t49.5 -20.5t20.5 -51.5q0 -30 -20.5 -50t-49.5 -20t-50 20t-21 50zM549 841q0 31 20.5 51.5t49.5 20.5t49.5 -20.5t20.5 -51.5q0 -30 -20.5 -50t-49.5 -20t-49.5 20t-20.5 50zM277 0l-208 594q-6 16 -18 31l-54 63v15h302v-15l-64 -60
q-8 -8 -4 -21l148 -436l107 305l-37 118q-9 23 -20 36l-46 58v15h295v-15l-65 -60q-7 -6 -3 -21l132 -434l136 392q4 13 -6 26l-83 97v15h258v-15l-93 -92q-16 -15 -23 -34l-197 -562h-95l-128 399l-140 -399h-94z" />
    <glyph glyph-name="wdieresis" unicode="&#x1e85;" horiz-adv-x="814" 
d="M238 645q0 31 21 51.5t50 20.5t49.5 -20.5t20.5 -51.5q0 -30 -20.5 -50t-49.5 -20t-50 20t-21 50zM445 645q0 31 20.5 51.5t49.5 20.5t49.5 -20.5t20.5 -51.5q0 -30 -20.5 -50t-49.5 -20t-49.5 20t-20.5 50zM204 427q-8 -9 -4 -20l98 -300l83 224l-25 75q-6 18 -15 31
l-29 42v13h250v-13l-48 -50q-8 -9 -4 -22l93 -299l97 253q5 15 -2 25l-68 93v13h197v-13l-66 -94q-8 -12 -22 -48l-129 -337h-112l-94 265l-98 -265h-113l-147 406q-5 14 -14 29l-31 44v13h252v-13z" />
    <glyph glyph-name="uni1E8A" unicode="&#x1e8a;" horiz-adv-x="689" 
d="M9 0v15l111 95q18 16 28 30l129 187l-179 262q-12 17 -26 31l-71 68v15h309v-15l-50 -54q-10 -12 -1 -24l121 -186l100 147q11 16 2 28l-63 89v15h255v-15l-110 -95q-17 -13 -29 -30l-126 -183l184 -269q14 -18 27 -31l67 -65v-15h-309v15l51 54q10 11 -1 28l-122 186
l-103 -151q-10 -15 -2 -28l63 -89v-15h-255zM278 852q0 34 22 56t54 22q33 0 55 -22t22 -56q0 -33 -22 -54.5t-55 -21.5q-32 0 -54 21.5t-22 54.5z" />
    <glyph glyph-name="uni1E8B" unicode="&#x1e8b;" horiz-adv-x="537" 
d="M6 0v13l76 62q23 18 39 38l87 111l-134 181q-13 21 -20 26l-48 48v13h255v-13l-36 -41q-9 -11 -2 -22l79 -110l70 89q9 12 0 22l-54 62v13h211v-13l-76 -62q-25 -21 -39 -39l-85 -108l134 -184l21 -25l48 -48v-13h-254v13l35 41q10 12 2 22l-81 111l-71 -91q-8 -11 0 -20
l54 -63v-13h-211zM203 656q0 34 22 56t54 22q33 0 55 -22t22 -56q0 -33 -22 -54.5t-55 -21.5q-32 0 -54 21.5t-22 54.5z" />
    <glyph glyph-name="Ygrave" unicode="&#x1ef2;" horiz-adv-x="677" 
d="M503 0h-331v15l76 61q9 8 9 20v158q0 21 -8 36l-172 302q-12 22 -27 37l-61 59v15h335v-15l-68 -58q-14 -13 -6 -27l144 -267l127 239q7 13 -2 24l-76 89v15h258v-15l-101 -89q-20 -17 -30 -38l-143 -269q-8 -15 -8 -34v-162q0 -13 9 -20l75 -61v-15zM431 761h-15
l-208 154v13h164z" />
    <glyph glyph-name="ygrave" unicode="&#x1ef3;" horiz-adv-x="514" 
d="M84 -245q-39 0 -60 13l42 161h12l70 -75q10 -10 16 -10q10 0 22 18q21 29 39 72q4 11 0 22l-178 450q-8 18 -15 29l-31 44v13h256v-13l-49 -52q-7 -8 -3 -20l100 -284l96 241q5 15 -2 25l-66 90v13h194v-13l-66 -96q-5 -7 -21 -45l-132 -329q-49 -120 -95 -180
q-28 -41 -58 -57.5t-71 -16.5zM348 565h-15l-208 154v13h164z" />
    <glyph glyph-name="endash" unicode="&#x2013;" horiz-adv-x="550" 
d="M520 221h-490v68h490v-68z" />
    <glyph glyph-name="emdash" unicode="&#x2014;" horiz-adv-x="1050" 
d="M1020 221h-990v68h990v-68z" />
    <glyph glyph-name="quoteleft" unicode="&#x2018;" horiz-adv-x="265" 
d="M48 545q0 76 47.5 135t122.5 74l5 -13q-91 -58 -91 -128q0 -18 14 -22q68 -16 68 -78q0 -33 -22 -55t-56 -22q-38 0 -63 28.5t-25 80.5z" />
    <glyph glyph-name="quoteright" unicode="&#x2019;" horiz-adv-x="265" 
d="M218 642q0 -76 -47.5 -135.5t-122.5 -73.5l-5 13q91 56 91 128q0 16 -15 21q-33 8 -50.5 29.5t-17.5 48.5q0 33 22 55t56 22q39 0 64 -28t25 -80z" />
    <glyph glyph-name="quotesinglbase" unicode="&#x201a;" horiz-adv-x="265" 
d="M218 58q0 -76 -47.5 -135.5t-122.5 -73.5l-5 13q91 56 91 128q0 17 -15 21q-33 8 -50.5 29.5t-17.5 48.5q0 33 22 55t56 22q39 0 64 -28t25 -80z" />
    <glyph glyph-name="quotedblleft" unicode="&#x201c;" horiz-adv-x="489" 
d="M272 543q1 79 46.5 136.5t123.5 74.5l5 -13q-91 -58 -91 -128q0 -18 14 -22q34 -8 51 -29.5t17 -48.5q0 -33 -22 -55t-56 -22q-38 0 -63 28t-25 79zM48 543q1 79 46.5 136.5t123.5 74.5l5 -13q-91 -58 -91 -128q0 -18 14 -22q68 -16 68 -78q0 -32 -22 -54.5t-55 -22.5
q-38 0 -63.5 28t-25.5 79z" />
    <glyph glyph-name="quotedblright" unicode="&#x201d;" horiz-adv-x="489" 
d="M218 642q0 -76 -47.5 -135.5t-122.5 -73.5l-5 13q91 56 91 128q0 16 -15 21q-33 8 -50.5 29.5t-17.5 48.5q0 33 22 55t56 22q39 0 64 -28t25 -80zM441 642q0 -76 -47.5 -135.5t-121.5 -73.5l-5 13q91 56 91 128q0 16 -15 21q-33 8 -50.5 29.5t-17.5 48.5q0 33 22 55
t56 22q39 0 63.5 -28t24.5 -80z" />
    <glyph glyph-name="quotedblbase" unicode="&#x201e;" horiz-adv-x="489" 
d="M218 58q0 -76 -47.5 -135.5t-122.5 -73.5l-5 13q91 56 91 128q0 17 -15 21q-33 8 -50.5 29.5t-17.5 48.5q0 33 22 55t56 22q39 0 64 -28t25 -80zM441 58q0 -76 -47.5 -135.5t-121.5 -73.5l-5 13q91 56 91 128q0 17 -15 21q-33 8 -50.5 29.5t-17.5 48.5q0 33 22 55t56 22
q39 0 63.5 -28t24.5 -80z" />
    <glyph glyph-name="dagger" unicode="&#x2020;" horiz-adv-x="417" 
d="M41 492v58h134v153h67v-153h134v-58h-134v-366h-67v366h-134z" />
    <glyph glyph-name="daggerdbl" unicode="&#x2021;" horiz-adv-x="417" 
d="M376 273h-134v-147h-67v147h-134v58h134v161h-134v58h134v153h67v-153h134v-58h-134v-161h134v-58z" />
    <glyph glyph-name="bullet" unicode="&#x2022;" horiz-adv-x="370" 
d="M61 314q0 54 35.5 91t87.5 37q54 0 89.5 -37t35.5 -91t-35.5 -91t-89.5 -37q-52 0 -87.5 37t-35.5 91z" />
    <glyph glyph-name="ellipsis" unicode="&#x2026;" horiz-adv-x="857" 
d="M57 76q0 37 24.5 62.5t61.5 25.5q36 0 61 -25.5t25 -62.5t-25 -62t-61 -25q-37 0 -61.5 25t-24.5 62zM342 76q0 37 25 62.5t61 25.5q37 0 62 -25.5t25 -62.5t-25 -62t-62 -25q-36 0 -61 25t-25 62zM628 76q0 37 24.5 62.5t61.5 25.5q36 0 61 -25.5t25 -62.5t-25 -62
t-61 -25q-37 0 -61.5 25t-24.5 62z" />
    <glyph glyph-name="perthousand" unicode="&#x2030;" horiz-adv-x="1217" 
d="M612 329q-53 0 -53 -150t53 -150t53 149q0 151 -53 151zM612 364q74 0 118 -47.5t44 -138.5t-43 -138t-119 -47q-74 0 -117.5 47t-43.5 138q0 90 43.5 138t117.5 48zM992 329q-53 0 -53 -150t53 -150t53 149q0 151 -53 151zM992 364q74 0 118 -47.5t44 -138.5t-43 -138
t-119 -47q-74 0 -117.5 47t-43.5 138q0 90 43.5 138t117.5 48zM208 674q-53 0 -53 -150q0 -149 53 -149t53 149q0 150 -53 150zM208 710q74 0 118 -47.5t44 -138.5t-43 -138t-119 -47q-74 0 -117.5 47t-43.5 138q0 90 43.5 138t117.5 48zM658 688l-444 -702l-42 28l444 702z
" />
    <glyph glyph-name="guilsinglleft" unicode="&#x2039;" horiz-adv-x="285" 
d="M227 46l-196 210v10l196 210l11 -9l-85 -206l85 -206z" />
    <glyph glyph-name="guilsinglright" unicode="&#x203a;" horiz-adv-x="285" 
d="M253 256l-195 -210l-11 9l84 206l-84 206l11 9l195 -210v-10z" />
    <glyph glyph-name="fraction" unicode="&#x2044;" horiz-adv-x="128" 
d="M307 688l-444 -702l-42 28l444 702z" />
    <glyph glyph-name="uni2070" unicode="&#x2070;" horiz-adv-x="361" 
d="M180 674q-53 0 -53 -150q0 -149 53 -149t53 149q0 150 -53 150zM180 710q74 0 118 -47.5t44 -138.5t-43 -138t-119 -47q-74 0 -117.5 47t-43.5 138q0 90 43.5 138t117.5 48z" />
    <glyph glyph-name="uni2074" unicode="&#x2074;" horiz-adv-x="361" 
d="M305 345h-177v14l32 20q7 6 7 13v39h-156v7l162 265h93v-237h17q9 0 14 8l36 49h13l-13 -92h-67v-39q0 -8 6 -13l33 -20v-14zM167 466v158l-96 -158h96z" />
    <glyph glyph-name="uni2075" unicode="&#x2075;" horiz-adv-x="361" 
d="M151 339q-65 0 -118 18l39 110h13l43 -84q4 -8 19 -8q29 0 50 20t21 54q0 33 -22 52.5t-58 19.5q-32 0 -64 -14h-10l8 195q36 -3 172 -3q30 0 42 15l11 11h13l-7 -57q-4 -28 -16.5 -37t-44.5 -9q-6 0 -56.5 1t-79.5 1l-4 -75q35 14 88 14q59 0 97.5 -26.5t38.5 -79.5
q0 -56 -47 -87t-128 -31z" />
    <glyph glyph-name="uni2076" unicode="&#x2076;" horiz-adv-x="361" 
d="M204 710q63 0 112 -19l-41 -99h-11l-43 75q-5 7 -17 7q-70 0 -74 -135q30 30 89 30q49 0 81 -29t32 -77q0 -56 -40.5 -90t-108.5 -34q-75 0 -116.5 48.5t-41.5 131.5q0 92 48.5 141.5t130.5 49.5zM176 525q-28 0 -47 -19q3 -132 55 -132q22 0 35 22.5t13 56.5
q0 32 -14.5 52t-41.5 20z" />
    <glyph glyph-name="uni2077" unicode="&#x2077;" horiz-adv-x="361" 
d="M214 345h-128v13q49 93 164 267h-156q-9 0 -15 -6l-32 -34h-13l15 118h282v-12l-41 -57q-6 -8 -12 -27q-35 -118 -64 -262z" />
    <glyph glyph-name="uni2078" unicode="&#x2078;" horiz-adv-x="361" 
d="M175 342q-52 0 -98 23t-46 65q0 28 25 49t61 31l-6 4q-72 33 -72 95q0 48 39 76.5t98 28.5q56 0 95.5 -22t39.5 -62q0 -51 -81 -72l20 -9q79 -36 79 -97q0 -50 -44.5 -80t-109.5 -30zM176 481l-40 19q-35 -21 -35 -63q0 -26 22 -42t56 -16q29 0 47 11.5t18 29.5
q0 17 -14.5 29t-53.5 32zM122 639q0 -27 52 -53l35 -17q34 24 34 57q0 23 -17 37.5t-47 14.5q-26 0 -41.5 -11t-15.5 -28z" />
    <glyph glyph-name="uni2079" unicode="&#x2079;" horiz-adv-x="361" 
d="M154 339q-64 0 -113 19l41 98h11l44 -74q5 -7 17 -7q68 0 74 134q-31 -29 -89 -29q-49 0 -81.5 28.5t-32.5 77.5q0 56 41.5 90t108.5 34q74 0 115.5 -49t41.5 -132q0 -92 -48 -141t-130 -49zM181 524q28 0 48 18q-4 132 -55 132q-22 0 -35 -22.5t-13 -56.5
q0 -32 14 -51.5t41 -19.5z" />
    <glyph glyph-name="parenleft.sups" unicode="&#x207d;" horiz-adv-x="249" 
d="M135 512q0 -167 80 -243l-5 -9q-69 30 -112 99.5t-43 152.5t43 152.5t112 99.5l5 -9q-80 -76 -80 -243z" />
    <glyph glyph-name="parenright.sups" unicode="&#x207e;" horiz-adv-x="249" 
d="M114 512q0 167 -80 243l5 9q69 -30 112 -99.5t43 -152.5t-43 -152.5t-112 -99.5l-5 9q80 76 80 243z" />
    <glyph glyph-name="uni2080" unicode="&#x2080;" horiz-adv-x="361" 
d="M180 329q-53 0 -53 -150t53 -150t53 149q0 151 -53 151zM180 364q74 0 118 -47.5t44 -138.5t-43 -138t-119 -47q-74 0 -117.5 47t-43.5 138q0 90 43.5 138t117.5 48z" />
    <glyph glyph-name="uni2081" unicode="&#x2081;" horiz-adv-x="361" 
d="M307 0h-241v12l66 41q5 3 5 12v216q0 8 -5 11l-64 36v12l167 25v-300q0 -10 6 -12l66 -41v-12z" />
    <glyph glyph-name="uni2082" unicode="&#x2082;" horiz-adv-x="361" 
d="M148 328q-11 0 -16 -9l-47 -84h-13l-36 105q63 24 135 24q73 0 107.5 -26.5t34.5 -71.5q0 -30 -13.5 -56t-43.5 -51t-54 -41t-68 -41h122q16 0 26 11l28 33h13l-22 -121h-267v13l62 69q40 45 56.5 64t36 54t19.5 63q0 65 -60 65z" />
    <glyph glyph-name="uni2083" unicode="&#x2083;" horiz-adv-x="361" 
d="M171 364q70 0 107.5 -25.5t37.5 -66.5q0 -36 -26 -56.5t-68 -26.5q47 -4 76 -27t29 -61q0 -48 -45 -78t-127 -30q-67 0 -123 18l40 113h13l43 -86q5 -8 18 -8q36 0 55 21.5t19 50.5q0 67 -83 74v14q79 11 79 80q0 28 -17 43t-45 15q-15 0 -20 -8l-46 -84h-13l-36 105
q61 23 132 23z" />
    <glyph glyph-name="uni2084" unicode="&#x2084;" horiz-adv-x="361" 
d="M305 0h-177v13l32 21q7 4 7 12v39h-156v7l162 266h93v-237h17q8 0 14 7l36 49h13l-13 -92h-67v-39q0 -8 6 -12l33 -21v-13zM167 121v158l-96 -158h96z" />
    <glyph glyph-name="uni2085" unicode="&#x2085;" horiz-adv-x="361" 
d="M151 -6q-65 0 -118 18l39 110h13l43 -84q4 -8 19 -8q29 0 50 20t21 54q0 33 -22 52.5t-58 19.5q-32 0 -64 -14h-10l8 195q36 -3 172 -3q30 0 42 15l11 11h13l-7 -57q-4 -28 -16.5 -37t-44.5 -9q-6 0 -56.5 1t-79.5 1l-4 -75q35 14 88 14q59 0 97.5 -26.5t38.5 -79.5
q0 -56 -47 -87t-128 -31z" />
    <glyph glyph-name="uni2086" unicode="&#x2086;" horiz-adv-x="361" 
d="M204 364q63 0 112 -19l-41 -98h-11l-43 74q-5 7 -17 7q-70 0 -74 -133q30 28 89 28q49 0 81 -28.5t32 -77.5q0 -56 -41 -90t-108 -34q-75 0 -116.5 49t-41.5 132q0 92 48.5 141t130.5 49zM176 179q-27 0 -47 -18q3 -132 55 -132q22 0 35 22.5t13 56.5q0 32 -14.5 51.5
t-41.5 19.5z" />
    <glyph glyph-name="uni2087" unicode="&#x2087;" horiz-adv-x="361" 
d="M214 0h-128v13q54 101 164 266h-156q-10 0 -15 -5l-32 -34h-13l15 118h282v-13l-41 -57q-8 -12 -12 -27q-38 -137 -64 -261z" />
    <glyph glyph-name="uni2088" unicode="&#x2088;" horiz-adv-x="361" 
d="M175 -7q-52 0 -98 23t-46 65q0 28 25 49.5t61 31.5l-6 3q-72 37 -72 96q0 47 39.5 76t97.5 29q56 0 95.5 -22t39.5 -62q0 -52 -81 -73l20 -9q79 -39 79 -96q0 -50 -44.5 -80.5t-109.5 -30.5zM176 132l-40 20q-15 -9 -25 -27t-10 -37q0 -26 22 -42t56 -16q29 0 47 11.5
t18 29.5q0 17 -15 29.5t-53 31.5zM122 290q0 -26 52 -52l35 -18q34 25 34 57q0 23 -17 37.5t-47 14.5q-26 0 -41.5 -11t-15.5 -28z" />
    <glyph glyph-name="uni2089" unicode="&#x2089;" horiz-adv-x="361" 
d="M154 -7q-60 0 -113 19l41 99h11l44 -75q5 -7 17 -7q68 0 74 133q-33 -28 -89 -28q-49 0 -81.5 29t-32.5 77q0 56 41 90t109 34q75 0 116 -49t41 -131q0 -93 -48 -142t-130 -49zM181 178q29 0 48 19q-4 132 -55 132q-22 0 -35 -22.5t-13 -56.5q0 -32 14 -52t41 -20z" />
    <glyph glyph-name="Euro" unicode="&#x20ac;" horiz-adv-x="703" 
d="M429 -15q-153 0 -236.5 73.5t-101.5 196.5h-68v44h63v29q0 25 1 37h-64v44h70q22 119 108 188.5t233 69.5q107 0 192 -24v-223h-14l-129 183q-9 13 -26 14q-16 2 -26 2q-148 0 -169 -210h186v-44h-189v-32q0 -3 0.5 -17t0.5 -17h188v-44h-185q11 -108 51.5 -165
t117.5 -57q16 0 23 1q19 2 27 14l134 188h14v-227q-98 -24 -201 -24z" />
    <glyph glyph-name="trademark" unicode="&#x2122;" horiz-adv-x="812" 
d="M764 405h-160v10l34 26q5 4 5 12v170l-91 -220h-9l-101 219v-131q0 -22 13 -39l33 -37v-10h-125v10l36 37q14 17 14 39v149q0 11 -6 16l-39 36v11h124l80 -169l71 169h121v-11l-33 -26q-5 -5 -5 -12v-201q0 -9 4 -12l34 -26v-10zM274 405h-164v10l35 27q5 4 5 13v218h-30
q-7 0 -13 -7l-51 -71h-11v108h294v-108h-12l-50 71q-5 7 -12 7h-32v-218q0 -9 6 -13l35 -27v-10z" />
    <glyph glyph-name="Omega" unicode="&#x2126;" horiz-adv-x="802" 
d="M758 0h-321v104q63 29 88 102t25 192q0 272 -149 272q-71 0 -110 -67.5t-39 -204.5q0 -119 25 -192t88 -102v-104h-321v216h14l112 -155q11 -16 28 -16h123v41q-112 25 -182.5 105t-70.5 205q0 150 96.5 236t236.5 86t236.5 -86t96.5 -236q0 -124 -70 -204t-183 -106v-41
h123q17 0 28 16l111 155h15v-216z" />
    <glyph glyph-name="uni2153" unicode="&#x2153;" horiz-adv-x="790" 
d="M599 364q70 0 107.5 -25.5t37.5 -66.5q0 -36 -26 -56.5t-68 -26.5q47 -4 76 -27t29 -61q0 -48 -45 -78t-127 -30q-67 0 -123 18l40 113h13l43 -86q5 -8 18 -8q36 0 55 21.5t19 50.5q0 67 -83 74v14q79 11 79 80q0 28 -17 43t-45 15q-15 0 -20 -8l-46 -84h-13l-36 105
q61 23 132 23zM637 688l-444 -702l-42 28l444 702zM307 345h-241v13l66 40q5 4 5 13v216q0 8 -5 10l-64 36v13l167 25v-300q0 -9 6 -13l66 -40v-13z" />
    <glyph glyph-name="uni2154" unicode="&#x2154;" horiz-adv-x="790" 
d="M599 364q70 0 107.5 -25.5t37.5 -66.5q0 -36 -26 -56.5t-68 -26.5q47 -4 76 -27t29 -61q0 -48 -45 -78t-127 -30q-67 0 -123 18l40 113h13l43 -86q5 -8 18 -8q36 0 55 21.5t19 50.5q0 67 -83 74v14q79 11 79 80q0 28 -17 43t-45 15q-15 0 -20 -8l-46 -84h-13l-36 105
q61 23 132 23zM148 673q-11 0 -16 -8l-47 -84h-13l-36 105q63 24 135 24t107 -26.5t35 -71.5q0 -30 -13.5 -56.5t-43.5 -51.5t-54 -41t-68 -41h122q16 0 26 11l28 34h13l-22 -122h-267v14l62 68q38 42 56 63t37 55.5t19 62.5q0 65 -60 65zM637 688l-444 -702l-42 28l444 702
z" />
    <glyph glyph-name="uni2155" unicode="&#x2155;" horiz-adv-x="790" 
d="M579 -6q-65 0 -118 18l39 110h13l43 -84q4 -8 19 -8q29 0 50 20t21 54q0 33 -22 52.5t-58 19.5q-32 0 -64 -14h-10l8 195q36 -3 172 -3q30 0 42 15l11 11h13l-7 -57q-4 -28 -16.5 -37t-44.5 -9q-6 0 -56.5 1t-79.5 1l-4 -75q35 14 88 14q59 0 97.5 -26.5t38.5 -79.5
q0 -56 -47 -87t-128 -31zM307 345h-241v13l66 40q5 4 5 13v216q0 8 -5 10l-64 36v13l167 25v-300q0 -9 6 -13l66 -40v-13zM637 688l-444 -702l-42 28l444 702z" />
    <glyph glyph-name="uni2156" unicode="&#x2156;" horiz-adv-x="790" 
d="M148 673q-11 0 -16 -8l-47 -84h-13l-36 105q63 24 135 24t107 -26.5t35 -71.5q0 -30 -13.5 -56.5t-43.5 -51.5t-54 -41t-68 -41h122q16 0 26 11l28 34h13l-22 -122h-267v14l62 68q38 42 56 63t37 55.5t19 62.5q0 65 -60 65zM579 -6q-65 0 -118 18l39 110h13l43 -84
q4 -8 19 -8q29 0 50 20t21 54q0 33 -22 52.5t-58 19.5q-32 0 -64 -14h-10l8 195q36 -3 172 -3q30 0 42 15l11 11h13l-7 -57q-4 -28 -16.5 -37t-44.5 -9q-6 0 -56.5 1t-79.5 1l-4 -75q35 14 88 14q59 0 97.5 -26.5t38.5 -79.5q0 -56 -47 -87t-128 -31zM637 688l-444 -702
l-42 28l444 702z" />
    <glyph glyph-name="uni2157" unicode="&#x2157;" horiz-adv-x="790" 
d="M171 710q70 0 107.5 -25.5t37.5 -66.5q0 -36 -26 -57t-68 -26q48 -5 76.5 -28t28.5 -61q0 -48 -45 -77.5t-127 -29.5q-67 0 -123 18l40 112h13l43 -86q5 -8 18 -8q36 0 55 22t19 51q0 65 -83 74v13q79 11 79 80q0 28 -17 43t-45 15q-15 0 -20 -8l-46 -84h-13l-36 106
q65 23 132 23zM579 -6q-65 0 -118 18l39 110h13l43 -84q4 -8 19 -8q29 0 50 20t21 54q0 33 -22 52.5t-58 19.5q-32 0 -64 -14h-10l8 195q36 -3 172 -3q30 0 42 15l11 11h13l-7 -57q-4 -28 -16.5 -37t-44.5 -9q-6 0 -56.5 1t-79.5 1l-4 -75q35 14 88 14q59 0 97.5 -26.5
t38.5 -79.5q0 -56 -47 -87t-128 -31zM637 688l-444 -702l-42 28l444 702z" />
    <glyph glyph-name="uni2158" unicode="&#x2158;" horiz-adv-x="790" 
d="M305 345h-177v14l32 20q7 6 7 13v39h-156v7l162 265h93v-237h17q9 0 14 8l36 49h13l-13 -92h-67v-39q0 -8 6 -13l33 -20v-14zM167 466v158l-96 -158h96zM579 -6q-65 0 -118 18l39 110h13l43 -84q4 -8 19 -8q29 0 50 20t21 54q0 33 -22 52.5t-58 19.5q-32 0 -64 -14h-10
l8 195q36 -3 172 -3q30 0 42 15l11 11h13l-7 -57q-4 -28 -16.5 -37t-44.5 -9q-6 0 -56.5 1t-79.5 1l-4 -75q35 14 88 14q59 0 97.5 -26.5t38.5 -79.5q0 -56 -47 -87t-128 -31zM637 688l-444 -702l-42 28l444 702z" />
    <glyph glyph-name="uni2159" unicode="&#x2159;" horiz-adv-x="790" 
d="M307 345h-241v13l66 40q5 4 5 13v216q0 8 -5 10l-64 36v13l167 25v-300q0 -9 6 -13l66 -40v-13zM632 364q63 0 112 -19l-41 -98h-11l-43 74q-5 7 -17 7q-70 0 -74 -133q30 28 89 28q49 0 81 -28.5t32 -77.5q0 -56 -41 -90t-108 -34q-75 0 -116.5 49t-41.5 132
q0 92 48.5 141t130.5 49zM604 179q-27 0 -47 -18q3 -132 55 -132q22 0 35 22.5t13 56.5q0 32 -14.5 51.5t-41.5 19.5zM637 688l-444 -702l-42 28l444 702z" />
    <glyph glyph-name="uni215A" unicode="&#x215a;" horiz-adv-x="790" 
d="M151 339q-65 0 -118 18l39 110h13l43 -84q4 -8 19 -8q29 0 50 20t21 54q0 33 -22 52.5t-58 19.5q-32 0 -64 -14h-10l8 195q36 -3 172 -3q30 0 42 15l11 11h13l-7 -57q-4 -28 -16.5 -37t-44.5 -9q-6 0 -56.5 1t-79.5 1l-4 -75q35 14 88 14q59 0 97.5 -26.5t38.5 -79.5
q0 -56 -47 -87t-128 -31zM632 364q63 0 112 -19l-41 -98h-11l-43 74q-5 7 -17 7q-70 0 -74 -133q30 28 89 28q49 0 81 -28.5t32 -77.5q0 -56 -41 -90t-108 -34q-75 0 -116.5 49t-41.5 132q0 92 48.5 141t130.5 49zM604 179q-27 0 -47 -18q3 -132 55 -132q22 0 35 22.5
t13 56.5q0 32 -14.5 51.5t-41.5 19.5zM637 688l-444 -702l-42 28l444 702z" />
    <glyph glyph-name="uni215B" unicode="&#x215b;" horiz-adv-x="790" 
d="M603 -7q-52 0 -98 23t-46 65q0 28 25 49.5t61 31.5l-6 3q-72 37 -72 96q0 47 39.5 76t97.5 29q56 0 95.5 -22t39.5 -62q0 -52 -81 -73l20 -9q79 -39 79 -96q0 -50 -44.5 -80.5t-109.5 -30.5zM604 132l-40 20q-15 -9 -25 -27t-10 -37q0 -26 22 -42t56 -16q29 0 47 11.5
t18 29.5q0 17 -15 29.5t-53 31.5zM550 290q0 -26 52 -52l35 -18q34 25 34 57q0 23 -17 37.5t-47 14.5q-26 0 -41.5 -11t-15.5 -28zM307 345h-241v13l66 40q5 4 5 13v216q0 8 -5 10l-64 36v13l167 25v-300q0 -9 6 -13l66 -40v-13zM637 688l-444 -702l-42 28l444 702z" />
    <glyph glyph-name="uni215C" unicode="&#x215c;" horiz-adv-x="790" 
d="M603 -7q-52 0 -98 23t-46 65q0 28 25 49.5t61 31.5l-6 3q-72 37 -72 96q0 47 39.5 76t97.5 29q56 0 95.5 -22t39.5 -62q0 -52 -81 -73l20 -9q79 -39 79 -96q0 -50 -44.5 -80.5t-109.5 -30.5zM604 132l-40 20q-15 -9 -25 -27t-10 -37q0 -26 22 -42t56 -16q29 0 47 11.5
t18 29.5q0 17 -15 29.5t-53 31.5zM550 290q0 -26 52 -52l35 -18q34 25 34 57q0 23 -17 37.5t-47 14.5q-26 0 -41.5 -11t-15.5 -28zM170 710q70 0 107.5 -25.5t37.5 -66.5q0 -36 -26 -57t-68 -26q48 -5 76.5 -28t28.5 -61q0 -48 -45 -77.5t-127 -29.5q-67 0 -123 18l40 112
h13l43 -86q5 -8 18 -8q36 0 55 22t19 51q0 65 -83 74v13q79 11 79 80q0 28 -17 43t-45 15q-15 0 -20 -8l-46 -84h-13l-36 106q65 23 132 23zM637 688l-444 -702l-42 28l444 702z" />
    <glyph glyph-name="uni215D" unicode="&#x215d;" horiz-adv-x="790" 
d="M603 -7q-52 0 -98 23t-46 65q0 28 25 49.5t61 31.5l-6 3q-72 37 -72 96q0 47 39.5 76t97.5 29q56 0 95.5 -22t39.5 -62q0 -52 -81 -73l20 -9q79 -39 79 -96q0 -50 -44.5 -80.5t-109.5 -30.5zM604 132l-40 20q-15 -9 -25 -27t-10 -37q0 -26 22 -42t56 -16q29 0 47 11.5
t18 29.5q0 17 -15 29.5t-53 31.5zM550 290q0 -26 52 -52l35 -18q34 25 34 57q0 23 -17 37.5t-47 14.5q-26 0 -41.5 -11t-15.5 -28zM637 688l-444 -702l-42 28l444 702zM151 339q-65 0 -118 18l39 110h13l43 -84q4 -8 19 -8q29 0 50 20t21 54q0 33 -22 52.5t-58 19.5
q-32 0 -64 -14h-10l8 195q36 -3 172 -3q30 0 42 15l11 11h13l-7 -57q-4 -28 -16.5 -37t-44.5 -9q-6 0 -56.5 1t-79.5 1l-4 -75q35 14 88 14q59 0 97.5 -26.5t38.5 -79.5q0 -56 -47 -87t-128 -31z" />
    <glyph glyph-name="uni215E" unicode="&#x215e;" horiz-adv-x="790" 
d="M603 -7q-52 0 -98 23t-46 65q0 28 25 49.5t61 31.5l-6 3q-72 37 -72 96q0 47 39.5 76t97.5 29q56 0 95.5 -22t39.5 -62q0 -52 -81 -73l20 -9q79 -39 79 -96q0 -50 -44.5 -80.5t-109.5 -30.5zM604 132l-40 20q-15 -9 -25 -27t-10 -37q0 -26 22 -42t56 -16q29 0 47 11.5
t18 29.5q0 17 -15 29.5t-53 31.5zM550 290q0 -26 52 -52l35 -18q34 25 34 57q0 23 -17 37.5t-47 14.5q-26 0 -41.5 -11t-15.5 -28zM637 688l-444 -702l-42 28l444 702zM244 345h-128v13q49 93 164 267h-156q-9 0 -15 -6l-32 -34h-13l15 118h282v-12l-41 -57q-6 -8 -12 -27
q-35 -118 -64 -262z" />
    <glyph glyph-name="partialdiff" unicode="&#x2202;" horiz-adv-x="587" 
d="M554 290q0 -140 -67.5 -221t-194.5 -81q-115 0 -187 66t-72 187t69.5 192t168.5 71q75 0 109 -49q-27 97 -82.5 163.5t-150.5 108.5l4 20q173 -18 288 -142t115 -315zM403 252q0 101 -28 152.5t-75 51.5q-107 0 -107 -212q0 -99 27.5 -154t76.5 -55t77.5 55.5t28.5 161.5
z" />
    <glyph glyph-name="Delta" unicode="&#x2206;" horiz-adv-x="628" 
d="M8 0l211 570q7 19 0 34l-41 86v13h182l267 -703h-619zM258 538l-180 -493h363z" />
    <glyph glyph-name="product" unicode="&#x220f;" horiz-adv-x="815" 
d="M787 0h-331v15l75 61q9 7 9 20v560h-266v-560q0 -12 9 -20l76 -61v-15h-331v15l75 61q9 7 9 20v511q0 13 -9 20l-75 61v15h759v-15l-76 -61q-9 -8 -9 -20v-511q0 -12 9 -20l76 -61v-15z" />
    <glyph glyph-name="summation" unicode="&#x2211;" horiz-adv-x="617" 
d="M565 0h-542v15l280 300l-281 373v15h531v-208h-15l-108 147q-11 16 -28 16h-170l207 -279l-306 -315h296q18 0 28 15l100 134h14z" />
    <glyph glyph-name="minus" unicode="&#x2212;" 
d="M520 209h-440v66h440v-66z" />
    <glyph glyph-name="radical" unicode="&#x221a;" 
d="M518 735l-260 -750h-12l-153 444l96 38l87 -247l186 532z" />
    <glyph glyph-name="infinity" unicode="&#x221e;" horiz-adv-x="759" 
d="M96 244q0 -37 26 -66t67 -29q39 0 73.5 24.5t79.5 70.5q-29 30 -48.5 47.5t-48.5 33t-56 15.5q-41 0 -67 -29.5t-26 -66.5zM663 244q0 37 -26 66.5t-67 29.5q-39 0 -74 -25t-79 -71q30 -30 48.5 -47t48 -32.5t56.5 -15.5q41 0 67 29t26 66zM380 288q38 39 59 58
t56.5 36.5t73.5 17.5q64 0 111.5 -41t47.5 -115q0 -73 -47.5 -114t-111.5 -41q-38 0 -73.5 17.5t-56.5 36.5t-59 58q-39 -40 -60 -58.5t-56.5 -36t-72.5 -17.5q-65 0 -112.5 41t-47.5 114q0 74 47.5 115t112.5 41q37 0 72.5 -17.5t56.5 -36t60 -58.5z" />
    <glyph glyph-name="integral" unicode="&#x222b;" horiz-adv-x="500" 
d="M141 -245q-81 0 -149 20l56 149h11l57 -116q6 -13 15 -13q49 0 49 105v611q0 103 48 155t132 52q81 0 149 -20l-56 -149h-12l-56 116q-7 13 -16 13q-47 0 -47 -105v-611q0 -103 -48.5 -155t-132.5 -52z" />
    <glyph glyph-name="approxequal" unicode="&#x2248;" 
d="M407 276q-45 0 -112.5 35t-100.5 35q-59 0 -90 -52l-48 42q50 76 136 76q45 0 113 -35t100 -35q61 0 90 52l49 -42q-50 -76 -137 -76zM407 100q-45 0 -112.5 35t-100.5 35q-59 0 -90 -52l-48 42q50 76 136 76q45 0 113 -35t100 -35q61 0 90 52l49 -42q-50 -76 -137 -76z
" />
    <glyph glyph-name="notequal" unicode="&#x2260;" 
d="M521 123h-251l-57 -104l-51 30l41 74h-122v66h157l60 109h-217v66h253l57 103l51 -31l-40 -72h119v-66h-155l-61 -109h216v-66z" />
    <glyph glyph-name="lessequal" unicode="&#x2264;" 
d="M483 146l-403 151v12l403 150l23 -62l-261 -92v-4l261 -93zM520 9h-440v66h440v-66z" />
    <glyph glyph-name="greaterequal" unicode="&#x2265;" 
d="M117 146l-23 62l261 93v4l-261 92l23 62l403 -150v-12zM520 9h-440v66h440v-66z" />
    <glyph glyph-name="lozenge" unicode="&#x25ca;" horiz-adv-x="548" 
d="M280 733l192 -409l-192 -410h-12l-192 410l192 409h12zM272 613l-133 -289l133 -290h4l133 290l-133 289h-4z" />
    <glyph glyph-name="commaaccent" unicode="&#xf6c3;" horiz-adv-x="249" 
d="M64 -288l-5 12q23 15 41 39.5t18 40.5q0 10 -9 10q-24 2 -38.5 18.5t-14.5 42.5q0 27 19 46.5t48 19.5q32 0 51.5 -22.5t19.5 -61.5q0 -51 -37 -91.5t-93 -53.5z" />
    <glyph glyph-name="apple" unicode="&#xf8ff;" horiz-adv-x="1224" 
d="M810 436q-48 -114 -159 -114q-11 0 -40 1.5t-38 1.5q-48 0 -74 -21.5t-47 -67.5q-27 -59 -65.5 -92t-104.5 -33q-12 0 -40.5 2t-39.5 2q-51 0 -83 -27t-32 -67q0 -15 1 -21h-37q-1 7 -1 21q0 57 43 94t110 37q12 0 41 -2t39 -2q91 0 130 96q48 116 160 116
q10 0 39.5 -1.5t38.5 -1.5q46 0 73 21t48 66q27 59 65.5 92t104.5 33q12 0 41 -2t40 -2q50 0 82 27t32 67q0 15 -1 21h37q1 -7 1 -21q0 -57 -42.5 -94t-109.5 -37q-12 0 -41.5 2t-39.5 2q-90 0 -131 -96z" />
    <glyph glyph-name="cent.alt" horiz-adv-x="504" 
d="M39 237q0 117 65 184.5t172 79.5v104h44v-102h13q74 -3 141 -28l-57 -161h-13l-68 131q-6 13 -16 13h-14q-51 0 -83 -51.5t-32 -130.5q0 -99 43 -147t109 -48q73 0 120 55l12 -8q-18 -54 -58 -89.5t-97 -45.5v-106h-44v102q-5 -1 -14 -1q-98 4 -160.5 69t-62.5 180z" />
    <glyph glyph-name="dollar.alt" horiz-adv-x="586" 
d="M263 -15q-104 0 -203 30v219h15l111 -182q8 -12 21 -16q22 -7 58 -7q72 0 107.5 28.5t35.5 76.5q0 41 -28 64t-84 42l-77 27q-164 60 -164 200q0 84 59 137t165 61v76h44v-74q76 -2 169 -20v-201h-14l-107 159q-8 12 -25 15q-18 3 -37 3q-59 0 -91 -27t-32 -71
q0 -73 104 -108l82 -28q81 -28 125.5 -69t44.5 -119q0 -86 -58 -142.5t-161 -69.5v-75h-44v71h-16z" />
    <glyph glyph-name="ringacute" horiz-adv-x="341" 
d="M55 667q0 28 20 75l66 159h154v-13l-160 -117q16 8 36 8q46 0 80.5 -30.5t34.5 -81.5t-34.5 -82t-80.5 -31q-47 0 -81.5 30.5t-34.5 82.5zM238 667q0 29 -19 49t-48 20t-48 -20t-19 -49q0 -30 18.5 -50t48.5 -20q29 0 48 20t19 50z" />
    <glyph glyph-name="commatop" horiz-adv-x="249" 
d="M186 794l4 -11q-23 -15 -41 -40t-18 -41q0 -10 9 -10q25 -1 39 -18t14 -43q0 -28 -19 -47t-48 -19q-31 0 -51 22.5t-20 61.5q0 51 37.5 92t93.5 53z" />
    <glyph glyph-name="caron.slovak" horiz-adv-x="256" 
d="M201 703v-12l-134 -228h-12l8 240h138z" />
    <glyph glyph-name="Jacute" horiz-adv-x="356" 
d="M126 775h-14l59 167h164v-13zM261 69q0 -130 -73 -198t-209 -88l-4 14q124 62 124 248v562q0 13 -9 20l-75 61v15h330v-15l-75 -61q-9 -7 -9 -20v-538z" />
    <glyph glyph-name="i.trk" horiz-adv-x="332" 
d="M84 656q0 37 23.5 60t58.5 23t58.5 -23t23.5 -60q0 -36 -23.5 -59t-58.5 -23q-34 0 -58 23.5t-24 58.5zM102 80v315q0 13 -7 21l-60 63v13h211v-412q0 -13 9 -21l57 -46v-13h-277v13l58 46q9 8 9 21z" />
    <glyph glyph-name="jacute" horiz-adv-x="300" 
d="M233 41q0 -138 -69.5 -209.5t-198.5 -76.5l-3 14q68 26 97.5 84t29.5 164v378q0 13 -7 21l-59 63v13h210v-451zM116 564h-14l59 167h164v-13z" />
    <glyph glyph-name="zero.lf" horiz-adv-x="671" 
d="M335 674q-121 0 -121 -326q0 -318 121 -318t121 317q0 327 -121 327zM335 718q130 0 207 -94t77 -277t-75 -272.5t-209 -89.5q-131 0 -207.5 90t-76.5 273q0 179 77.5 274.5t206.5 95.5z" />
    <glyph glyph-name="one.lf" horiz-adv-x="422" 
d="M395 0h-351v14l93 52q9 7 9 20v500q0 13 -10 19l-97 49v13l254 49v-630q0 -13 9 -20l93 -52v-14z" />
    <glyph glyph-name="two.lf" horiz-adv-x="549" 
d="M466 0h-436v14l127 150q87 104 129.5 188.5t42.5 169.5q0 73 -27.5 111.5t-77.5 38.5q-9 0 -21 -2q-15 -1 -20 -13l-80 -157h-14l-59 173q107 44 218 44q117 0 178 -54t61 -144q0 -33 -10.5 -66t-23.5 -58.5t-43 -59.5t-49 -53.5t-63 -55t-63.5 -50.5t-71.5 -54h219
q21 0 28.5 3.5t19.5 19.5l50 68h15z" />
    <glyph glyph-name="three.lf" horiz-adv-x="564" 
d="M255 718q115 0 177.5 -47.5t62.5 -125.5q0 -72 -44 -115t-114 -57q81 -6 132.5 -52t51.5 -120q0 -97 -75.5 -156.5t-210.5 -59.5q-120 0 -205 36l60 181h14l76 -156q5 -11 15 -13q11 -3 29 -3q62 0 99.5 49.5t37.5 116.5q0 148 -162 154v22q72 12 108.5 57.5t36.5 113.5
q0 62 -29 95.5t-82 33.5q-2 0 -11.5 -0.5t-12.5 -0.5q-13 -1 -20 -13l-80 -158h-14l-58 173q103 45 218 45z" />
    <glyph glyph-name="four.lf" horiz-adv-x="619" 
d="M521 0h-287v13l59 45q12 11 12 23v89h-286v12l296 522h135v-483h41q15 0 23 11l66 104h13l-15 -166h-128v-89q0 -13 12 -23l59 -45v-13zM305 221v368l-206 -368h206z" />
    <glyph glyph-name="five.lf" horiz-adv-x="554" 
d="M233 -15q-112 0 -203 35l60 180h13l78 -155q7 -13 18 -14q9 -1 30 -1q54 0 93 47.5t39 126.5q0 72 -41 115t-116 43q-58 0 -111 -32h-14l12 370q87 -4 283 -4q33 0 48 5t27 21l24 33h14l-12 -110q-5 -45 -24 -59.5t-66 -14.5q-17 0 -57 0.5t-97.5 1.5t-92.5 1l-6 -187
q73 41 154 41q104 0 169.5 -56t65.5 -156q0 -106 -77.5 -168.5t-210.5 -62.5z" />
    <glyph glyph-name="six.lf" horiz-adv-x="611" 
d="M351 717q109 0 188 -33l-59 -179h-13l-77 151q-6 12 -17 15q-14 2 -23 2q-141 0 -144 -310q24 33 69 53.5t95 20.5q85 0 141.5 -57.5t56.5 -154.5q0 -108 -69 -174t-178 -66q-127 0 -198.5 95.5t-71.5 264.5q0 179 81 275.5t219 96.5zM307 375q-63 0 -100 -55
q4 -153 35.5 -222t80.5 -69q45 0 72 50.5t27 124.5q0 77 -30.5 124t-84.5 47z" />
    <glyph glyph-name="seven.lf" horiz-adv-x="497" 
d="M288 0h-180v14q198 440 268 563h-253q-22 0 -33 -12l-57 -71h-14l23 209h454v-14l-62 -92q-13 -18 -22 -44q-43 -131 -124 -553z" />
    <glyph glyph-name="eight.lf" horiz-adv-x="587" 
d="M291 -15q-94 0 -169.5 48.5t-75.5 127.5q0 58 44.5 101.5t109.5 65.5l-18 10q-120 66 -120 182q0 90 66.5 144t163.5 54q92 0 158.5 -45.5t66.5 -122.5q0 -58 -42.5 -95t-101.5 -54l40 -21q135 -71 135 -185q0 -91 -73.5 -150.5t-183.5 -59.5zM305 272l-75 40
q-31 -22 -51.5 -60t-20.5 -82q0 -62 39.5 -100.5t100.5 -38.5q52 0 86 31.5t34 79.5q0 42 -26.5 70t-86.5 60zM181 570q0 -68 96 -119l67 -36q64 48 64 133q0 58 -32 91t-84 33q-47 0 -79 -28.5t-32 -73.5z" />
    <glyph glyph-name="nine.lf" horiz-adv-x="611" 
d="M260 -15q-106 0 -188 34l59 178h14l76 -151q6 -12 17 -14q14 -2 23 -2q141 0 144 311q-24 -33 -68.5 -53.5t-95.5 -20.5q-85 0 -141.5 57t-56.5 154q0 107 69.5 173t177.5 66q127 0 198.5 -95.5t71.5 -264.5q0 -179 -80.5 -275.5t-219.5 -96.5zM305 329q63 0 100 55
q-8 289 -116 289q-45 0 -72 -50t-27 -124q0 -78 30 -124t85 -46z" />
    <glyph glyph-name="dollar.lf" horiz-adv-x="585" 
d="M284 -116v101h-19q-104 0 -208 30v222h15l110 -183q10 -15 22 -18q28 -7 62 -7q15 0 18 1v239l-68 29q-164 67 -164 208q0 90 62.5 146t169.5 65v101h45v-100q85 -2 174 -20v-203h-15l-107 160q-9 13 -22 16q-18 2 -30 2v-240l48 -20q86 -36 130.5 -78t44.5 -121
q0 -91 -59.5 -151t-163.5 -74v-105h-45zM186 564q0 -38 23.5 -64.5t74.5 -49.5v221q-46 -9 -72 -38t-26 -69zM418 144q0 38 -23 62t-66 44v-213q42 12 65.5 40t23.5 67z" />
    <glyph glyph-name="dollar.lf_alt" horiz-adv-x="585" 
d="M265 -15q-104 0 -208 30v222h15l110 -183q10 -15 22 -18q28 -7 62 -7q70 0 111 32t41 83q0 44 -30 69t-90 51l-82 34q-164 67 -164 208q0 90 62.5 146t169.5 65v101h45v-100q83 -2 174 -20v-203h-15l-107 160q-9 13 -22 16q-18 3 -40 3q-62 0 -97.5 -31t-35.5 -79
q0 -73 101 -114l90 -37q86 -36 130.5 -78t44.5 -121q0 -91 -59.5 -151t-163.5 -74v-105h-45v101h-19z" />
    <glyph glyph-name="cent.lf" horiz-adv-x="506" 
d="M276 -24v104h-14q-97 3 -160 73t-63 192q0 119 65 188t172 80v105h44v-102q1 0 6.5 -0.5t6.5 -0.5q77 -4 141 -27l-57 -163h-13l-60 117q-9 19 -14 21q-3 2 -10 3v-392q10 -2 23 -2q73 0 120 55l12 -8q-18 -54 -58 -89.5t-97 -45.5v-108h-44zM191 379q0 -145 85 -190v377
q-40 -14 -62.5 -68t-22.5 -119z" />
    <glyph glyph-name="cent.lf_alt" horiz-adv-x="507" 
d="M463 227l13 -8q-40 -114 -156 -135v-108h-44v104h-13q-98 3 -161 72t-63 190q0 122 65 190.5t172 80.5v105h44v-102q1 0 7 -0.5t7 -0.5q76 -4 141 -27l-57 -163h-14l-68 133q-6 12 -16 13h-14q-51 0 -83 -54t-32 -136q0 -104 43 -156.5t109 -52.5q75 0 120 55z" />
    <glyph glyph-name="sterling.lf" horiz-adv-x="582" 
d="M477 133l57 76h15l-18 -209h-488v16l67 91q40 53 40 115q0 18 -8 48h-95v45h83q-5 10 -19.5 35.5t-22.5 41.5t-15.5 44.5t-7.5 57.5q0 104 76.5 163.5t192.5 59.5q86 0 163 -28l-20 -188h-15l-95 154q-10 15 -27 15q-55 0 -87 -44.5t-32 -106.5q0 -37 21.5 -105t25.5 -99
h132v-45h-132q0 -20 -2 -30q-5 -29 -23.5 -54t-35.5 -38t-45 -30h281q22 0 34 15z" />
    <glyph glyph-name="yen.lf" horiz-adv-x="677" 
d="M127 245v44h122l-172 303q-12 22 -27 37l-61 59v15h335v-15l-68 -58q-14 -13 -6 -27l144 -267l127 239q7 13 -2 24l-76 89v15h258v-15l-101 -89q-18 -16 -30 -38l-145 -272h127v-44h-133v-58h133v-44h-133v-47q0 -13 9 -20l75 -61v-15h-331v15l76 61q9 8 9 20v47h-130v44
h130v58h-130z" />
    <glyph glyph-name="Euro.lf" horiz-adv-x="716" 
d="M24 389v45h71q22 129 115 206.5t242 77.5q106 0 197 -24v-227h-14l-133 187q-9 12 -24 14q-18 2 -30 2q-153 0 -174 -236h175v-45h-177q-1 -5 -1 -33q0 -26 1 -31h177v-45h-175q19 -247 175 -247q12 0 28 2q18 2 25 13l137 193h14v-231q-96 -25 -206 -25q-159 0 -248 80
t-106 215h-69v45h65q-1 4 -1 25q0 26 1 39h-65z" />
    <glyph glyph-name="zero.tf" 
d="M299 676q-113 0 -113 -328q0 -320 113 -320q114 0 114 319q0 329 -114 329zM299 718q126 0 200 -94t74 -277t-72.5 -272.5t-201.5 -89.5q-126 0 -199.5 90.5t-73.5 272.5q0 179 74.5 274.5t198.5 95.5z" />
    <glyph glyph-name="one.tf" 
d="M502 0h-362v14l98 53q10 7 10 20v499q0 13 -10 19l-102 49v13l258 49v-629q0 -13 10 -20l98 -53v-14z" />
    <glyph glyph-name="two.tf" 
d="M507 0h-436v14l127 150q87 104 129.5 188.5t42.5 169.5q0 73 -27.5 111.5t-77.5 38.5q-9 0 -21 -2q-15 -1 -20 -13l-80 -157h-14l-59 173q107 44 218 44q117 0 178 -54t61 -144q0 -33 -10.5 -66t-23.5 -58.5t-43 -59.5t-49 -53.5t-63 -55t-63.5 -50.5t-71.5 -54h219
q21 0 28.5 3.5t19.5 19.5l50 68h15z" />
    <glyph glyph-name="three.tf" 
d="M285 718q115 0 177.5 -47.5t62.5 -125.5q0 -72 -44 -115t-114 -57q81 -6 132.5 -52t51.5 -120q0 -97 -75.5 -156.5t-210.5 -59.5q-120 0 -205 36l60 181h14l76 -156q5 -11 15 -13q11 -3 29 -3q62 0 99.5 49.5t37.5 116.5q0 148 -162 154v22q72 12 108.5 57.5t36.5 113.5
q0 62 -29 95.5t-82 33.5q-2 0 -11.5 -0.5t-12.5 -0.5q-13 -1 -20 -13l-80 -158h-14l-58 173q103 45 218 45z" />
    <glyph glyph-name="four.tf" 
d="M515 0h-287v13l59 45q12 11 12 23v89h-286v12l296 522h135v-483h41q15 0 23 11l66 104h13l-15 -166h-128v-89q0 -13 12 -23l59 -45v-13zM299 221v368l-206 -368h206z" />
    <glyph glyph-name="five.tf" 
d="M260 -15q-112 0 -203 35l60 180h13l78 -155q7 -13 18 -14q9 -1 30 -1q54 0 93 47.5t39 126.5q0 72 -41 115t-116 43q-58 0 -111 -32h-14l12 370q87 -4 283 -4q33 0 48 5t27 21l24 33h14l-12 -110q-5 -45 -24 -59.5t-66 -14.5q-17 0 -57 0.5t-97.5 1.5t-92.5 1l-6 -187
q73 41 154 41q104 0 169.5 -56t65.5 -156q0 -106 -77.5 -168.5t-210.5 -62.5z" />
    <glyph glyph-name="six.tf" 
d="M343 717q109 0 188 -33l-59 -179h-13l-77 151q-6 12 -17 15q-14 2 -23 2q-141 0 -144 -310q24 33 69 53.5t95 20.5q85 0 141.5 -57.5t56.5 -154.5q0 -108 -69 -174t-178 -66q-127 0 -198.5 95.5t-71.5 264.5q0 179 81 275.5t219 96.5zM299 375q-63 0 -100 -55
q4 -153 35.5 -222t80.5 -69q45 0 72 50.5t27 124.5q0 77 -30.5 124t-84.5 47z" />
    <glyph glyph-name="seven.tf" 
d="M342 0h-178v15q187 412 271 562h-275q-24 0 -33 -12l-57 -74h-13l23 212h474v-14l-62 -92q-15 -23 -21 -44q-52 -170 -129 -553z" />
    <glyph glyph-name="eight.tf" 
d="M302 -15q-94 0 -169.5 48.5t-75.5 127.5q0 58 44.5 101.5t109.5 65.5l-18 10q-120 66 -120 182q0 90 66.5 144t163.5 54q92 0 158.5 -45.5t66.5 -122.5q0 -58 -42.5 -95t-101.5 -54l40 -21q135 -71 135 -185q0 -91 -73.5 -150.5t-183.5 -59.5zM316 272l-75 40
q-31 -22 -51.5 -60t-20.5 -82q0 -62 39.5 -100.5t100.5 -38.5q52 0 86 31.5t34 79.5q0 42 -26.5 70t-86.5 60zM192 570q0 -68 96 -119l67 -36q64 48 64 133q0 58 -32 91t-84 33q-47 0 -79 -28.5t-32 -73.5z" />
    <glyph glyph-name="nine.tf" 
d="M258 -15q-106 0 -188 34l59 178h14l76 -151q6 -12 17 -14q14 -2 23 -2q141 0 144 311q-24 -33 -68.5 -53.5t-95.5 -20.5q-85 0 -141.5 57t-56.5 154q0 107 69.5 173t177.5 66q127 0 198.5 -95.5t71.5 -264.5q0 -179 -80.5 -275.5t-219.5 -96.5zM303 329q63 0 100 55
q-8 289 -116 289q-45 0 -72 -50t-27 -124q0 -78 30 -124t85 -46z" />
    <glyph glyph-name="cent.tf" 
d="M313 -15v95h-13q-98 3 -160.5 72.5t-62.5 192.5q0 119 65 188t171 80v105h44v-102q1 0 6.5 -0.5t6.5 -0.5q77 -3 142 -27l-57 -163h-14l-59 117q-5 10 -12 17q-4 4 -13 6v-391q10 -2 24 -2q74 0 119 55l13 -8q-40 -114 -156 -135v-99h-44zM229 379q0 -145 84 -190v377
q-39 -14 -61.5 -68t-22.5 -119z" />
    <glyph glyph-name="cent.tf_alt" 
d="M501 227l12 -8q-18 -54 -58 -89.5t-97 -45.5v-99h-45v95h-13q-97 3 -160 72t-63 190q0 122 64.5 190.5t171.5 80.5v105h45v-102q1 0 6.5 -0.5t6.5 -0.5q77 -4 141 -27l-57 -163h-13l-68 133q-6 13 -19 13h-12q-50 0 -82 -54t-32 -136q0 -104 43 -156.5t109 -52.5
q73 0 120 55z" />
    <glyph glyph-name="dollar.tf" 
d="M293 -118v103h-19q-104 0 -208 30v222h15l110 -183q10 -15 22 -18q27 -7 62 -7q15 0 18 1v239l-68 29q-164 67 -164 208q0 90 62 146t170 65v102h44v-101q86 -2 174 -20v-203h-14l-107 160q-9 13 -22 16q-18 2 -31 2v-240l49 -20q86 -36 130 -78t44 -121
q0 -92 -59 -151.5t-164 -73.5v-107h-44zM194 564q0 -38 23.5 -64.5t75.5 -49.5v221q-47 -9 -73 -38t-26 -69zM427 144q0 38 -23 62.5t-67 43.5v-213q42 12 66 40t24 67z" />
    <glyph glyph-name="dollar.tf_alt" 
d="M274 -15q-104 0 -208 30v222h15l110 -183q10 -15 22 -18q27 -7 62 -7q70 0 111 32t41 83q0 44 -30 69t-90 51l-82 34q-164 67 -164 208q0 90 62 146t170 65v102h44v-101h4q75 0 170 -20v-203h-14l-107 160q-9 13 -22 16q-18 3 -40 3q-62 0 -98 -31t-36 -79q0 -39 25 -66
t77 -48l90 -37q86 -36 130 -78t44 -121q0 -92 -59 -151.5t-164 -73.5v-107h-44v103h-19z" />
    <glyph glyph-name="yen.tf" 
d="M87 245v44h123l-158 302q-12 22 -27 37l-61 60v15h335v-15l-69 -58q-13 -12 -5 -27l129 -264l112 236q7 15 -1 24l-77 89v15h258v-15l-101 -89q-20 -17 -30 -38l-129 -272h127v-44h-134v-58h134v-44h-134v-47q0 -12 9 -20l76 -61v-15h-331v15l75 61q9 7 9 20v47h-130v44
h130v58h-130z" />
    <glyph glyph-name="sterling.tf" 
d="M49 314h83q-5 10 -19.5 35.5t-22.5 42t-15.5 45t-7.5 57.5q0 105 75 164t194 59q85 0 163 -28l-21 -188h-14l-96 154q-8 15 -26 15q-55 0 -87 -44.5t-32 -106.5q0 -37 22 -105.5t25 -99.5h131v-44h-131q0 -10 -2 -30q-15 -67 -104 -122h279q24 0 37 16l56 75h15l-18 -209
h-488v16l67 91q40 55 40 115q0 24 -8 48h-95v44z" />
    <glyph glyph-name="Euro.tf" 
d="M2 386v44h68q19 133 102 210.5t226 77.5q101 0 189 -24v-219h-14l-130 179q-8 12 -25 15q-8 1 -24 1q-71 0 -105.5 -61.5t-41.5 -178.5h156v-44h-158v-61h158v-45h-157q14 -247 146 -247q17 0 24 1q18 3 26 14l135 185h14v-223q-94 -25 -199 -25q-149 0 -229 80.5
t-95 214.5h-66v45h62v23q0 31 1 38h-63z" />
    <glyph glyph-name="florin.tf" 
d="M173 337h75l17 94q55 319 251 319q73 0 125 -26l-65 -144h-13l-40 107q-6 19 -22 19q-48 0 -71 -84q-4 -16 -22 -117l-29 -168h114v-46h-121l-36 -210q-10 -61 -29 -114.5t-50 -103t-79 -79t-107 -29.5q-64 0 -111 25l64 145h12l43 -109q5 -12 8 -15t11 -3q39 0 65 85
q12 41 28 126l49 282h-67v46z" />
    <glyph glyph-name="zero.tosf" 
d="M299 -12q-123 0 -195 69t-72 193q0 122 74.5 196t194.5 74q123 0 195 -69t72 -193q0 -122 -74.5 -196t-194.5 -74zM301 37q109 0 109 216q0 217 -111 217q-109 0 -109 -216q0 -217 111 -217z" />
    <glyph glyph-name="one.tosf" 
d="M476 0h-327v13l81 47q10 7 10 21v317q0 13 -12 20l-84 35v13l241 54v-439q0 -14 10 -21l81 -47v-13z" />
    <glyph glyph-name="two.tosf" 
d="M506 0h-433v17l137 128q72 68 108.5 121.5t36.5 106.5q0 49 -25.5 75t-67.5 26q-11 0 -21 -2q-14 -1 -20 -13l-74 -134h-14l-56 153q104 42 207 42q104 0 163.5 -40t59.5 -109q0 -141 -286 -262h208q17 0 25 4.5t19 19.5l47 66h14z" />
    <glyph glyph-name="three.tosf" 
d="M80 -153l-1 19q52 10 100.5 27.5t93.5 44t72 64.5t27 83q0 52 -34 77.5t-89 25.5q-22 0 -45 -5v24q154 43 154 165q0 50 -26.5 76t-66.5 26q-17 0 -22 -1q-12 -1 -18 -12l-74 -136h-14l-56 153q99 42 203 42q102 0 162.5 -37.5t60.5 -103.5q0 -54 -41 -93.5t-109 -53.5
q73 -2 120 -40.5t47 -104.5q0 -69 -47 -121t-123 -84q-98 -42 -210 -42q-40 0 -64 7z" />
    <glyph glyph-name="four.tosf" 
d="M463 -148h-141v177h-281v13l277 466h145v-429h96v-50h-96v-177zM121 79h201v338z" />
    <glyph glyph-name="five.tosf" 
d="M355 -115q-102 -45 -216 -45q-41 0 -62 7l-1 19q124 23 210 82t86 142q0 52 -32.5 80t-84.5 28q-64 0 -111 -42h-17l13 351q86 -3 249 -3q37 0 54.5 5.5t31.5 22.5l20 25h13l-11 -101q-5 -39 -22.5 -56t-53.5 -17t-122 1t-114 1l-7 -168q62 51 158 51q87 0 137.5 -45.5
t50.5 -122.5q0 -144 -169 -215z" />
    <glyph glyph-name="six.tosf" 
d="M305 -12q-121 0 -188.5 76t-67.5 207q0 93 34.5 169.5t93.5 125.5t133.5 75t157.5 26q31 0 58 -7l1 -19q-160 -33 -244.5 -125t-84.5 -257q0 -102 30 -164t79 -62q41 0 66.5 44.5t25.5 125.5q0 79 -26.5 118.5t-71.5 39.5q-28 0 -48 -15l-9 12q44 59 128 59
q77 0 128 -54.5t51 -147.5q0 -103 -68 -165t-178 -62z" />
    <glyph glyph-name="seven.tosf" 
d="M324 -148h-176v13q121 254 273 522h-253q-13 0 -17.5 -2t-11.5 -11l-57 -69h-14l21 203h443v-14l-62 -96q-14 -20 -20 -45q-77 -283 -126 -501z" />
    <glyph glyph-name="eight.tosf" 
d="M294 -12q-87 0 -158.5 43.5t-71.5 117.5q0 54 42 94t105 62l-25 14q-46 25 -75 68t-29 98q0 81 62 131t153 50q87 0 147.5 -41t60.5 -110q0 -53 -38.5 -88.5t-92.5 -52.5l38 -21q58 -33 91 -72.5t33 -98.5q0 -86 -68.5 -140t-173.5 -54zM309 250l-68 38q-30 -21 -50 -55
t-20 -74q0 -56 36 -90.5t91 -34.5q51 0 82 28t31 69q0 35 -23.5 61.5t-78.5 57.5zM198 531q0 -62 85 -108l61 -33q56 47 56 121q0 50 -28 79.5t-75 29.5q-44 0 -71.5 -24.5t-27.5 -64.5z" />
    <glyph glyph-name="nine.tosf" 
d="M295 520q120 0 188 -76.5t68 -207.5q0 -93 -35 -169.5t-93.5 -125.5t-133.5 -75t-157 -26q-26 0 -59 7l-1 20q160 32 245 124t85 257q0 102 -30 164t-79 62q-41 0 -67 -44.5t-26 -125.5q0 -79 27 -118.5t72 -39.5q25 0 48 15l9 -12q-46 -59 -129 -59q-77 0 -127.5 55
t-50.5 147q0 103 68 165.5t178 62.5z" />
    <glyph glyph-name="dollar.tosf" 
d="M282 -15q-117 0 -219 30v219h15l111 -182q8 -12 21 -16q22 -7 72 -7v215l-60 23q-164 61 -164 200q0 84 59 137t165 61v76h44v-74q76 -2 169 -20v-201h-14l-107 159q-9 13 -26 16q-6 1 -22 1v-217l49 -16q81 -28 125.5 -69t44.5 -119q0 -86 -58 -142.5t-161 -69.5v-75
h-44v71zM411 134q0 36 -21 58t-64 37v-193q85 18 85 98zM189 525q0 -71 93 -105v201q-45 -7 -69 -32.5t-24 -63.5z" />
    <glyph glyph-name="dollar.tosf_alt" 
d="M266 -15q-104 0 -203 30v219h15l111 -182q8 -12 21 -16q22 -7 58 -7q72 0 107.5 28.5t35.5 76.5q0 41 -28 64t-84 42l-77 27q-164 60 -164 200q0 84 59 137t165 61v76h44v-74q76 -2 169 -20v-201h-14l-107 159q-8 12 -25 15q-18 3 -37 3q-59 0 -91 -27t-32 -71
q0 -73 104 -108l82 -28q81 -28 125.5 -69t44.5 -119q0 -86 -58 -142.5t-161 -69.5v-75h-44v71h-16z" />
    <glyph glyph-name="cent.tosf" 
d="M318 -113v102q-5 -1 -14 -1q-98 4 -160.5 69t-62.5 180q0 117 65 184.5t172 79.5v104h44v-102h13q74 -3 141 -28l-57 -161h-13l-63 121q-7 13 -9 14q-3 3 -12 6v-372q10 -2 23 -2q73 0 120 55l12 -8q-18 -54 -58 -89.5t-97 -45.5v-106h-44zM233 276q0 -136 85 -179v356
q-40 -12 -62.5 -63t-22.5 -114z" />
    <glyph glyph-name="cent.tosf_alt" 
d="M81 237q0 117 65 184.5t172 79.5v104h44v-102h13q74 -3 141 -28l-57 -161h-13l-68 131q-6 13 -16 13h-14q-51 0 -83 -51.5t-32 -130.5q0 -99 43 -147t109 -48q73 0 120 55l12 -8q-18 -54 -58 -89.5t-97 -45.5v-106h-44v102q-5 -1 -14 -1q-98 4 -160.5 69t-62.5 180z" />
    <glyph glyph-name="sterling.tosf" 
d="M60 310h72q-18 28 -26.5 42.5t-18 45t-9.5 62.5q0 96 66.5 151.5t174.5 55.5q97 0 171 -29l-21 -188h-14l-96 153q-10 15 -28 15q-46 0 -71.5 -34t-25.5 -93q0 -37 23 -102.5t26 -78.5h130v-44h-128q1 -8 1 -24q0 -28 -19 -54.5t-37 -39.5t-47 -30h260q22 0 34 15l57 76
h15l-19 -209h-476v16l82 91q37 40 37 97q0 27 -14 62h-99v44z" />
    <glyph glyph-name="yen.tosf" 
d="M448 0h-331v15l77 61q8 6 8 20v42h-125v44h125v56h-125v44h105l-136 264q-12 22 -27 38l-54 59v15h318v-15l-59 -58q-12 -12 -5 -27l118 -252l111 226q6 12 -2 23l-75 88v15h256v-15l-99 -88q-2 -2 -5.5 -5t-5 -4.5l-4 -4l-4 -4t-3.5 -4t-3.5 -5t-3 -5.5l-3.5 -7
l-115 -234h111v-44h-130v-56h130v-44h-130v-42q0 -13 9 -20l77 -61v-15z" />
    <glyph glyph-name="Euro.tosf" 
d="M390 -15q-137 0 -212 73t-93 197h-67v44h62v29q0 25 1 37h-63v44h69q22 119 99.5 188.5t208.5 69.5q106 0 184 -24v-223h-14l-126 183q-10 14 -25 15q-7 1 -22 1q-115 0 -136 -210h171v-44h-174v-32q0 -3 0.5 -17t0.5 -17h173v-44h-170q23 -222 136 -222q13 0 19 1
q18 3 26 14l131 188h14v-227q-90 -24 -193 -24z" />
    <glyph glyph-name="parenleft.subs" horiz-adv-x="249" 
d="M135 176q0 -167 80 -243l-5 -9q-69 30 -112 99.5t-43 152.5t43 152.5t112 99.5l5 -9q-80 -76 -80 -243z" />
    <glyph glyph-name="parenright.subs" horiz-adv-x="249" 
d="M114 176q0 167 -80 243l5 9q69 -30 112 -99.5t43 -152.5t-43 -152.5t-112 -99.5l-5 9q80 76 80 243z" />
    <glyph glyph-name="backslash.case" horiz-adv-x="394" 
d="M312 -103l-294 885l62 20l295 -884z" />
    <glyph glyph-name="bar.case" horiz-adv-x="310" 
d="M189 -150h-68v974h68v-974z" />
    <glyph glyph-name="braceleft.case" horiz-adv-x="381" 
d="M284 -101q-72 0 -119 41t-47 127q0 95 10 186q4 88 -76 97v15q80 9 76 96q-10 100 -10 186q0 87 47 127.5t119 40.5q38 0 65 -8v-15q-65 -1 -93.5 -36t-28.5 -87q0 -108 9 -200q2 -49 -21 -74.5t-75 -35.5v-3q52 -11 75 -36t21 -74q-9 -93 -9 -200q0 -53 29 -88t93 -36
v-14q-30 -9 -65 -9z" />
    <glyph glyph-name="braceright.case" horiz-adv-x="381" 
d="M98 -101q-35 0 -65 9v14q63 1 92.5 36t29.5 88q0 97 -10 200q-2 49 21 74t75 36v3q-52 10 -75 35.5t-21 74.5q10 102 10 200q0 52 -29 87t-93 36v15q32 8 65 8q72 0 118.5 -40.5t46.5 -127.5q0 -86 -10 -186q-4 -87 77 -96v-15q-81 -9 -77 -97q10 -91 10 -186
q0 -86 -47 -127t-118 -41z" />
    <glyph glyph-name="bracketleft.case" horiz-adv-x="381" 
d="M349 -92l-234 -14v926l234 -13v-15l-127 -34q-12 -3 -12 -18v-766q0 -14 12 -17l127 -35v-14z" />
    <glyph glyph-name="bracketright.case" horiz-adv-x="381" 
d="M266 -106l-233 14v14l126 35q12 3 12 17v766q0 14 -12 18l-126 34v15l233 13v-926z" />
    <glyph glyph-name="emdash.case" horiz-adv-x="1050" 
d="M1020 325h-990v68h990v-68z" />
    <glyph glyph-name="endash.case" horiz-adv-x="550" 
d="M520 325h-490v68h490v-68z" />
    <glyph glyph-name="guillemotleft.case" horiz-adv-x="464" 
d="M227 146l-196 210v10l196 210l11 -9l-85 -206l85 -206zM406 146l-195 210v10l195 210l11 -9l-84 -206l84 -206z" />
    <glyph glyph-name="guillemotright.case" horiz-adv-x="464" 
d="M253 356l-195 -210l-11 9l84 206l-84 206l11 9l195 -210v-10zM433 356l-196 -210l-10 9l84 206l-85 206l11 9l196 -210v-10z" />
    <glyph glyph-name="guilsinglleft.case" horiz-adv-x="285" 
d="M227 146l-196 210v10l196 210l11 -9l-85 -206l85 -206z" />
    <glyph glyph-name="guilsinglright.case" horiz-adv-x="285" 
d="M253 356l-195 -210l-11 9l84 206l-84 206l11 9l195 -210v-10z" />
    <glyph glyph-name="hyphen.case" horiz-adv-x="411" 
d="M54 320v82h304v-82h-304z" />
    <glyph glyph-name="parenleft.case" horiz-adv-x="381" 
d="M193 357q0 -301 157 -442l-7 -14q-126 45 -194.5 167t-68.5 289q0 166 68.5 288.5t194.5 167.5l7 -14q-157 -141 -157 -442z" />
    <glyph glyph-name="parenright.case" horiz-adv-x="381" 
d="M188 357q0 301 -157 442l7 14q126 -45 194.5 -167t68.5 -289q0 -166 -68.5 -288.5t-194.5 -167.5l-7 14q157 141 157 442z" />
    <glyph glyph-name="slash.case" horiz-adv-x="394" 
d="M375 782l-293 -885l-64 21l296 884z" />
    <glyph glyph-name="questiondown.case" horiz-adv-x="465" 
d="M250 473h14q41 -34 41 -84q0 -55 -57 -109l-30 -28q-51 -48 -51 -108q0 -53 27.5 -85t72.5 -32q17 0 25 2q10 3 17 16l72 150h14l62 -161q-97 -47 -209 -47q-114 0 -174.5 48.5t-60.5 126.5q0 50 28 86t79 75l82 62q51 39 48 88zM257 714q37 0 61.5 -25.5t24.5 -62.5
t-24.5 -62.5t-61.5 -25.5q-36 0 -61 25.5t-25 62.5t25 62.5t61 25.5z" />
    <glyph glyph-name="exclamdown.case" horiz-adv-x="296" 
d="M141 478h14l91 -479h-196zM236 626q0 -37 -24.5 -62.5t-61.5 -25.5t-62 25.5t-25 62.5t25 62.5t62 25.5t61.5 -25.5t24.5 -62.5z" />
    <glyph glyph-name="plus.case" 
d="M266 132v187h-186v66h186v187h68v-187h186v-66h-186v-187h-68z" />
    <glyph glyph-name="multiply.case" 
d="M463 133l-163 162l-162 -162l-46 47l162 161l-163 162l47 48l162 -163l163 162l46 -46l-162 -162l162 -162z" />
    <glyph glyph-name="minus.case" 
d="M520 319h-440v66h440v-66z" />
    <glyph glyph-name="notequal.case" 
d="M521 233h-251l-57 -104l-51 30l41 74h-122v66h157l60 109h-217v66h253l57 103l51 -31l-40 -72h119v-66h-155l-61 -109h216v-66z" />
    <glyph glyph-name="approxequal.case" 
d="M407 386q-45 0 -112.5 35t-100.5 35q-59 0 -90 -52l-48 42q50 76 136 76q45 0 113 -35t100 -35q61 0 90 52l49 -42q-50 -76 -137 -76zM407 210q-45 0 -112.5 35t-100.5 35q-59 0 -90 -52l-48 42q50 76 136 76q45 0 113 -35t100 -35q61 0 90 52l49 -42q-50 -76 -137 -76z
" />
    <glyph glyph-name="divide.case" 
d="M225 510q0 33 21.5 52.5t53.5 19.5t52.5 -19.5t20.5 -51.5q0 -33 -20.5 -53t-52.5 -20t-53.5 20t-21.5 52zM520 319h-440v66h440v-66zM225 193q0 33 21.5 53t53.5 20t52.5 -19.5t20.5 -52.5t-20.5 -52.5t-52.5 -19.5t-53.5 19.5t-21.5 51.5z" />
    <glyph glyph-name="plusminus.case" 
d="M267 248v140h-187v66h187v135h68v-135h185v-66h-185v-140h-68zM520 119h-440v66h440v-66z" />
    <glyph glyph-name="lessequal.case" 
d="M483 256l-403 151v12l403 150l23 -62l-261 -92v-4l261 -93zM520 119h-440v66h440v-66z" />
    <glyph glyph-name="greaterequal.case" 
d="M117 256l-23 62l261 93v4l-261 92l23 62l403 -150v-12zM520 119h-440v66h440v-66z" />
    <glyph glyph-name="uni00AD.case" horiz-adv-x="411" 
d="M54 320v82h304v-82h-304z" />
    <glyph glyph-name="less.case" 
d="M480 161l-405 185v12l405 186l25 -61l-288 -130v-2l288 -129z" />
    <glyph glyph-name="equal.case" 
d="M520 408h-440v66h440v-66zM520 233h-440v66h440v-66z" />
    <glyph glyph-name="greater.case" 
d="M120 164l-25 61l288 129v2l-288 129l25 61l405 -185v-12z" />
    <glyph glyph-name="a.smcp" horiz-adv-x="594" 
d="M-7 0v13l84 84q12 11 16 24l124 313q6 15 0 27l-33 66v13h167l180 -447q7 -17 15 -25l47 -55v-13h-267v13l51 52q7 8 3 17l-33 84h-186l-19 -48q-5 -12 6 -25l67 -80v-13h-222zM253 403l-75 -193h151z" />
    <glyph glyph-name="b.smcp" 
d="M28 540h316q90 0 142.5 -34t52.5 -98q0 -55 -43 -86.5t-115 -36.5q83 -6 130 -39.5t47 -94.5q0 -71 -57.5 -111t-157.5 -40h-315v13l62 52q8 7 8 18v375q0 10 -8 17l-62 52v13zM305 45q45 0 70.5 26t25.5 80q0 104 -100 104h-54v-199q0 -7 2.5 -9t9.5 -2h46zM247 485
v-189h52q84 0 84 105q0 94 -80 94h-43q-13 0 -13 -10z" />
    <glyph glyph-name="c.smcp" horiz-adv-x="575" 
d="M336 -12q-151 0 -225.5 78t-74.5 203q0 126 78.5 204.5t225.5 78.5q90 0 169 -19v-188h-13l-120 149q-7 10 -18 11q-8 1 -21 1q-132 0 -132 -233q0 -239 133 -239q14 0 22 2q12 3 16 9l124 156h12v-193q-86 -20 -176 -20z" />
    <glyph glyph-name="d.smcp" horiz-adv-x="647" 
d="M290 45q73 0 113 56.5t40 173.5q0 220 -149 220h-31q-8 0 -11 -2.5t-3 -9.5v-426q0 -8 2.5 -10t10.5 -2h28zM28 540h290q144 0 219.5 -68t75.5 -192q0 -136 -87.5 -208t-228.5 -72h-269v13l62 52q8 7 8 18v375q0 10 -8 17l-62 52v13z" />
    <glyph glyph-name="e.smcp" horiz-adv-x="563" 
d="M414 173h-13l-61 65q-11 11 -27 11h-64v-192q0 -8 3 -10t11 -2h104q15 0 24 13l98 131h13v-189h-474v13l62 52q8 7 8 18v375q0 10 -8 17l-62 52v13h469v-185h-13l-97 127q-9 13 -24 13h-100q-8 0 -11 -2t-3 -10v-190h64q15 0 27 12l61 66h13v-198z" />
    <glyph glyph-name="f.smcp" horiz-adv-x="520" 
d="M28 527v13h469v-185h-13l-97 127q-9 13 -24 13h-100q-8 0 -11 -2t-3 -10v-190h64q15 0 27 12l61 66h13v-198h-13l-61 65q-11 11 -27 11h-64v-165q0 -11 11 -18l80 -53v-13h-312v13l62 52q8 7 8 18v375q0 10 -8 17z" />
    <glyph glyph-name="g.smcp" horiz-adv-x="626" 
d="M547 157v-169l-134 15q-58 -15 -104 -15q-132 0 -202.5 78.5t-70.5 206.5q0 126 80.5 202.5t241.5 76.5q93 0 177 -19v-189h-13l-119 150q-7 9 -15 10q-14 2 -28 2q-81 0 -118.5 -58.5t-37.5 -175.5q0 -118 32 -177.5t102 -59.5q23 0 46 7q12 4 12 16v101q0 11 -8 17
l-57 51v13h280v-13l-54 -49q-10 -9 -10 -21z" />
    <glyph glyph-name="h.smcp" horiz-adv-x="704" 
d="M605 458v-375q0 -11 8 -18l63 -52v-13h-292v13l62 52q9 8 9 18v170h-206v-170q0 -11 8 -18l63 -52v-13h-292v13l62 52q8 7 8 18v375q0 10 -8 17l-62 52v13h292v-13l-63 -52q-8 -7 -8 -17v-159h206v159q0 9 -9 17l-62 52v13h292v-13l-63 -52q-8 -7 -8 -17z" />
    <glyph glyph-name="i.smcp" horiz-adv-x="348" 
d="M249 458v-375q0 -11 8 -18l63 -52v-13h-292v13l62 52q8 7 8 18v375q0 10 -8 17l-62 52v13h292v-13l-63 -52q-8 -7 -8 -17z" />
    <glyph glyph-name="j.smcp" horiz-adv-x="315" 
d="M235 458v-393q0 -203 -253 -232l-4 13q107 50 107 197v415q0 9 -8 17l-63 52v13h292v-13l-63 -52q-8 -8 -8 -17z" />
    <glyph glyph-name="k.smcp" horiz-adv-x="619" 
d="M249 272v-189q0 -11 8 -18l63 -52v-13h-292v13l62 52q8 7 8 18v375q0 10 -8 17l-62 52v13h292v-13l-63 -52q-8 -7 -8 -17v-182l167 165q11 9 3 20l-51 66v13h252v-13l-107 -66q-30 -18 -47 -35l-87 -86l175 -258q14 -21 30 -33l50 -36v-13h-193z" />
    <glyph glyph-name="l.smcp" horiz-adv-x="518" 
d="M28 0v13l62 52q8 7 8 18v375q0 10 -8 17l-62 52v13h292v-13l-63 -52q-8 -7 -8 -17v-401q0 -8 3 -10t11 -2h95q10 0 14 2t12 11l97 133h13v-191h-466z" />
    <glyph glyph-name="m.smcp" horiz-adv-x="792" 
d="M112 123v311q0 11 -11 22l-69 71v13h213l165 -342l147 342h207v-13l-62 -52q-8 -7 -8 -17v-375q0 -11 8 -18l62 -52v-13h-291v13l62 52q9 8 9 18v315l-170 -398h-22l-192 396v-273q0 -18 11 -29l78 -81v-13h-227v13l78 81q12 12 12 29z" />
    <glyph glyph-name="n.smcp" horiz-adv-x="642" 
d="M552 417v-417h-92l-296 389v-265q0 -18 11 -30l78 -81v-13h-227v13l78 81q11 12 11 30v295q0 13 -9 22l-83 86v13h202l278 -364v241q0 17 -11 29l-78 81v13h227v-13l-78 -81q-11 -11 -11 -29z" />
    <glyph glyph-name="o.smcp" horiz-adv-x="653" 
d="M327 552q132 0 211.5 -73.5t79.5 -205.5q0 -133 -80 -209t-213 -76q-132 0 -211 73.5t-79 206.5t79.5 208.5t212.5 75.5zM325 505q-119 0 -119 -232q0 -237 122 -237q118 0 118 232q0 237 -121 237z" />
    <glyph glyph-name="p.smcp" horiz-adv-x="566" 
d="M299 196h-50v-112q0 -10 10 -18l81 -53v-13h-312v13l62 52q8 7 8 18v375q0 10 -8 17l-62 52v13h296q104 0 164.5 -39.5t60.5 -122.5q0 -86 -68 -134t-182 -48zM249 482v-241h44q101 0 101 130q0 124 -96 124h-33q-10 0 -13 -2.5t-3 -10.5z" />
    <glyph glyph-name="q.smcp" horiz-adv-x="653" 
d="M327 552q132 0 211.5 -73.5t79.5 -205.5q0 -133 -80 -209t-213 -76q-35 0 -67 6l-36 -34l176 -36q80 -15 110 -15q48 0 83 29l30 25l12 -6l-24 -46q-26 -50 -60 -73t-84 -23q-48 0 -128 19l-172 39q-21 5 -42 5q-31 0 -50 -12l-9 10l149 128q-84 27 -131 95t-47 169
q0 133 79.5 208.5t212.5 75.5zM325 505q-119 0 -119 -232q0 -238 122 -238q118 0 118 233q0 237 -121 237z" />
    <glyph glyph-name="r.smcp" horiz-adv-x="616" 
d="M98 83v374q0 11 -8 18l-62 52v13h294q104 0 163.5 -34.5t59.5 -104.5q0 -118 -166 -140l-15 -2l90 -20q11 -2 16 -14l81 -152q13 -22 25 -34l32 -26v-13h-189l-104 221q-5 11 -9.5 14t-14.5 3h-44v-155q0 -13 10 -20l59 -50v-13h-288v13l62 52q8 7 8 18zM247 484v-204h50
q41 0 67 29t26 84q0 51 -24.5 76.5t-65.5 25.5h-37q-10 0 -13 -2t-3 -9z" />
    <glyph glyph-name="s.smcp" horiz-adv-x="517" 
d="M237 -12q-87 0 -175 24v180h13l98 -140q7 -10 19 -14q16 -5 47 -5q56 0 88 21.5t32 55.5q0 22 -16 39t-32.5 25t-50.5 21l-66 27q-140 57 -140 164q0 77 62 121.5t168 44.5q61 0 155 -16v-165h-13l-94 119q-10 13 -20 15t-32 2q-49 0 -76.5 -19.5t-27.5 -50.5
q0 -53 83 -84l75 -29q71 -27 108.5 -60t37.5 -98q0 -80 -65.5 -129t-177.5 -49z" />
    <glyph glyph-name="t.smcp" horiz-adv-x="575" 
d="M553 540v-196h-13l-96 137q-10 14 -25 14h-56v-412q0 -11 8 -18l62 -52v-13h-291v13l62 52q8 7 8 18v412h-56q-15 0 -25 -14l-96 -137h-13v196h531z" />
    <glyph glyph-name="u.smcp" horiz-adv-x="622" 
d="M88 188v265q0 11 -8 18l-60 56v13h287v-13l-60 -56q-8 -7 -8 -18v-261q0 -146 124 -146q58 0 91.5 35.5t33.5 107.5v228q0 17 -11 29l-78 81v13h226v-13l-78 -81q-11 -11 -11 -29v-230q0 -91 -52.5 -145t-168.5 -54q-227 0 -227 200z" />
    <glyph glyph-name="v.smcp" horiz-adv-x="563" 
d="M488 418l-162 -418h-94l-174 448q-5 14 -15 27l-46 53v12h267v-13l-51 -52q-7 -7 -3 -17l119 -316l109 280q4 13 -5 22l-67 83v13h223v-13l-82 -80q-14 -15 -19 -29z" />
    <glyph glyph-name="w.smcp" horiz-adv-x="858" 
d="M626 0h-92l-104 295l-110 -295h-93l-169 448q-6 14 -14 25l-47 55v12h267v-13l-51 -52q-7 -7 -3 -17l115 -315l82 219l-29 84q-6 16 -18 32l-38 50v12h259v-13l-52 -51q-6 -7 -2 -17l103 -313l103 276q4 11 -5 22l-67 83v13h223v-13l-82 -80q-13 -13 -19 -29z" />
    <glyph glyph-name="x.smcp" horiz-adv-x="580" 
d="M227 251l-142 193q-7 10 -21 24l-62 59v13h273v-13l-42 -47q-8 -8 0 -19l92 -131l74 98q10 14 4 23l-51 76v13h222v-13l-98 -81l-25 -25l-99 -129l147 -198q8 -12 21 -25l59 -56v-13h-274v13l43 47q9 10 -1 23l-93 130l-77 -101q-10 -13 -3 -23l51 -76v-13h-222v13l97 82
q17 14 25 25z" />
    <glyph glyph-name="y.smcp" horiz-adv-x="570" 
d="M426 0h-284v13l60 48q7 6 7 16v118q0 17 -7 28l-135 224q-8 15 -24 29l-53 52v12h303v-12l-60 -50q-12 -10 -5 -22l108 -191l95 167q6 10 -1 19l-60 76v13h223v-13l-86 -74q-19 -17 -29 -34l-112 -195q-7 -14 -7 -26v-121q0 -9 8 -16l59 -48v-13z" />
    <glyph glyph-name="z.smcp" horiz-adv-x="534" 
d="M491 0h-464v12l301 483h-143q-16 0 -23 -9l-103 -143h-13v197h465v-12l-301 -483h140q20 0 26 9l106 154h13z" />
    <glyph glyph-name="zero.smcp" horiz-adv-x="587" 
d="M293 508q-92 0 -92 -241q0 -124 23 -178.5t69 -54.5t69 54.5t23 178.5q0 241 -92 241zM293 552q113 0 179 -72t66 -213t-64.5 -209t-180.5 -68q-114 0 -179 68t-65 209q0 139 66 212t178 73z" />
    <glyph glyph-name="one.smcp" horiz-adv-x="370" 
d="M128 73v368q0 9 -7 15l-80 45v13l225 38v-479q0 -9 8 -17l72 -43v-13h-298v13l72 43q8 7 8 17z" />
    <glyph glyph-name="two.smcp" horiz-adv-x="478" 
d="M193 507q-11 0 -17 -1q-8 -2 -13 -11l-70 -124h-13l-53 146q92 34 190 34q100 0 150.5 -41t50.5 -109q0 -44 -20 -84t-63.5 -79.5t-79 -65.5t-100.5 -68h173q17 0 24.5 3.5t18.5 16.5l42 54h13l-28 -178h-370v13l101 112q141 156 141 280q0 51 -20.5 76.5t-56.5 25.5z
" />
    <glyph glyph-name="three.smcp" horiz-adv-x="491" 
d="M226 551q99 0 151 -36t52 -96q0 -56 -37.5 -89.5t-97.5 -42.5q69 -6 112 -41t43 -92q0 -74 -63 -119t-177 -45q-105 0 -179 28l59 151h13l63 -122q6 -9 13 -10q8 -2 21 -2q47 0 73.5 34t26.5 80q0 111 -129 120v17q60 9 89 45t29 87q0 40 -23 64t-62 24q-10 0 -17 -1
q-8 -1 -14 -10l-70 -121h-13l-53 143q92 34 190 34z" />
    <glyph glyph-name="four.smcp" horiz-adv-x="532" 
d="M457 0h-271v13l56 38q11 8 11 20v60h-233v12l243 397h127v-364h33q12 0 18 8l53 76h12l-12 -129h-104v-60q0 -11 10 -20l57 -38v-13zM253 176v258l-156 -258h156z" />
    <glyph glyph-name="five.smcp" horiz-adv-x="480" 
d="M203 -11q-94 0 -173 28l56 152h13l65 -124q7 -12 17 -12h18q39 0 68.5 33t29.5 88q0 56 -32.5 88.5t-91.5 32.5q-45 0 -88 -23h-14l12 286q122 -3 243 -3q45 0 64 20l19 22h13l-11 -85q-5 -39 -22 -52t-60 -13q-13 0 -46.5 0.5t-80.5 1.5t-75 1l-6 -127q66 26 128 26
q86 0 142.5 -42t56.5 -120q0 -83 -66.5 -130.5t-178.5 -47.5z" />
    <glyph glyph-name="six.smcp" horiz-adv-x="533" 
d="M307 551q93 0 161 -26l-54 -151h-13l-65 120q-6 11 -12 12t-18 1q-107 0 -111 -221q19 23 55 37t75 14q72 0 120 -44t48 -120q0 -82 -58.5 -132.5t-152.5 -50.5q-111 0 -172 72.5t-61 201.5q0 139 69 213t189 74zM267 281q-46 0 -72 -37q2 -110 26.5 -160.5t61.5 -50.5
q33 0 53 35.5t20 87.5q0 56 -23 90.5t-66 34.5z" />
    <glyph glyph-name="seven.smcp" horiz-adv-x="426" 
d="M257 0h-168v13q174 336 227 421h-206q-18 0 -25 -9l-52 -58h-13l20 173h383v-13l-56 -78q-13 -17 -18 -37q-48 -167 -92 -412z" />
    <glyph glyph-name="eight.smcp" horiz-adv-x="510" 
d="M252 -12q-49 0 -95 13.5t-79.5 45t-33.5 74.5q0 45 36.5 78.5t90.5 49.5l-13 6q-101 54 -101 141q0 71 56.5 113t140.5 42q79 0 135.5 -34t56.5 -93q0 -79 -117 -113l31 -15q113 -53 113 -144q0 -72 -64 -118t-157 -46zM259 204l-56 28q-26 -16 -43 -43t-17 -58
q0 -44 33 -70.5t83 -26.5q43 0 70 20t27 51t-22.5 52t-74.5 47zM166 440q0 -50 80 -88l52 -25q51 34 51 96q0 38 -25.5 60t-68.5 22q-39 0 -64 -18t-25 -47z" />
    <glyph glyph-name="nine.smcp" horiz-adv-x="539" 
d="M232 -10q-93 0 -161 26l54 151h13l65 -121q7 -10 12 -11q6 -1 18 -1q107 0 111 220q-20 -23 -55.5 -36.5t-74.5 -13.5q-71 0 -119.5 44.5t-48.5 119.5q0 82 58.5 132.5t152.5 50.5q111 0 172 -73t61 -202q0 -138 -69 -212t-189 -74zM272 260q46 0 72 36q-2 110 -26.5 161
t-61.5 51q-33 0 -52.5 -36t-19.5 -88q0 -56 22.5 -90t65.5 -34z" />
    <glyph glyph-name="dollar.smcp" horiz-adv-x="509" 
d="M233 -12q-85 0 -175 24v180h13l98 -140q8 -11 19 -14q23 -5 48 -5h6v167l-52 22q-66 28 -103 66t-37 98q0 70 51 113t141 51v72h44v-70q69 -2 149 -16v-165h-13l-94 119q-12 13 -20 15q-12 2 -22 2v-167l44 -16q35 -13 56.5 -24t44.5 -29t34.5 -44.5t11.5 -60.5
q0 -70 -51 -117t-140 -57v-76h-44v72h-9zM355 110q0 45 -69 73v-144q69 17 69 71zM173 437q0 -51 69 -79v147q-33 -7 -51 -25t-18 -43z" />
    <glyph glyph-name="dollar.smcp_alt" horiz-adv-x="509" 
d="M233 -12q-85 0 -175 24v180h13l98 -140q8 -11 19 -14q18 -5 48 -5q56 0 87.5 21.5t31.5 55.5q0 21 -15.5 38t-34 26.5t-50.5 21.5l-65 26q-140 55 -140 164q0 69 51 112.5t141 51.5v72h44v-70q69 -2 149 -16v-165h-13l-94 119q-12 13 -20 15q-10 2 -32 2
q-48 0 -75.5 -19.5t-27.5 -50.5q0 -54 82 -84l75 -29q35 -13 56.5 -24t44.5 -29t34.5 -44.5t11.5 -60.5q0 -70 -51 -117t-140 -57v-76h-44v72h-9z" />
    <glyph glyph-name="cent.smcp" horiz-adv-x="430" 
d="M226 -25v82h-3q-74 0 -129.5 50.5t-55.5 141.5q0 94 52.5 145.5t135.5 61.5v82h43v-79h7q66 -2 129 -23l-48 -129h-12l-58 101q-4 7 -9 10q-4 2 -9 2v-288q5 -1 17 -1q67 0 108 43l11 -6q-37 -94 -136 -108v-85h-43zM166 279q0 -101 60 -133v268q-60 -28 -60 -135z" />
    <glyph glyph-name="cent.smcp_alt" horiz-adv-x="430" 
d="M226 -25v82h-11q-75 4 -126 53.5t-51 138.5q0 94 52.5 145.5t135.5 61.5v82h43v-79h9q65 -2 127 -23l-48 -129h-12l-60 101q-6 9 -16 9h-6q-44 0 -70.5 -37t-26.5 -101q0 -72 32.5 -110t87.5 -38q67 0 108 43l11 -6q-37 -94 -136 -108v-85h-43z" />
    <glyph glyph-name="sterling.smcp" horiz-adv-x="486" 
d="M40 252h58q-45 70 -45 131q0 78 62.5 122.5t160.5 44.5q84 0 142 -23l-14 -152h-12l-84 126q-7 11 -21 11q-45 0 -68.5 -31t-23.5 -80q0 -32 18 -85t20 -64h102v-45h-100q-2 -10 -4 -17q-7 -30 -27.5 -49.5t-54.5 -39.5h225q17 0 29 13l45 59h13l-16 -173h-411v12l67 76
q30 34 30 78q0 15 -8 41h-83v45z" />
    <glyph glyph-name="yen.smcp" horiz-adv-x="570" 
d="M101 195v44h91l-125 208q-6 11 -24 29l-53 53v11h303v-11l-60 -51q-12 -10 -5 -22l108 -191l95 166q5 11 -1 19l-60 79v11h223v-11l-86 -76q-20 -17 -28 -32l-105 -182h95v-44h-110v-40h110v-45h-110v-33q0 -9 8 -16l59 -49v-12h-284v12l60 49q7 6 7 16v33h-108v45h108
v40h-108z" />
    <glyph glyph-name="Euro.smcp" horiz-adv-x="612" 
d="M25 300v45h56q22 95 97.5 151t198.5 56q90 0 169 -19v-188h-12l-121 149q-5 7 -16 10q-14 2 -23 2q-112 0 -128 -161h146v-45h-149q-1 -4 -1 -27t1 -29h149v-44h-146q17 -165 128 -165q14 0 19 1q15 3 20 9l125 156h11v-193q-86 -20 -176 -20q-129 0 -202 57.5t-92 154.5
h-54v44h48v25q0 21 1 31h-49z" />
    <glyph glyph-name="zero.smcpt" 
d="M299 508q-91 0 -91 -241q0 -124 22.5 -178.5t68.5 -54.5t69 54.5t23 178.5q0 241 -92 241zM299 551q114 0 179.5 -71.5t65.5 -212.5t-64.5 -209t-180.5 -68q-114 0 -179 68t-65 209q0 139 66 211.5t178 72.5z" />
    <glyph glyph-name="one.smcpt" 
d="M237 73v368q0 9 -7 15l-79 45v13l225 38v-479q0 -10 8 -17l71 -43v-13h-297v13l72 43q7 7 7 17z" />
    <glyph glyph-name="two.smcpt" 
d="M268 507q-6 0 -18 -2q-7 -1 -12 -10l-70 -123h-12l-54 145q92 34 190 34q100 0 151 -41t51 -109q0 -44 -20 -84t-63.5 -79.5t-79 -65.5t-100.5 -68h172q18 0 25 3.5t18 16.5l43 54h13l-29 -178h-369v13l101 112q141 156 141 280q0 50 -21 76t-57 26z" />
    <glyph glyph-name="three.smcpt" 
d="M286 551q99 0 151 -36t52 -96q0 -56 -37.5 -89.5t-97.5 -42.5q69 -6 112 -41t43 -92q0 -74 -63.5 -119t-177.5 -45q-104 0 -179 28l59 150h13l64 -121q4 -8 12 -10q6 -2 22 -2q46 0 72.5 34t26.5 80q0 111 -128 120v17q60 9 89 45t29 87q0 40 -23 64t-62 24q-7 0 -19 -2
q-8 -1 -12 -9l-70 -120h-13l-53 142q90 34 190 34z" />
    <glyph glyph-name="four.smcpt" 
d="M427 131v-60q0 -13 10 -20l57 -38v-13h-271v13l56 38q10 7 10 20v60h-232v12l242 397h128v-364h33q12 0 18 8l53 76h12l-12 -129h-104zM289 176v258l-155 -258h155z" />
    <glyph glyph-name="five.smcpt" 
d="M263 -11q-94 0 -173 28l57 151h13l65 -123q7 -12 17 -12h18q39 0 68 33t29 88q0 56 -32 88.5t-91 32.5q-45 0 -89 -23h-13l12 286q120 -3 243 -3q44 0 64 20l18 22h13l-11 -85q-5 -40 -22 -52.5t-60 -12.5q-13 0 -46 0.5t-80 1.5t-75 1l-6 -127q64 26 128 26
q86 0 142 -42t56 -120q0 -83 -66 -130.5t-179 -47.5z" />
    <glyph glyph-name="six.smcpt" 
d="M336 551q95 0 161 -26l-54 -150h-13l-65 119q-6 11 -12 12t-18 1q-107 0 -111 -221q20 23 56 37t74 14q72 0 120 -44t48 -120q0 -82 -58.5 -132.5t-152.5 -50.5q-111 0 -172 72.5t-61 201.5q0 139 69 213t189 74zM296 281q-46 0 -72 -37q2 -110 26.5 -160.5t61.5 -50.5
q33 0 53 35.5t20 87.5q0 56 -23 90.5t-66 34.5z" />
    <glyph glyph-name="seven.smcpt" 
d="M335 0h-168v13q178 344 227 421h-208q-17 0 -25 -9l-50 -57h-13l20 172h383v-13l-56 -78q-13 -17 -18 -37q-48 -167 -92 -412z" />
    <glyph glyph-name="eight.smcpt" 
d="M294 -12q-49 0 -95 14.5t-79.5 46.5t-33.5 74q0 44 36 77t90 49l-13 6q-101 51 -101 141q0 71 57 113t140 42q79 0 136 -34t57 -93q0 -79 -118 -113l32 -15q112 -53 112 -144q0 -72 -63.5 -118t-156.5 -46zM300 204l-56 28q-26 -16 -43 -43t-17 -58q0 -44 33 -70.5
t83 -26.5q43 0 70 20t27 51q0 32 -22.5 52.5t-74.5 46.5zM207 440q0 -50 80 -88l52 -25q51 34 51 96q0 38 -25 60t-69 22q-39 0 -64 -18t-25 -47z" />
    <glyph glyph-name="nine.smcpt" 
d="M264 -10q-95 0 -161 26l54 150h13l65 -120q4 -8 12 -11q6 -1 18 -1q107 0 111 220q-20 -23 -56 -36.5t-74 -13.5q-72 0 -120 44t-48 120q0 82 58.5 132.5t152.5 50.5q111 0 172 -73t61 -202q0 -138 -69 -212t-189 -74zM304 260q46 0 72 36q-2 110 -26.5 161t-61.5 51
q-33 0 -53 -36t-20 -88q0 -56 23 -90t66 -34z" />
    <glyph glyph-name="dollar.smcpt" 
d="M275 -12q-85 0 -175 24v180h13l98 -140q8 -11 19 -14q23 -5 48 -5h6v167l-52 22q-66 28 -103 66t-37 98q0 70 51 113t141 51v72h44v-70q69 -2 149 -16v-165h-13l-94 119q-12 13 -20 15q-12 2 -22 2v-167l44 -16q35 -13 56.5 -24t44.5 -29t34.5 -44.5t11.5 -60.5
q0 -70 -51 -117t-140 -57v-76h-44v72h-9zM397 110q0 45 -69 73v-144q69 17 69 71zM215 437q0 -51 69 -79v147q-33 -7 -51 -25t-18 -43z" />
    <glyph glyph-name="dollar.smcpt_alt" 
d="M275 -12q-85 0 -175 24v180h13l98 -140q8 -11 19 -14q18 -5 48 -5q56 0 87.5 21.5t31.5 55.5q0 21 -15.5 38t-34 26.5t-50.5 21.5l-65 26q-140 55 -140 164q0 69 51 112.5t141 51.5v72h44v-70q69 -2 149 -16v-165h-13l-94 119q-12 13 -20 15q-10 2 -32 2
q-48 0 -75.5 -19.5t-27.5 -50.5q0 -54 82 -84l75 -29q35 -13 56.5 -24t44.5 -29t34.5 -44.5t11.5 -60.5q0 -70 -51 -117t-140 -57v-76h-44v72h-9z" />
    <glyph glyph-name="cent.smcpt" 
d="M303 -25v82h-3q-74 0 -129.5 50.5t-55.5 141.5q0 94 52.5 145.5t135.5 61.5v82h43v-79h7q66 -2 129 -23l-48 -129h-12l-58 101q-4 7 -9 10q-4 2 -9 2v-288q5 -1 17 -1q67 0 108 43l11 -6q-37 -94 -136 -108v-85h-43zM243 279q0 -101 60 -133v268q-60 -28 -60 -135z" />
    <glyph glyph-name="cent.smcpt_alt" 
d="M303 -25v82h-11q-75 4 -126 53.5t-51 138.5q0 94 52.5 145.5t135.5 61.5v82h43v-79h9q65 -2 127 -23l-48 -129h-12l-60 101q-6 9 -16 9h-6q-44 0 -70.5 -37t-26.5 -101q0 -72 32.5 -110t87.5 -38q67 0 108 43l11 -6q-37 -94 -136 -108v-85h-43z" />
    <glyph glyph-name="sterling.smcpt" 
d="M89 252h58q-45 70 -45 131q0 78 62.5 122.5t160.5 44.5q84 0 142 -23l-14 -152h-12l-84 126q-7 11 -21 11q-45 0 -68.5 -31t-23.5 -80q0 -32 18 -85t20 -64h102v-45h-100q-2 -10 -4 -17q-7 -30 -27.5 -49.5t-54.5 -39.5h225q17 0 29 13l45 59h13l-16 -173h-411v12l67 76
q30 34 30 78q0 15 -8 41h-83v45z" />
    <glyph glyph-name="yen.smcpt" 
d="M109 195v44h91l-125 208q-6 11 -24 29l-53 53v11h303v-11l-60 -51q-12 -10 -5 -22l108 -191l95 166q5 11 -1 19l-60 79v11h223v-11l-86 -76q-20 -17 -28 -32l-105 -182h95v-44h-110v-40h110v-45h-110v-33q0 -9 8 -16l59 -49v-12h-284v12l60 49q7 6 7 16v33h-108v45h108
v40h-108z" />
    <glyph glyph-name="Euro.smcpt" 
d="M37 300v45h56q22 95 97.5 151t198.5 56q90 0 169 -19v-188h-12l-121 149q-5 7 -16 10q-14 2 -23 2q-112 0 -128 -161h146v-45h-149q-1 -4 -1 -27t1 -29h149v-44h-146q17 -165 128 -165q14 0 19 1q15 3 20 9l125 156h11v-193q-86 -20 -176 -20q-129 0 -202 57.5t-92 154.5
h-54v44h48v25q0 21 1 31h-49z" />
    <glyph glyph-name="percent.smcp" horiz-adv-x="699" 
d="M199 -14l-38 25l344 544l38 -25zM188 292q43 0 43 113q0 120 -43 120q-45 0 -45 -119q0 -114 45 -114zM188 552q63 0 100 -37.5t37 -109.5q0 -71 -36.5 -106t-100.5 -35q-65 0 -101.5 35t-36.5 106t37 109t101 38zM512 253q-45 0 -45 -119q0 -113 45 -113q43 0 43 113
q0 119 -43 119zM512 281q63 0 100 -38t37 -109t-36.5 -106.5t-100.5 -35.5t-101 35.5t-37 106.5t37 109t101 38z" />
    <glyph glyph-name="perthousand.smcp" horiz-adv-x="1017" 
d="M543 530l-344 -544l-38 25l344 544zM188 552q63 0 100 -37.5t37 -109.5q0 -71 -36.5 -106t-100.5 -35q-65 0 -101.5 35t-36.5 106t37 109t101 38zM188 525q-45 0 -45 -119q0 -114 45 -114q43 0 43 113q0 120 -43 120zM512 253q-45 0 -45 -119q0 -113 45 -113q43 0 43 113
q0 119 -43 119zM512 281q63 0 100 -38t37 -109t-36.5 -106.5t-100.5 -35.5t-101 35.5t-37 106.5t37 109t101 38zM831 253q-46 0 -46 -119q0 -113 46 -113q43 0 43 113q0 119 -43 119zM831 281q62 0 99.5 -38t37.5 -109q0 -70 -37 -106t-100 -36q-64 0 -101 35.5t-37 106.5
t37 109t101 38z" />
    <glyph glyph-name="ampersand.smcp" horiz-adv-x="646" 
d="M200 -8q-76 0 -121 34.5t-45 91.5q0 49 34.5 84t92.5 51q-64 68 -64 136q0 64 47.5 103.5t124.5 39.5q68 0 111 -30t43 -78q0 -44 -35 -77t-89 -53l139 -134q22 26 41 62q5 9 5 14t-5 11l-65 68v11h200v-11l-53 -52q-21 -20 -33 -38q-41 -64 -62 -91q48 -44 86 -44
q50 0 61 57h12q4 -17 4 -37q0 -54 -35 -86t-92 -32q-64 0 -132 59q-71 -59 -170 -59zM248 45q50 0 92 33l-158 154q-39 -32 -39 -85q0 -46 29.5 -74t75.5 -28zM277 314q59 43 59 106q0 37 -19 56.5t-47 19.5q-29 0 -46.5 -18.5t-17.5 -46.5q0 -50 71 -117z" />
    <glyph glyph-name="exclam.smcp" horiz-adv-x="279" 
d="M147 216h-13l-82 324h177zM60 70q0 35 23 58.5t57 23.5t57 -23.5t23 -58.5q0 -34 -23 -57.5t-57 -23.5t-57 23.5t-23 57.5z" />
    <glyph glyph-name="exclamdown.smcp" horiz-adv-x="279" 
d="M134 325h13l82 -325h-177zM60 471q0 34 23 57.5t57 23.5t57 -23.5t23 -57.5q0 -35 -23 -58.5t-57 -23.5t-57 23.5t-23 58.5z" />
    <glyph glyph-name="question.smcp" horiz-adv-x="456" 
d="M88 378h-14l-58 135q87 39 195 39t165.5 -35t57.5 -95q0 -44 -25 -71t-76 -58l-82 -49q-41 -25 -36 -63h-14q-47 25 -47 68q0 38 49 75l36 28q44 35 44 83q0 35 -25 56t-69 21q-12 0 -26 -2q-10 -3 -15 -14zM125 70q0 35 23 58.5t57 23.5t57 -23.5t23 -58.5
q0 -34 -23 -57.5t-57 -23.5t-57 23.5t-23 57.5z" />
    <glyph glyph-name="questiondown.smcp" horiz-adv-x="456" 
d="M368 162h14l58 -135q-88 -38 -195 -38q-108 0 -165.5 34.5t-57.5 95.5q0 44 25 70.5t76 57.5l82 50q41 24 36 64h14q47 -28 47 -69q0 -37 -49 -76l-36 -28q-44 -33 -44 -83q0 -34 25 -55t69 -21q19 0 26 2q10 2 15 14zM331 471q0 -35 -23 -58.5t-57 -23.5t-57 23.5
t-23 58.5q0 34 23 57.5t57 23.5t57 -23.5t23 -57.5z" />
    <glyph glyph-name="aacute.smcp" horiz-adv-x="594" 
d="M229 602h-14l59 167h164v-13zM-7 0v13l84 84q12 11 16 24l124 313q6 15 0 27l-33 66v13h167l180 -447q7 -17 15 -25l47 -55v-13h-267v13l51 52q7 8 3 17l-33 84h-186l-19 -48q-5 -12 6 -25l67 -80v-13h-222zM253 403l-75 -193h151z" />
    <glyph glyph-name="agrave.smcp" horiz-adv-x="594" 
d="M-7 0v13l84 84q12 11 16 24l124 313q6 15 0 27l-33 66v13h167l180 -447q7 -17 15 -25l47 -55v-13h-267v13l51 52q7 8 3 17l-33 84h-186l-19 -48q-5 -12 6 -25l67 -80v-13h-222zM253 403l-75 -193h151zM349 603h-15l-208 154v13h164z" />
    <glyph glyph-name="acircumflex.smcp" horiz-adv-x="594" 
d="M277 662l-147 -61l-7 11l148 172h13l148 -172l-8 -11zM-7 0v13l84 84q12 11 16 24l124 313q6 15 0 27l-33 66v13h167l180 -447q7 -17 15 -25l47 -55v-13h-267v13l51 52q7 8 3 17l-33 84h-186l-19 -48q-5 -12 6 -25l67 -80v-13h-222zM253 403l-75 -193h151z" />
    <glyph glyph-name="adieresis.smcp" horiz-adv-x="594" 
d="M103 683q0 31 21 51.5t50 20.5t49.5 -20.5t20.5 -51.5q0 -30 -20.5 -50t-49.5 -20t-50 20t-21 50zM310 683q0 31 20.5 51.5t49.5 20.5t49.5 -20.5t20.5 -51.5q0 -30 -20.5 -50t-49.5 -20t-49.5 20t-20.5 50zM-7 0v13l84 84q12 11 16 24l124 313q6 15 0 27l-33 66v13h167
l180 -447q7 -17 15 -25l47 -55v-13h-267v13l51 52q7 8 3 17l-33 84h-186l-19 -48q-5 -12 6 -25l67 -80v-13h-222zM253 403l-75 -193h151z" />
    <glyph glyph-name="atilde.smcp" horiz-adv-x="594" 
d="M-7 0v13l84 84q12 11 16 24l124 313q6 15 0 27l-33 66v13h167l180 -447q7 -17 15 -25l47 -55v-13h-267v13l51 52q7 8 3 17l-33 84h-186l-19 -48q-5 -12 6 -25l67 -80v-13h-222zM253 403l-75 -193h151zM326 610q-23 0 -64 26.5t-59 26.5t-32 -11.5t-34 -39.5h-13
q21 138 105 138q22 0 62.5 -27t60.5 -27q17 0 31 11.5t34 40.5h13q-20 -138 -104 -138z" />
    <glyph glyph-name="aring.smcp" horiz-adv-x="594" 
d="M345 705q0 29 -19 49t-48 20t-48 -20t-19 -49q0 -30 18.5 -50t48.5 -20q29 0 48 20t19 50zM162 705q0 51 34.5 81.5t81.5 30.5q46 0 80.5 -30.5t34.5 -81.5t-34.5 -82t-80.5 -31q-47 0 -81.5 30.5t-34.5 82.5zM-7 0v13l84 84q12 11 16 24l124 313q6 15 0 27l-33 66v13
h167l180 -447q7 -17 15 -25l47 -55v-13h-267v13l51 52q7 8 3 17l-33 84h-186l-19 -48q-5 -12 6 -25l67 -80v-13h-222zM253 403l-75 -193h151z" />
    <glyph glyph-name="aringacute.smcp" horiz-adv-x="594" 
d="M162 705q0 28 20 75l66 159h154v-13l-160 -117q16 8 36 8q46 0 80.5 -30.5t34.5 -81.5t-34.5 -82t-80.5 -31q-47 0 -81.5 30.5t-34.5 82.5zM345 705q0 29 -19 49t-48 20t-48 -20t-19 -49q0 -30 18.5 -50t48.5 -20q29 0 48 20t19 50zM-7 0v13l84 84q12 11 16 24l124 313
q6 15 0 27l-33 66v13h167l180 -447q7 -17 15 -25l47 -55v-13h-267v13l51 52q7 8 3 17l-33 84h-186l-19 -48q-5 -12 6 -25l67 -80v-13h-222zM253 403l-75 -193h151z" />
    <glyph glyph-name="abreve.smcp" horiz-adv-x="594" 
d="M-7 0v13l84 84q12 11 16 24l124 313q6 15 0 27l-33 66v13h167l180 -447q7 -17 15 -25l47 -55v-13h-267v13l51 52q7 8 3 17l-33 84h-186l-19 -48q-5 -12 6 -25l67 -80v-13h-222zM253 403l-75 -193h151zM276 601q-60 0 -97.5 41.5t-35.5 126.5h13q12 -39 43.5 -59.5
t76.5 -20.5t77 20.5t43 59.5h14q2 -85 -36 -126.5t-98 -41.5z" />
    <glyph glyph-name="amacron.smcp" horiz-adv-x="594" 
d="M419 638h-284v66h284v-66zM-7 0v13l84 84q12 11 16 24l124 313q6 15 0 27l-33 66v13h167l180 -447q7 -17 15 -25l47 -55v-13h-267v13l51 52q7 8 3 17l-33 84h-186l-19 -48q-5 -12 6 -25l67 -80v-13h-222zM253 403l-75 -193h151z" />
    <glyph glyph-name="aogonek.smcp" horiz-adv-x="594" 
d="M253 403l-75 -193h151zM516 0h-190v13l51 52q6 7 3 17l-33 84h-186l-19 -48q-5 -12 6 -25l67 -80v-13h-222v13l84 84q12 11 16 24l124 313q5 14 0 27l-33 66v13h167l180 -447q7 -17 15 -25l47 -55v-13h-9q-58 0 -88.5 -39.5t-30.5 -81.5q0 -30 17 -46t40 -16q36 0 60 25
l10 -6q-15 -36 -47 -59t-74 -23q-40 0 -68.5 26.5t-28.5 69.5q0 47 36 87.5t106 62.5z" />
    <glyph glyph-name="ae.smcp" horiz-adv-x="851" 
d="M265 540h519v-185h-13l-97 127q-9 13 -24 13h-100q-8 0 -11 -2t-3 -10v-190h64q16 0 27 12l61 66h13v-198h-13l-61 65q-10 11 -27 11h-64v-192q0 -8 3 -10t11 -2h104q15 0 25 13l97 131h14v-189h-475v13l63 52q8 7 8 18v83h-198l-27 -46q-6 -12 1 -24l51 -83v-13h-223v13
l95 83q10 7 21 23l207 321q8 13 0 23l-48 64v13zM386 466l-168 -256h168v256z" />
    <glyph glyph-name="aeacute.smcp" horiz-adv-x="851" 
d="M470 602h-14l59 167h164v-13zM265 540h519v-185h-13l-97 127q-9 13 -24 13h-100q-8 0 -11 -2t-3 -10v-190h64q16 0 27 12l61 66h13v-198h-13l-61 65q-10 11 -27 11h-64v-192q0 -8 3 -10t11 -2h104q15 0 25 13l97 131h14v-189h-475v13l63 52q8 7 8 18v83h-198l-27 -46
q-6 -12 1 -24l51 -83v-13h-223v13l95 83q10 7 21 23l207 321q8 13 0 23l-48 64v13zM386 466l-168 -256h168v256z" />
    <glyph glyph-name="ccedilla.smcp" horiz-adv-x="575" 
d="M407 -147q0 -46 -35.5 -72.5t-84.5 -26.5q-42 0 -75 19.5t-44 50.5l9 8q29 -29 72 -29q25 0 43 13t18 38q0 27 -24.5 40t-62.5 4l-6 6l56 88q-120 16 -178.5 91t-58.5 186q0 126 78.5 204.5t225.5 78.5q90 0 169 -19v-188h-13l-120 149q-7 10 -18 11q-8 1 -21 1
q-132 0 -132 -233q0 -239 133 -239q14 0 22 2q12 3 16 9l124 156h12v-193q-86 -20 -176 -20q-17 0 -45 2l-4 -50q48 8 84 -17t36 -70z" />
    <glyph glyph-name="cacute.smcp" horiz-adv-x="575" 
d="M279 602h-14l59 167h164v-13zM336 -12q-151 0 -225.5 78t-74.5 203q0 126 78.5 204.5t225.5 78.5q90 0 169 -19v-188h-13l-120 149q-7 10 -18 11q-8 1 -21 1q-132 0 -132 -233q0 -239 133 -239q14 0 22 2q12 3 16 9l124 156h12v-193q-86 -20 -176 -20z" />
    <glyph glyph-name="ccaron.smcp" horiz-adv-x="575" 
d="M331 603h-13l-148 172l7 11l147 -61l147 61l8 -11zM336 -12q-151 0 -225.5 78t-74.5 203q0 126 78.5 204.5t225.5 78.5q90 0 169 -19v-188h-13l-120 149q-7 10 -18 11q-8 1 -21 1q-132 0 -132 -233q0 -239 133 -239q14 0 22 2q12 3 16 9l124 156h12v-193
q-86 -20 -176 -20z" />
    <glyph glyph-name="ccircumflex.smcp" horiz-adv-x="575" 
d="M324 662l-147 -61l-7 11l148 172h13l148 -172l-8 -11zM336 -12q-151 0 -225.5 78t-74.5 203q0 126 78.5 204.5t225.5 78.5q90 0 169 -19v-188h-13l-120 149q-7 10 -18 11q-8 1 -21 1q-132 0 -132 -233q0 -239 133 -239q14 0 22 2q12 3 16 9l124 156h12v-193
q-86 -20 -176 -20z" />
    <glyph glyph-name="cdotaccent.smcp" horiz-adv-x="575" 
d="M336 -12q-151 0 -225.5 78t-74.5 203q0 126 78.5 204.5t225.5 78.5q90 0 169 -19v-188h-13l-120 149q-7 10 -18 11q-8 1 -21 1q-132 0 -132 -233q0 -239 133 -239q14 0 22 2q12 3 16 9l124 156h12v-193q-86 -20 -176 -20zM248 694q0 34 22 56t54 22q33 0 55 -22t22 -56
q0 -33 -22 -54.5t-55 -21.5q-32 0 -54 21.5t-22 54.5z" />
    <glyph glyph-name="eth.smcp" horiz-adv-x="659" 
d="M39 540h290q144 0 219.5 -68t75.5 -192q0 -136 -87.5 -208t-228.5 -72h-269v12l63 53q8 7 8 18v170h-62v42h62v163q0 10 -8 17l-63 54v11zM300 45q154 0 154 230q0 111 -36.5 165.5t-115.5 54.5h-29q-13 0 -13 -12v-188h95v-42h-95v-196q0 -8 2.5 -10t11.5 -2h26z" />
    <glyph glyph-name="dcaron.smcp" horiz-adv-x="647" 
d="M313 603h-13l-148 172l7 11l147 -61l147 61l8 -11zM290 45q73 0 113 56.5t40 173.5q0 220 -149 220h-31q-8 0 -11 -2.5t-3 -9.5v-426q0 -8 2.5 -10t10.5 -2h28zM28 540h290q144 0 219.5 -68t75.5 -192q0 -136 -87.5 -208t-228.5 -72h-269v13l62 52q8 7 8 18v375
q0 10 -8 17l-62 52v13z" />
    <glyph glyph-name="dcroat.smcp" horiz-adv-x="659" 
d="M39 540h290q144 0 219.5 -68t75.5 -192q0 -136 -87.5 -208t-228.5 -72h-269v12l63 53q8 7 8 18v170h-62v42h62v163q0 10 -8 17l-63 54v11zM300 45q154 0 154 230q0 111 -36.5 165.5t-115.5 54.5h-29q-13 0 -13 -12v-188h95v-42h-95v-196q0 -8 2.5 -10t11.5 -2h26z" />
    <glyph glyph-name="egrave.smcp" horiz-adv-x="563" 
d="M414 173h-13l-61 65q-11 11 -27 11h-64v-192q0 -8 3 -10t11 -2h104q15 0 24 13l98 131h13v-189h-474v13l62 52q8 7 8 18v375q0 10 -8 17l-62 52v13h469v-185h-13l-97 127q-9 13 -24 13h-100q-8 0 -11 -2t-3 -10v-190h64q15 0 27 12l61 66h13v-198zM340 603h-15l-208 154
v13h164z" />
    <glyph glyph-name="eacute.smcp" horiz-adv-x="563" 
d="M236 602h-14l59 167h164v-13zM414 173h-13l-61 65q-11 11 -27 11h-64v-192q0 -8 3 -10t11 -2h104q15 0 24 13l98 131h13v-189h-474v13l62 52q8 7 8 18v375q0 10 -8 17l-62 52v13h469v-185h-13l-97 127q-9 13 -24 13h-100q-8 0 -11 -2t-3 -10v-190h64q15 0 27 12l61 66h13
v-198z" />
    <glyph glyph-name="ecircumflex.smcp" horiz-adv-x="563" 
d="M281 662l-147 -61l-7 11l148 172h13l148 -172l-8 -11zM414 173h-13l-61 65q-11 11 -27 11h-64v-192q0 -8 3 -10t11 -2h104q15 0 24 13l98 131h13v-189h-474v13l62 52q8 7 8 18v375q0 10 -8 17l-62 52v13h469v-185h-13l-97 127q-9 13 -24 13h-100q-8 0 -11 -2t-3 -10v-190
h64q15 0 27 12l61 66h13v-198z" />
    <glyph glyph-name="edieresis.smcp" horiz-adv-x="563" 
d="M108 683q0 31 21 51.5t50 20.5t49.5 -20.5t20.5 -51.5q0 -30 -20.5 -50t-49.5 -20t-50 20t-21 50zM315 683q0 31 20.5 51.5t49.5 20.5t49.5 -20.5t20.5 -51.5q0 -30 -20.5 -50t-49.5 -20t-49.5 20t-20.5 50zM414 173h-13l-61 65q-11 11 -27 11h-64v-192q0 -8 3 -10t11 -2
h104q15 0 24 13l98 131h13v-189h-474v13l62 52q8 7 8 18v375q0 10 -8 17l-62 52v13h469v-185h-13l-97 127q-9 13 -24 13h-100q-8 0 -11 -2t-3 -10v-190h64q15 0 27 12l61 66h13v-198z" />
    <glyph glyph-name="ebreve.smcp" horiz-adv-x="563" 
d="M414 173h-13l-61 65q-11 11 -27 11h-64v-192q0 -8 3 -10t11 -2h104q15 0 24 13l98 131h13v-189h-474v13l62 52q8 7 8 18v375q0 10 -8 17l-62 52v13h469v-185h-13l-97 127q-9 13 -24 13h-100q-8 0 -11 -2t-3 -10v-190h64q15 0 27 12l61 66h13v-198zM281 601
q-60 0 -97.5 41.5t-35.5 126.5h13q12 -39 43.5 -59.5t76.5 -20.5t77 20.5t43 59.5h14q2 -85 -36 -126.5t-98 -41.5z" />
    <glyph glyph-name="dotlessj.smcp" horiz-adv-x="315" 
d="M235 458v-393q0 -203 -253 -232l-4 13q107 50 107 197v415q0 9 -8 17l-63 52v13h292v-13l-63 -52q-8 -8 -8 -17z" />
    <glyph glyph-name="ij.smcp" horiz-adv-x="659" 
d="M249 458v-375q0 -11 8 -18l63 -53v-12h-292v12l62 53q8 7 8 18v375q0 10 -8 17l-62 54v11h292v-11l-63 -54q-8 -7 -8 -17zM580 458v-393q0 -203 -254 -232l-3 12q106 50 106 198v415q0 9 -8 17l-63 54v11h292v-11l-63 -54q-7 -7 -7 -17z" />
    <glyph glyph-name="itilde.smcp" horiz-adv-x="348" 
d="M249 458v-375q0 -11 8 -18l63 -52v-13h-292v13l62 52q8 7 8 18v375q0 10 -8 17l-62 52v13h292v-13l-63 -52q-8 -7 -8 -17zM223 610q-23 0 -64 26.5t-59 26.5t-32 -11.5t-34 -39.5h-13q21 138 105 138q22 0 62.5 -27t60.5 -27q17 0 31 11.5t34 40.5h13q-20 -138 -104 -138
z" />
    <glyph glyph-name="imacron.smcp" horiz-adv-x="348" 
d="M317 638h-284v66h284v-66zM249 458v-375q0 -11 8 -18l63 -52v-13h-292v13l62 52q8 7 8 18v375q0 10 -8 17l-62 52v13h292v-13l-63 -52q-8 -7 -8 -17z" />
    <glyph glyph-name="iogonek.smcp" horiz-adv-x="348" 
d="M273 -158l9 -6q-14 -36 -46 -59t-74 -23q-41 0 -69.5 26.5t-28.5 69.5q0 47 36.5 87t105.5 63h-178v13l62 52q8 7 8 18v375q0 10 -8 17l-62 52v13h292v-13l-63 -52q-8 -7 -8 -17v-375q0 -11 8 -18l63 -52v-13h-46q-55 0 -87 -39t-32 -82q0 -30 17 -46t41 -16q35 0 60 25z
" />
    <glyph glyph-name="idotaccent.smcp" horiz-adv-x="348" 
d="M249 458v-375q0 -11 8 -18l63 -52v-13h-292v13l62 52q8 7 8 18v375q0 10 -8 17l-62 52v13h292v-13l-63 -52q-8 -7 -8 -17zM97 694q0 34 22 56t54 22q33 0 55 -22t22 -56q0 -33 -22 -54.5t-55 -21.5q-32 0 -54 21.5t-22 54.5z" />
    <glyph glyph-name="ibreve.smcp" horiz-adv-x="348" 
d="M249 458v-375q0 -11 8 -18l63 -52v-13h-292v13l62 52q8 7 8 18v375q0 10 -8 17l-62 52v13h292v-13l-63 -52q-8 -7 -8 -17zM174 601q-60 0 -97.5 41.5t-35.5 126.5h13q12 -39 43.5 -59.5t76.5 -20.5t77 20.5t43 59.5h14q2 -85 -36 -126.5t-98 -41.5z" />
    <glyph glyph-name="icircumflex.smcp" horiz-adv-x="348" 
d="M174 662l-147 -61l-7 11l148 172h13l148 -172l-8 -11zM249 458v-375q0 -11 8 -18l63 -52v-13h-292v13l62 52q8 7 8 18v375q0 10 -8 17l-62 52v13h292v-13l-63 -52q-8 -7 -8 -17z" />
    <glyph glyph-name="idieresis.smcp" horiz-adv-x="348" 
d="M0 683q0 31 21 51.5t50 20.5t49.5 -20.5t20.5 -51.5q0 -30 -20.5 -50t-49.5 -20t-50 20t-21 50zM207 683q0 31 20.5 51.5t49.5 20.5t49.5 -20.5t20.5 -51.5q0 -30 -20.5 -50t-49.5 -20t-49.5 20t-20.5 50zM249 458v-375q0 -11 8 -18l63 -52v-13h-292v13l62 52q8 7 8 18
v375q0 10 -8 17l-62 52v13h292v-13l-63 -52q-8 -7 -8 -17z" />
    <glyph glyph-name="igrave.smcp" horiz-adv-x="348" 
d="M249 458v-375q0 -11 8 -18l63 -52v-13h-292v13l62 52q8 7 8 18v375q0 10 -8 17l-62 52v13h292v-13l-63 -52q-8 -7 -8 -17zM233 603h-15l-208 154v13h164z" />
    <glyph glyph-name="iacute.smcp" horiz-adv-x="348" 
d="M129 602h-14l59 167h164v-13zM249 458v-375q0 -11 8 -18l63 -52v-13h-292v13l62 52q8 7 8 18v375q0 10 -8 17l-62 52v13h292v-13l-63 -52q-8 -7 -8 -17z" />
    <glyph glyph-name="dotlessi.smcp" horiz-adv-x="348" 
d="M249 458v-375q0 -11 8 -18l63 -52v-13h-292v13l62 52q8 7 8 18v375q0 10 -8 17l-62 52v13h292v-13l-63 -52q-8 -7 -8 -17z" />
    <glyph glyph-name="hcircumflex.smcp" horiz-adv-x="704" 
d="M351 662l-147 -61l-7 11l148 172h13l148 -172l-8 -11zM605 458v-375q0 -11 8 -18l63 -52v-13h-292v13l62 52q9 8 9 18v170h-206v-170q0 -11 8 -18l63 -52v-13h-292v13l62 52q8 7 8 18v375q0 10 -8 17l-62 52v13h292v-13l-63 -52q-8 -7 -8 -17v-159h206v159q0 9 -9 17
l-62 52v13h292v-13l-63 -52q-8 -7 -8 -17z" />
    <glyph glyph-name="hbar.smcp" horiz-adv-x="714" 
d="M669 353h-58v-270q0 -11 7 -18l63 -53v-12h-292v12l62 53q9 8 9 18v137h-206v-137q0 -10 9 -18l62 -53v-12h-292v12l63 53q7 6 7 18v270h-58v43h58v62q0 11 -7 17l-63 54v11h292v-11l-62 -54q-9 -8 -9 -17v-62h206v62q0 9 -9 17l-62 54v11h292v-11l-63 -54q-7 -7 -7 -17
v-62h58v-43zM254 353v-87h206v87h-206z" />
    </font>
</defs>
</svg>
