<?xml version="1.0" standalone="no"?>
<!DOCTYPE svg PUBLIC "-//W3C//DTD SVG 1.1//EN" "http://www.w3.org/Graphics/SVG/1.1/DTD/svg11.dtd" >
<svg xmlns="http://www.w3.org/2000/svg" xmlns:xlink="http://www.w3.org/1999/xlink" version="1.1">
<metadata>
Created by FontForge 20170731 at Thu Aug 27 15:18:38 2015
 By Aleksey,,,
Copyright (c) 2013 Schick Toikka. All rights reserved. Noe Text is a trademark of Schick Toikka. Unauthorised copying or modification of any of its data is illegal.
</metadata>
<defs>
<font id="NoeText-RegularItalic" horiz-adv-x="600" >
  <font-face 
    font-family="Noe Text Regular"
    font-weight="300"
    font-style="italic"
    font-stretch="normal"
    units-per-em="1000"
    panose-1="2 10 4 0 9 4 0 0 0 2"
    ascent="750"
    descent="-250"
    x-height="501"
    cap-height="703"
    bbox="-253 -275 1174 1088"
    underline-thickness="50"
    underline-position="-200"
    slope="-12"
    unicode-range="U+0020-FB02"
  />
<missing-glyph horiz-adv-x="686" 
d="M-3 -250l206 1000h486l-207 -1000h-485zM231 676l-174 -844l263 421zM366 254l89 -423l174 844zM335 198l-254 -406h339zM268 708l84 -399l249 399h-333z" />
    <glyph glyph-name="fi" unicode="fi" horiz-adv-x="627" 
d="M69 489h81q25 118 93.5 189.5t171.5 71.5q69 0 117 -22l-47 -134h-13l-40 106q-4 11 -7.5 13.5t-14.5 2.5q-80 0 -125 -69q-36 -53 -53 -158h109v-42h-116l-66 -384q-21 -124 -72 -207q-62 -101 -168 -101q-61 0 -94 22l51 133h13l31 -99q4 -15 8 -19t14 -4q48 0 86 89
q23 55 41 154l74 416h-74v42zM451 -11q-33 0 -51.5 21.5t-18.5 53.5q0 33 11 77l64 266q4 15 -8 20l-80 37v13l198 24l-86 -341q-12 -48 -12 -75q0 -37 29 -37q28 0 52 34t37 87l12 -1q-14 -78 -50 -128.5t-97 -50.5z" />
    <glyph glyph-name="fl" unicode="fl" horiz-adv-x="592" 
d="M69 489h81q25 119 84.5 190t154.5 71q53 0 103 -42l91 42l-140 -591q-11 -44 -11 -74q2 -37 29 -37q30 0 53 35.5t36 85.5l12 -1q-12 -75 -48.5 -127t-99.5 -52q-33 0 -52 20.5t-19 50.5q0 35 11 81l126 534q-40 42 -95 42q-58 0 -95 -50q-35 -48 -58 -178h129v-42h-136
l-66 -384q-21 -124 -72 -207q-62 -101 -168 -101q-61 0 -94 22l51 133h13l31 -99q4 -15 8 -19t14 -4q48 0 86 89q23 55 41 154l74 416h-74v42z" />
    <glyph glyph-name="f_b" unicode="fb" horiz-adv-x="799" 
d="M69 489h81q25 120 84 190.5t155 70.5q53 0 103 -42l91 42l-102 -417l4 -1q82 169 180 169q43 0 72 -35.5t29 -102.5q0 -86 -29 -160t-72 -119t-89.5 -70t-86.5 -25q-31 0 -51.5 15.5t-26.5 37.5l-70 -42h-12l151 675q-40 42 -95 42q-54 0 -91 -45q-39 -49 -62 -183h129
v-42h-136l-66 -384q-21 -124 -72 -207q-62 -101 -168 -101q-61 0 -94 22l51 133h13l31 -99q4 -15 8 -19t14 -4q48 0 86 89q23 55 41 154l74 416h-74v42zM427 75q5 -43 53 -43q64 0 121 80q33 47 54 114.5t21 135.5q0 82 -48 82q-25 0 -58 -31.5t-64 -94.5q-34 -70 -79 -243z
" />
    <glyph glyph-name="f_k" unicode="fk" horiz-adv-x="795" 
d="M69 489h81q25 119 84.5 190t154.5 71q53 0 103 -42l91 42l-108 -471l191 136q13 9 -2 19l-58 42v13h206v-13l-253 -181l56 -182q11 -36 22 -50.5t30 -14.5q61 0 93 121l12 -1q-13 -85 -52.5 -132t-92.5 -47q-40 0 -60 24.5t-36 84.5l-37 138q-6 24 -23 26l-60 -262h-82
l151 675q-40 42 -95 42q-57 0 -93 -47q-37 -48 -60 -181h129v-42h-136l-66 -384q-21 -124 -72 -207q-62 -101 -168 -101q-61 0 -94 22l51 133h13l31 -99q4 -15 8 -19t14 -4q48 0 86 89q23 55 41 154l74 416h-74v42z" />
    <glyph glyph-name="f_h" unicode="fh" horiz-adv-x="843" 
d="M69 489h81q25 120 84 190.5t155 70.5q53 0 103 -42l91 42l-105 -422l4 -1q36 82 92.5 128t117.5 46q39 0 60.5 -22t21.5 -59q0 -28 -25 -113l-50 -158q-17 -53 -17 -72q0 -29 24 -29q30 0 53 35.5t36 85.5l12 -1q-11 -73 -48.5 -126t-100.5 -53q-32 0 -50 18t-18 53
q0 28 26 108l51 159q18 56 18 82q0 34 -39 34q-26 0 -59.5 -21t-60.5 -66q-35 -56 -55.5 -121t-59.5 -235h-82l151 675q-40 42 -95 42q-62 0 -99 -56q-33 -51 -54 -172h129v-42h-136l-66 -384q-21 -124 -72 -207q-62 -101 -168 -101q-61 0 -94 22l51 133h13l31 -99
q4 -15 8 -19t14 -4q48 0 86 89q23 55 41 154l74 416h-74v42z" />
    <glyph glyph-name="f_j" unicode="fj" horiz-adv-x="595" 
d="M381 10l74 398q1 10 0 13t-9 7l-78 36v13l197 24l-90 -433q-31 -153 -82 -224q-62 -89 -162 -89q-59 0 -90 22l51 134h13l30 -97q5 -17 9 -21.5t14 -4.5q44 0 75 64.5t48 157.5zM69 489h81q25 118 93.5 189.5t171.5 71.5q69 0 117 -22l-47 -134h-13l-40 106
q-3 10 -6.5 13t-15.5 3q-79 0 -124 -68q-35 -52 -54 -159h109v-42h-116l-66 -384q-21 -124 -72 -207q-62 -101 -168 -101q-61 0 -94 22l51 133h13l31 -99q4 -15 8 -19t14 -4q48 0 86 89q23 55 41 154l74 416h-74v42z" />
    <glyph glyph-name="g_j" unicode="gj" horiz-adv-x="780" 
d="M73 320q0 80 61.5 130.5t138.5 50.5q66 0 117 -37q8 -6 17 3l119 115h12l-29 -147h-94q15 -14 26 -41t11 -52q0 -84 -60 -134t-150 -50q-41 0 -79 19q-33 -21 -33 -50q0 -19 16 -29t47 -17l89 -13q137 -20 137 -131q0 -82 -80 -135q27 -15 65 -15q32 0 57.5 14t42 34.5
t29.5 52.5t19.5 59t13.5 63l74 398q1 10 0 13t-9 7l-78 36v13l197 24l-97 -465q-59 -281 -253 -281q-46 0 -90 30q-62 -30 -128 -30q-85 0 -150 38.5t-65 96.5q0 48 39.5 80t102.5 45q-55 23 -55 78q0 30 26 55t64 40q-71 49 -71 132zM143 6l-5 1q-86 -32 -86 -111
q0 -44 38 -73.5t97 -29.5q66 0 110 29.5t44 83.5q0 70 -107 86zM275 464q-44 0 -80.5 -44.5t-36.5 -108.5q0 -54 23 -86t63 -32q47 0 83.5 44.5t36.5 113.5q0 48 -23 80.5t-66 32.5zM729 599q-28 0 -45 17t-17 44q0 31 17.5 50t45.5 19q29 0 46 -16.5t17 -43.5
q0 -30 -18.5 -50t-45.5 -20z" />
    <glyph glyph-name="q_j" unicode="qj" horiz-adv-x="767" 
d="M307 501q68 0 80 -59l74 57h12l-152 -700q44 -12 80 -12q37 0 64.5 19t44.5 55.5t25.5 68.5t17.5 80l74 398q1 10 0 13t-9 7l-78 36v13l197 24l-97 -465q-58 -280 -243 -280q-19 0 -53 4.5t-51 4.5h-153v13l92 44q8 4 11 7.5t5 12.5l73 320l-4 2q-82 -175 -181 -175
q-46 0 -74.5 39.5t-28.5 112.5q0 146 89.5 253t184.5 107zM172 46q26 0 56 27t56 79q53 104 85 252q-5 54 -55 54q-64 0 -128 -98t-64 -220q0 -94 50 -94zM716 599q-28 0 -45 17t-17 44q0 31 17.5 50t45.5 19q29 0 46 -16.5t17 -43.5q0 -30 -18.5 -50t-45.5 -20z" />
    <glyph glyph-name="g_f" unicode="gf" horiz-adv-x="820" 
d="M570 489h81q25 119 80 190t140 71q64 0 109 -22l-51 -134h-13l-33 104q-3 10 -7 13t-15 3q-28 0 -49.5 -18t-36 -51.5t-24 -68.5t-17.5 -81l-1 -6h129v-42h-136l-66 -384q-21 -124 -72 -207q-62 -101 -168 -101q-66 0 -110 30q-62 -30 -128 -30q-85 0 -150 38.5t-65 96.5
q0 48 39.5 80t102.5 45q-55 23 -55 78q0 30 26 55t64 40q-71 49 -71 132q0 80 61.5 130.5t138.5 50.5q66 0 117 -37q8 -6 17 3l119 115h12l-29 -147h-94q15 -14 26 -41t11 -52q0 -84 -60 -134t-150 -50q-41 0 -79 19q-33 -21 -33 -50q0 -19 16 -29t47 -17l89 -13
q137 -20 137 -131q0 -80 -78 -134q30 -15 71 -15q36 0 67.5 24t49.5 65q23 55 41 154l74 416h-74v42zM143 6q-4 0 -5 1q-86 -32 -86 -111q0 -44 38 -73.5t97 -29.5q66 0 110 29.5t44 83.5q0 70 -107 86zM275 464q-44 0 -80.5 -44.5t-36.5 -108.5q0 -54 23 -86t63 -32
q47 0 83.5 44.5t36.5 113.5q0 48 -23 80.5t-66 32.5z" />
    <glyph glyph-name="q_f" unicode="qf" horiz-adv-x="807" 
d="M556 489h81q25 119 80 190t140 71q64 0 109 -22l-51 -134h-13l-33 104q-3 10 -7 13t-15 3q-45 0 -76 -51q-29 -48 -52 -174h129v-42h-136l-66 -384q-21 -124 -72 -207q-62 -101 -168 -101q-23 0 -59 5t-54 5h-153v13l92 44q8 4 11 7.5t5 12.5l73 320l-4 2
q-82 -175 -181 -175q-46 0 -74.5 39.5t-28.5 112.5q0 146 89.5 253t184.5 107q68 0 80 -59l74 57h12l-152 -702q35 -9 74 -9q36 0 69 24t51 65q23 55 41 154l74 416h-74v42zM172 46q26 0 56 27t56 79q53 104 85 252q-5 54 -55 54q-64 0 -128 -98t-64 -220q0 -94 50 -94z" />
    <glyph glyph-name=".notdef" horiz-adv-x="686" 
d="M-3 -250l206 1000h486l-207 -1000h-485zM231 676l-174 -844l263 421zM366 254l89 -423l174 844zM335 198l-254 -406h339zM268 708l84 -399l249 399h-333z" />
    <glyph glyph-name=".null" horiz-adv-x="0" 
 />
    <glyph glyph-name="nonmarkingreturn" horiz-adv-x="333" 
 />
    <glyph glyph-name="space" unicode=" " horiz-adv-x="195" 
 />
    <glyph glyph-name="exclam" unicode="!" horiz-adv-x="286" 
d="M124 184l47 519h139l-174 -519h-12zM109 131q28 0 46 -16.5t18 -42.5q0 -35 -21.5 -57.5t-51.5 -22.5q-28 0 -46 16.5t-18 42.5q0 35 21.5 57.5t51.5 22.5z" />
    <glyph glyph-name="quotedbl" unicode="&#x22;" horiz-adv-x="391" 
d="M204 750q20 0 33 -14.5t13 -33.5q0 -21 -7 -36l-81 -172h-11l-10 154q-1 12 -1 25q0 31 17.5 54t46.5 23zM377 750q20 0 33 -14.5t13 -33.5q0 -21 -7 -36l-81 -172h-11l-10 154q-1 12 -1 25q0 31 17.5 54t46.5 23z" />
    <glyph glyph-name="numbersign" unicode="#" 
d="M535 181h-138l-37 -181h-44l37 181h-136l-37 -181h-44l37 181h-128v44h137l43 205h-128v44h137l37 179h44l-37 -179h136l37 179h44l-37 -179h129v-44h-138l-43 -205h129v-44zM269 430l-43 -205h136l43 205h-136z" />
    <glyph glyph-name="dollar" unicode="$" horiz-adv-x="521" 
d="M60 206h13l42 -151q5 -18 20 -22q38 -12 68 -12l54 274l-31 17q-113 61 -113 164q0 76 58.5 129.5t158.5 57.5l15 73h39l-15 -73q83 -3 149 -25l-44 -172h-13l-43 140q-4 12 -19 15q-14 3 -37 5l-51 -254l50 -27q110 -60 110 -160q0 -80 -67.5 -136t-168.5 -63l-15 -74
h-39l15 73q-100 3 -181 41zM242 23q56 10 95 50t39 96q0 63 -84 107zM198 500q0 -64 78 -109l46 234q-56 -6 -90 -41t-34 -84z" />
    <glyph glyph-name="percent" unicode="%" horiz-adv-x="762" 
d="M63 471q0 100 55 170t132 70q55 0 88 -34t33 -100q0 -100 -54.5 -169.5t-132.5 -69.5q-55 0 -88 33.5t-33 99.5zM140 448q0 -79 44 -79t76.5 77t32.5 157q0 78 -43 78q-44 0 -77 -77t-33 -156zM414 125q0 100 55 170t132 70q55 0 88 -34t33 -100q0 -100 -54.5 -169.5
t-132.5 -69.5q-55 0 -88 33.5t-33 99.5zM491 102q0 -79 44 -79t76.5 77t32.5 157q0 78 -43 78q-44 0 -77 -77t-33 -156zM713 693l-598 -708l-28 27l597 706z" />
    <glyph glyph-name="ampersand" unicode="&#x26;" horiz-adv-x="676" 
d="M376 357l209 129q28 17 28 47q0 33 -55 43v12q53 7 94 -11.5t41 -58.5q0 -25 -16 -43.5t-49 -40.5l-116 -75q45 -1 74 -37t29 -90q0 -101 -85.5 -174t-205.5 -73q-126 0 -199.5 62.5t-73.5 159.5q0 67 44 119.5t125 75.5q-90 42 -90 133q0 74 61.5 128.5t153.5 54.5
q71 0 129 -24l-48 -123h-12l-43 94q-5 10 -8.5 12.5t-13.5 2.5q-58 0 -93.5 -47.5t-35.5 -104.5q0 -68 62 -123v-12q-65 -11 -102.5 -53t-37.5 -106q0 -77 52 -128.5t146 -51.5q103 0 166.5 58t63.5 137q0 40 -21 64.5t-49 24.5q-27 0 -63 -25l-32 -22q-22 -16 -22 -35
q0 -34 60 -42v-12q-47 -12 -93.5 7t-46.5 58q0 29 17 47t56 43z" />
    <glyph glyph-name="quotesingle" unicode="'" horiz-adv-x="217" 
d="M204 750q20 0 33 -14.5t13 -33.5q0 -21 -7 -36l-81 -172h-11l-10 154q-1 12 -1 25q0 31 17.5 54t46.5 23z" />
    <glyph glyph-name="parenleft" unicode="(" horiz-adv-x="376" 
d="M250 -137l-11 -13q-154 91 -154 338q0 185 92.5 343t250.5 229l5 -13q-122 -91 -196.5 -258t-74.5 -337q0 -179 88 -289z" />
    <glyph glyph-name="parenright" unicode=")" horiz-adv-x="376" 
d="M143 747l11 13q154 -91 154 -338q0 -185 -92.5 -343t-250.5 -229l-5 13q122 91 196.5 258t74.5 337q0 179 -88 289z" />
    <glyph glyph-name="asterisk" unicode="*" horiz-adv-x="439" 
d="M69 511l50 93l137 -94l-9 180h105l-82 -180l176 98l12 -99l-186 -12l118 -117l-87 -60l-43 171l-96 -171l-80 59l165 118z" />
    <glyph glyph-name="plus" unicode="+" 
d="M274 22v195h-194v50h194v195h52v-195h194v-50h-194v-195h-52z" />
    <glyph glyph-name="comma" unicode="," horiz-adv-x="270" 
d="M-20 -147l-3 10q45 22 78 59t33 70q0 10 -12 14q-40 12 -40 57q0 29 19 48.5t48 19.5q28 0 45 -19t17 -53q0 -66 -58 -128.5t-127 -77.5z" />
    <glyph glyph-name="hyphen" unicode="-" horiz-adv-x="315" 
d="M37 217v59h237v-59h-237z" />
    <glyph glyph-name="period" unicode="." horiz-adv-x="270" 
d="M100 131q28 0 46 -16.5t18 -42.5q0 -35 -21.5 -57.5t-51.5 -22.5q-28 0 -46 16.5t-18 42.5q0 35 21.5 57.5t51.5 22.5z" />
    <glyph glyph-name="slash" unicode="/" horiz-adv-x="390" 
d="M461 728l-477 -885l-40 22l478 885z" />
    <glyph glyph-name="zero" unicode="0" horiz-adv-x="578" 
d="M325 517q90 0 145.5 -58t55.5 -151q0 -143 -81 -231.5t-192 -88.5q-90 0 -145.5 58t-55.5 151q0 143 81 231.5t192 88.5zM325 477q-75 0 -125 -80.5t-50 -200.5q0 -81 26 -124.5t77 -43.5q75 0 125 80.5t50 200.5q0 81 -26 124.5t-77 43.5z" />
    <glyph glyph-name="one" unicode="1" horiz-adv-x="401" 
d="M315 12v-12h-300v12l101 45q14 6 17 20l67 332q3 14 -10 18l-92 32v12l214 46l-89 -440q-3 -14 9 -20z" />
    <glyph glyph-name="two" unicode="2" horiz-adv-x="493" 
d="M352 91l70 76h12l-48 -167h-394v15q16 13 101 81q53 41 86.5 69.5t75 70t62.5 81t21 76.5q0 84 -84 85q-20 0 -33 -3q-9 -2 -17 -12l-89 -119h-11l-7 133q93 40 177 40q78 0 118.5 -37t40.5 -95q0 -36 -17.5 -71.5t-42.5 -62t-64 -55.5t-68.5 -46.5t-71 -41.5t-57.5 -34
h204h8t6 0.5t4 1t3.5 2t3.5 3t4.5 5t6.5 5.5z" />
    <glyph glyph-name="three" unicode="3" horiz-adv-x="466" 
d="M-65 -160v20q32 3 73.5 14t89.5 32t88 48t66.5 66.5t26.5 82.5q0 40 -26 63t-67 23q-27 0 -51 -5v20q89 20 134 73.5t45 107.5q0 45 -22 69t-57 24q-23 0 -36 -3q-9 -2 -17 -12l-88 -119h-12l-7 134q86 39 180 39q69 0 112.5 -37.5t43.5 -98.5q0 -102 -150 -157
q51 -7 82.5 -38.5t31.5 -89.5q0 -61 -45 -111.5t-113 -81t-141 -47t-137 -16.5h-4z" />
    <glyph glyph-name="four" unicode="4" horiz-adv-x="498" 
d="M216 -148l36 177h-272v12l388 464h60l-89 -436h94l-8 -40h-94l-36 -177h-79zM58 69h202l65 323z" />
    <glyph glyph-name="five" unicode="5" horiz-adv-x="458" 
d="M-57 -160h-3v20q80 11 155 40.5t132 84t57 121.5q0 46 -27.5 75t-75.5 29q-50 0 -106 -29h-12l71 321q3 0 92.5 -0.5t120.5 -0.5q29 0 43 6t30 24l26 29h12l-33 -85q-11 -30 -23 -41t-35 -11q-14 0 -107 0.5t-97 0.5l-45 -196q19 12 53.5 22.5t64.5 10.5q69 0 107.5 -41
t38.5 -102q0 -75 -48.5 -132.5t-121.5 -87t-142 -44t-127 -14.5z" />
    <glyph glyph-name="six" unicode="6" horiz-adv-x="539" 
d="M248 -12q-94 0 -147 66t-53 172q0 133 66.5 234.5t174.5 152.5t239 51q4 0 14 -0.5t14 -0.5l-1 -20q-148 -12 -239 -75q-83 -59 -127 -152.5t-44 -208.5q0 -85 30.5 -132.5t80.5 -47.5q53 0 91 55t38 145q0 60 -27.5 97.5t-72.5 37.5q-30 0 -67 -23l-7 9q49 62 129 62
q61 0 103.5 -48.5t42.5 -124.5q0 -112 -67 -180.5t-171 -68.5z" />
    <glyph glyph-name="seven" unicode="7" horiz-adv-x="463" 
d="M135 -148h-106v12q136 220 369 561h-221q-15 0 -20 -2t-16 -14l-72 -72h-12l49 168h394v-12l-54 -50q-17 -15 -24 -28q-101 -181 -287 -563z" />
    <glyph glyph-name="eight" unicode="8" horiz-adv-x="529" 
d="M232 -12q-91 0 -143.5 41.5t-52.5 105.5q0 116 184 188l-33 25q-63 47 -63 126q0 87 63.5 137.5t148.5 50.5q72 0 118.5 -40.5t46.5 -101.5q0 -62 -50.5 -103t-123.5 -64l42 -30q87 -63 87 -147q0 -81 -68.5 -134.5t-155.5 -53.5zM300 263l-61 45q-117 -64 -117 -165
q0 -51 30 -85t80 -34q51 0 90 38.5t39 95.5q0 34 -14.5 57.5t-46.5 47.5zM211 506q0 -67 54 -107l44 -32q56 33 83.5 68.5t27.5 90.5q0 45 -24.5 72t-69.5 27q-47 0 -81 -32.5t-34 -86.5z" />
    <glyph glyph-name="nine" unicode="9" horiz-adv-x="539" 
d="M7 -159q-4 0 -13.5 0.5t-14.5 0.5l1 20q148 12 239 75q83 59 127 152.5t44 208.5q0 85 -30.5 132.5t-80.5 47.5q-53 0 -91 -55t-38 -145q0 -60 27.5 -97.5t72.5 -37.5q30 0 67 23l7 -9q-49 -62 -129 -62q-61 0 -103.5 48.5t-42.5 124.5q0 112 67 180.5t171 68.5
q94 0 147 -66t53 -172q0 -133 -66.5 -234.5t-174.5 -152.5t-239 -51z" />
    <glyph glyph-name="colon" unicode=":" horiz-adv-x="286" 
d="M108 131q28 0 46 -16.5t18 -42.5q0 -35 -21.5 -57.5t-51.5 -22.5q-28 0 -46 16.5t-18 42.5q0 35 21.5 57.5t51.5 22.5zM172 442q28 0 46 -16.5t18 -42.5q0 -35 -21.5 -57.5t-51.5 -22.5q-28 0 -46 16.5t-18 42.5q0 35 21.5 57.5t51.5 22.5z" />
    <glyph glyph-name="semicolon" unicode=";" horiz-adv-x="286" 
d="M172 442q28 0 46 -16.5t18 -42.5q0 -35 -21.5 -57.5t-51.5 -22.5q-28 0 -46 16.5t-18 42.5q0 35 21.5 57.5t51.5 22.5zM-12 -147l-3 10q45 22 78 59t33 70q0 10 -12 14q-40 12 -40 57q0 29 19 48.5t48 19.5q28 0 45 -19t17 -53q0 -66 -58 -128.5t-127 -77.5z" />
    <glyph glyph-name="less" unicode="&#x3c;" 
d="M187 244v-2l307 -140l-18 -46l-396 181v12l396 181l18 -46z" />
    <glyph glyph-name="equal" unicode="=" 
d="M520 306h-440v50h440v-50zM520 131h-440v50h440v-50z" />
    <glyph glyph-name="greater" unicode="&#x3e;" 
d="M413 242v2l-307 140l18 46l396 -181v-12l-396 -181l-18 46z" />
    <glyph glyph-name="question" unicode="?" horiz-adv-x="420" 
d="M143 131q28 0 46 -16.5t18 -42.5q0 -35 -21.5 -57.5t-51.5 -22.5q-28 0 -46 16.5t-18 42.5q0 35 21.5 57.5t51.5 22.5zM164 215q-15 22 -15 46q0 36 18 61.5t66 63.5l57 45q36 28 61 70t25 85q0 41 -24 67.5t-68 26.5q-33 0 -49 -4q-14 -4 -24 -19l-78 -116h-12l-23 129
q101 48 193 48q81 0 129.5 -41.5t48.5 -108.5q0 -45 -30 -92t-73 -78l-115 -86q-28 -21 -51 -48.5t-24 -48.5h-12z" />
    <glyph glyph-name="at" unicode="@" horiz-adv-x="1032" 
d="M653 442l78 57h11l-80 -322q-8 -34 -8 -72q0 -35 16 -57.5t47 -22.5q65 0 119.5 88t54.5 209q0 154 -90 243.5t-237 89.5q-173 0 -296 -138t-123 -335q0 -90 30 -162t82 -117t118.5 -68.5t141.5 -23.5q136 0 235 71l8 -9q-41 -54 -111.5 -84.5t-162.5 -30.5
q-184 0 -305 112.5t-121 310.5q0 147 69 265.5t186.5 183.5t258.5 65q178 0 289 -99.5t111 -260.5q0 -145 -86 -245.5t-189 -100.5q-67 0 -100.5 41.5t-17.5 130.5l-5 2q-74 -174 -179 -174q-46 0 -74.5 39.5t-28.5 112.5q0 146 91 253t188 107q69 0 80 -59zM548 157
q49 96 87 247q-5 54 -55 54q-66 0 -131.5 -98t-65.5 -220q0 -94 50 -94q58 0 115 111z" />
    <glyph glyph-name="A" unicode="A" horiz-adv-x="659" 
d="M-46 0v14l91 57q20 13 31 32l280 499q8 14 3 25l-27 65v11h112l104 -623q3 -16 16 -26l52 -40v-14h-254v14l85 49q11 6 9 19l-21 134h-247l-66 -119q-6 -10 -5.5 -15t9.5 -12l76 -56v-14h-248zM383 562l-172 -306h218z" />
    <glyph glyph-name="B" unicode="B" horiz-adv-x="628" 
d="M-12 0v14l93 46q13 6 15 20l111 543q2 14 -7 20l-83 46v14h277q94 0 149 -40t55 -115q0 -69 -50 -119.5t-121 -58.5q63 -12 100.5 -53t37.5 -95q0 -113 -88 -167.5t-222 -54.5h-267zM274 40q87 0 137 49t50 127q0 123 -140 123h-79l-58 -285q-2 -9 0 -11.5t10 -2.5h80z
M306 649l-56 -272h89q62 0 109 46t47 124q0 54 -30.5 85t-79.5 31h-63q-14 0 -16 -14z" />
    <glyph glyph-name="C" unicode="C" horiz-adv-x="623" 
d="M506 10q-83 -25 -181 -25q-119 0 -188.5 80t-69.5 215q0 187 113 312.5t268 125.5q99 0 192 -25l-40 -199h-13l-55 158q-4 11 -7 14.5t-13 5.5q-23 5 -64 5q-114 0 -194.5 -121.5t-80.5 -283.5q0 -101 42 -174.5t118 -73.5q30 0 47 4q17 3 28 17l128 165h13z" />
    <glyph glyph-name="D" unicode="D" horiz-adv-x="689" 
d="M-12 0v14l93 46q13 6 15 20l110 543q2 14 -7 20l-83 46v14h283q129 0 201 -77t72 -216q0 -173 -119.5 -291.5t-270.5 -118.5h-294zM264 40q53 0 106 25.5t97 72.5t71.5 121t27.5 162q0 121 -55.5 181.5t-151.5 60.5h-38q-14 0 -16 -14l-121 -595q-2 -9 0 -11.5t10 -2.5
h70z" />
    <glyph glyph-name="E" unicode="E" horiz-adv-x="604" 
d="M435 240h-12l-40 81q-4 8 -7.5 10t-13.5 2h-122l-57 -279q-2 -9 0 -11.5t10 -2.5h184q15 0 26 13l116 138h13l-39 -191h-506v14l93 46q13 6 15 20l112 543q2 14 -7 20l-83 46v14h507l-40 -193h-13l-48 140q-4 9 -6.5 11t-12.5 2h-182q-14 0 -16 -14l-57 -276h121
q14 0 26 12l73 80h12z" />
    <glyph glyph-name="F" unicode="F" horiz-adv-x="565" 
d="M437 240h-12l-40 81q-4 8 -7.5 10t-13.5 2h-124l-50 -245q-3 -15 7 -20l116 -54v-14h-326v14l93 46q13 6 15 20l112 543q2 14 -7 20l-83 46v14h509l-40 -193h-13l-48 140q-4 9 -6.5 11t-12.5 2h-184q-14 0 -16 -14l-57 -276h123q14 0 26 12l73 80h12z" />
    <glyph glyph-name="G" unicode="G" horiz-adv-x="677" 
d="M577 231l-50 -246l-88 21q-53 -21 -123 -21q-107 0 -178 78.5t-71 215.5q0 195 115.5 316.5t281.5 121.5q93 0 204 -29l-40 -195h-13l-54 159q-5 12 -8 15t-12 4q-32 6 -71 6q-130 0 -213.5 -118.5t-83.5 -281.5q0 -110 43 -180.5t131 -70.5q46 0 84 13q11 4 13.5 6.5
t3.5 11.5l36 174q2 14 -7 20l-76 45v14h280v-14l-89 -45q-13 -6 -15 -20z" />
    <glyph glyph-name="H" unicode="H" horiz-adv-x="751" 
d="M698 623l-111 -543q-4 -12 7 -20l83 -46v-14h-292v14l93 46q13 6 15 20l52 258h-304l-52 -258q-2 -14 7 -20l83 -46v-14h-292v14l93 46q13 6 15 20l111 543q2 14 -7 20l-83 46v14h292v-14l-93 -46q-13 -6 -15 -20l-50 -243h304l50 243q2 14 -7 20l-83 46v14h292v-14
l-93 -46q-13 -6 -15 -20z" />
    <glyph glyph-name="I" unicode="I" horiz-adv-x="353" 
d="M300 623l-111 -543q-2 -14 7 -20l83 -46v-14h-292v14l93 46q13 6 15 20l111 543q2 14 -7 20l-83 46v14h292v-14l-93 -46q-13 -6 -15 -20z" />
    <glyph glyph-name="J" unicode="J" horiz-adv-x="318" 
d="M63 9l124 612q2 14 -8 20l-82 48v14h292v-14l-94 -46q-12 -6 -14 -20l-120 -592q-21 -104 -83.5 -163t-172.5 -83l-2 13q128 51 160 211z" />
    <glyph glyph-name="K" unicode="K" horiz-adv-x="645" 
d="M546 644l-46 45v14h259l-1 -14l-110 -53q-42 -20 -64 -38l-240 -207l156 -304q5 -8 9 -13t9 -8t17 -10l78 -44v-12h-175l-191 365l-58 -285q-2 -14 7 -20l83 -46v-14h-292v14l93 46q13 6 15 20l111 543q2 14 -7 20l-83 46v14h292v-14l-93 -46q-13 -6 -15 -20l-53 -257
l294 251q17 15 5 27z" />
    <glyph glyph-name="L" unicode="L" horiz-adv-x="548" 
d="M409 703v-14l-93 -46q-13 -6 -15 -20l-117 -569q-2 -9 0 -11.5t10 -2.5h163q15 0 26 13l117 146h13l-44 -199h-481v14l93 46q13 6 15 20l111 543q2 14 -7 20l-83 46v14h292z" />
    <glyph glyph-name="M" unicode="M" horiz-adv-x="896" 
d="M951 703v-14l-93 -46q-14 -6 -15 -20l-111 -545q-4 -13 7 -20l85 -44v-14h-293v14l94 45q13 6 15 20l104 513l-352 -592h-21l-123 595l-99 -492q-2 -13 6 -20l81 -69v-14h-250v14l100 67q14 9 16 21l105 519q3 16 -7 21l-83 47v14h205l112 -548l326 548h191z" />
    <glyph glyph-name="N" unicode="N" horiz-adv-x="717" 
d="M103 105l104 511q4 19 -11 27l-73 46v14h165l248 -532l88 429q2 13 -7 21l-77 68v14h246v-14l-101 -68q-13 -8 -15 -23l-121 -598h-32l-271 580l-97 -477q-2 -13 7 -21l77 -68v-14h-246v14l101 68q13 8 15 23z" />
    <glyph glyph-name="O" unicode="O" horiz-adv-x="694" 
d="M313 -15q-116 0 -182 78t-66 213q0 180 109 311t255 131q116 0 182 -78t66 -213q0 -180 -109 -311t-255 -131zM430 678q-73 0 -133.5 -65t-92.5 -161.5t-32 -196.5q0 -230 140 -230q73 0 133.5 65t92.5 161.5t32 196.5q0 230 -140 230z" />
    <glyph glyph-name="P" unicode="P" 
d="M317 263h-90l-36 -181q-3 -16 7 -20l109 -48v-14h-320v14l93 46q14 7 16 20l111 543q2 14 -7 20l-83 46v14h293q99 0 151.5 -47t52.5 -130q0 -119 -89 -191t-208 -72zM306 649l-71 -346h93q72 0 126.5 62t54.5 165q0 133 -126 133h-61q-14 0 -16 -14z" />
    <glyph glyph-name="Q" unicode="Q" horiz-adv-x="694" 
d="M313 -15q-38 0 -76 10l-74 -56l176 -70q52 -20 117 -20q60 0 105 37l53 43l10 -8l-45 -63q-67 -94 -162 -94q-59 0 -133 31l-167 71q-40 17 -80 8l-3 13l165 122q-65 32 -99.5 101t-34.5 166q0 180 109 311t255 131q116 0 182 -78t66 -213q0 -180 -109 -311t-255 -131z
M430 678q-73 0 -133.5 -65t-92.5 -161.5t-32 -196.5q0 -230 140 -230q73 0 133.5 65t92.5 161.5t32 196.5q0 230 -140 230z" />
    <glyph glyph-name="R" unicode="R" horiz-adv-x="639" 
d="M-13 0v14l93 46q14 7 16 20l112 543q2 14 -7 20l-83 46v14h293q98 0 150.5 -43t52.5 -126q0 -78 -53.5 -131.5t-134.5 -69.5l82 -249q4 -15 31 -32l56 -40v-12h-156l-102 305q-3 8 -6.5 9.5t-14.5 1.5h-78l-49 -238q-2 -15 7 -20l84 -44v-14h-293zM307 649l-61 -295h93
q69 0 120 49t51 136q0 124 -122 124h-65q-14 0 -16 -14z" />
    <glyph glyph-name="S" unicode="S" horiz-adv-x="524" 
d="M208 -15q-113 0 -192 41l44 188h13l42 -158q3 -11 6.5 -15t12.5 -7q33 -11 71 -11q75 0 125 44t50 107q0 75 -77 118l-79 45q-110 63 -110 173q0 88 66.5 148t185.5 60q84 0 158 -27l-44 -180h-13l-42 148q-3 12 -15 15q-27 6 -55 6q-69 0 -110.5 -40.5t-41.5 -99.5
q0 -76 80 -121l80 -45q115 -65 115 -168q0 -94 -78 -157.5t-192 -63.5z" />
    <glyph glyph-name="T" unicode="T" horiz-adv-x="587" 
d="M422 663l-118 -583q-3 -13 7 -20l83 -46v-14h-292v14l93 46q13 6 15 20l118 583h-102q-11 0 -16 -2t-14 -13l-112 -138h-13l39 193h545l-40 -193h-13l-50 138q-4 11 -7.5 13t-14.5 2h-108z" />
    <glyph glyph-name="U" unicode="U" horiz-adv-x="683" 
d="M535 252l75 350q3 12 -7 21l-78 66v14h246v-14l-100 -66q-13 -8 -15 -23l-74 -350q-27 -129 -88.5 -197t-180.5 -68q-57 0 -99 17t-64 45t-32.5 57t-10.5 59q0 64 13 129l68 331q2 14 -7 20l-76 46v14h286v-14l-94 -46q-13 -6 -15 -20l-66 -320q-12 -58 -12 -112
q0 -64 34 -111t100 -47q75 0 124 51.5t73 167.5z" />
    <glyph glyph-name="V" unicode="V" horiz-adv-x="635" 
d="M619 606l-336 -606h-38l-96 623q-2 15 -15 25l-52 41v14h259v-14l-92 -49q-9 -6 -8 -18l71 -480l256 466q5 9 4 13.5t-9 11.5l-76 56v14h251v-14l-89 -54q-20 -12 -30 -29z" />
    <glyph glyph-name="W" unicode="W" horiz-adv-x="951" 
d="M245 0l-96 623q-2 15 -15 25l-52 41v14h259v-14l-92 -49q-10 -6 -8 -18l70 -479l198 378l-12 104q-2 12 -4.5 15.5t-10.5 9.5l-50 39v14h248v-14l-85 -44q-9 -5 -8 -18l52 -482l247 463q5 9 4 13.5t-9 11.5l-76 56v14h251v-14l-89 -54q-20 -12 -30 -29l-329 -606h-37
l-53 446l-235 -446h-38z" />
    <glyph glyph-name="X" unicode="X" horiz-adv-x="661" 
d="M-39 0v14l100 53q27 14 43 34l206 244l-117 269q-13 25 -30 36l-60 39v14h256v-14l-66 -34q-15 -7 -7 -23l91 -209l166 189q13 15 1 27l-54 50v14h246v-14l-100 -53q-24 -12 -43 -34l-197 -224l127 -289q11 -24 30 -36l60 -39v-14h-256v14l68 35q13 7 6 21l-101 230
l-176 -209q-13 -15 -1 -27l54 -50v-14h-246z" />
    <glyph glyph-name="Y" unicode="Y" horiz-adv-x="621" 
d="M118 0v14l94 46q13 6 15 20l35 174q4 20 -3 40l-104 322q-7 22 -19 33l-49 40v14h261v-14l-90 -47q-12 -7 -7 -19l93 -299l208 288q11 15 -5 25l-76 52v14h250v-14l-87 -53q-22 -14 -30 -26l-232 -321q-13 -19 -17 -39l-35 -172q-3 -13 8 -20l83 -44v-14h-293z" />
    <glyph glyph-name="Z" unicode="Z" horiz-adv-x="545" 
d="M452 0h-469v9l502 654h-228q-15 0 -25 -13l-111 -150h-13l42 203h467v-9l-502 -654h230q14 0 25 13l122 158h13z" />
    <glyph glyph-name="bracketleft" unicode="[" horiz-adv-x="376" 
d="M41 -154l190 919l203 -6v-12l-132 -36q-17 -4 -18 -19l-160 -772q-5 -15 10 -19l116 -36v-12z" />
    <glyph glyph-name="backslash" unicode="\" horiz-adv-x="390" 
d="M239 -150l-118 885l47 6l118 -885z" />
    <glyph glyph-name="bracketright" unicode="]" horiz-adv-x="376" 
d="M351 765l-190 -919l-203 6v12l132 36q17 4 18 19l160 772q5 15 -10 19l-116 36v12z" />
    <glyph glyph-name="asciicircum" unicode="^" horiz-adv-x="539" 
d="M285 629h-2l-148 -323l-46 19l189 411h12l190 -412l-46 -19z" />
    <glyph glyph-name="underscore" unicode="_" horiz-adv-x="500" 
d="M417 -101h-469v50h469v-50z" />
    <glyph glyph-name="grave" unicode="`" horiz-adv-x="299" 
d="M309 570h-14l-145 142v12h121z" />
    <glyph glyph-name="a" unicode="a" horiz-adv-x="539" 
d="M392 442l78 57h11l-93 -375q-8 -32 -8 -48q0 -28 23 -28q28 0 53.5 33.5t38.5 87.5l12 -1q-10 -71 -47 -125t-92 -54q-32 0 -51 20t-19 52q0 44 21 100l-4 2q-74 -174 -177 -174q-48 0 -76.5 39.5t-28.5 112.5q0 146 91 253t188 107q69 0 80 -59zM174 46q26 0 56 29.5
t57 81.5q49 96 87 247q-5 54 -55 54q-66 0 -131.5 -98t-65.5 -220q0 -94 52 -94z" />
    <glyph glyph-name="b" unicode="b" horiz-adv-x="502" 
d="M163 666l-56 39v12l171 33l-96 -417l4 -1q82 169 178 169q46 0 75 -37.5t29 -114.5q0 -79 -27.5 -149t-69 -115t-89 -70.5t-90.5 -25.5q-31 0 -52 15.5t-27 36.5l-75 -53h-12l142 657q3 16 -5 21zM183 32q60 0 110 63q39 50 62.5 123t23.5 134q0 92 -50 92
q-26 0 -59.5 -32t-64.5 -97q-40 -82 -77 -240q5 -43 55 -43z" />
    <glyph glyph-name="c" unicode="c" horiz-adv-x="444" 
d="M192 -11q-67 0 -112 51t-45 137q0 135 82.5 229.5t196.5 94.5q73 0 113 -22l-52 -137h-13l-44 106q-5 13 -8 15.5t-11 2.5q-50 0 -90 -47.5t-59 -112t-19 -126.5q0 -60 26 -95.5t74 -35.5q40 0 83 36.5t60 93.5l13 -3q-21 -88 -73.5 -137.5t-121.5 -49.5z" />
    <glyph glyph-name="d" unicode="d" horiz-adv-x="539" 
d="M531 750l-143 -622q-8 -32 -8 -52q0 -28 23 -28q28 0 53.5 33.5t38.5 87.5l12 -1q-10 -71 -47 -125t-92 -54q-32 0 -51 20t-19 52q0 44 21 100l-4 2q-74 -174 -179 -174q-46 0 -74.5 40t-28.5 112q0 76 26.5 145.5t67.5 115t87.5 72.5t87.5 27q59 0 79 -42l40 186
q3 16 -5 21l-56 39v12zM287 157q45 89 84 256q-16 45 -60 45q-63 0 -126 -97.5t-63 -222.5q0 -92 50 -92q28 0 58.5 29.5t56.5 81.5z" />
    <glyph glyph-name="e" unicode="e" horiz-adv-x="471" 
d="M198 -11q-73 0 -119 49.5t-46 133.5q0 82 35.5 158t97.5 123.5t133 47.5q60 0 96 -29t36 -74q0 -52 -45 -95t-114 -63.5t-140 -13.5q-3 -27 -3 -52q0 -60 27 -92.5t77 -32.5q48 0 96.5 36.5t69.5 95.5l13 -4q-22 -88 -81 -138t-133 -50zM137 254q87 -6 146 37t59 109
q0 67 -55 67q-50 0 -91.5 -63.5t-58.5 -149.5z" />
    <glyph glyph-name="f" unicode="f" horiz-adv-x="319" 
d="M69 489h81q25 119 80 190t140 71q64 0 109 -22l-51 -134h-13l-33 104q-3 10 -7 13t-15 3q-28 0 -49.5 -18t-36 -51.5t-24 -68.5t-17.5 -81l-1 -6h129v-42h-136l-66 -384q-21 -124 -72 -207q-62 -101 -168 -101q-61 0 -94 22l51 133h13l31 -97q4 -15 8 -19t14 -4
q49 0 86 87q23 55 41 154l74 416h-74v42z" />
    <glyph glyph-name="g" unicode="g" horiz-adv-x="501" 
d="M73 320q0 80 61.5 130.5t138.5 50.5q66 0 117 -37q8 -6 17 3l116 115h12l-29 -147h-91q37 -35 37 -94q0 -83 -59 -133t-147 -50q-46 0 -83 19q-33 -23 -33 -50q0 -37 63 -46l89 -13q137 -20 137 -131q0 -80 -73.5 -131t-163.5 -51q-85 0 -150 38.5t-65 96.5q0 48 39 79.5
t103 45.5q-55 22 -55 75q0 31 25.5 57.5t64.5 40.5q-71 47 -71 132zM144 6l-6 1q-86 -32 -86 -111q0 -44 38.5 -73.5t100.5 -29.5q64 0 107 29.5t43 83.5q0 70 -107 86zM276 464q-47 0 -82.5 -44t-35.5 -109q0 -54 23.5 -86t64.5 -32q45 0 81.5 44.5t36.5 113.5q0 49 -23 81
t-65 32z" />
    <glyph glyph-name="h" unicode="h" horiz-adv-x="549" 
d="M166 666l-56 39v12l171 33l-100 -420l4 -1q35 81 93 126.5t120 45.5q39 0 60.5 -22t21.5 -59q0 -28 -25 -113l-50 -158q-17 -53 -17 -72q0 -29 24 -29q30 0 53 35.5t36 85.5l12 -1q-11 -73 -48.5 -126t-100.5 -53q-32 0 -50 18t-18 53q0 28 26 108l51 159q18 56 18 82
q0 34 -39 34q-27 0 -61.5 -21t-63.5 -66q-35 -56 -55.5 -120.5t-60.5 -235.5h-82l142 645q3 16 -5 21z" />
    <glyph glyph-name="i" unicode="i" horiz-adv-x="308" 
d="M132 -11q-33 0 -51.5 21.5t-18.5 53.5q0 33 11 77l64 266q4 15 -8 20l-70 37v13l188 24l-86 -341q-12 -48 -12 -75q0 -37 29 -37q28 0 52 34t37 87l12 -1q-14 -78 -50 -128.5t-97 -50.5zM231 729q26 0 43 -15t17 -40q0 -32 -20 -53.5t-48 -21.5q-26 0 -43 15t-17 40
q0 32 20 53.5t48 21.5z" />
    <glyph glyph-name="j" unicode="j" horiz-adv-x="279" 
d="M130 428l-68 36v13l187 24l-90 -433q-31 -153 -82 -224q-62 -89 -162 -89q-59 0 -90 22l51 134h13l30 -97q5 -17 9 -21.5t14 -4.5q44 0 75 64.5t48 157.5l74 398q1 10 0 13t-9 7zM231 729q26 0 43 -15t17 -40q0 -32 -20 -53.5t-48 -21.5q-26 0 -43 15t-17 40
q0 32 20 53.5t48 21.5z" />
    <glyph glyph-name="k" unicode="k" horiz-adv-x="496" 
d="M328 -11q-40 0 -60 24.5t-36 84.5l-37 138q-4 15 -9.5 20t-15.5 6l-58 -262h-82l138 645q3 16 -5 21l-56 39v12l171 33l-105 -473l194 138q13 9 -2 19l-58 42v13h206v-13l-253 -181l56 -182q11 -36 22 -50.5t30 -14.5q61 0 93 121l12 -1q-13 -85 -52.5 -132t-92.5 -47z
" />
    <glyph glyph-name="l" unicode="l" horiz-adv-x="293" 
d="M169 666l-56 39v12l171 33l-140 -591q-11 -44 -11 -74q2 -37 29 -37q30 0 53 35.5t36 85.5l12 -1q-12 -75 -48.5 -127t-99.5 -52q-33 0 -52 20.5t-19 50.5q0 35 11 81l119 504q4 15 -5 21z" />
    <glyph glyph-name="m" unicode="m" horiz-adv-x="827" 
d="M415 501q37 0 54.5 -19t17.5 -50q0 -36 -19 -103l4 -1q33 83 88.5 128t115.5 45q39 0 60.5 -22t21.5 -59q0 -28 -25 -113l-50 -158q-17 -53 -17 -72q0 -29 24 -29q30 0 53 35.5t36 85.5l12 -1q-12 -75 -49 -127t-100 -52q-32 0 -50 18t-18 53q0 28 24 102l53 165
q18 56 18 82q0 34 -39 34q-26 0 -59 -21t-60 -66q-35 -57 -56.5 -122.5t-60.5 -233.5h-83l81 326q16 62 16 83q0 34 -39 34q-26 0 -59.5 -21t-60.5 -66q-35 -56 -55.5 -120.5t-60.5 -235.5h-83l92 407q2 7 2 10t-2 5t-7 5l-68 38v12l175 24l-42 -173l4 -1q37 84 95 129
t116 45z" />
    <glyph glyph-name="n" unicode="n" horiz-adv-x="571" 
d="M386 -11q-32 0 -50 18t-18 53q0 28 24 102l53 165q18 56 18 82q0 34 -39 34q-27 0 -61.5 -21t-63.5 -66q-35 -56 -55.5 -120.5t-60.5 -235.5h-83l92 407q2 7 2 10t-2 5t-7 5l-68 38v12l175 24l-42 -173l4 -1q38 84 97.5 129t118.5 45q39 0 60.5 -22t21.5 -59
q0 -28 -25 -113l-50 -158q-17 -53 -17 -72q0 -29 24 -29q30 0 53 35.5t36 85.5l12 -1q-12 -75 -49 -127t-100 -52z" />
    <glyph glyph-name="o" unicode="o" horiz-adv-x="501" 
d="M35 191q0 121 78 215.5t185 94.5q71 0 119.5 -53t48.5 -146q0 -121 -78 -217.5t-185 -96.5q-71 0 -119.5 55t-48.5 148zM371 326q0 138 -77 138q-44 0 -83.5 -51t-60 -119t-20.5 -127q0 -62 18.5 -102t58.5 -40q44 0 83.5 52t60 120.5t20.5 128.5z" />
    <glyph glyph-name="p" unicode="p" horiz-adv-x="521" 
d="M108 -176l107 -47v-12h-279v12l57 35q18 10 21 26l127 569q2 7 2 10t-2 5t-7 5l-68 38v12l175 24l-40 -173l4 -1q81 174 182 174q45 0 73.5 -38.5t28.5 -108.5q0 -156 -88 -260.5t-197 -104.5q-34 0 -69 14l-34 -159q-3 -16 7 -20zM232 324q-52 -106 -90 -287
q20 -12 51 -12q61 0 110.5 58t73 132t23.5 140q0 88 -49 88q-60 0 -119 -119z" />
    <glyph glyph-name="q" unicode="q" horiz-adv-x="498" 
d="M387 442l74 57h12l-143 -658q-4 -15 7 -23l58 -40v-13h-255v13l92 44q8 4 11 7.5t5 12.5l73 320l-4 2q-82 -175 -181 -175q-46 0 -74.5 39.5t-28.5 112.5q0 146 89.5 253t184.5 107q68 0 80 -59zM314 458q-64 0 -128 -98t-64 -220q0 -94 50 -94q26 0 56 27t56 79
q53 104 85 252q-5 54 -55 54z" />
    <glyph glyph-name="r" unicode="r" horiz-adv-x="390" 
d="M134 427l-69 39v12l167 23l-36 -172l4 -1q44 92 80.5 132.5t81.5 40.5q34 0 59 -15l-64 -140h-12l-31 72q-4 9 -9 9q-29 0 -75 -94q-53 -109 -92 -333h-83l86 407q2 7 2 10t-2 5t-7 5z" />
    <glyph glyph-name="s" unicode="s" horiz-adv-x="412" 
d="M162 21q44 0 75.5 25t31.5 63q0 26 -16 47t-60 53l-20 15q-49 35 -70 64t-21 69q0 60 45 102t128 42q68 0 134 -23l-32 -129h-12l-56 106q-5 11 -13 12q-10 2 -25 2q-40 0 -65.5 -22.5t-25.5 -56.5q0 -26 17 -46t62 -52l18 -13q52 -37 73 -64.5t21 -65.5
q0 -71 -55.5 -116t-133.5 -45q-84 0 -150 29l46 137h12l45 -111q5 -12 7.5 -15.5t11.5 -4.5q16 -2 28 -2z" />
    <glyph glyph-name="t" unicode="t" horiz-adv-x="380" 
d="M74 489h53q12 0 16 2.5t14 15.5l116 156h10l-39 -174h132v-42h-142l-64 -289q-9 -43 -9 -65q0 -45 42 -45q38 0 70.5 46t41.5 101l12 -1q-4 -50 -22.5 -94.5t-58 -77.5t-91.5 -33q-38 0 -60 24.5t-22 64.5q0 29 9 72l68 297h-76v42z" />
    <glyph glyph-name="u" unicode="u" horiz-adv-x="579" 
d="M365 161l-4 1q-34 -79 -93 -126t-117 -47q-39 0 -60.5 22t-21.5 59q0 28 25 113l50 158q17 53 17 72q0 29 -24 29q-30 0 -53 -35.5t-36 -85.5l-12 1q12 73 50.5 126t98.5 53q67 0 67 -71q0 -31 -23 -102l-53 -165q-18 -56 -18 -82q0 -35 39 -35q26 0 58.5 21.5t60.5 66.5
q40 62 66 130t65 225h83l-97 -360q-8 -34 -8 -53q0 -28 23 -28q28 0 53.5 33.5t38.5 87.5l12 -1q-10 -72 -47 -125.5t-95 -53.5q-30 0 -49 20t-19 52q0 39 23 100z" />
    <glyph glyph-name="v" unicode="v" horiz-adv-x="505" 
d="M185 -11q-49 0 -73.5 31.5t-24.5 82.5q0 47 20 117l31 115q13 47 13 78q0 29 -23 29q-21 0 -45.5 -35.5t-36.5 -89.5l-12 1q15 91 55 137t85 46q68 0 68 -71q0 -39 -24 -123l-29 -109q-13 -49 -13 -80q0 -71 56 -71q65 0 117 93.5t52 196.5q0 75 -32 114v10l117 40
q3 -66 -16.5 -152.5t-56.5 -167.5t-98 -136.5t-130 -55.5z" />
    <glyph glyph-name="w" unicode="w" horiz-adv-x="744" 
d="M433 -11q-42 0 -63.5 25t-21.5 68q0 29 11 67h-3q-12 -29 -17 -40.5t-22 -39.5t-32.5 -41.5t-42.5 -26t-59 -12.5q-47 0 -71.5 31.5t-24.5 82.5q0 47 20 117l31 115q13 47 13 78q0 29 -23 29q-21 0 -45.5 -35.5t-36.5 -89.5l-12 1q15 91 55 137t85 46q68 0 68 -71
q0 -39 -24 -123l-29 -109q-13 -49 -13 -79q0 -72 49 -72q60 0 108 119q21 51 42.5 147.5t30.5 175.5h90q-15 -100 -65 -318q-8 -34 -8 -62q0 -62 50 -62q65 0 117 93.5t52 196.5q0 75 -32 114v10l117 40q3 -66 -17 -152.5t-56.5 -167t-95.5 -136t-125 -56.5z" />
    <glyph glyph-name="x" unicode="x" horiz-adv-x="537" 
d="M273 70l-27 115q-39 -70 -44 -77q-77 -121 -143 -121q-42 0 -60 20l58 139h14l17 -75q4 -17 11 -17q40 0 140 165l-37 165q-8 35 -16.5 46.5t-23.5 11.5q-24 0 -50 -32t-39 -87l-12 2q10 74 53 125t94 51q29 0 45.5 -18t26.5 -63l22 -99q15 26 34 57q77 123 144 123
q41 0 60 -20l-57 -138h-14l-17 74q-3 17 -12 17q-38 0 -130 -150l41 -178q8 -35 16.5 -46.5t23.5 -11.5q23 0 49.5 32t39.5 87l12 -2q-10 -75 -51.5 -125.5t-92.5 -50.5q-29 0 -47 18t-28 63z" />
    <glyph glyph-name="y" unicode="y" horiz-adv-x="509" 
d="M-58 -245q-36 0 -55 14l44 125h10l63 -76q9 -11 26 -3q43 20 90.5 58t77.5 75q4 5 4 15q-14 291 -53 441q-10 38 -30 38q-22 0 -46.5 -36t-36.5 -89l-12 1q12 85 52.5 134t90.5 49q33 0 51.5 -17t27.5 -54q31 -131 33 -381l3 -1q51 63 87 148.5t36 158.5q0 69 -28 96v10
l122 40q-6 -79 -25.5 -151.5t-50 -133t-58 -103.5t-63.5 -90q-128 -168 -255 -236q-59 -32 -105 -32z" />
    <glyph glyph-name="z" unicode="z" horiz-adv-x="433" 
d="M8 -12l-13 3q9 56 56 104l263 278q-26 2 -82 22q-66 24 -86 24q-29 0 -51 -24.5t-32 -68.5l-14 3q36 172 127 172q31 0 81 -22l25 -11q33 -13 60 -13q55 0 87 35h15q-21 -51 -65 -98l-262 -279q14 -1 87 -24q43 -13 76 -13q36 0 63.5 19t35.5 59l12 -1q-6 -71 -36.5 -119
t-86.5 -48q-51 0 -132 29q-60 20 -72 20q-39 0 -56 -47z" />
    <glyph glyph-name="braceleft" unicode="{" horiz-adv-x="376" 
d="M182 -155q-59 0 -91 31t-32 88q0 30 11 65l59 188q5 17 5 28q0 55 -75 55v12q46 0 75.5 24t33.5 63l18 195q8 86 59 129.5t127 43.5q33 0 63 -8l-3 -13q-87 -2 -124.5 -43.5t-45.5 -114.5l-18 -178q-5 -45 -31.5 -72.5t-72.5 -30.5v-2q65 -12 65 -74q0 -17 -6 -38
l-53 -172q-14 -44 -14 -68q0 -87 115 -88v-12q-34 -8 -65 -8z" />
    <glyph glyph-name="bar" unicode="|" horiz-adv-x="252" 
d="M51 -235h-51l200 974h52z" />
    <glyph glyph-name="braceright" unicode="}" horiz-adv-x="376" 
d="M20 -155q-33 0 -63 8l3 13q87 2 124.5 43.5t45.5 114.5l18 178q5 45 31.5 72.5t72.5 30.5v2q-65 12 -65 74q0 17 6 38l53 173q14 50 14 67q0 87 -115 88v12q34 8 65 8q59 0 91 -31t32 -88q0 -30 -11 -65l-59 -188q-5 -17 -5 -28q0 -55 75 -55v-12q-46 0 -75.5 -24
t-33.5 -63l-18 -195q-8 -86 -59 -129.5t-127 -43.5z" />
    <glyph glyph-name="asciitilde" unicode="~" 
d="M415 183q-47 0 -120 35.5t-106 35.5q-59 0 -92 -54l-42 26q48 77 130 77q47 0 120 -35.5t106 -35.5q59 0 92 54l42 -26q-48 -77 -130 -77z" />
    <glyph glyph-name="uni00A0" unicode="&#xa0;" horiz-adv-x="195" 
 />
    <glyph glyph-name="exclamdown" unicode="&#xa1;" horiz-adv-x="286" 
d="M149 309l-47 -519h-139l174 519h12zM164 362q-28 0 -46 16.5t-18 42.5q0 35 21.5 57.5t51.5 22.5q28 0 46 -16.5t18 -42.5q0 -35 -21.5 -57.5t-51.5 -22.5z" />
    <glyph glyph-name="cent" unicode="&#xa2;" horiz-adv-x="425" 
d="M383 176q-20 -85 -69.5 -133.5t-114.5 -52.5l-20 -101h-36l21 102q-59 9 -96 59t-37 127q0 121 68.5 212t168.5 108l21 102h36l-21 -98q73 0 119 -22l-53 -143h-13l-43 112q-5 12 -7.5 14.5t-9.5 3.5l-85 -416q5 -1 15 -1q40 0 83 36.5t60 93.5zM127 180q0 -89 51 -119
l82 398q-60 -22 -96.5 -107t-36.5 -172z" />
    <glyph glyph-name="sterling" unicode="&#xa3;" horiz-adv-x="572" 
d="M434 0h-437v15l67 55q31 26 53.5 68t22.5 85q0 18 -5 41h-92v38h83q-11 44 -11 81q0 127 78.5 203.5t193.5 76.5q78 0 135 -24l-72 -145h-12l-36 114q-3 10 -7 12.5t-19 2.5q-78 0 -126.5 -52.5t-48.5 -141.5q0 -25 7.5 -72.5t8.5 -54.5h140v-38h-137v-2
q0 -63 -30.5 -111.5t-83.5 -76.5h253q15 0 20 2t14 11l75 79h13z" />
    <glyph glyph-name="currency" unicode="&#xa4;" horiz-adv-x="672" 
d="M333 130q-75 0 -128 39l-122 -101l-27 35l117 98q-33 42 -33 99q0 97 71 161l-67 84l35 27l69 -85q57 34 127 34q76 0 130 -43l112 93l27 -35l-108 -90q31 -42 31 -97q0 -103 -82 -168l70 -86l-35 -27l-73 89q-51 -27 -114 -27zM327 171q63 0 106 53t43 123q0 60 -25 96
t-71 36q-63 0 -106 -52.5t-43 -123.5q0 -60 25.5 -96t70.5 -36z" />
    <glyph glyph-name="yen" unicode="&#xa5;" horiz-adv-x="635" 
d="M122 185h139l14 66h-123v38h117l-114 282q-13 25 -21 32l-44 36v14h251v-14l-81 -45q-12 -7 -7 -19l105 -258l179 253q7 10 -4 17l-76 52v14h252v-14l-88 -48q-22 -11 -38 -32l-192 -270h125v-38h-147l-14 -66h131v-38h-139l-14 -69q-3 -13 8 -20l83 -44v-14h-293v14
l94 46q13 6 15 20l13 67h-131v38z" />
    <glyph glyph-name="brokenbar" unicode="&#xa6;" horiz-adv-x="252" 
d="M166 322h-52l86 417h52zM51 -235h-51l86 423h52z" />
    <glyph glyph-name="section" unicode="&#xa7;" horiz-adv-x="473" 
d="M434 271q0 -56 -33 -97t-84 -59q23 -38 23 -89q0 -79 -61 -132t-134 -53q-65 0 -127 24l66 135h12l35 -106q3 -10 6.5 -13t17.5 -3q45 0 78 35t33 87q0 53 -53 94l-82 65q-61 49 -61 125q0 55 33 96.5t84 58.5q-23 36 -23 90q0 79 61 132t134 53q65 0 127 -24l-66 -135
h-12l-35 106q-3 10 -6.5 13t-17.5 3q-45 0 -78 -35t-33 -87q0 -53 53 -94l82 -65q61 -49 61 -125zM306 328l-106 93q-22 -15 -37.5 -41t-15.5 -54q0 -30 10.5 -51t40.5 -48l105 -94q23 15 38.5 41.5t15.5 54.5q0 31 -10.5 52t-40.5 47z" />
    <glyph glyph-name="dieresis" unicode="&#xa8;" horiz-adv-x="413" 
d="M197 707q25 0 40.5 -14t15.5 -37q0 -30 -19 -50t-44 -20t-40.5 14t-15.5 37q0 30 19 50t44 20zM385 707q25 0 40.5 -14t15.5 -37q0 -30 -19 -50t-44 -20t-40.5 14t-15.5 37q0 30 19 50t44 20z" />
    <glyph glyph-name="copyright" unicode="&#xa9;" horiz-adv-x="829" 
d="M427 -15q-155 0 -257.5 102t-102.5 263t102.5 263t257.5 102t257 -102t102 -263t-102 -263t-257 -102zM427 25q137 0 225 88.5t88 236.5q0 149 -88 237t-225 88t-225.5 -88t-88.5 -237q0 -148 88.5 -236.5t225.5 -88.5zM453 129q-114 0 -173.5 61t-59.5 157
q0 102 63.5 163t173.5 61q52 0 117 -14v-138h-13l-61 103q-7 11 -25 11h-11q-77 0 -111 -45.5t-34 -132.5q0 -186 144 -186h18q15 0 22 12l58 100h13v-138q-67 -14 -121 -14z" />
    <glyph glyph-name="ordfeminine" unicode="&#xaa;" horiz-adv-x="440" 
d="M442 748l-69 -277q-6 -24 -6 -36q0 -21 17 -21q21 0 40.5 25t29.5 66h11q-7 -53 -36 -94t-71 -41q-24 0 -38.5 15t-14.5 39q0 31 16 75l-3 2q-57 -131 -135 -131q-35 0 -56.5 29.5t-21.5 84.5q0 108 68.5 187t140.5 79q52 0 60 -45l59 43h9zM319 717q-49 0 -98 -72
t-49 -161q0 -70 37 -70q43 0 86 82q42 81 66 181q-5 40 -42 40z" />
    <glyph glyph-name="guillemotleft" unicode="&#xab;" horiz-adv-x="437" 
d="M177 65l-142 191v8l221 191l7 -9l-131 -191l55 -181zM345 65l-142 191v8l221 191l7 -9l-131 -191l55 -181z" />
    <glyph glyph-name="logicalnot" unicode="&#xac;" 
d="M530 97h-52v192h-418v50h470v-242z" />
    <glyph glyph-name="uni00AD" unicode="&#xad;" horiz-adv-x="315" 
d="M37 217v59h237v-59h-237z" />
    <glyph glyph-name="registered" unicode="&#xae;" horiz-adv-x="495" 
d="M312 303q-95 0 -159.5 62.5t-64.5 158.5q0 97 64.5 159.5t159.5 62.5q96 0 160.5 -62.5t64.5 -159.5q0 -96 -64.5 -158.5t-160.5 -62.5zM312 340q82 0 133 49.5t51 134.5t-51.5 135t-132.5 50q-80 0 -131.5 -50t-51.5 -135t51.5 -134.5t131.5 -49.5zM234 454v155
q0 9 -5 11l-30 19v10h127q40 0 64.5 -17t24.5 -51q0 -45 -50 -60l3 -5l5 -7l7 -11l33 -51q5 -9 13 -12l21 -8v-13h-73l-49 82q-4 9 -8.5 10.5t-19.5 1.5h-13v-54q0 -7 6 -11l30 -18v-11h-121v11l30 18q5 3 5 11zM284 614v-78h24q51 0 51 44q0 22 -12.5 32t-30.5 10h-26
q-6 0 -6 -8z" />
    <glyph glyph-name="macron" unicode="&#xaf;" horiz-adv-x="384" 
d="M402 604h-264v56h264v-56z" />
    <glyph glyph-name="degree" unicode="&#xb0;" horiz-adv-x="363" 
d="M252 447q-60 0 -103.5 39.5t-43.5 102.5t43.5 103.5t103.5 40.5t103.5 -39.5t43.5 -102.5t-43.5 -103.5t-103.5 -40.5zM252 695q-42 0 -73.5 -30.5t-31.5 -75.5q0 -43 31.5 -73.5t73.5 -30.5t73.5 30.5t31.5 75.5q0 43 -31.5 73.5t-73.5 30.5z" />
    <glyph glyph-name="plusminus" unicode="&#xb1;" 
d="M275 132v148h-195v50h195v143h52v-143h193v-50h-193v-148h-52zM520 19h-440v50h440v-50z" />
    <glyph glyph-name="twosuperior" unicode="&#xb2;" horiz-adv-x="340" 
d="M241 679q-9 0 -15 -1q-8 -1 -12 -7l-59 -76h-11l-9 93q61 23 121 23q52 0 78.5 -23.5t26.5 -62.5q0 -23 -7 -44t-25 -41.5t-32.5 -35t-45.5 -35t-46.5 -30.5t-52.5 -32h111q16 0 28 11l36 35h11l-38 -107h-237v12l64 56q52 46 78.5 71.5t53.5 67.5t27 77q0 49 -45 49z
" />
    <glyph glyph-name="threesuperior" unicode="&#xb3;" horiz-adv-x="340" 
d="M260 711q51 0 79 -23t28 -60q0 -38 -31 -64t-73 -31q35 -3 57 -24.5t22 -55.5q0 -49 -48.5 -82t-119.5 -33q-72 0 -115 19l53 100h11l21 -78q2 -10 22 -10q42 0 69 27t27 61q0 61 -71 66v11q46 7 73 33.5t27 64.5q0 22 -13.5 34.5t-35.5 12.5q-11 0 -17 -1q-7 -1 -12 -7
l-62 -77h-11l-8 94q61 23 128 23z" />
    <glyph glyph-name="acute" unicode="&#xb4;" horiz-adv-x="299" 
d="M133 568h-14l87 155h133v-12z" />
    <glyph glyph-name="mu" unicode="&#xb5;" horiz-adv-x="579" 
d="M215 -235h-279v12l57 35q17 9 21 26l132 503q15 60 15 72q0 29 -24 29q-30 0 -53 -35.5t-36 -85.5l-12 1q12 73 50.5 126t98.5 53q67 0 67 -71q0 -26 -22 -101l-46 -166q-17 -58 -17 -81q0 -36 37 -36q56 0 112 88q40 62 66 130t65 225h83l-97 -360q-8 -34 -8 -53
q0 -28 23 -28q28 0 53.5 33.5t38.5 87.5l12 -1q-10 -72 -47 -125.5t-95 -53.5q-30 0 -49 20t-19 52q0 39 23 100l-4 1q-32 -72 -92 -124.5t-130 -47.5l-38 -146q-4 -15 7 -20l107 -47v-12z" />
    <glyph glyph-name="paragraph" unicode="&#xb6;" horiz-adv-x="574" 
d="M629 703v-14l-93 -46q-12 -6 -15 -22l-177 -856h-52l194 938h143zM159 -235l114 551h-8q-97 0 -137 39t-40 117q0 101 64.5 166t171.5 65h81l-194 -938h-52z" />
    <glyph glyph-name="periodcentered" unicode="&#xb7;" horiz-adv-x="270" 
d="M150 360q28 0 46 -16.5t18 -42.5q0 -35 -21.5 -57.5t-51.5 -22.5q-28 0 -46 16.5t-18 42.5q0 35 21.5 57.5t51.5 22.5z" />
    <glyph glyph-name="cedilla" unicode="&#xb8;" horiz-adv-x="330" 
d="M194 -135q0 -45 -34 -72.5t-82 -27.5q-44 0 -74 23t-34 51l10 5q22 -39 71 -39q26 0 45.5 14.5t19.5 41.5q0 17 -13 28t-34 11q-15 0 -30 -4l-4 4l84 109h6l-20 -79q4 1 13 1q32 0 54 -18.5t22 -47.5z" />
    <glyph glyph-name="onesuperior" unicode="&#xb9;" horiz-adv-x="340" 
d="M242 393l61 -37v-10h-216v11l70 34q8 4 9 11l48 236q1 6 -4 9l-58 28v11l151 27l-64 -310q-2 -8 3 -10z" />
    <glyph glyph-name="ordmasculine" unicode="&#xba;" horiz-adv-x="440" 
d="M97 517q0 91 58.5 162t139.5 71q53 0 89.5 -40t36.5 -110q0 -91 -58.5 -163.5t-138.5 -72.5q-53 0 -90 41.5t-37 111.5zM350 618q0 104 -58 104q-33 0 -62.5 -38t-45 -89t-15.5 -96q0 -107 58 -107q49 0 86 77t37 149z" />
    <glyph glyph-name="guillemotright" unicode="&#xbb;" horiz-adv-x="437" 
d="M262 455l142 -191v-8l-221 -191l-7 9l131 191l-55 181zM94 455l142 -191v-8l-221 -191l-7 9l131 191l-55 181z" />
    <glyph glyph-name="onequarter" unicode="&#xbc;" horiz-adv-x="746" 
d="M646 0h-168v12l48 23q8 4 9 12l9 39h-153v10l215 261h63l-49 -241h19q8 0 21 13l40 43h11l-27 -86h-71l-7 -36q-3 -11 4 -15l36 -23v-12zM549 116l34 169l-139 -169h105zM242 393l61 -37v-10h-216v11l70 34q8 4 9 11l48 236q1 6 -4 9l-58 28v11l151 27l-64 -310
q-2 -8 3 -10zM713 693l-598 -708l-28 27l597 706z" />
    <glyph glyph-name="onehalf" unicode="&#xbd;" horiz-adv-x="746" 
d="M575 333q-9 0 -15 -1q-8 -1 -12 -7l-59 -76h-11l-9 93q61 23 121 23q52 0 78.5 -23.5t26.5 -62.5q0 -23 -7 -44t-25 -41.5t-32.5 -35t-45.5 -35t-46.5 -30.5t-52.5 -32h111q16 0 28 11l36 35h11l-38 -107h-237v12l64 56q52 46 78.5 71.5t53.5 67.5t27 77q0 49 -45 49z
M242 393l61 -37v-10h-216v11l70 34q8 4 9 11l48 236q1 6 -4 9l-58 28v11l151 27l-64 -310q-2 -8 3 -10zM713 693l-598 -708l-28 27l597 706z" />
    <glyph glyph-name="threequarters" unicode="&#xbe;" horiz-adv-x="746" 
d="M260 711q51 0 79 -23t28 -60q0 -38 -31 -64t-73 -31q35 -3 57 -24.5t22 -55.5q0 -49 -48.5 -82t-119.5 -33q-72 0 -115 19l53 100h11l21 -78q2 -10 22 -10q42 0 69 27t27 61q0 61 -71 66v11q46 7 73 33.5t27 64.5q0 22 -13.5 34.5t-35.5 12.5q-11 0 -17 -1q-7 -1 -12 -7
l-62 -77h-11l-8 94q61 23 128 23zM646 0h-168v12l48 23q8 4 9 12l9 39h-153v10l215 261h63l-49 -241h19q8 0 21 13l40 43h11l-27 -86h-71l-7 -36q-3 -11 4 -15l36 -23v-12zM549 116l34 169l-139 -169h105zM713 693l-598 -708l-28 27l597 706z" />
    <glyph glyph-name="questiondown" unicode="&#xbf;" horiz-adv-x="420" 
d="M250 362q-28 0 -46 16.5t-18 42.5q0 35 21.5 57.5t51.5 22.5q28 0 46 -16.5t18 -42.5q0 -35 -21.5 -57.5t-51.5 -22.5zM217 278h12q15 -23 15 -46q0 -36 -18 -61.5t-66 -63.5l-57 -45q-36 -28 -61 -70t-25 -85q0 -41 24 -67.5t68 -26.5q33 0 49 4q14 4 24 19l78 116h12
l23 -129q-101 -48 -193 -48q-81 0 -129.5 41.5t-48.5 108.5q0 45 30 92t73 78l115 86q28 21 51 48.5t24 48.5z" />
    <glyph glyph-name="Agrave" unicode="&#xc0;" horiz-adv-x="659" 
d="M-46 0v14l91 57q20 13 31 32l280 499q8 14 3 25l-27 65v11h112l104 -623q3 -16 16 -26l52 -40v-14h-254v14l85 49q11 6 9 19l-21 134h-247l-66 -119q-6 -10 -5.5 -15t9.5 -12l76 -56v-14h-248zM383 562l-172 -306h218zM446 769h-14l-145 142v12h121z" />
    <glyph glyph-name="Aacute" unicode="&#xc1;" horiz-adv-x="659" 
d="M-46 0v14l91 57q20 13 31 32l280 499q8 14 3 25l-27 65v11h112l104 -623q3 -16 16 -26l52 -40v-14h-254v14l85 49q11 6 9 19l-21 134h-247l-66 -119q-6 -10 -5.5 -15t9.5 -12l76 -56v-14h-248zM383 562l-172 -306h218zM380 767h-14l87 155h133v-12z" />
    <glyph glyph-name="Acircumflex" unicode="&#xc2;" horiz-adv-x="659" 
d="M-46 0v14l91 57q20 13 31 32l280 499q8 14 3 25l-27 65v11h112l104 -623q3 -16 16 -26l52 -40v-14h-254v14l85 49q11 6 9 19l-21 134h-247l-66 -119q-6 -10 -5.5 -15t9.5 -12l76 -56v-14h-248zM383 562l-172 -306h218zM418 829l-155 -63l-6 9l171 154h12l109 -154l-10 -9
z" />
    <glyph glyph-name="Atilde" unicode="&#xc3;" horiz-adv-x="659" 
d="M-46 0v14l91 57q20 13 31 32l280 499q8 14 3 25l-27 65v11h112l104 -623q3 -16 16 -26l52 -40v-14h-254v14l85 49q11 6 9 19l-21 134h-247l-66 -119q-6 -10 -5.5 -15t9.5 -12l76 -56v-14h-248zM383 562l-172 -306h218zM466 777q-23 0 -61.5 26.5t-54.5 26.5
q-18 0 -32.5 -11t-40.5 -39h-12q22 56 45.5 87t63.5 31q22 0 60.5 -26t55.5 -26t32 11t40 38h12q-14 -37 -25.5 -59t-33.5 -40.5t-49 -18.5z" />
    <glyph glyph-name="Adieresis" unicode="&#xc4;" horiz-adv-x="659" 
d="M-46 0v14l91 57q20 13 31 32l280 499q8 14 3 25l-27 65v11h112l104 -623q3 -16 16 -26l52 -40v-14h-254v14l85 49q11 6 9 19l-21 134h-247l-66 -119q-6 -10 -5.5 -15t9.5 -12l76 -56v-14h-248zM383 562l-172 -306h218zM332 906q25 0 40.5 -14t15.5 -37q0 -30 -19 -50
t-44 -20t-40.5 14t-15.5 37q0 30 19 50t44 20zM520 906q25 0 40.5 -14t15.5 -37q0 -30 -19 -50t-44 -20t-40.5 14t-15.5 37q0 30 19 50t44 20z" />
    <glyph glyph-name="Aring" unicode="&#xc5;" horiz-adv-x="659" 
d="M-46 0v14l91 57q20 13 31 32l280 499q8 14 3 25l-27 65v11h112l104 -623q3 -16 16 -26l52 -40v-14h-254v14l85 49q11 6 9 19l-21 134h-247l-66 -119q-6 -10 -5.5 -15t9.5 -12l76 -56v-14h-248zM383 562l-172 -306h218zM492 863q0 28 -19 48t-47 20t-47.5 -20t-19.5 -48
t19.5 -48t47.5 -20t47 20t19 48zM316 863q0 47 33 76.5t77 29.5q43 0 75.5 -29.5t32.5 -76.5t-32.5 -76.5t-75.5 -29.5q-44 0 -77 29.5t-33 76.5z" />
    <glyph glyph-name="AE" unicode="&#xc6;" horiz-adv-x="962" 
d="M-60 0v14l84 48q21 11 36 29l466 541q15 17 -1 25l-59 32v14h516l-40 -193h-13l-48 140q-4 9 -6.5 11t-12.5 2h-182q-14 0 -16 -14l-57 -276h121q14 0 26 12l73 80h12l-46 -225h-12l-40 81q-4 8 -7.5 10t-13.5 2h-122l-57 -279q-2 -9 0 -11.5t10 -2.5h184q15 0 26 13
l116 138h13l-39 -191h-506v14l93 46q13 6 15 20l28 136h-259l-111 -128q-12 -14 4 -25l73 -49v-14h-248zM257 256h232l72 350z" />
    <glyph glyph-name="Ccedilla" unicode="&#xc7;" horiz-adv-x="623" 
d="M385 -135q0 -45 -34 -72.5t-82 -27.5q-44 0 -74 23t-34 51l10 5q23 -39 71 -39q26 0 45.5 14.5t19.5 41.5q0 17 -13 28t-34 11q-15 0 -30 -4l-4 4l67 87q-105 10 -165.5 88.5t-60.5 204.5q0 187 113 312.5t268 125.5q99 0 192 -25l-40 -199h-13l-55 158q-4 11 -7 14.5
t-13 5.5q-23 5 -64 5q-114 0 -194.5 -121.5t-80.5 -283.5q0 -101 42 -174.5t118 -73.5q30 0 47 4q17 3 28 17l128 165h13l-43 -200q-83 -25 -181 -25q-3 0 -8 0.5t-7 0.5l-14 -56q4 1 13 1q32 0 54 -18.5t22 -47.5z" />
    <glyph glyph-name="Egrave" unicode="&#xc8;" horiz-adv-x="604" 
d="M435 240h-12l-40 81q-4 8 -7.5 10t-13.5 2h-122l-57 -279q-2 -9 0 -11.5t10 -2.5h184q15 0 26 13l116 138h13l-39 -191h-506v14l93 46q13 6 15 20l112 543q2 14 -7 20l-83 46v14h507l-40 -193h-13l-48 140q-4 9 -6.5 11t-12.5 2h-182q-14 0 -16 -14l-57 -276h121
q14 0 26 12l73 80h12zM442 769h-14l-145 142v12h121z" />
    <glyph glyph-name="Eacute" unicode="&#xc9;" horiz-adv-x="604" 
d="M435 240h-12l-40 81q-4 8 -7.5 10t-13.5 2h-122l-57 -279q-2 -9 0 -11.5t10 -2.5h184q15 0 26 13l116 138h13l-39 -191h-506v14l93 46q13 6 15 20l112 543q2 14 -7 20l-83 46v14h507l-40 -193h-13l-48 140q-4 9 -6.5 11t-12.5 2h-182q-14 0 -16 -14l-57 -276h121
q14 0 26 12l73 80h12zM376 767h-14l87 155h133v-12z" />
    <glyph glyph-name="Ecircumflex" unicode="&#xca;" horiz-adv-x="604" 
d="M435 240h-12l-40 81q-4 8 -7.5 10t-13.5 2h-122l-57 -279q-2 -9 0 -11.5t10 -2.5h184q15 0 26 13l116 138h13l-39 -191h-506v14l93 46q13 6 15 20l112 543q2 14 -7 20l-83 46v14h507l-40 -193h-13l-48 140q-4 9 -6.5 11t-12.5 2h-182q-14 0 -16 -14l-57 -276h121
q14 0 26 12l73 80h12zM414 829l-155 -63l-6 9l171 154h12l109 -154l-10 -9z" />
    <glyph glyph-name="Edieresis" unicode="&#xcb;" horiz-adv-x="604" 
d="M435 240h-12l-40 81q-4 8 -7.5 10t-13.5 2h-122l-57 -279q-2 -9 0 -11.5t10 -2.5h184q15 0 26 13l116 138h13l-39 -191h-506v14l93 46q13 6 15 20l112 543q2 14 -7 20l-83 46v14h507l-40 -193h-13l-48 140q-4 9 -6.5 11t-12.5 2h-182q-14 0 -16 -14l-57 -276h121
q14 0 26 12l73 80h12zM328 906q25 0 40.5 -14t15.5 -37q0 -30 -19 -50t-44 -20t-40.5 14t-15.5 37q0 30 19 50t44 20zM516 906q25 0 40.5 -14t15.5 -37q0 -30 -19 -50t-44 -20t-40.5 14t-15.5 37q0 30 19 50t44 20z" />
    <glyph glyph-name="Igrave" unicode="&#xcc;" horiz-adv-x="353" 
d="M300 623l-111 -543q-2 -14 7 -20l83 -46v-14h-292v14l93 46q13 6 15 20l111 543q2 14 -7 20l-83 46v14h292v-14l-93 -46q-13 -6 -15 -20zM323 769h-14l-145 142v12h121z" />
    <glyph glyph-name="Iacute" unicode="&#xcd;" horiz-adv-x="353" 
d="M300 623l-111 -543q-2 -14 7 -20l83 -46v-14h-292v14l93 46q13 6 15 20l111 543q2 14 -7 20l-83 46v14h292v-14l-93 -46q-13 -6 -15 -20zM257 767h-14l87 155h133v-12z" />
    <glyph glyph-name="Icircumflex" unicode="&#xce;" horiz-adv-x="353" 
d="M300 623l-111 -543q-2 -14 7 -20l83 -46v-14h-292v14l93 46q13 6 15 20l111 543q2 14 -7 20l-83 46v14h292v-14l-93 -46q-13 -6 -15 -20zM295 829l-155 -63l-6 9l171 154h12l109 -154l-10 -9z" />
    <glyph glyph-name="Idieresis" unicode="&#xcf;" horiz-adv-x="353" 
d="M300 623l-111 -543q-2 -14 7 -20l83 -46v-14h-292v14l93 46q13 6 15 20l111 543q2 14 -7 20l-83 46v14h292v-14l-93 -46q-13 -6 -15 -20zM209 906q25 0 40.5 -14t15.5 -37q0 -30 -19 -50t-44 -20t-40.5 14t-15.5 37q0 30 19 50t44 20zM397 906q25 0 40.5 -14t15.5 -37
q0 -30 -19 -50t-44 -20t-40.5 14t-15.5 37q0 30 19 50t44 20z" />
    <glyph glyph-name="Eth" unicode="&#xd0;" horiz-adv-x="701" 
d="M0 0v14l93 46q13 6 15 20l52 256h-85v38h92l51 249q2 14 -7 20l-83 46v14h283q129 0 201 -77t72 -216q0 -173 -119.5 -291.5t-270.5 -118.5h-294zM276 40q53 0 106 25.5t97 72.5t71.5 121t27.5 162q0 121 -55.5 181.5t-151.5 60.5h-38q-14 0 -16 -14l-56 -275h132v-38
h-140l-57 -282q-2 -9 0 -11.5t10 -2.5h70z" />
    <glyph glyph-name="Ntilde" unicode="&#xd1;" horiz-adv-x="717" 
d="M103 105l104 511q4 19 -11 27l-73 46v14h165l248 -532l88 429q2 13 -7 21l-77 68v14h246v-14l-101 -68q-13 -8 -15 -23l-121 -598h-32l-271 580l-97 -477q-2 -13 7 -21l77 -68v-14h-246v14l101 68q13 8 15 23zM526 777q-23 0 -61.5 26.5t-54.5 26.5q-18 0 -32.5 -11
t-40.5 -39h-12q22 56 45.5 87t63.5 31q22 0 60.5 -26t55.5 -26t32 11t40 38h12q-14 -37 -25.5 -59t-33.5 -40.5t-49 -18.5z" />
    <glyph glyph-name="Ograve" unicode="&#xd2;" horiz-adv-x="694" 
d="M313 -15q-116 0 -182 78t-66 213q0 180 109 311t255 131q116 0 182 -78t66 -213q0 -180 -109 -311t-255 -131zM430 678q-73 0 -133.5 -65t-92.5 -161.5t-32 -196.5q0 -230 140 -230q73 0 133.5 65t92.5 161.5t32 196.5q0 230 -140 230zM499 769h-14l-145 142v12h121z" />
    <glyph glyph-name="Oacute" unicode="&#xd3;" horiz-adv-x="694" 
d="M313 -15q-116 0 -182 78t-66 213q0 180 109 311t255 131q116 0 182 -78t66 -213q0 -180 -109 -311t-255 -131zM430 678q-73 0 -133.5 -65t-92.5 -161.5t-32 -196.5q0 -230 140 -230q73 0 133.5 65t92.5 161.5t32 196.5q0 230 -140 230zM433 767h-14l87 155h133v-12z" />
    <glyph glyph-name="Ocircumflex" unicode="&#xd4;" horiz-adv-x="694" 
d="M313 -15q-116 0 -182 78t-66 213q0 180 109 311t255 131q116 0 182 -78t66 -213q0 -180 -109 -311t-255 -131zM430 678q-73 0 -133.5 -65t-92.5 -161.5t-32 -196.5q0 -230 140 -230q73 0 133.5 65t92.5 161.5t32 196.5q0 230 -140 230zM471 829l-155 -63l-6 9l171 154h12
l109 -154l-10 -9z" />
    <glyph glyph-name="Otilde" unicode="&#xd5;" horiz-adv-x="694" 
d="M313 -15q-116 0 -182 78t-66 213q0 180 109 311t255 131q116 0 182 -78t66 -213q0 -180 -109 -311t-255 -131zM430 678q-73 0 -133.5 -65t-92.5 -161.5t-32 -196.5q0 -230 140 -230q73 0 133.5 65t92.5 161.5t32 196.5q0 230 -140 230zM519 777q-23 0 -61.5 26.5
t-54.5 26.5q-18 0 -32.5 -11t-40.5 -39h-12q22 56 45.5 87t63.5 31q22 0 60.5 -26t55.5 -26t32 11t40 38h12q-14 -37 -25.5 -59t-33.5 -40.5t-49 -18.5z" />
    <glyph glyph-name="Odieresis" unicode="&#xd6;" horiz-adv-x="694" 
d="M313 -15q-116 0 -182 78t-66 213q0 180 109 311t255 131q116 0 182 -78t66 -213q0 -180 -109 -311t-255 -131zM430 678q-73 0 -133.5 -65t-92.5 -161.5t-32 -196.5q0 -230 140 -230q73 0 133.5 65t92.5 161.5t32 196.5q0 230 -140 230zM385 906q25 0 40.5 -14t15.5 -37
q0 -30 -19 -50t-44 -20t-40.5 14t-15.5 37q0 30 19 50t44 20zM573 906q25 0 40.5 -14t15.5 -37q0 -30 -19 -50t-44 -20t-40.5 14t-15.5 37q0 30 19 50t44 20z" />
    <glyph glyph-name="multiply" unicode="&#xd7;" 
d="M462 43l-163 163l-162 -162l-35 35l162 162l-163 163l37 37l163 -163l162 162l35 -35l-162 -162l163 -163z" />
    <glyph glyph-name="Oslash" unicode="&#xd8;" horiz-adv-x="694" 
d="M113 -80l-32 19l68 105q-84 78 -84 232q0 180 109 311t255 131q76 0 132 -35l64 100l32 -19l-67 -103q87 -78 87 -234q0 -180 -109 -311t-255 -131q-77 0 -135 36zM193 112l334 519q-33 47 -97 47q-73 0 -133.5 -65t-92.5 -161.5t-32 -196.5q0 -87 21 -143zM312 25
q73 0 133.5 65t92.5 161.5t32 196.5q0 89 -23 146l-335 -520q35 -49 100 -49z" />
    <glyph glyph-name="Ugrave" unicode="&#xd9;" horiz-adv-x="683" 
d="M535 252l75 350q3 12 -7 21l-78 66v14h246v-14l-100 -66q-13 -8 -15 -23l-74 -350q-27 -129 -88.5 -197t-180.5 -68q-57 0 -99 17t-64 45t-32.5 57t-10.5 59q0 64 13 129l68 331q2 14 -7 20l-76 46v14h286v-14l-94 -46q-13 -6 -15 -20l-66 -320q-12 -58 -12 -112
q0 -64 34 -111t100 -47q75 0 124 51.5t73 167.5zM510 769h-14l-145 142v12h121z" />
    <glyph glyph-name="Uacute" unicode="&#xda;" horiz-adv-x="683" 
d="M535 252l75 350q3 12 -7 21l-78 66v14h246v-14l-100 -66q-13 -8 -15 -23l-74 -350q-27 -129 -88.5 -197t-180.5 -68q-57 0 -99 17t-64 45t-32.5 57t-10.5 59q0 64 13 129l68 331q2 14 -7 20l-76 46v14h286v-14l-94 -46q-13 -6 -15 -20l-66 -320q-12 -58 -12 -112
q0 -64 34 -111t100 -47q75 0 124 51.5t73 167.5zM444 767h-14l87 155h133v-12z" />
    <glyph glyph-name="Ucircumflex" unicode="&#xdb;" horiz-adv-x="683" 
d="M535 252l75 350q3 12 -7 21l-78 66v14h246v-14l-100 -66q-13 -8 -15 -23l-74 -350q-27 -129 -88.5 -197t-180.5 -68q-57 0 -99 17t-64 45t-32.5 57t-10.5 59q0 64 13 129l68 331q2 14 -7 20l-76 46v14h286v-14l-94 -46q-13 -6 -15 -20l-66 -320q-12 -58 -12 -112
q0 -64 34 -111t100 -47q75 0 124 51.5t73 167.5zM482 829l-155 -63l-6 9l171 154h12l109 -154l-10 -9z" />
    <glyph glyph-name="Udieresis" unicode="&#xdc;" horiz-adv-x="683" 
d="M535 252l75 350q3 12 -7 21l-78 66v14h246v-14l-100 -66q-13 -8 -15 -23l-74 -350q-27 -129 -88.5 -197t-180.5 -68q-57 0 -99 17t-64 45t-32.5 57t-10.5 59q0 64 13 129l68 331q2 14 -7 20l-76 46v14h286v-14l-94 -46q-13 -6 -15 -20l-66 -320q-12 -58 -12 -112
q0 -64 34 -111t100 -47q75 0 124 51.5t73 167.5zM396 906q25 0 40.5 -14t15.5 -37q0 -30 -19 -50t-44 -20t-40.5 14t-15.5 37q0 30 19 50t44 20zM584 906q25 0 40.5 -14t15.5 -37q0 -30 -19 -50t-44 -20t-40.5 14t-15.5 37q0 30 19 50t44 20z" />
    <glyph glyph-name="Yacute" unicode="&#xdd;" horiz-adv-x="621" 
d="M118 0v14l94 46q13 6 15 20l35 174q4 20 -3 40l-104 322q-7 22 -19 33l-49 40v14h261v-14l-90 -47q-12 -7 -7 -19l93 -299l208 288q11 15 -5 25l-76 52v14h250v-14l-87 -53q-22 -14 -30 -26l-232 -321q-13 -19 -17 -39l-35 -172q-3 -13 8 -20l83 -44v-14h-293zM401 767
h-14l87 155h133v-12z" />
    <glyph glyph-name="Thorn" unicode="&#xde;" horiz-adv-x="603" 
d="M95 80l111 543q2 14 -7 20l-83 46v14h201l-25 -121h92q99 0 151.5 -47t52.5 -130q0 -119 -89.5 -191t-207.5 -72h-90l-12 -62q-2 -14 7 -20l83 -46v-14h-292v14l93 46q13 6 15 20zM357 542h-73l-75 -360h93q72 0 126.5 62t54.5 165q0 133 -126 133z" />
    <glyph glyph-name="germandbls" unicode="&#xdf;" horiz-adv-x="570" 
d="M60 480h89q52 270 242 270q66 0 115 -29t49 -91q0 -45 -22 -77.5t-68 -67.5l-54 -42q-56 -42 -56 -76q0 -33 44 -61l66 -42q40 -26 59.5 -50t19.5 -59q0 -77 -60 -122t-145 -45q-75 0 -139 29l47 137h12l41 -111q5 -14 18 -17q18 -3 36 -3q43 0 75 26t32 70q0 51 -55 83
l-64 37q-68 40 -68 89q0 31 19.5 56t59.5 56l51 40q70 54 70 136q0 49 -24.5 74.5t-64.5 25.5q-83 0 -124 -101q-14 -38 -28 -120l-74 -432q-21 -124 -72 -207q-62 -101 -168 -101q-65 0 -94 23l51 132h13l31 -99q3 -9 4 -11.5t3.5 -6.5t5.5 -4.5t9 -0.5q48 0 86 89
q23 55 41 154l72 407h-81v42z" />
    <glyph glyph-name="agrave" unicode="&#xe0;" horiz-adv-x="539" 
d="M392 442l78 57h11l-93 -375q-8 -32 -8 -48q0 -28 23 -28q28 0 53.5 33.5t38.5 87.5l12 -1q-10 -71 -47 -125t-92 -54q-32 0 -51 20t-19 52q0 44 21 100l-4 2q-74 -174 -177 -174q-48 0 -76.5 39.5t-28.5 112.5q0 146 91 253t188 107q69 0 80 -59zM174 46q26 0 56 29.5
t57 81.5q49 96 87 247q-5 54 -55 54q-66 0 -131.5 -98t-65.5 -220q0 -94 52 -94zM369 570h-14l-145 142v12h121z" />
    <glyph glyph-name="aacute" unicode="&#xe1;" horiz-adv-x="539" 
d="M392 442l78 57h11l-93 -375q-8 -32 -8 -48q0 -28 23 -28q28 0 53.5 33.5t38.5 87.5l12 -1q-10 -71 -47 -125t-92 -54q-32 0 -51 20t-19 52q0 44 21 100l-4 2q-74 -174 -177 -174q-48 0 -76.5 39.5t-28.5 112.5q0 146 91 253t188 107q69 0 80 -59zM174 46q26 0 56 29.5
t57 81.5q49 96 87 247q-5 54 -55 54q-66 0 -131.5 -98t-65.5 -220q0 -94 52 -94zM303 568h-14l87 155h133v-12z" />
    <glyph glyph-name="acircumflex" unicode="&#xe2;" horiz-adv-x="539" 
d="M392 442l78 57h11l-93 -375q-8 -32 -8 -48q0 -28 23 -28q28 0 53.5 33.5t38.5 87.5l12 -1q-10 -71 -47 -125t-92 -54q-32 0 -51 20t-19 52q0 44 21 100l-4 2q-74 -174 -177 -174q-48 0 -76.5 39.5t-28.5 112.5q0 146 91 253t188 107q69 0 80 -59zM174 46q26 0 56 29.5
t57 81.5q49 96 87 247q-5 54 -55 54q-66 0 -131.5 -98t-65.5 -220q0 -94 52 -94zM341 630l-155 -63l-6 9l171 154h12l109 -154l-10 -9z" />
    <glyph glyph-name="atilde" unicode="&#xe3;" horiz-adv-x="539" 
d="M392 442l78 57h11l-93 -375q-8 -32 -8 -48q0 -28 23 -28q28 0 53.5 33.5t38.5 87.5l12 -1q-10 -71 -47 -125t-92 -54q-32 0 -51 20t-19 52q0 44 21 100l-4 2q-74 -174 -177 -174q-48 0 -76.5 39.5t-28.5 112.5q0 146 91 253t188 107q69 0 80 -59zM174 46q26 0 56 29.5
t57 81.5q49 96 87 247q-5 54 -55 54q-66 0 -131.5 -98t-65.5 -220q0 -94 52 -94zM389 578q-23 0 -61.5 26.5t-54.5 26.5q-18 0 -32.5 -11t-40.5 -39h-12q22 56 45.5 87t63.5 31q22 0 60.5 -26t55.5 -26t32 11t40 38h12q-14 -37 -25.5 -59t-33.5 -40.5t-49 -18.5z" />
    <glyph glyph-name="adieresis" unicode="&#xe4;" horiz-adv-x="539" 
d="M392 442l78 57h11l-93 -375q-8 -32 -8 -48q0 -28 23 -28q28 0 53.5 33.5t38.5 87.5l12 -1q-10 -71 -47 -125t-92 -54q-32 0 -51 20t-19 52q0 44 21 100l-4 2q-74 -174 -177 -174q-48 0 -76.5 39.5t-28.5 112.5q0 146 91 253t188 107q69 0 80 -59zM174 46q26 0 56 29.5
t57 81.5q49 96 87 247q-5 54 -55 54q-66 0 -131.5 -98t-65.5 -220q0 -94 52 -94zM255 707q25 0 40.5 -14t15.5 -37q0 -30 -19 -50t-44 -20t-40.5 14t-15.5 37q0 30 19 50t44 20zM443 707q25 0 40.5 -14t15.5 -37q0 -30 -19 -50t-44 -20t-40.5 14t-15.5 37q0 30 19 50t44 20z
" />
    <glyph glyph-name="aring" unicode="&#xe5;" horiz-adv-x="539" 
d="M392 442l78 57h11l-93 -375q-8 -32 -8 -48q0 -28 23 -28q28 0 53.5 33.5t38.5 87.5l12 -1q-10 -71 -47 -125t-92 -54q-32 0 -51 20t-19 52q0 44 21 100l-4 2q-74 -174 -177 -174q-48 0 -76.5 39.5t-28.5 112.5q0 146 91 253t188 107q69 0 80 -59zM174 46q26 0 56 29.5
t57 81.5q49 96 87 247q-5 54 -55 54q-66 0 -131.5 -98t-65.5 -220q0 -94 52 -94zM415 664q0 28 -19 48t-47 20t-47.5 -20t-19.5 -48t19.5 -48t47.5 -20t47 20t19 48zM239 664q0 47 33 76.5t77 29.5q43 0 75.5 -29.5t32.5 -76.5t-32.5 -76.5t-75.5 -29.5q-44 0 -77 29.5
t-33 76.5z" />
    <glyph glyph-name="ae" unicode="&#xe6;" horiz-adv-x="728" 
d="M455 -11q-61 0 -104 35t-56 97q-69 -132 -159 -132q-46 0 -74.5 39.5t-28.5 112.5q0 146 89.5 253t184.5 107q70 0 87 -73q73 73 162 73q60 0 96 -29t36 -74q0 -52 -45 -95t-114 -63.5t-140 -13.5q-3 -27 -3 -52q0 -60 27 -92.5t77 -32.5q48 0 96.5 36.5t69.5 95.5l13 -4
q-22 -88 -81 -138t-133 -50zM290 163q0 141 83 242q-13 53 -59 53q-64 0 -128 -98t-64 -220q0 -94 50 -94q28 0 59 30.5t59 86.5zM544 467q-50 0 -91.5 -63.5t-58.5 -149.5q87 -6 146 37t59 109q0 67 -55 67z" />
    <glyph glyph-name="ccedilla" unicode="&#xe7;" horiz-adv-x="444" 
d="M263 -135q0 -45 -34 -72.5t-82 -27.5q-44 0 -74 23t-34 51l10 5q23 -39 71 -39q26 0 45.5 14.5t19.5 41.5q0 17 -13 28t-34 11q-15 0 -30 -4l-4 4l69 90q-60 8 -99 58t-39 129q0 135 82.5 229.5t196.5 94.5q73 0 113 -22l-52 -137h-13l-44 106q-5 13 -8 15.5t-11 2.5
q-50 0 -90 -47.5t-59 -112t-19 -126.5q0 -60 26 -95.5t74 -35.5q40 0 83 36.5t60 93.5l13 -3q-21 -88 -73.5 -137.5t-121.5 -49.5h-3l-15 -59q4 1 13 1q32 0 54 -18.5t22 -47.5z" />
    <glyph glyph-name="egrave" unicode="&#xe8;" horiz-adv-x="471" 
d="M198 -11q-73 0 -119 49.5t-46 133.5q0 82 35.5 158t97.5 123.5t133 47.5q60 0 96 -29t36 -74q0 -52 -45 -95t-114 -63.5t-140 -13.5q-3 -27 -3 -52q0 -60 27 -92.5t77 -32.5q48 0 96.5 36.5t69.5 95.5l13 -4q-22 -88 -81 -138t-133 -50zM137 254q87 -6 146 37t59 109
q0 67 -55 67q-50 0 -91.5 -63.5t-58.5 -149.5zM351 570h-14l-145 142v12h121z" />
    <glyph glyph-name="eacute" unicode="&#xe9;" horiz-adv-x="471" 
d="M198 -11q-73 0 -119 49.5t-46 133.5q0 82 35.5 158t97.5 123.5t133 47.5q60 0 96 -29t36 -74q0 -52 -45 -95t-114 -63.5t-140 -13.5q-3 -27 -3 -52q0 -60 27 -92.5t77 -32.5q48 0 96.5 36.5t69.5 95.5l13 -4q-22 -88 -81 -138t-133 -50zM137 254q87 -6 146 37t59 109
q0 67 -55 67q-50 0 -91.5 -63.5t-58.5 -149.5zM285 568h-14l87 155h133v-12z" />
    <glyph glyph-name="ecircumflex" unicode="&#xea;" horiz-adv-x="471" 
d="M198 -11q-73 0 -119 49.5t-46 133.5q0 82 35.5 158t97.5 123.5t133 47.5q60 0 96 -29t36 -74q0 -52 -45 -95t-114 -63.5t-140 -13.5q-3 -27 -3 -52q0 -60 27 -92.5t77 -32.5q48 0 96.5 36.5t69.5 95.5l13 -4q-22 -88 -81 -138t-133 -50zM137 254q87 -6 146 37t59 109
q0 67 -55 67q-50 0 -91.5 -63.5t-58.5 -149.5zM323 630l-155 -63l-6 9l171 154h12l109 -154l-10 -9z" />
    <glyph glyph-name="edieresis" unicode="&#xeb;" horiz-adv-x="471" 
d="M198 -11q-73 0 -119 49.5t-46 133.5q0 82 35.5 158t97.5 123.5t133 47.5q60 0 96 -29t36 -74q0 -52 -45 -95t-114 -63.5t-140 -13.5q-3 -27 -3 -52q0 -60 27 -92.5t77 -32.5q48 0 96.5 36.5t69.5 95.5l13 -4q-22 -88 -81 -138t-133 -50zM137 254q87 -6 146 37t59 109
q0 67 -55 67q-50 0 -91.5 -63.5t-58.5 -149.5zM237 707q25 0 40.5 -14t15.5 -37q0 -30 -19 -50t-44 -20t-40.5 14t-15.5 37q0 30 19 50t44 20zM425 707q25 0 40.5 -14t15.5 -37q0 -30 -19 -50t-44 -20t-40.5 14t-15.5 37q0 30 19 50t44 20z" />
    <glyph glyph-name="igrave" unicode="&#xec;" horiz-adv-x="308" 
d="M132 -11q-33 0 -51.5 21.5t-18.5 53.5q0 33 11 77l64 266q4 15 -8 20l-70 37v13l188 24l-86 -341q-12 -48 -12 -75q0 -37 29 -37q28 0 52 34t37 87l12 -1q-14 -78 -50 -128.5t-97 -50.5zM259 570h-14l-145 142v12h121z" />
    <glyph glyph-name="iacute" unicode="&#xed;" horiz-adv-x="308" 
d="M132 -11q-33 0 -51.5 21.5t-18.5 53.5q0 33 11 77l64 266q4 15 -8 20l-70 37v13l188 24l-86 -341q-12 -48 -12 -75q0 -37 29 -37q28 0 52 34t37 87l12 -1q-14 -78 -50 -128.5t-97 -50.5zM193 568h-14l87 155h133v-12z" />
    <glyph glyph-name="icircumflex" unicode="&#xee;" horiz-adv-x="308" 
d="M132 -11q-33 0 -51.5 21.5t-18.5 53.5q0 33 11 77l64 266q4 15 -8 20l-70 37v13l188 24l-86 -341q-12 -48 -12 -75q0 -37 29 -37q28 0 52 34t37 87l12 -1q-14 -78 -50 -128.5t-97 -50.5zM231 630l-155 -63l-6 9l171 154h12l109 -154l-10 -9z" />
    <glyph glyph-name="idieresis" unicode="&#xef;" horiz-adv-x="308" 
d="M132 -11q-33 0 -51.5 21.5t-18.5 53.5q0 33 11 77l64 266q4 15 -8 20l-70 37v13l188 24l-86 -341q-12 -48 -12 -75q0 -37 29 -37q28 0 52 34t37 87l12 -1q-14 -78 -50 -128.5t-97 -50.5zM145 707q25 0 40.5 -14t15.5 -37q0 -30 -19 -50t-44 -20t-40.5 14t-15.5 37
q0 30 19 50t44 20zM333 707q25 0 40.5 -14t15.5 -37q0 -30 -19 -50t-44 -20t-40.5 14t-15.5 37q0 30 19 50t44 20z" />
    <glyph glyph-name="eth" unicode="&#xf0;" horiz-adv-x="501" 
d="M203 572l120 66q-39 71 -95 100l4 12q84 -19 138 -85l113 62l17 -32l-108 -60q77 -116 77 -280q0 -161 -77 -264t-188 -103q-77 0 -123 57.5t-46 139.5q0 117 74.5 212.5t167.5 95.5q72 0 99 -66q-3 93 -37 178l-118 -66zM206 25q63 0 114.5 89t53.5 220q1 60 -23 90.5
t-57 30.5q-45 0 -83.5 -46.5t-58.5 -115t-20 -138.5q0 -62 20 -96t54 -34z" />
    <glyph glyph-name="ntilde" unicode="&#xf1;" horiz-adv-x="571" 
d="M386 -11q-32 0 -50 18t-18 53q0 28 24 102l53 165q18 56 18 82q0 34 -39 34q-27 0 -61.5 -21t-63.5 -66q-35 -56 -55.5 -120.5t-60.5 -235.5h-83l92 407q2 7 2 10t-2 5t-7 5l-68 38v12l175 24l-42 -173l4 -1q38 84 97.5 129t118.5 45q39 0 60.5 -22t21.5 -59
q0 -28 -25 -113l-50 -158q-17 -53 -17 -72q0 -29 24 -29q30 0 53 35.5t36 85.5l12 -1q-12 -75 -49 -127t-100 -52zM410 578q-23 0 -61.5 26.5t-54.5 26.5q-18 0 -32.5 -11t-40.5 -39h-12q22 56 45.5 87t63.5 31q22 0 60.5 -26t55.5 -26t32 11t40 38h12q-14 -37 -25.5 -59
t-33.5 -40.5t-49 -18.5z" />
    <glyph glyph-name="ograve" unicode="&#xf2;" horiz-adv-x="501" 
d="M35 191q0 121 78 215.5t185 94.5q71 0 119.5 -53t48.5 -146q0 -121 -78 -217.5t-185 -96.5q-71 0 -119.5 55t-48.5 148zM371 326q0 138 -77 138q-44 0 -83.5 -51t-60 -119t-20.5 -127q0 -62 18.5 -102t58.5 -40q44 0 83.5 52t60 120.5t20.5 128.5zM358 570h-14l-145 142
v12h121z" />
    <glyph glyph-name="oacute" unicode="&#xf3;" horiz-adv-x="501" 
d="M35 191q0 121 78 215.5t185 94.5q71 0 119.5 -53t48.5 -146q0 -121 -78 -217.5t-185 -96.5q-71 0 -119.5 55t-48.5 148zM371 326q0 138 -77 138q-44 0 -83.5 -51t-60 -119t-20.5 -127q0 -62 18.5 -102t58.5 -40q44 0 83.5 52t60 120.5t20.5 128.5zM292 568h-14l87 155
h133v-12z" />
    <glyph glyph-name="ocircumflex" unicode="&#xf4;" horiz-adv-x="501" 
d="M35 191q0 121 78 215.5t185 94.5q71 0 119.5 -53t48.5 -146q0 -121 -78 -217.5t-185 -96.5q-71 0 -119.5 55t-48.5 148zM371 326q0 138 -77 138q-44 0 -83.5 -51t-60 -119t-20.5 -127q0 -62 18.5 -102t58.5 -40q44 0 83.5 52t60 120.5t20.5 128.5zM330 630l-155 -63l-6 9
l171 154h12l109 -154l-10 -9z" />
    <glyph glyph-name="otilde" unicode="&#xf5;" horiz-adv-x="501" 
d="M35 191q0 121 78 215.5t185 94.5q71 0 119.5 -53t48.5 -146q0 -121 -78 -217.5t-185 -96.5q-71 0 -119.5 55t-48.5 148zM371 326q0 138 -77 138q-44 0 -83.5 -51t-60 -119t-20.5 -127q0 -62 18.5 -102t58.5 -40q44 0 83.5 52t60 120.5t20.5 128.5zM378 578
q-23 0 -61.5 26.5t-54.5 26.5q-18 0 -32.5 -11t-40.5 -39h-12q22 56 45.5 87t63.5 31q22 0 60.5 -26t55.5 -26t32 11t40 38h12q-14 -37 -25.5 -59t-33.5 -40.5t-49 -18.5z" />
    <glyph glyph-name="odieresis" unicode="&#xf6;" horiz-adv-x="501" 
d="M35 191q0 121 78 215.5t185 94.5q71 0 119.5 -53t48.5 -146q0 -121 -78 -217.5t-185 -96.5q-71 0 -119.5 55t-48.5 148zM371 326q0 138 -77 138q-44 0 -83.5 -51t-60 -119t-20.5 -127q0 -62 18.5 -102t58.5 -40q44 0 83.5 52t60 120.5t20.5 128.5zM244 707q25 0 40.5 -14
t15.5 -37q0 -30 -19 -50t-44 -20t-40.5 14t-15.5 37q0 30 19 50t44 20zM432 707q25 0 40.5 -14t15.5 -37q0 -30 -19 -50t-44 -20t-40.5 14t-15.5 37q0 30 19 50t44 20z" />
    <glyph glyph-name="divide" unicode="&#xf7;" 
d="M239 386q0 29 16.5 46t44.5 17t44.5 -17t16.5 -45q0 -29 -16.5 -46.5t-44.5 -17.5t-44.5 17t-16.5 46zM520 217h-440v50h440v-50zM239 98q0 29 16.5 46t44.5 17t44.5 -17t16.5 -45q0 -29 -16.5 -46.5t-44.5 -17.5t-44.5 17t-16.5 46z" />
    <glyph glyph-name="oslash" unicode="&#xf8;" horiz-adv-x="501" 
d="M35 191q0 121 78 215.5t185 94.5q41 0 74 -18l53 88l31 -17l-54 -91q64 -56 64 -161q0 -121 -78 -217.5t-185 -96.5q-36 0 -74 18l-56 -94l-31 17l58 97q-65 57 -65 165zM207 25q44 0 83.5 52t60 120.5t20.5 128.5q0 37 -8 72l-207 -347q20 -26 51 -26zM138 91l207 346
q-19 27 -51 27q-44 0 -83.5 -51t-60 -119t-20.5 -127q0 -45 8 -76z" />
    <glyph glyph-name="ugrave" unicode="&#xf9;" horiz-adv-x="579" 
d="M365 161l-4 1q-34 -79 -93 -126t-117 -47q-39 0 -60.5 22t-21.5 59q0 28 25 113l50 158q17 53 17 72q0 29 -24 29q-30 0 -53 -35.5t-36 -85.5l-12 1q12 73 50.5 126t98.5 53q67 0 67 -71q0 -31 -23 -102l-53 -165q-18 -56 -18 -82q0 -35 39 -35q26 0 58.5 21.5t60.5 66.5
q40 62 66 130t65 225h83l-97 -360q-8 -34 -8 -53q0 -28 23 -28q28 0 53.5 33.5t38.5 87.5l12 -1q-10 -72 -47 -125.5t-95 -53.5q-30 0 -49 20t-19 52q0 39 23 100zM400 570h-14l-145 142v12h121z" />
    <glyph glyph-name="uacute" unicode="&#xfa;" horiz-adv-x="579" 
d="M365 161l-4 1q-34 -79 -93 -126t-117 -47q-39 0 -60.5 22t-21.5 59q0 28 25 113l50 158q17 53 17 72q0 29 -24 29q-30 0 -53 -35.5t-36 -85.5l-12 1q12 73 50.5 126t98.5 53q67 0 67 -71q0 -31 -23 -102l-53 -165q-18 -56 -18 -82q0 -35 39 -35q26 0 58.5 21.5t60.5 66.5
q40 62 66 130t65 225h83l-97 -360q-8 -34 -8 -53q0 -28 23 -28q28 0 53.5 33.5t38.5 87.5l12 -1q-10 -72 -47 -125.5t-95 -53.5q-30 0 -49 20t-19 52q0 39 23 100zM334 568h-14l87 155h133v-12z" />
    <glyph glyph-name="ucircumflex" unicode="&#xfb;" horiz-adv-x="579" 
d="M365 161l-4 1q-34 -79 -93 -126t-117 -47q-39 0 -60.5 22t-21.5 59q0 28 25 113l50 158q17 53 17 72q0 29 -24 29q-30 0 -53 -35.5t-36 -85.5l-12 1q12 73 50.5 126t98.5 53q67 0 67 -71q0 -31 -23 -102l-53 -165q-18 -56 -18 -82q0 -35 39 -35q26 0 58.5 21.5t60.5 66.5
q40 62 66 130t65 225h83l-97 -360q-8 -34 -8 -53q0 -28 23 -28q28 0 53.5 33.5t38.5 87.5l12 -1q-10 -72 -47 -125.5t-95 -53.5q-30 0 -49 20t-19 52q0 39 23 100zM372 630l-155 -63l-6 9l171 154h12l109 -154l-10 -9z" />
    <glyph glyph-name="udieresis" unicode="&#xfc;" horiz-adv-x="579" 
d="M365 161l-4 1q-34 -79 -93 -126t-117 -47q-39 0 -60.5 22t-21.5 59q0 28 25 113l50 158q17 53 17 72q0 29 -24 29q-30 0 -53 -35.5t-36 -85.5l-12 1q12 73 50.5 126t98.5 53q67 0 67 -71q0 -31 -23 -102l-53 -165q-18 -56 -18 -82q0 -35 39 -35q26 0 58.5 21.5t60.5 66.5
q40 62 66 130t65 225h83l-97 -360q-8 -34 -8 -53q0 -28 23 -28q28 0 53.5 33.5t38.5 87.5l12 -1q-10 -72 -47 -125.5t-95 -53.5q-30 0 -49 20t-19 52q0 39 23 100zM286 707q25 0 40.5 -14t15.5 -37q0 -30 -19 -50t-44 -20t-40.5 14t-15.5 37q0 30 19 50t44 20zM474 707
q25 0 40.5 -14t15.5 -37q0 -30 -19 -50t-44 -20t-40.5 14t-15.5 37q0 30 19 50t44 20z" />
    <glyph glyph-name="yacute" unicode="&#xfd;" horiz-adv-x="509" 
d="M-58 -245q-36 0 -55 14l44 125h10l63 -76q9 -11 26 -3q43 20 90.5 58t77.5 75q4 5 4 15q-14 291 -53 441q-10 38 -30 38q-22 0 -46.5 -36t-36.5 -89l-12 1q12 85 52.5 134t90.5 49q33 0 51.5 -17t27.5 -54q31 -131 33 -381l3 -1q51 63 87 148.5t36 158.5q0 69 -28 96v10
l122 40q-6 -79 -25.5 -151.5t-50 -133t-58 -103.5t-63.5 -90q-128 -168 -255 -236q-59 -32 -105 -32zM312 568h-14l87 155h133v-12z" />
    <glyph glyph-name="thorn" unicode="&#xfe;" horiz-adv-x="501" 
d="M-8 -162l179 807q3 16 -5 21l-56 39v12l171 33l-101 -423h3q81 174 182 174q45 0 73.5 -38.5t28.5 -108.5q0 -156 -88 -260.5t-197 -104.5q-34 0 -69 14l-34 -159q-3 -16 7 -20l117 -47v-12h-289v12l57 35q18 10 21 26zM210 324q-52 -106 -90 -287q20 -12 51 -12
q54 0 101 47q48 48 77 130.5t29 152.5q0 88 -49 88q-60 0 -119 -119z" />
    <glyph glyph-name="ydieresis" unicode="&#xff;" horiz-adv-x="509" 
d="M-58 -245q-36 0 -55 14l44 125h10l63 -76q9 -11 26 -3q43 20 90.5 58t77.5 75q4 5 4 15q-14 291 -53 441q-10 38 -30 38q-22 0 -46.5 -36t-36.5 -89l-12 1q12 85 52.5 134t90.5 49q33 0 51.5 -17t27.5 -54q31 -131 33 -381l3 -1q51 63 87 148.5t36 158.5q0 69 -28 96v10
l122 40q-6 -79 -25.5 -151.5t-50 -133t-58 -103.5t-63.5 -90q-128 -168 -255 -236q-59 -32 -105 -32zM264 707q25 0 40.5 -14t15.5 -37q0 -30 -19 -50t-44 -20t-40.5 14t-15.5 37q0 30 19 50t44 20zM452 707q25 0 40.5 -14t15.5 -37q0 -30 -19 -50t-44 -20t-40.5 14
t-15.5 37q0 30 19 50t44 20z" />
    <glyph glyph-name="Amacron" unicode="&#x100;" horiz-adv-x="659" 
d="M-46 0v14l91 57q20 13 31 32l280 499q8 14 3 25l-27 65v11h112l104 -623q3 -16 16 -26l52 -40v-14h-254v14l85 49q11 6 9 19l-21 134h-247l-66 -119q-6 -10 -5.5 -15t9.5 -12l76 -56v-14h-248zM383 562l-172 -306h218zM551 803h-264v56h264v-56z" />
    <glyph glyph-name="amacron" unicode="&#x101;" horiz-adv-x="539" 
d="M392 442l78 57h11l-93 -375q-8 -32 -8 -48q0 -28 23 -28q28 0 53.5 33.5t38.5 87.5l12 -1q-10 -71 -47 -125t-92 -54q-32 0 -51 20t-19 52q0 44 21 100l-4 2q-74 -174 -177 -174q-48 0 -76.5 39.5t-28.5 112.5q0 146 91 253t188 107q69 0 80 -59zM174 46q26 0 56 29.5
t57 81.5q49 96 87 247q-5 54 -55 54q-66 0 -131.5 -98t-65.5 -220q0 -94 52 -94zM474 604h-264v56h264v-56z" />
    <glyph glyph-name="Abreve" unicode="&#x102;" horiz-adv-x="659" 
d="M-46 0v14l91 57q20 13 31 32l280 499q8 14 3 25l-27 65v11h112l104 -623q3 -16 16 -26l52 -40v-14h-254v14l85 49q11 6 9 19l-21 134h-247l-66 -119q-6 -10 -5.5 -15t9.5 -12l76 -56v-14h-248zM383 562l-172 -306h218zM413 767q-44 0 -74.5 24.5t-30.5 70.5q0 22 8 54h12
q0 -40 26 -59.5t67 -19.5q88 0 121 79h12q-11 -73 -49.5 -111t-91.5 -38z" />
    <glyph glyph-name="abreve" unicode="&#x103;" horiz-adv-x="539" 
d="M392 442l78 57h11l-93 -375q-8 -32 -8 -48q0 -28 23 -28q28 0 53.5 33.5t38.5 87.5l12 -1q-10 -71 -47 -125t-92 -54q-32 0 -51 20t-19 52q0 44 21 100l-4 2q-74 -174 -177 -174q-48 0 -76.5 39.5t-28.5 112.5q0 146 91 253t188 107q69 0 80 -59zM174 46q26 0 56 29.5
t57 81.5q49 96 87 247q-5 54 -55 54q-66 0 -131.5 -98t-65.5 -220q0 -94 52 -94zM336 568q-44 0 -74.5 24.5t-30.5 70.5q0 22 8 54h12q0 -40 26 -59.5t67 -19.5q88 0 121 79h12q-11 -73 -49.5 -111t-91.5 -38z" />
    <glyph glyph-name="Aogonek" unicode="&#x104;" horiz-adv-x="659" 
d="M383 562l-172 -306h218zM546 0h-184v14l85 49q11 6 9 19l-21 134h-247l-65 -117q-6 -10 -5.5 -15t9.5 -12l75 -58v-14h-248v14l92 59q20 13 31 32l279 497q8 14 3 25l-27 65v11h112l104 -623q3 -16 16 -26l52 -40v-14h-24q-41 0 -86 -44.5t-45 -88.5q0 -26 14 -39t36 -13
q34 0 65 29l8 -5q-45 -74 -123 -74q-33 0 -54 19.5t-21 51.5q0 53 47 96t113 68z" />
    <glyph glyph-name="aogonek" unicode="&#x105;" horiz-adv-x="539" 
d="M433 -156l8 -5q-45 -74 -123 -74q-33 0 -54 19.5t-21 51.5q0 47 37.5 86.5t94.5 66.5h-7q-32 0 -51 20t-19 52q0 44 21 100l-4 2q-74 -174 -177 -174q-48 0 -76.5 39.5t-28.5 112.5q0 146 91 253t188 107q69 0 80 -59l78 57h11l-93 -375q-8 -32 -8 -48q0 -28 23 -28
q28 0 53.5 33.5t38.5 87.5l12 -1q-8 -56 -33 -103t-62 -70q-36 -22 -65 -57.5t-29 -70.5q0 -26 14 -39t36 -13q34 0 65 29zM319 458q-66 0 -131.5 -98t-65.5 -220q0 -94 52 -94q26 0 56 29.5t57 81.5q49 96 87 247q-5 54 -55 54z" />
    <glyph glyph-name="Cacute" unicode="&#x106;" horiz-adv-x="623" 
d="M506 10q-83 -25 -181 -25q-119 0 -188.5 80t-69.5 215q0 187 113 312.5t268 125.5q99 0 192 -25l-40 -199h-13l-55 158q-4 11 -7 14.5t-13 5.5q-23 5 -64 5q-114 0 -194.5 -121.5t-80.5 -283.5q0 -101 42 -174.5t118 -73.5q30 0 47 4q17 3 28 17l128 165h13zM440 767h-14
l87 155h133v-12z" />
    <glyph glyph-name="cacute" unicode="&#x107;" horiz-adv-x="444" 
d="M192 -11q-67 0 -112 51t-45 137q0 135 82.5 229.5t196.5 94.5q73 0 113 -22l-52 -137h-13l-44 106q-5 13 -8 15.5t-11 2.5q-50 0 -90 -47.5t-59 -112t-19 -126.5q0 -60 26 -95.5t74 -35.5q40 0 83 36.5t60 93.5l13 -3q-21 -88 -73.5 -137.5t-121.5 -49.5zM292 568h-14
l87 155h133v-12z" />
    <glyph glyph-name="Ccircumflex" unicode="&#x108;" horiz-adv-x="623" 
d="M506 10q-83 -25 -181 -25q-119 0 -188.5 80t-69.5 215q0 187 113 312.5t268 125.5q99 0 192 -25l-40 -199h-13l-55 158q-4 11 -7 14.5t-13 5.5q-23 5 -64 5q-114 0 -194.5 -121.5t-80.5 -283.5q0 -101 42 -174.5t118 -73.5q30 0 47 4q17 3 28 17l128 165h13zM478 829
l-155 -63l-6 9l171 154h12l109 -154l-10 -9z" />
    <glyph glyph-name="ccircumflex" unicode="&#x109;" horiz-adv-x="444" 
d="M192 -11q-67 0 -112 51t-45 137q0 135 82.5 229.5t196.5 94.5q73 0 113 -22l-52 -137h-13l-44 106q-5 13 -8 15.5t-11 2.5q-50 0 -90 -47.5t-59 -112t-19 -126.5q0 -60 26 -95.5t74 -35.5q40 0 83 36.5t60 93.5l13 -3q-21 -88 -73.5 -137.5t-121.5 -49.5zM330 630
l-155 -63l-6 9l171 154h12l109 -154l-10 -9z" />
    <glyph glyph-name="Cdotaccent" unicode="&#x10a;" horiz-adv-x="623" 
d="M506 10q-83 -25 -181 -25q-119 0 -188.5 80t-69.5 215q0 187 113 312.5t268 125.5q99 0 192 -25l-40 -199h-13l-55 158q-4 11 -7 14.5t-13 5.5q-23 5 -64 5q-114 0 -194.5 -121.5t-80.5 -283.5q0 -101 42 -174.5t118 -73.5q30 0 47 4q17 3 28 17l128 165h13zM487 916
q26 0 43 -15t17 -40q0 -32 -20 -53.5t-48 -21.5q-26 0 -43 15t-17 40q0 32 20 53.5t48 21.5z" />
    <glyph glyph-name="cdotaccent" unicode="&#x10b;" horiz-adv-x="444" 
d="M192 -11q-67 0 -112 51t-45 137q0 135 82.5 229.5t196.5 94.5q73 0 113 -22l-52 -137h-13l-44 106q-5 13 -8 15.5t-11 2.5q-50 0 -90 -47.5t-59 -112t-19 -126.5q0 -60 26 -95.5t74 -35.5q40 0 83 36.5t60 93.5l13 -3q-21 -88 -73.5 -137.5t-121.5 -49.5zM339 717
q26 0 43 -15t17 -40q0 -32 -20 -53.5t-48 -21.5q-26 0 -43 15t-17 40q0 32 20 53.5t48 21.5z" />
    <glyph glyph-name="Ccaron" unicode="&#x10c;" horiz-adv-x="623" 
d="M506 10q-83 -25 -181 -25q-119 0 -188.5 80t-69.5 215q0 187 113 312.5t268 125.5q99 0 192 -25l-40 -199h-13l-55 158q-4 11 -7 14.5t-13 5.5q-23 5 -64 5q-114 0 -194.5 -121.5t-80.5 -283.5q0 -101 42 -174.5t118 -73.5q30 0 47 4q17 3 28 17l128 165h13zM484 870
l155 63l6 -9l-171 -154h-12l-109 154l10 9z" />
    <glyph glyph-name="ccaron" unicode="&#x10d;" horiz-adv-x="444" 
d="M192 -11q-67 0 -112 51t-45 137q0 135 82.5 229.5t196.5 94.5q73 0 113 -22l-52 -137h-13l-44 106q-5 13 -8 15.5t-11 2.5q-50 0 -90 -47.5t-59 -112t-19 -126.5q0 -60 26 -95.5t74 -35.5q40 0 83 36.5t60 93.5l13 -3q-21 -88 -73.5 -137.5t-121.5 -49.5zM336 671l155 63
l6 -9l-171 -154h-12l-109 154l10 9z" />
    <glyph glyph-name="Dcaron" unicode="&#x10e;" horiz-adv-x="689" 
d="M-12 0v14l93 46q13 6 15 20l110 543q2 14 -7 20l-83 46v14h283q129 0 201 -77t72 -216q0 -173 -119.5 -291.5t-270.5 -118.5h-294zM264 40q53 0 106 25.5t97 72.5t71.5 121t27.5 162q0 121 -55.5 181.5t-151.5 60.5h-38q-14 0 -16 -14l-121 -595q-2 -9 0 -11.5t10 -2.5
h70zM422 870l155 63l6 -9l-171 -154h-12l-109 154l10 9z" />
    <glyph glyph-name="dcaron" unicode="&#x10f;" horiz-adv-x="603" 
d="M531 750l-143 -622q-8 -32 -8 -52q0 -28 23 -28q28 0 53.5 33.5t38.5 87.5l12 -1q-10 -71 -47 -125t-92 -54q-32 0 -51 20t-19 52q0 44 21 100l-4 2q-74 -174 -179 -174q-46 0 -74.5 40t-28.5 112q0 76 26.5 145.5t67.5 115t87.5 72.5t87.5 27q59 0 79 -42l40 186
q3 16 -5 21l-56 39v12zM287 157q45 89 84 256q-16 45 -60 45q-63 0 -126 -97.5t-63 -222.5q0 -92 50 -92q28 0 58.5 29.5t56.5 81.5zM715 703v-12l-145 -209h-12l45 221h112z" />
    <glyph glyph-name="Dcroat" unicode="&#x110;" horiz-adv-x="701" 
d="M0 0v14l93 46q13 6 15 20l52 256h-85v38h92l51 249q2 14 -7 20l-83 46v14h283q129 0 201 -77t72 -216q0 -173 -119.5 -291.5t-270.5 -118.5h-294zM276 40q53 0 106 25.5t97 72.5t71.5 121t27.5 162q0 121 -55.5 181.5t-151.5 60.5h-38q-14 0 -16 -14l-56 -275h132v-38
h-140l-57 -282q-2 -9 0 -11.5t10 -2.5h70z" />
    <glyph glyph-name="dcroat" unicode="&#x111;" horiz-adv-x="539" 
d="M531 750l-38 -163h77v-36h-85l-97 -423q-8 -32 -8 -52q0 -28 23 -28q28 0 53.5 33.5t38.5 87.5l12 -1q-10 -71 -47 -125t-92 -54q-32 0 -51 20t-19 52q0 44 21 100l-4 2q-74 -174 -179 -174q-46 0 -74.5 40t-28.5 112q0 76 26.5 145.5t67.5 115t87.5 72.5t87.5 27
q59 0 79 -42l20 92h-151v36h158l13 58q3 16 -5 21l-56 39v12zM287 157q45 89 84 256q-16 45 -60 45q-63 0 -126 -97.5t-63 -222.5q0 -92 50 -92q28 0 58.5 29.5t56.5 81.5z" />
    <glyph glyph-name="Emacron" unicode="&#x112;" horiz-adv-x="604" 
d="M435 240h-12l-40 81q-4 8 -7.5 10t-13.5 2h-122l-57 -279q-2 -9 0 -11.5t10 -2.5h184q15 0 26 13l116 138h13l-39 -191h-506v14l93 46q13 6 15 20l112 543q2 14 -7 20l-83 46v14h507l-40 -193h-13l-48 140q-4 9 -6.5 11t-12.5 2h-182q-14 0 -16 -14l-57 -276h121
q14 0 26 12l73 80h12zM547 803h-264v56h264v-56z" />
    <glyph glyph-name="emacron" unicode="&#x113;" horiz-adv-x="471" 
d="M198 -11q-73 0 -119 49.5t-46 133.5q0 82 35.5 158t97.5 123.5t133 47.5q60 0 96 -29t36 -74q0 -52 -45 -95t-114 -63.5t-140 -13.5q-3 -27 -3 -52q0 -60 27 -92.5t77 -32.5q48 0 96.5 36.5t69.5 95.5l13 -4q-22 -88 -81 -138t-133 -50zM137 254q87 -6 146 37t59 109
q0 67 -55 67q-50 0 -91.5 -63.5t-58.5 -149.5zM456 604h-264v56h264v-56z" />
    <glyph glyph-name="Ebreve" unicode="&#x114;" horiz-adv-x="604" 
d="M435 240h-12l-40 81q-4 8 -7.5 10t-13.5 2h-122l-57 -279q-2 -9 0 -11.5t10 -2.5h184q15 0 26 13l116 138h13l-39 -191h-506v14l93 46q13 6 15 20l112 543q2 14 -7 20l-83 46v14h507l-40 -193h-13l-48 140q-4 9 -6.5 11t-12.5 2h-182q-14 0 -16 -14l-57 -276h121
q14 0 26 12l73 80h12zM409 767q-44 0 -74.5 24.5t-30.5 70.5q0 22 8 54h12q0 -40 26 -59.5t67 -19.5q88 0 121 79h12q-11 -73 -49.5 -111t-91.5 -38z" />
    <glyph glyph-name="ebreve" unicode="&#x115;" horiz-adv-x="471" 
d="M198 -11q-73 0 -119 49.5t-46 133.5q0 82 35.5 158t97.5 123.5t133 47.5q60 0 96 -29t36 -74q0 -52 -45 -95t-114 -63.5t-140 -13.5q-3 -27 -3 -52q0 -60 27 -92.5t77 -32.5q48 0 96.5 36.5t69.5 95.5l13 -4q-22 -88 -81 -138t-133 -50zM137 254q87 -6 146 37t59 109
q0 67 -55 67q-50 0 -91.5 -63.5t-58.5 -149.5zM318 568q-44 0 -74.5 24.5t-30.5 70.5q0 22 8 54h12q0 -40 26 -59.5t67 -19.5q88 0 121 79h12q-11 -73 -49.5 -111t-91.5 -38z" />
    <glyph glyph-name="Edotaccent" unicode="&#x116;" horiz-adv-x="604" 
d="M435 240h-12l-40 81q-4 8 -7.5 10t-13.5 2h-122l-57 -279q-2 -9 0 -11.5t10 -2.5h184q15 0 26 13l116 138h13l-39 -191h-506v14l93 46q13 6 15 20l112 543q2 14 -7 20l-83 46v14h507l-40 -193h-13l-48 140q-4 9 -6.5 11t-12.5 2h-182q-14 0 -16 -14l-57 -276h121
q14 0 26 12l73 80h12zM423 916q26 0 43 -15t17 -40q0 -32 -20 -53.5t-48 -21.5q-26 0 -43 15t-17 40q0 32 20 53.5t48 21.5z" />
    <glyph glyph-name="edotaccent" unicode="&#x117;" horiz-adv-x="471" 
d="M198 -11q-73 0 -119 49.5t-46 133.5q0 82 35.5 158t97.5 123.5t133 47.5q60 0 96 -29t36 -74q0 -52 -45 -95t-114 -63.5t-140 -13.5q-3 -27 -3 -52q0 -60 27 -92.5t77 -32.5q48 0 96.5 36.5t69.5 95.5l13 -4q-22 -88 -81 -138t-133 -50zM137 254q87 -6 146 37t59 109
q0 67 -55 67q-50 0 -91.5 -63.5t-58.5 -149.5zM332 717q26 0 43 -15t17 -40q0 -32 -20 -53.5t-48 -21.5q-26 0 -43 15t-17 40q0 32 20 53.5t48 21.5z" />
    <glyph glyph-name="Eogonek" unicode="&#x118;" horiz-adv-x="604" 
d="M455 -156l8 -5q-45 -74 -123 -74q-33 0 -54 19.5t-21 51.5q0 53 47 96t113 68h-438v14l93 46q13 6 15 20l112 543q2 14 -7 20l-83 46v14h507l-40 -193h-13l-48 140q-4 9 -6.5 11t-12.5 2h-182q-14 0 -16 -14l-57 -276h121q14 0 26 12l73 80h12l-46 -225h-12l-40 81
q-4 8 -7.5 10t-13.5 2h-122l-57 -279q-2 -9 0 -11.5t10 -2.5h184q15 0 26 13l116 138h13l-39 -191h-22q-41 0 -86 -44.5t-45 -88.5q0 -26 14 -39t36 -13q34 0 65 29z" />
    <glyph glyph-name="eogonek" unicode="&#x119;" horiz-adv-x="471" 
d="M292 -156l8 -5q-45 -74 -123 -74q-33 0 -54 19.5t-21 51.5q0 50 40 90.5t99 67.5q-20 -5 -43 -5q-73 0 -119 49.5t-46 133.5q0 82 35.5 158t97.5 123.5t133 47.5q60 0 96 -29t36 -74q0 -52 -45 -95t-114 -63.5t-140 -13.5q-3 -27 -3 -52q0 -60 27 -92.5t77 -32.5
q48 0 96.5 36.5t69.5 95.5l13 -4q-29 -119 -130 -174q-39 -21 -72 -60.5t-33 -75.5q0 -26 14 -39t36 -13q34 0 65 29zM287 467q-50 0 -91.5 -63.5t-58.5 -149.5q87 -6 146 37t59 109q0 67 -55 67z" />
    <glyph glyph-name="Ecaron" unicode="&#x11a;" horiz-adv-x="604" 
d="M435 240h-12l-40 81q-4 8 -7.5 10t-13.5 2h-122l-57 -279q-2 -9 0 -11.5t10 -2.5h184q15 0 26 13l116 138h13l-39 -191h-506v14l93 46q13 6 15 20l112 543q2 14 -7 20l-83 46v14h507l-40 -193h-13l-48 140q-4 9 -6.5 11t-12.5 2h-182q-14 0 -16 -14l-57 -276h121
q14 0 26 12l73 80h12zM420 870l155 63l6 -9l-171 -154h-12l-109 154l10 9z" />
    <glyph glyph-name="ecaron" unicode="&#x11b;" horiz-adv-x="471" 
d="M198 -11q-73 0 -119 49.5t-46 133.5q0 82 35.5 158t97.5 123.5t133 47.5q60 0 96 -29t36 -74q0 -52 -45 -95t-114 -63.5t-140 -13.5q-3 -27 -3 -52q0 -60 27 -92.5t77 -32.5q48 0 96.5 36.5t69.5 95.5l13 -4q-22 -88 -81 -138t-133 -50zM137 254q87 -6 146 37t59 109
q0 67 -55 67q-50 0 -91.5 -63.5t-58.5 -149.5zM329 671l155 63l6 -9l-171 -154h-12l-109 154l10 9z" />
    <glyph glyph-name="Gcircumflex" unicode="&#x11c;" horiz-adv-x="677" 
d="M577 231l-50 -246l-88 21q-53 -21 -123 -21q-107 0 -178 78.5t-71 215.5q0 195 115.5 316.5t281.5 121.5q93 0 204 -29l-40 -195h-13l-54 159q-5 12 -8 15t-12 4q-32 6 -71 6q-130 0 -213.5 -118.5t-83.5 -281.5q0 -110 43 -180.5t131 -70.5q46 0 84 13q11 4 13.5 6.5
t3.5 11.5l36 174q2 14 -7 20l-76 45v14h280v-14l-89 -45q-13 -6 -15 -20zM494 829l-155 -63l-6 9l171 154h12l109 -154l-10 -9z" />
    <glyph glyph-name="gcircumflex" unicode="&#x11d;" horiz-adv-x="501" 
d="M73 320q0 80 61.5 130.5t138.5 50.5q66 0 117 -37q8 -6 17 3l116 115h12l-29 -147h-91q37 -35 37 -94q0 -83 -59 -133t-147 -50q-46 0 -83 19q-33 -23 -33 -50q0 -37 63 -46l89 -13q137 -20 137 -131q0 -80 -73.5 -131t-163.5 -51q-85 0 -150 38.5t-65 96.5q0 48 39 79.5
t103 45.5q-55 22 -55 75q0 31 25.5 57.5t64.5 40.5q-71 47 -71 132zM144 6l-6 1q-86 -32 -86 -111q0 -44 38.5 -73.5t100.5 -29.5q64 0 107 29.5t43 83.5q0 70 -107 86zM276 464q-47 0 -82.5 -44t-35.5 -109q0 -54 23.5 -86t64.5 -32q45 0 81.5 44.5t36.5 113.5q0 49 -23 81
t-65 32zM321 630l-155 -63l-6 9l171 154h12l109 -154l-10 -9z" />
    <glyph glyph-name="Gbreve" unicode="&#x11e;" horiz-adv-x="677" 
d="M577 231l-50 -246l-88 21q-53 -21 -123 -21q-107 0 -178 78.5t-71 215.5q0 195 115.5 316.5t281.5 121.5q93 0 204 -29l-40 -195h-13l-54 159q-5 12 -8 15t-12 4q-32 6 -71 6q-130 0 -213.5 -118.5t-83.5 -281.5q0 -110 43 -180.5t131 -70.5q46 0 84 13q11 4 13.5 6.5
t3.5 11.5l36 174q2 14 -7 20l-76 45v14h280v-14l-89 -45q-13 -6 -15 -20zM489 767q-44 0 -74.5 24.5t-30.5 70.5q0 22 8 54h12q0 -40 26 -59.5t67 -19.5q88 0 121 79h12q-11 -73 -49.5 -111t-91.5 -38z" />
    <glyph glyph-name="gbreve" unicode="&#x11f;" horiz-adv-x="501" 
d="M73 320q0 80 61.5 130.5t138.5 50.5q66 0 117 -37q8 -6 17 3l116 115h12l-29 -147h-91q37 -35 37 -94q0 -83 -59 -133t-147 -50q-46 0 -83 19q-33 -23 -33 -50q0 -37 63 -46l89 -13q137 -20 137 -131q0 -80 -73.5 -131t-163.5 -51q-85 0 -150 38.5t-65 96.5q0 48 39 79.5
t103 45.5q-55 22 -55 75q0 31 25.5 57.5t64.5 40.5q-71 47 -71 132zM144 6l-6 1q-86 -32 -86 -111q0 -44 38.5 -73.5t100.5 -29.5q64 0 107 29.5t43 83.5q0 70 -107 86zM276 464q-47 0 -82.5 -44t-35.5 -109q0 -54 23.5 -86t64.5 -32q45 0 81.5 44.5t36.5 113.5q0 49 -23 81
t-65 32zM316 568q-44 0 -74.5 24.5t-30.5 70.5q0 22 8 54h12q0 -40 26 -59.5t67 -19.5q88 0 121 79h12q-11 -73 -49.5 -111t-91.5 -38z" />
    <glyph glyph-name="Gdotaccent" unicode="&#x120;" horiz-adv-x="677" 
d="M577 231l-50 -246l-88 21q-53 -21 -123 -21q-107 0 -178 78.5t-71 215.5q0 195 115.5 316.5t281.5 121.5q93 0 204 -29l-40 -195h-13l-54 159q-5 12 -8 15t-12 4q-32 6 -71 6q-130 0 -213.5 -118.5t-83.5 -281.5q0 -110 43 -180.5t131 -70.5q46 0 84 13q11 4 13.5 6.5
t3.5 11.5l36 174q2 14 -7 20l-76 45v14h280v-14l-89 -45q-13 -6 -15 -20zM503 916q26 0 43 -15t17 -40q0 -32 -20 -53.5t-48 -21.5q-26 0 -43 15t-17 40q0 32 20 53.5t48 21.5z" />
    <glyph glyph-name="gdotaccent" unicode="&#x121;" horiz-adv-x="501" 
d="M73 320q0 80 61.5 130.5t138.5 50.5q66 0 117 -37q8 -6 17 3l116 115h12l-29 -147h-91q37 -35 37 -94q0 -83 -59 -133t-147 -50q-46 0 -83 19q-33 -23 -33 -50q0 -37 63 -46l89 -13q137 -20 137 -131q0 -80 -73.5 -131t-163.5 -51q-85 0 -150 38.5t-65 96.5q0 48 39 79.5
t103 45.5q-55 22 -55 75q0 31 25.5 57.5t64.5 40.5q-71 47 -71 132zM144 6l-6 1q-86 -32 -86 -111q0 -44 38.5 -73.5t100.5 -29.5q64 0 107 29.5t43 83.5q0 70 -107 86zM276 464q-47 0 -82.5 -44t-35.5 -109q0 -54 23.5 -86t64.5 -32q45 0 81.5 44.5t36.5 113.5q0 49 -23 81
t-65 32zM330 717q26 0 43 -15t17 -40q0 -32 -20 -53.5t-48 -21.5q-26 0 -43 15t-17 40q0 32 20 53.5t48 21.5z" />
    <glyph glyph-name="Gcommaaccent" unicode="&#x122;" horiz-adv-x="677" 
d="M577 231l-50 -246l-88 21q-53 -21 -123 -21q-107 0 -178 78.5t-71 215.5q0 195 115.5 316.5t281.5 121.5q93 0 204 -29l-40 -195h-13l-54 159q-5 12 -8 15t-12 4q-32 6 -71 6q-130 0 -213.5 -118.5t-83.5 -281.5q0 -110 43 -180.5t131 -70.5q46 0 84 13q11 4 13.5 6.5
t3.5 11.5l36 174q2 14 -7 20l-76 45v14h280v-14l-89 -45q-13 -6 -15 -20zM218 -275l-2 11q55 32 66 70q2 9 -6 11q-32 8 -32 45q0 27 17.5 45t44.5 18q24 0 39.5 -15.5t15.5 -40.5q0 -45 -44 -88.5t-99 -55.5z" />
    <glyph glyph-name="gcommaaccent" unicode="&#x123;" horiz-adv-x="501" 
d="M73 320q0 80 61.5 130.5t138.5 50.5q66 0 117 -37q8 -6 17 3l116 115h12l-29 -147h-91q37 -35 37 -94q0 -83 -59 -133t-147 -50q-46 0 -83 19q-33 -23 -33 -50q0 -37 63 -46l89 -13q137 -20 137 -131q0 -80 -73.5 -131t-163.5 -51q-85 0 -150 38.5t-65 96.5q0 48 39 79.5
t103 45.5q-55 22 -55 75q0 31 25.5 57.5t64.5 40.5q-71 47 -71 132zM144 6l-6 1q-86 -32 -86 -111q0 -44 38.5 -73.5t100.5 -29.5q64 0 107 29.5t43 83.5q0 70 -107 86zM276 464q-47 0 -82.5 -44t-35.5 -109q0 -54 23.5 -86t64.5 -32q45 0 81.5 44.5t36.5 113.5q0 49 -23 81
t-65 32zM407 755q-55 -32 -66 -70q-2 -9 6 -11q32 -8 32 -45q0 -27 -17.5 -45t-44.5 -18q-24 0 -39.5 15.5t-15.5 40.5q0 45 44 88.5t99 55.5z" />
    <glyph glyph-name="Hcircumflex" unicode="&#x124;" horiz-adv-x="751" 
d="M698 623l-111 -543q-4 -12 7 -20l83 -46v-14h-292v14l93 46q13 6 15 20l52 258h-304l-52 -258q-2 -14 7 -20l83 -46v-14h-292v14l93 46q13 6 15 20l111 543q2 14 -7 20l-83 46v14h292v-14l-93 -46q-13 -6 -15 -20l-50 -243h304l50 243q2 14 -7 20l-83 46v14h292v-14
l-93 -46q-13 -6 -15 -20zM493 829l-155 -63l-6 9l171 154h12l109 -154l-10 -9z" />
    <glyph glyph-name="hcircumflex" unicode="&#x125;" horiz-adv-x="549" 
d="M166 666l-56 39v12l171 33l-100 -420l4 -1q35 81 93 126.5t120 45.5q39 0 60.5 -22t21.5 -59q0 -28 -25 -113l-50 -158q-17 -53 -17 -72q0 -29 24 -29q30 0 53 35.5t36 85.5l12 -1q-11 -73 -48.5 -126t-100.5 -53q-32 0 -50 18t-18 53q0 28 26 108l51 159q18 56 18 82
q0 34 -39 34q-27 0 -61.5 -21t-63.5 -66q-35 -56 -55.5 -120.5t-60.5 -235.5h-82l142 645q3 16 -5 21zM246 844l-155 -63l-6 9l171 154h12l109 -154l-10 -9z" />
    <glyph glyph-name="Hbar" unicode="&#x126;" horiz-adv-x="771" 
d="M708 623l-23 -114h89v-38h-97l-80 -391q-4 -12 7 -20l83 -46v-14h-292v14l93 46q13 6 15 20l44 218h-304l-44 -218q-2 -14 7 -20l83 -46v-14h-292v14l93 46q13 6 15 20l80 391h-89v38h96l24 114q2 14 -7 20l-83 46v14h292v-14l-93 -46q-13 -6 -15 -20l-24 -114h304
l24 114q2 14 -7 20l-83 46v14h292v-14l-93 -46q-13 -6 -15 -20zM279 471l-27 -131h304l27 131h-304z" />
    <glyph glyph-name="hbar" unicode="&#x127;" horiz-adv-x="549" 
d="M166 666l-56 39v12l171 33l-39 -163h153v-36h-162l-52 -221l4 -1q35 81 93 126.5t120 45.5q39 0 60.5 -22t21.5 -59q0 -28 -25 -113l-50 -158q-17 -53 -17 -72q0 -29 24 -29q30 0 53 35.5t36 85.5l12 -1q-11 -73 -48.5 -126t-100.5 -53q-32 0 -50 18t-18 53q0 28 26 108
l51 159q18 56 18 82q0 34 -39 34q-27 0 -61.5 -21t-63.5 -66q-35 -56 -55.5 -120.5t-60.5 -235.5h-82l121 551h-75v36h83l13 58q3 16 -5 21z" />
    <glyph glyph-name="Itilde" unicode="&#x128;" horiz-adv-x="353" 
d="M300 623l-111 -543q-2 -14 7 -20l83 -46v-14h-292v14l93 46q13 6 15 20l111 543q2 14 -7 20l-83 46v14h292v-14l-93 -46q-13 -6 -15 -20zM343 777q-23 0 -61.5 26.5t-54.5 26.5q-18 0 -32.5 -11t-40.5 -39h-12q22 56 45.5 87t63.5 31q22 0 60.5 -26t55.5 -26t32 11t40 38
h12q-14 -37 -25.5 -59t-33.5 -40.5t-49 -18.5z" />
    <glyph glyph-name="itilde" unicode="&#x129;" horiz-adv-x="308" 
d="M132 -11q-33 0 -51.5 21.5t-18.5 53.5q0 33 11 77l64 266q4 15 -8 20l-70 37v13l188 24l-86 -341q-12 -48 -12 -75q0 -37 29 -37q28 0 52 34t37 87l12 -1q-14 -78 -50 -128.5t-97 -50.5zM279 578q-23 0 -61.5 26.5t-54.5 26.5q-18 0 -32.5 -11t-40.5 -39h-12
q22 56 45.5 87t63.5 31q22 0 60.5 -26t55.5 -26t32 11t40 38h12q-14 -37 -25.5 -59t-33.5 -40.5t-49 -18.5z" />
    <glyph glyph-name="Imacron" unicode="&#x12a;" horiz-adv-x="353" 
d="M300 623l-111 -543q-2 -14 7 -20l83 -46v-14h-292v14l93 46q13 6 15 20l111 543q2 14 -7 20l-83 46v14h292v-14l-93 -46q-13 -6 -15 -20zM428 803h-264v56h264v-56z" />
    <glyph glyph-name="imacron" unicode="&#x12b;" horiz-adv-x="308" 
d="M132 -11q-33 0 -51.5 21.5t-18.5 53.5q0 33 11 77l64 266q4 15 -8 20l-70 37v13l188 24l-86 -341q-12 -48 -12 -75q0 -37 29 -37q28 0 52 34t37 87l12 -1q-14 -78 -50 -128.5t-97 -50.5zM364 604h-264v56h264v-56z" />
    <glyph glyph-name="Ibreve" unicode="&#x12c;" horiz-adv-x="353" 
d="M300 623l-111 -543q-2 -14 7 -20l83 -46v-14h-292v14l93 46q13 6 15 20l111 543q2 14 -7 20l-83 46v14h292v-14l-93 -46q-13 -6 -15 -20zM290 767q-44 0 -74.5 24.5t-30.5 70.5q0 22 8 54h12q0 -40 26 -59.5t67 -19.5q88 0 121 79h12q-11 -73 -49.5 -111t-91.5 -38z" />
    <glyph glyph-name="ibreve" unicode="&#x12d;" horiz-adv-x="308" 
d="M132 -11q-33 0 -51.5 21.5t-18.5 53.5q0 33 11 77l64 266q4 15 -8 20l-70 37v13l188 24l-86 -341q-12 -48 -12 -75q0 -37 29 -37q28 0 52 34t37 87l12 -1q-14 -78 -50 -128.5t-97 -50.5zM226 568q-44 0 -74.5 24.5t-30.5 70.5q0 22 8 54h12q0 -40 26 -59.5t67 -19.5
q88 0 121 79h12q-11 -73 -49.5 -111t-91.5 -38z" />
    <glyph glyph-name="Iogonek" unicode="&#x12e;" horiz-adv-x="353" 
d="M279 0h-82q-41 0 -86 -44.5t-45 -88.5q0 -26 14 -39t36 -13q34 0 65 29l8 -5q-45 -74 -123 -74q-33 0 -54 19.5t-21 51.5q0 53 47 96t113 68h-164v14l93 46q13 6 15 20l111 543q2 14 -7 20l-83 46v14h292v-14l-93 -46q-13 -6 -15 -20l-111 -543q-2 -14 7 -20l83 -46v-14z
" />
    <glyph glyph-name="iogonek" unicode="&#x12f;" horiz-adv-x="308" 
d="M206 -156l8 -5q-45 -74 -123 -74q-33 0 -54 19.5t-21 51.5q0 48 39.5 88.5t97.5 66.5q-14 -2 -21 -2q-33 0 -51.5 21.5t-18.5 53.5q0 33 11 77l64 266q4 15 -8 20l-70 37v13l188 24l-86 -341q-12 -48 -12 -75q0 -37 29 -37q28 0 52 34t37 87l12 -1q-11 -58 -30 -97.5
t-59 -69.5q-99 -76 -99 -134q0 -26 14 -39t36 -13q34 0 65 29zM231 729q26 0 43 -15t17 -40q0 -32 -20 -53.5t-48 -21.5q-26 0 -43 15t-17 40q0 32 20 53.5t48 21.5z" />
    <glyph glyph-name="Idotaccent" unicode="&#x130;" horiz-adv-x="353" 
d="M300 623l-111 -543q-2 -14 7 -20l83 -46v-14h-292v14l93 46q13 6 15 20l111 543q2 14 -7 20l-83 46v14h292v-14l-93 -46q-13 -6 -15 -20zM304 916q26 0 43 -15t17 -40q0 -32 -20 -53.5t-48 -21.5q-26 0 -43 15t-17 40q0 32 20 53.5t48 21.5z" />
    <glyph glyph-name="dotlessi" unicode="&#x131;" horiz-adv-x="308" 
d="M132 -11q-33 0 -51.5 21.5t-18.5 53.5q0 33 11 77l64 266q4 15 -8 20l-70 37v13l188 24l-86 -341q-12 -48 -12 -75q0 -37 29 -37q28 0 52 34t37 87l12 -1q-14 -78 -50 -128.5t-97 -50.5z" />
    <glyph glyph-name="IJ" unicode="&#x132;" horiz-adv-x="671" 
d="M300 623l-111 -543q-2 -14 7 -20l83 -46v-14h-292v14l93 46q13 6 15 20l111 543q2 14 -7 20l-83 46v14h292v-14l-93 -46q-13 -6 -15 -20zM416 9l124 612q2 14 -8 20l-82 48v14h292v-14l-94 -46q-12 -6 -14 -20l-120 -592q-21 -104 -83.5 -163t-172.5 -83l-2 13
q128 51 160 211z" />
    <glyph glyph-name="ij" unicode="&#x133;" horiz-adv-x="587" 
d="M132 -11q-33 0 -51.5 21.5t-18.5 53.5q0 33 11 77l64 266q4 15 -8 20l-70 37v13l188 24l-86 -341q-12 -48 -12 -75q0 -37 29 -37q28 0 52 34t37 87l12 -1q-14 -78 -50 -128.5t-97 -50.5zM231 729q26 0 43 -15t17 -40q0 -32 -20 -53.5t-48 -21.5q-26 0 -43 15t-17 40
q0 32 20 53.5t48 21.5zM438 428l-68 36v13l187 24l-90 -433q-31 -153 -82 -224q-62 -89 -162 -89q-59 0 -90 22l51 134h13l30 -97q5 -17 9 -21.5t14 -4.5q44 0 75 64.5t48 157.5l74 398q1 10 0 13t-9 7zM539 729q26 0 43 -15t17 -40q0 -32 -20 -53.5t-48 -21.5q-26 0 -43 15
t-17 40q0 32 20 53.5t48 21.5z" />
    <glyph glyph-name="Jcircumflex" unicode="&#x134;" horiz-adv-x="318" 
d="M63 9l124 612q2 14 -8 20l-82 48v14h292v-14l-94 -46q-12 -6 -14 -20l-120 -592q-21 -104 -83.5 -163t-172.5 -83l-2 13q128 51 160 211zM277 829l-155 -63l-6 9l171 154h12l109 -154l-10 -9z" />
    <glyph glyph-name="jcircumflex" unicode="&#x135;" horiz-adv-x="279" 
d="M130 428l-68 36v13l187 24l-90 -433q-31 -153 -82 -224q-62 -89 -162 -89q-59 0 -90 22l51 134h13l30 -97q5 -17 9 -21.5t14 -4.5q53 0 92 104q21 59 31 118l74 398q1 10 0 13t-9 7zM231 630l-155 -63l-6 9l171 154h12l109 -154l-10 -9z" />
    <glyph glyph-name="Kcommaaccent" unicode="&#x136;" horiz-adv-x="645" 
d="M546 644l-46 45v14h259l-1 -14l-110 -53q-42 -20 -64 -38l-240 -207l156 -304q5 -8 9 -13t9 -8t17 -10l78 -44v-12h-175l-191 365l-58 -285q-2 -14 7 -20l83 -46v-14h-292v14l93 46q13 6 15 20l111 543q2 14 -7 20l-83 46v14h292v-14l-93 -46q-13 -6 -15 -20l-53 -257
l294 251q17 15 5 27zM213 -275l-2 11q55 32 66 70q2 9 -6 11q-32 8 -32 45q0 27 17.5 45t44.5 18q24 0 39.5 -15.5t15.5 -40.5q0 -45 -44 -88.5t-99 -55.5z" />
    <glyph glyph-name="kcommaaccent" unicode="&#x137;" horiz-adv-x="496" 
d="M328 -11q-40 0 -60 24.5t-36 84.5l-37 138q-4 15 -9.5 20t-15.5 6l-58 -262h-82l138 645q3 16 -5 21l-56 39v12l171 33l-105 -473l194 138q13 9 -2 19l-58 42v13h206v-13l-253 -181l56 -182q11 -36 22 -50.5t30 -14.5q61 0 93 121l12 -1q-13 -85 -52.5 -132t-92.5 -47z
M95 -275l-2 11q55 32 66 70q2 9 -6 11q-32 8 -32 45q0 27 17.5 45t44.5 18q24 0 39.5 -15.5t15.5 -40.5q0 -45 -44 -88.5t-99 -55.5z" />
    <glyph glyph-name="kgreenlandic" unicode="&#x138;" horiz-adv-x="516" 
d="M242 501l-50 -225l195 139q13 9 -2 19l-58 42v13h206v-13l-253 -181l56 -182q11 -36 22 -50.5t30 -14.5q61 0 93 121l12 -1q-13 -85 -52.5 -132t-92.5 -47q-40 0 -60 24.5t-36 84.5l-37 138q-7 25 -26 26l-57 -262h-82l92 407q2 7 2 10t-2 5t-7 5l-69 39v12z" />
    <glyph glyph-name="Lacute" unicode="&#x139;" horiz-adv-x="548" 
d="M409 703v-14l-93 -46q-13 -6 -15 -20l-117 -569q-2 -9 0 -11.5t10 -2.5h163q15 0 26 13l117 146h13l-44 -199h-481v14l93 46q13 6 15 20l111 543q2 14 -7 20l-83 46v14h292zM259 767h-14l87 155h133v-12z" />
    <glyph glyph-name="lacute" unicode="&#x13a;" horiz-adv-x="293" 
d="M169 666l-56 39v12l171 33l-140 -591q-11 -44 -11 -74q2 -37 29 -37q30 0 53 35.5t36 85.5l12 -1q-12 -75 -48.5 -127t-99.5 -52q-33 0 -52 20.5t-19 50.5q0 35 11 81l119 504q4 15 -5 21zM217 782h-14l87 155h133v-12z" />
    <glyph glyph-name="Lcommaaccent" unicode="&#x13b;" horiz-adv-x="548" 
d="M409 703v-14l-93 -46q-13 -6 -15 -20l-117 -569q-2 -9 0 -11.5t10 -2.5h163q15 0 26 13l117 146h13l-44 -199h-481v14l93 46q13 6 15 20l111 543q2 14 -7 20l-83 46v14h292zM155 -275l-2 11q55 32 66 70q2 9 -6 11q-32 8 -32 45q0 27 17.5 45t44.5 18q24 0 39.5 -15.5
t15.5 -40.5q0 -45 -44 -88.5t-99 -55.5z" />
    <glyph glyph-name="lcommaaccent" unicode="&#x13c;" horiz-adv-x="293" 
d="M169 666l-56 39v12l171 33l-140 -591q-11 -44 -11 -74q2 -37 29 -37q30 0 53 35.5t36 85.5l12 -1q-12 -75 -48.5 -127t-99.5 -52q-33 0 -52 20.5t-19 50.5q0 35 11 81l119 504q4 15 -5 21zM-4 -275l-2 11q55 32 66 70q2 9 -6 11q-32 8 -32 45q0 27 17.5 45t44.5 18
q24 0 39.5 -15.5t15.5 -40.5q0 -45 -44 -88.5t-99 -55.5z" />
    <glyph glyph-name="Lcaron" unicode="&#x13d;" horiz-adv-x="548" 
d="M409 703v-14l-93 -46q-13 -6 -15 -20l-117 -569q-2 -9 0 -11.5t10 -2.5h163q15 0 26 13l117 146h13l-44 -199h-481v14l93 46q13 6 15 20l111 543q2 14 -7 20l-83 46v14h292zM613 703v-12l-145 -209h-12l45 221h112z" />
    <glyph glyph-name="lcaron" unicode="&#x13e;" horiz-adv-x="355" 
d="M169 666l-56 39v12l171 33l-140 -591q-11 -44 -11 -74q2 -37 29 -37q30 0 53 35.5t36 85.5l12 -1q-12 -75 -48.5 -127t-99.5 -52q-33 0 -52 20.5t-19 50.5q0 35 11 81l119 504q4 15 -5 21zM467 703v-12l-145 -209h-12l45 221h112z" />
    <glyph glyph-name="Ldot" unicode="&#x13f;" horiz-adv-x="548" 
d="M409 703v-14l-93 -46q-13 -6 -15 -20l-117 -569q-2 -9 0 -11.5t10 -2.5h163q15 0 26 13l117 146h13l-44 -199h-481v14l93 46q13 6 15 20l111 543q2 14 -7 20l-83 46v14h292zM455 453q28 0 46 -16.5t18 -42.5q0 -35 -21.5 -57.5t-51.5 -22.5q-28 0 -46 16.5t-18 42.5
q0 35 21.5 57.5t51.5 22.5z" />
    <glyph glyph-name="ldot" unicode="&#x140;" horiz-adv-x="402" 
d="M169 666l-56 39v12l171 33l-140 -591q-11 -44 -11 -74q2 -37 29 -37q30 0 53 35.5t36 85.5l12 -1q-12 -75 -48.5 -127t-99.5 -52q-33 0 -52 20.5t-19 50.5q0 35 11 81l119 504q4 15 -5 21zM352 399q26 0 43 -15t17 -40q0 -32 -20 -53.5t-48 -21.5q-26 0 -43 15t-17 40
q0 32 20 53.5t48 21.5z" />
    <glyph glyph-name="Lslash" unicode="&#x141;" horiz-adv-x="565" 
d="M426 703v-14l-93 -46q-13 -6 -15 -20l-50 -243l127 51l12 -37l-149 -59l-57 -281q-2 -9 0 -11.5t10 -2.5h163q15 0 26 13l117 146h13l-44 -199h-481v14l93 46q13 6 15 20l43 214l-104 -42l-13 37l127 50l58 284q2 14 -7 20l-83 46v14h292z" />
    <glyph glyph-name="lslash" unicode="&#x142;" horiz-adv-x="315" 
d="M180 666l-61 39v12l176 33l-88 -370l107 44l11 -32l-127 -52l-43 -181q-11 -44 -11 -74q2 -37 29 -37q30 0 53 35.5t36 85.5l12 -1q-12 -75 -48.5 -127t-99.5 -52q-33 0 -52 20.5t-19 50.5q0 35 11 81l38 161l-103 -41l-11 32l123 49l72 303q4 15 -5 21z" />
    <glyph glyph-name="Nacute" unicode="&#x143;" horiz-adv-x="717" 
d="M103 105l104 511q4 19 -11 27l-73 46v14h165l248 -532l88 429q2 13 -7 21l-77 68v14h246v-14l-101 -68q-13 -8 -15 -23l-121 -598h-32l-271 580l-97 -477q-2 -13 7 -21l77 -68v-14h-246v14l101 68q13 8 15 23zM440 767h-14l87 155h133v-12z" />
    <glyph glyph-name="nacute" unicode="&#x144;" horiz-adv-x="571" 
d="M386 -11q-32 0 -50 18t-18 53q0 28 24 102l53 165q18 56 18 82q0 34 -39 34q-27 0 -61.5 -21t-63.5 -66q-35 -56 -55.5 -120.5t-60.5 -235.5h-83l92 407q2 7 2 10t-2 5t-7 5l-68 38v12l175 24l-42 -173l4 -1q38 84 97.5 129t118.5 45q39 0 60.5 -22t21.5 -59
q0 -28 -25 -113l-50 -158q-17 -53 -17 -72q0 -29 24 -29q30 0 53 35.5t36 85.5l12 -1q-12 -75 -49 -127t-100 -52zM324 568h-14l87 155h133v-12z" />
    <glyph glyph-name="Ncommaaccent" unicode="&#x145;" horiz-adv-x="717" 
d="M103 105l104 511q4 19 -11 27l-73 46v14h165l248 -532l88 429q2 13 -7 21l-77 68v14h246v-14l-101 -68q-13 -8 -15 -23l-121 -598h-32l-271 580l-97 -477q-2 -13 7 -21l77 -68v-14h-246v14l101 68q13 8 15 23zM206 -275l-2 11q55 32 66 70q2 9 -6 11q-32 8 -32 45
q0 27 17.5 45t44.5 18q24 0 39.5 -15.5t15.5 -40.5q0 -45 -44 -88.5t-99 -55.5z" />
    <glyph glyph-name="ncommaaccent" unicode="&#x146;" horiz-adv-x="571" 
d="M386 -11q-32 0 -50 18t-18 53q0 28 24 102l53 165q18 56 18 82q0 34 -39 34q-27 0 -61.5 -21t-63.5 -66q-35 -56 -55.5 -120.5t-60.5 -235.5h-83l92 407q2 7 2 10t-2 5t-7 5l-68 38v12l175 24l-42 -173l4 -1q38 84 97.5 129t118.5 45q39 0 60.5 -22t21.5 -59
q0 -28 -25 -113l-50 -158q-17 -53 -17 -72q0 -29 24 -29q30 0 53 35.5t36 85.5l12 -1q-12 -75 -49 -127t-100 -52zM137 -275l-2 11q55 32 66 70q2 9 -6 11q-32 8 -32 45q0 27 17.5 45t44.5 18q24 0 39.5 -15.5t15.5 -40.5q0 -45 -44 -88.5t-99 -55.5z" />
    <glyph glyph-name="Ncaron" unicode="&#x147;" horiz-adv-x="717" 
d="M103 105l104 511q4 19 -11 27l-73 46v14h165l248 -532l88 429q2 13 -7 21l-77 68v14h246v-14l-101 -68q-13 -8 -15 -23l-121 -598h-32l-271 580l-97 -477q-2 -13 7 -21l77 -68v-14h-246v14l101 68q13 8 15 23zM484 870l155 63l6 -9l-171 -154h-12l-109 154l10 9z" />
    <glyph glyph-name="ncaron" unicode="&#x148;" horiz-adv-x="571" 
d="M386 -11q-32 0 -50 18t-18 53q0 28 24 102l53 165q18 56 18 82q0 34 -39 34q-27 0 -61.5 -21t-63.5 -66q-35 -56 -55.5 -120.5t-60.5 -235.5h-83l92 407q2 7 2 10t-2 5t-7 5l-68 38v12l175 24l-42 -173l4 -1q38 84 97.5 129t118.5 45q39 0 60.5 -22t21.5 -59
q0 -28 -25 -113l-50 -158q-17 -53 -17 -72q0 -29 24 -29q30 0 53 35.5t36 85.5l12 -1q-12 -75 -49 -127t-100 -52zM368 671l155 63l6 -9l-171 -154h-12l-109 154l10 9z" />
    <glyph glyph-name="napostrophe" unicode="&#x149;" horiz-adv-x="629" 
d="M444 -11q-32 0 -50 18t-18 53q0 28 24 102l53 165q18 56 18 82q0 34 -39 34q-27 0 -61.5 -21t-63.5 -66q-35 -56 -55.5 -120.5t-60.5 -235.5h-83l92 407q2 7 2 10t-2 5t-7 5l-68 38v12l175 24l-42 -173l4 -1q38 84 97.5 129t118.5 45q39 0 60.5 -22t21.5 -59
q0 -28 -25 -113l-50 -158q-17 -53 -17 -72q0 -29 24 -29q30 0 53 35.5t36 85.5l12 -1q-12 -75 -49 -127t-100 -52zM3 482l-3 10q40 20 73.5 56t33.5 68q0 11 -12 13q-38 11 -38 55q0 28 18.5 47t45.5 19t43.5 -18.5t16.5 -50.5q0 -66 -55.5 -124.5t-122.5 -74.5z" />
    <glyph glyph-name="Eng" unicode="&#x14a;" horiz-adv-x="704" 
d="M315 -215l-2 13q128 51 160 211l96 477q7 54 7 61q0 56 -29.5 82t-77.5 26q-52 0 -100.5 -24t-79.5 -62l-100 -489q-2 -14 7 -20l83 -46v-14h-292v14l93 46q13 6 15 20l111 543q2 14 -7 20l-83 46v14h201l-16 -77q36 40 93 66t116 26q164 0 164 -154q0 -31 -7 -62
l-96 -471q-21 -104 -83.5 -163t-172.5 -83z" />
    <glyph glyph-name="eng" unicode="&#x14b;" horiz-adv-x="538" 
d="M314 10l83 317q16 62 16 82q0 34 -39 34q-27 0 -61.5 -21t-63.5 -66q-35 -56 -55.5 -120.5t-60.5 -235.5h-83l92 407q2 7 2 10t-2 5t-7 5l-68 38v12l175 24l-42 -173l4 -1q38 84 97.5 129t118.5 45q39 0 60.5 -22t21.5 -59q0 -19 -25 -113l-63 -239q-39 -149 -93 -224
q-62 -89 -162 -89q-59 0 -90 22l51 134h13l30 -97q5 -17 9 -21.5t14 -4.5q23 0 43 19t36 55t26.5 69t22.5 79z" />
    <glyph glyph-name="Omacron" unicode="&#x14c;" horiz-adv-x="694" 
d="M313 -15q-116 0 -182 78t-66 213q0 180 109 311t255 131q116 0 182 -78t66 -213q0 -180 -109 -311t-255 -131zM430 678q-73 0 -133.5 -65t-92.5 -161.5t-32 -196.5q0 -230 140 -230q73 0 133.5 65t92.5 161.5t32 196.5q0 230 -140 230zM604 803h-264v56h264v-56z" />
    <glyph glyph-name="omacron" unicode="&#x14d;" horiz-adv-x="501" 
d="M35 191q0 121 78 215.5t185 94.5q71 0 119.5 -53t48.5 -146q0 -121 -78 -217.5t-185 -96.5q-71 0 -119.5 55t-48.5 148zM371 326q0 138 -77 138q-44 0 -83.5 -51t-60 -119t-20.5 -127q0 -62 18.5 -102t58.5 -40q44 0 83.5 52t60 120.5t20.5 128.5zM463 604h-264v56h264
v-56z" />
    <glyph glyph-name="Obreve" unicode="&#x14e;" horiz-adv-x="694" 
d="M313 -15q-116 0 -182 78t-66 213q0 180 109 311t255 131q116 0 182 -78t66 -213q0 -180 -109 -311t-255 -131zM430 678q-73 0 -133.5 -65t-92.5 -161.5t-32 -196.5q0 -230 140 -230q73 0 133.5 65t92.5 161.5t32 196.5q0 230 -140 230zM466 767q-44 0 -74.5 24.5
t-30.5 70.5q0 22 8 54h12q0 -40 26 -59.5t67 -19.5q88 0 121 79h12q-11 -73 -49.5 -111t-91.5 -38z" />
    <glyph glyph-name="obreve" unicode="&#x14f;" horiz-adv-x="501" 
d="M35 191q0 121 78 215.5t185 94.5q71 0 119.5 -53t48.5 -146q0 -121 -78 -217.5t-185 -96.5q-71 0 -119.5 55t-48.5 148zM371 326q0 138 -77 138q-44 0 -83.5 -51t-60 -119t-20.5 -127q0 -62 18.5 -102t58.5 -40q44 0 83.5 52t60 120.5t20.5 128.5zM325 568
q-44 0 -74.5 24.5t-30.5 70.5q0 22 8 54h12q0 -40 26 -59.5t67 -19.5q88 0 121 79h12q-11 -73 -49.5 -111t-91.5 -38z" />
    <glyph glyph-name="Ohungarumlaut" unicode="&#x150;" horiz-adv-x="694" 
d="M313 -15q-116 0 -182 78t-66 213q0 180 109 311t255 131q116 0 182 -78t66 -213q0 -180 -109 -311t-255 -131zM430 678q-73 0 -133.5 -65t-92.5 -161.5t-32 -196.5q0 -230 140 -230q73 0 133.5 65t92.5 161.5t32 196.5q0 230 -140 230zM431 932h110v-12l-176 -149h-12z
M578 932h110v-12l-176 -149h-12z" />
    <glyph glyph-name="ohungarumlaut" unicode="&#x151;" horiz-adv-x="501" 
d="M35 191q0 121 78 215.5t185 94.5q71 0 119.5 -53t48.5 -146q0 -121 -78 -217.5t-185 -96.5q-71 0 -119.5 55t-48.5 148zM371 326q0 138 -77 138q-44 0 -83.5 -51t-60 -119t-20.5 -127q0 -62 18.5 -102t58.5 -40q44 0 83.5 52t60 120.5t20.5 128.5zM290 733h110v-12
l-176 -149h-12zM437 733h110v-12l-176 -149h-12z" />
    <glyph glyph-name="OE" unicode="&#x152;" horiz-adv-x="963" 
d="M863 663h-182q-14 0 -16 -14l-57 -276h121q14 0 26 12l73 80h12l-46 -225h-12l-40 81q-4 8 -7.5 10t-13.5 2h-122l-57 -279q-2 -9 -0.5 -11.5t10.5 -2.5h184q15 0 26 13l116 138h13l-39 -191h-362q-22 0 -84.5 -7.5t-87.5 -7.5q-117 0 -185 80t-68 215q0 187 111.5 312.5
t264.5 125.5q33 0 93 -7.5t87 -7.5h362l-40 -193h-13l-48 140q-4 9 -6.5 11t-12.5 2zM559 643q-54 34 -118 34q-112 0 -191 -121.5t-79 -283.5q0 -102 41.5 -175t118.5 -73q67 0 108 34q13 10 15 22l112 543q2 14 -7 20z" />
    <glyph glyph-name="oe" unicode="&#x153;" horiz-adv-x="790" 
d="M517 -11q-47 0 -83.5 23t-56.5 64q-75 -88 -174 -88q-71 0 -119.5 55t-48.5 148q0 121 78 215.5t185 94.5q45 0 83 -24.5t59 -70.5q77 95 178 95q60 0 96 -29t36 -74q0 -52 -45 -95t-114 -63.5t-140 -13.5q-3 -27 -3 -52q0 -60 27 -92.5t77 -32.5q48 0 96.5 36.5
t69.5 95.5l13 -4q-22 -88 -81 -138t-133 -50zM371 326q0 138 -77 138q-44 0 -83.5 -51t-60 -119t-20.5 -127q0 -62 18.5 -102t58.5 -40q44 0 83.5 52t60 120.5t20.5 128.5zM606 467q-97 0 -150 -213q87 -6 146 37t59 109q0 67 -55 67z" />
    <glyph glyph-name="Racute" unicode="&#x154;" horiz-adv-x="639" 
d="M-13 0v14l93 46q14 7 16 20l112 543q2 14 -7 20l-83 46v14h293q98 0 150.5 -43t52.5 -126q0 -78 -53.5 -131.5t-134.5 -69.5l82 -249q4 -15 31 -32l56 -40v-12h-156l-102 305q-3 8 -6.5 9.5t-14.5 1.5h-78l-49 -238q-2 -15 7 -20l84 -44v-14h-293zM307 649l-61 -295h93
q69 0 120 49t51 136q0 124 -122 124h-65q-14 0 -16 -14zM374 767h-14l87 155h133v-12z" />
    <glyph glyph-name="racute" unicode="&#x155;" horiz-adv-x="390" 
d="M134 427l-69 39v12l167 23l-36 -172l4 -1q44 92 80.5 132.5t81.5 40.5q34 0 59 -15l-64 -140h-12l-31 72q-4 9 -9 9q-29 0 -75 -94q-53 -109 -92 -333h-83l86 407q2 7 2 10t-2 5t-7 5zM254 568h-14l87 155h133v-12z" />
    <glyph glyph-name="Rcommaaccent" unicode="&#x156;" horiz-adv-x="639" 
d="M-13 0v14l93 46q14 7 16 20l112 543q2 14 -7 20l-83 46v14h293q98 0 150.5 -43t52.5 -126q0 -78 -53.5 -131.5t-134.5 -69.5l82 -249q4 -15 31 -32l56 -40v-12h-156l-102 305q-3 8 -6.5 9.5t-14.5 1.5h-78l-49 -238q-2 -15 7 -20l84 -44v-14h-293zM307 649l-61 -295h93
q69 0 120 49t51 136q0 124 -122 124h-65q-14 0 -16 -14zM211 -275l-2 11q55 32 66 70q2 9 -6 11q-32 8 -32 45q0 27 17.5 45t44.5 18q24 0 39.5 -15.5t15.5 -40.5q0 -45 -44 -88.5t-99 -55.5z" />
    <glyph glyph-name="rcommaaccent" unicode="&#x157;" horiz-adv-x="390" 
d="M134 427l-69 39v12l167 23l-36 -172l4 -1q44 92 80.5 132.5t81.5 40.5q34 0 59 -15l-64 -140h-12l-31 72q-4 9 -9 9q-29 0 -75 -94q-53 -109 -92 -333h-83l86 407q2 7 2 10t-2 5t-7 5zM-17 -275l-2 11q55 32 66 70q2 9 -6 11q-32 8 -32 45q0 27 17.5 45t44.5 18
q24 0 39.5 -15.5t15.5 -40.5q0 -45 -44 -88.5t-99 -55.5z" />
    <glyph glyph-name="Rcaron" unicode="&#x158;" horiz-adv-x="639" 
d="M-13 0v14l93 46q14 7 16 20l112 543q2 14 -7 20l-83 46v14h293q98 0 150.5 -43t52.5 -126q0 -78 -53.5 -131.5t-134.5 -69.5l82 -249q4 -15 31 -32l56 -40v-12h-156l-102 305q-3 8 -6.5 9.5t-14.5 1.5h-78l-49 -238q-2 -15 7 -20l84 -44v-14h-293zM307 649l-61 -295h93
q69 0 120 49t51 136q0 124 -122 124h-65q-14 0 -16 -14zM418 870l155 63l6 -9l-171 -154h-12l-109 154l10 9z" />
    <glyph glyph-name="rcaron" unicode="&#x159;" horiz-adv-x="390" 
d="M134 427l-69 39v12l167 23l-36 -172l4 -1q44 92 80.5 132.5t81.5 40.5q34 0 59 -15l-64 -140h-12l-31 72q-4 9 -9 9q-29 0 -75 -94q-53 -109 -92 -333h-83l86 407q2 7 2 10t-2 5t-7 5zM298 671l155 63l6 -9l-171 -154h-12l-109 154l10 9z" />
    <glyph glyph-name="Sacute" unicode="&#x15a;" horiz-adv-x="524" 
d="M208 -15q-113 0 -192 41l44 188h13l42 -158q3 -11 6.5 -15t12.5 -7q33 -11 71 -11q75 0 125 44t50 107q0 75 -77 118l-79 45q-110 63 -110 173q0 88 66.5 148t185.5 60q84 0 158 -27l-44 -180h-13l-42 148q-3 12 -15 15q-27 6 -55 6q-69 0 -110.5 -40.5t-41.5 -99.5
q0 -76 80 -121l80 -45q115 -65 115 -168q0 -94 -78 -157.5t-192 -63.5zM345 767h-14l87 155h133v-12z" />
    <glyph glyph-name="sacute" unicode="&#x15b;" horiz-adv-x="412" 
d="M162 21q44 0 75.5 25t31.5 63q0 26 -16 47t-60 53l-20 15q-49 35 -70 64t-21 69q0 60 45 102t128 42q68 0 134 -23l-32 -129h-12l-56 106q-5 11 -13 12q-10 2 -25 2q-40 0 -65.5 -22.5t-25.5 -56.5q0 -26 17 -46t62 -52l18 -13q52 -37 73 -64.5t21 -65.5
q0 -71 -55.5 -116t-133.5 -45q-84 0 -150 29l46 137h12l45 -111q5 -12 7.5 -15.5t11.5 -4.5q16 -2 28 -2zM247 568h-14l87 155h133v-12z" />
    <glyph glyph-name="Scircumflex" unicode="&#x15c;" horiz-adv-x="524" 
d="M208 -15q-113 0 -192 41l44 188h13l42 -158q3 -11 6.5 -15t12.5 -7q33 -11 71 -11q75 0 125 44t50 107q0 75 -77 118l-79 45q-110 63 -110 173q0 88 66.5 148t185.5 60q84 0 158 -27l-44 -180h-13l-42 148q-3 12 -15 15q-27 6 -55 6q-69 0 -110.5 -40.5t-41.5 -99.5
q0 -76 80 -121l80 -45q115 -65 115 -168q0 -94 -78 -157.5t-192 -63.5zM383 829l-155 -63l-6 9l171 154h12l109 -154l-10 -9z" />
    <glyph glyph-name="scircumflex" unicode="&#x15d;" horiz-adv-x="412" 
d="M162 21q44 0 75.5 25t31.5 63q0 26 -16 47t-60 53l-20 15q-49 35 -70 64t-21 69q0 60 45 102t128 42q68 0 134 -23l-32 -129h-12l-56 106q-5 11 -13 12q-10 2 -25 2q-40 0 -65.5 -22.5t-25.5 -56.5q0 -26 17 -46t62 -52l18 -13q52 -37 73 -64.5t21 -65.5
q0 -71 -55.5 -116t-133.5 -45q-84 0 -150 29l46 137h12l45 -111q5 -12 7.5 -15.5t11.5 -4.5q16 -2 28 -2zM285 630l-155 -63l-6 9l171 154h12l109 -154l-10 -9z" />
    <glyph glyph-name="Scedilla" unicode="&#x15e;" horiz-adv-x="524" 
d="M315 -135q0 -45 -34 -72.5t-82 -27.5q-44 0 -74 23t-34 51l10 5q23 -39 71 -39q26 0 45.5 14.5t19.5 41.5q0 17 -13 28t-34 11q-15 0 -30 -4l-4 4l65 85h-13q-113 0 -192 41l44 188h13l42 -158q3 -11 6.5 -15t12.5 -7q33 -11 71 -11q75 0 125 44t50 107q0 75 -77 118
l-79 45q-110 63 -110 173q0 88 66.5 148t185.5 60q84 0 158 -27l-44 -180h-13l-42 148q-3 12 -15 15q-27 6 -55 6q-69 0 -110.5 -40.5t-41.5 -99.5q0 -76 80 -121l80 -45q115 -65 115 -168q0 -86 -67.5 -148t-170.5 -71l-14 -57q4 1 13 1q32 0 54 -18.5t22 -47.5z" />
    <glyph glyph-name="scedilla" unicode="&#x15f;" horiz-adv-x="412" 
d="M240 -135q0 -45 -34 -72.5t-82 -27.5q-44 0 -74 23t-34 51l10 5q22 -39 71 -39q26 0 45.5 14.5t19.5 41.5q0 17 -13 28t-34 11q-15 0 -30 -4l-4 4l68 88q-78 3 -137 29l46 137h12l45 -111q5 -12 7.5 -15.5t11.5 -4.5q16 -2 28 -2q44 0 75.5 25t31.5 63q0 26 -16 47
t-60 53l-20 15q-49 35 -70 64t-21 69q0 60 45 102t128 42q68 0 134 -23l-32 -129h-12l-56 106q-5 11 -13 12q-10 2 -25 2q-40 0 -65.5 -22.5t-25.5 -56.5q0 -26 17 -46t62 -52l18 -13q52 -37 73 -64.5t21 -65.5q0 -71 -54 -115t-132 -46l-14 -58q4 1 13 1q32 0 54 -18.5
t22 -47.5z" />
    <glyph glyph-name="Scaron" unicode="&#x160;" horiz-adv-x="524" 
d="M208 -15q-113 0 -192 41l44 188h13l42 -158q3 -11 6.5 -15t12.5 -7q33 -11 71 -11q75 0 125 44t50 107q0 75 -77 118l-79 45q-110 63 -110 173q0 88 66.5 148t185.5 60q84 0 158 -27l-44 -180h-13l-42 148q-3 12 -15 15q-27 6 -55 6q-69 0 -110.5 -40.5t-41.5 -99.5
q0 -76 80 -121l80 -45q115 -65 115 -168q0 -94 -78 -157.5t-192 -63.5zM389 870l155 63l6 -9l-171 -154h-12l-109 154l10 9z" />
    <glyph glyph-name="scaron" unicode="&#x161;" horiz-adv-x="412" 
d="M162 21q44 0 75.5 25t31.5 63q0 26 -16 47t-60 53l-20 15q-49 35 -70 64t-21 69q0 60 45 102t128 42q68 0 134 -23l-32 -129h-12l-56 106q-5 11 -13 12q-10 2 -25 2q-40 0 -65.5 -22.5t-25.5 -56.5q0 -26 17 -46t62 -52l18 -13q52 -37 73 -64.5t21 -65.5
q0 -71 -55.5 -116t-133.5 -45q-84 0 -150 29l46 137h12l45 -111q5 -12 7.5 -15.5t11.5 -4.5q16 -2 28 -2zM291 671l155 63l6 -9l-171 -154h-12l-109 154l10 9z" />
    <glyph glyph-name="Tcommaaccent" unicode="&#x162;" horiz-adv-x="587" 
d="M422 663l-118 -583q-3 -13 7 -20l83 -46v-14h-292v14l93 46q13 6 15 20l118 583h-102q-11 0 -16 -2t-14 -13l-112 -138h-13l39 193h545l-40 -193h-13l-50 138q-4 11 -7.5 13t-14.5 2h-108zM131 -275l-2 11q55 32 66 70q2 9 -6 11q-32 8 -32 45q0 27 17.5 45t44.5 18
q24 0 39.5 -15.5t15.5 -40.5q0 -45 -44 -88.5t-99 -55.5z" />
    <glyph glyph-name="tcommaaccent" unicode="&#x163;" horiz-adv-x="380" 
d="M74 489h53q12 0 16 2.5t14 15.5l116 156h10l-39 -174h132v-42h-142l-64 -289q-9 -43 -9 -65q0 -45 42 -45q38 0 70.5 46t41.5 101l12 -1q-4 -50 -22.5 -94.5t-58 -77.5t-91.5 -33q-38 0 -60 24.5t-22 64.5q0 29 9 72l68 297h-76v42zM50 -275l-2 11q55 32 66 70q2 9 -6 11
q-32 8 -32 45q0 27 17.5 45t44.5 18q24 0 39.5 -15.5t15.5 -40.5q0 -45 -44 -88.5t-99 -55.5z" />
    <glyph glyph-name="Tcaron" unicode="&#x164;" horiz-adv-x="587" 
d="M422 663l-118 -583q-3 -13 7 -20l83 -46v-14h-292v14l93 46q13 6 15 20l118 583h-102q-11 0 -16 -2t-14 -13l-112 -138h-13l39 193h545l-40 -193h-13l-50 138q-4 11 -7.5 13t-14.5 2h-108zM418 870l155 63l6 -9l-171 -154h-12l-109 154l10 9z" />
    <glyph glyph-name="tcaron" unicode="&#x165;" horiz-adv-x="380" 
d="M465 703l-3 -12l-127 -173h-12l38 185h104zM74 489h53q12 0 16 2.5t14 15.5l116 156h10l-39 -174h132v-42h-142l-64 -289q-9 -43 -9 -65q0 -45 42 -45q38 0 70.5 46t41.5 101l12 -1q-4 -50 -22.5 -94.5t-58 -77.5t-91.5 -33q-38 0 -60 24.5t-22 64.5q0 29 9 72l68 297
h-76v42z" />
    <glyph glyph-name="Tbar" unicode="&#x166;" horiz-adv-x="587" 
d="M422 663l-61 -299h138v-38h-145l-50 -246q-3 -13 7 -20l83 -46v-14h-292v14l93 46q13 6 15 20l50 246h-135v38h142l61 299h-102q-11 0 -16 -2t-14 -13l-112 -138h-13l39 193h545l-40 -193h-13l-50 138q-4 11 -7.5 13t-14.5 2h-108z" />
    <glyph glyph-name="tbar" unicode="&#x167;" horiz-adv-x="380" 
d="M74 489h53q12 0 16 2.5t14 15.5l116 156h10l-39 -174h132v-42h-142l-19 -86h128v-36h-136l-37 -167q-9 -43 -9 -65q0 -45 42 -45q38 0 70.5 46t41.5 101l12 -1q-4 -50 -22.5 -94.5t-58 -77.5t-91.5 -33q-38 0 -60 24.5t-22 64.5q0 29 9 72l40 175h-78v36h86l20 86h-76v42
z" />
    <glyph glyph-name="Utilde" unicode="&#x168;" horiz-adv-x="683" 
d="M535 252l75 350q3 12 -7 21l-78 66v14h246v-14l-100 -66q-13 -8 -15 -23l-74 -350q-27 -129 -88.5 -197t-180.5 -68q-57 0 -99 17t-64 45t-32.5 57t-10.5 59q0 64 13 129l68 331q2 14 -7 20l-76 46v14h286v-14l-94 -46q-13 -6 -15 -20l-66 -320q-12 -58 -12 -112
q0 -64 34 -111t100 -47q75 0 124 51.5t73 167.5zM530 777q-23 0 -61.5 26.5t-54.5 26.5q-18 0 -32.5 -11t-40.5 -39h-12q22 56 45.5 87t63.5 31q22 0 60.5 -26t55.5 -26t32 11t40 38h12q-14 -37 -25.5 -59t-33.5 -40.5t-49 -18.5z" />
    <glyph glyph-name="utilde" unicode="&#x169;" horiz-adv-x="579" 
d="M365 161l-4 1q-34 -79 -93 -126t-117 -47q-39 0 -60.5 22t-21.5 59q0 28 25 113l50 158q17 53 17 72q0 29 -24 29q-30 0 -53 -35.5t-36 -85.5l-12 1q12 73 50.5 126t98.5 53q67 0 67 -71q0 -31 -23 -102l-53 -165q-18 -56 -18 -82q0 -35 39 -35q26 0 58.5 21.5t60.5 66.5
q40 62 66 130t65 225h83l-97 -360q-8 -34 -8 -53q0 -28 23 -28q28 0 53.5 33.5t38.5 87.5l12 -1q-10 -72 -47 -125.5t-95 -53.5q-30 0 -49 20t-19 52q0 39 23 100zM420 578q-23 0 -61.5 26.5t-54.5 26.5q-18 0 -32.5 -11t-40.5 -39h-12q22 56 45.5 87t63.5 31q22 0 60.5 -26
t55.5 -26t32 11t40 38h12q-14 -37 -25.5 -59t-33.5 -40.5t-49 -18.5z" />
    <glyph glyph-name="Umacron" unicode="&#x16a;" horiz-adv-x="683" 
d="M535 252l75 350q3 12 -7 21l-78 66v14h246v-14l-100 -66q-13 -8 -15 -23l-74 -350q-27 -129 -88.5 -197t-180.5 -68q-57 0 -99 17t-64 45t-32.5 57t-10.5 59q0 64 13 129l68 331q2 14 -7 20l-76 46v14h286v-14l-94 -46q-13 -6 -15 -20l-66 -320q-12 -58 -12 -112
q0 -64 34 -111t100 -47q75 0 124 51.5t73 167.5zM615 803h-264v56h264v-56z" />
    <glyph glyph-name="umacron" unicode="&#x16b;" horiz-adv-x="579" 
d="M365 161l-4 1q-34 -79 -93 -126t-117 -47q-39 0 -60.5 22t-21.5 59q0 28 25 113l50 158q17 53 17 72q0 29 -24 29q-30 0 -53 -35.5t-36 -85.5l-12 1q12 73 50.5 126t98.5 53q67 0 67 -71q0 -31 -23 -102l-53 -165q-18 -56 -18 -82q0 -35 39 -35q26 0 58.5 21.5t60.5 66.5
q40 62 66 130t65 225h83l-97 -360q-8 -34 -8 -53q0 -28 23 -28q28 0 53.5 33.5t38.5 87.5l12 -1q-10 -72 -47 -125.5t-95 -53.5q-30 0 -49 20t-19 52q0 39 23 100zM505 604h-264v56h264v-56z" />
    <glyph glyph-name="Ubreve" unicode="&#x16c;" horiz-adv-x="683" 
d="M535 252l75 350q3 12 -7 21l-78 66v14h246v-14l-100 -66q-13 -8 -15 -23l-74 -350q-27 -129 -88.5 -197t-180.5 -68q-57 0 -99 17t-64 45t-32.5 57t-10.5 59q0 64 13 129l68 331q2 14 -7 20l-76 46v14h286v-14l-94 -46q-13 -6 -15 -20l-66 -320q-12 -58 -12 -112
q0 -64 34 -111t100 -47q75 0 124 51.5t73 167.5zM477 767q-44 0 -74.5 24.5t-30.5 70.5q0 22 8 54h12q0 -40 26 -59.5t67 -19.5q88 0 121 79h12q-11 -73 -49.5 -111t-91.5 -38z" />
    <glyph glyph-name="ubreve" unicode="&#x16d;" horiz-adv-x="579" 
d="M365 161l-4 1q-34 -79 -93 -126t-117 -47q-39 0 -60.5 22t-21.5 59q0 28 25 113l50 158q17 53 17 72q0 29 -24 29q-30 0 -53 -35.5t-36 -85.5l-12 1q12 73 50.5 126t98.5 53q67 0 67 -71q0 -31 -23 -102l-53 -165q-18 -56 -18 -82q0 -35 39 -35q26 0 58.5 21.5t60.5 66.5
q40 62 66 130t65 225h83l-97 -360q-8 -34 -8 -53q0 -28 23 -28q28 0 53.5 33.5t38.5 87.5l12 -1q-10 -72 -47 -125.5t-95 -53.5q-30 0 -49 20t-19 52q0 39 23 100zM367 568q-44 0 -74.5 24.5t-30.5 70.5q0 22 8 54h12q0 -40 26 -59.5t67 -19.5q88 0 121 79h12
q-11 -73 -49.5 -111t-91.5 -38z" />
    <glyph glyph-name="Uring" unicode="&#x16e;" horiz-adv-x="683" 
d="M535 252l75 350q3 12 -7 21l-78 66v14h246v-14l-100 -66q-13 -8 -15 -23l-74 -350q-27 -129 -88.5 -197t-180.5 -68q-57 0 -99 17t-64 45t-32.5 57t-10.5 59q0 64 13 129l68 331q2 14 -7 20l-76 46v14h286v-14l-94 -46q-13 -6 -15 -20l-66 -320q-12 -58 -12 -112
q0 -64 34 -111t100 -47q75 0 124 51.5t73 167.5zM556 863q0 28 -19 48t-47 20t-47.5 -20t-19.5 -48t19.5 -48t47.5 -20t47 20t19 48zM380 863q0 47 33 76.5t77 29.5q43 0 75.5 -29.5t32.5 -76.5t-32.5 -76.5t-75.5 -29.5q-44 0 -77 29.5t-33 76.5z" />
    <glyph glyph-name="uring" unicode="&#x16f;" horiz-adv-x="579" 
d="M365 161l-4 1q-34 -79 -93 -126t-117 -47q-39 0 -60.5 22t-21.5 59q0 28 25 113l50 158q17 53 17 72q0 29 -24 29q-30 0 -53 -35.5t-36 -85.5l-12 1q12 73 50.5 126t98.5 53q67 0 67 -71q0 -31 -23 -102l-53 -165q-18 -56 -18 -82q0 -35 39 -35q26 0 58.5 21.5t60.5 66.5
q40 62 66 130t65 225h83l-97 -360q-8 -34 -8 -53q0 -28 23 -28q28 0 53.5 33.5t38.5 87.5l12 -1q-10 -72 -47 -125.5t-95 -53.5q-30 0 -49 20t-19 52q0 39 23 100zM446 664q0 28 -19 48t-47 20t-47.5 -20t-19.5 -48t19.5 -48t47.5 -20t47 20t19 48zM270 664q0 47 33 76.5
t77 29.5q43 0 75.5 -29.5t32.5 -76.5t-32.5 -76.5t-75.5 -29.5q-44 0 -77 29.5t-33 76.5z" />
    <glyph glyph-name="Uhungarumlaut" unicode="&#x170;" horiz-adv-x="683" 
d="M535 252l75 350q3 12 -7 21l-78 66v14h246v-14l-100 -66q-13 -8 -15 -23l-74 -350q-27 -129 -88.5 -197t-180.5 -68q-57 0 -99 17t-64 45t-32.5 57t-10.5 59q0 64 13 129l68 331q2 14 -7 20l-76 46v14h286v-14l-94 -46q-13 -6 -15 -20l-66 -320q-12 -58 -12 -112
q0 -64 34 -111t100 -47q75 0 124 51.5t73 167.5zM442 932h110v-12l-176 -149h-12zM589 932h110v-12l-176 -149h-12z" />
    <glyph glyph-name="uhungarumlaut" unicode="&#x171;" horiz-adv-x="579" 
d="M365 161l-4 1q-34 -79 -93 -126t-117 -47q-39 0 -60.5 22t-21.5 59q0 28 25 113l50 158q17 53 17 72q0 29 -24 29q-30 0 -53 -35.5t-36 -85.5l-12 1q12 73 50.5 126t98.5 53q67 0 67 -71q0 -31 -23 -102l-53 -165q-18 -56 -18 -82q0 -35 39 -35q26 0 58.5 21.5t60.5 66.5
q40 62 66 130t65 225h83l-97 -360q-8 -34 -8 -53q0 -28 23 -28q28 0 53.5 33.5t38.5 87.5l12 -1q-10 -72 -47 -125.5t-95 -53.5q-30 0 -49 20t-19 52q0 39 23 100zM332 733h110v-12l-176 -149h-12zM479 733h110v-12l-176 -149h-12z" />
    <glyph glyph-name="Uogonek" unicode="&#x172;" horiz-adv-x="683" 
d="M389 -156l8 -5q-45 -74 -123 -74q-33 0 -54 19.5t-21 51.5q0 46 35 84.5t90 64.5h-11q-57 0 -99 17t-64 45t-32.5 57t-10.5 59q0 64 13 129l68 331q2 14 -7 20l-76 46v14h286v-14l-94 -46q-13 -6 -15 -20l-66 -320q-12 -58 -12 -112q0 -64 34 -111t100 -47
q75 0 123.5 51.5t73.5 167.5l74 348q3 12 -7 21l-77 68v14h246v-14l-101 -68q-13 -8 -15 -23l-73 -348q-24 -114 -73 -178t-140 -92q-43 -13 -69 -46.5t-26 -66.5q0 -26 14 -39t36 -13q34 0 65 29z" />
    <glyph glyph-name="uogonek" unicode="&#x173;" horiz-adv-x="579" 
d="M483 -156l8 -5q-45 -74 -123 -74q-33 0 -54 19.5t-21 51.5q0 48 38 87.5t94 66.5q-5 -1 -15 -1q-30 0 -49 20t-19 52q0 39 23 100l-4 1q-34 -79 -93 -126t-117 -47q-39 0 -60.5 22t-21.5 59q0 28 25 113l50 158q17 53 17 72q0 29 -24 29q-30 0 -53 -35.5t-36 -85.5l-12 1
q12 73 50.5 126t98.5 53q67 0 67 -71q0 -31 -23 -102l-53 -165q-18 -56 -18 -82q0 -35 39 -35q26 0 58.5 21.5t60.5 66.5q40 62 66 130t65 225h83l-97 -360q-8 -34 -8 -53q0 -28 23 -28q28 0 53.5 33.5t38.5 87.5l12 -1q-18 -121 -92 -169q-38 -24 -65 -60t-27 -72
q0 -26 14 -39t36 -13q34 0 65 29z" />
    <glyph glyph-name="Wcircumflex" unicode="&#x174;" horiz-adv-x="951" 
d="M245 0l-96 623q-2 15 -15 25l-52 41v14h259v-14l-92 -49q-10 -6 -8 -18l70 -479l198 378l-12 104q-2 12 -4.5 15.5t-10.5 9.5l-50 39v14h248v-14l-85 -44q-9 -5 -8 -18l52 -482l247 463q5 9 4 13.5t-9 11.5l-76 56v14h251v-14l-89 -54q-20 -12 -30 -29l-329 -606h-37
l-53 446l-235 -446h-38zM576 829l-155 -63l-6 9l171 154h12l109 -154l-10 -9z" />
    <glyph glyph-name="wcircumflex" unicode="&#x175;" horiz-adv-x="744" 
d="M433 -11q-42 0 -63.5 25t-21.5 68q0 29 11 67h-3q-12 -29 -17 -40.5t-22 -39.5t-32.5 -41.5t-42.5 -26t-59 -12.5q-47 0 -71.5 31.5t-24.5 82.5q0 47 20 117l31 115q13 47 13 78q0 29 -23 29q-21 0 -45.5 -35.5t-36.5 -89.5l-12 1q15 91 55 137t85 46q68 0 68 -71
q0 -39 -24 -123l-29 -109q-13 -49 -13 -79q0 -72 49 -72q60 0 108 119q21 51 42.5 147.5t30.5 175.5h90q-15 -100 -65 -318q-8 -34 -8 -62q0 -62 50 -62q65 0 117 93.5t52 196.5q0 75 -32 114v10l117 40q3 -66 -17 -152.5t-56.5 -167t-95.5 -136t-125 -56.5zM482 630
l-155 -63l-6 9l171 154h12l109 -154l-10 -9z" />
    <glyph glyph-name="Ycircumflex" unicode="&#x176;" horiz-adv-x="621" 
d="M118 0v14l94 46q13 6 15 20l35 174q4 20 -3 40l-104 322q-7 22 -19 33l-49 40v14h261v-14l-90 -47q-12 -7 -7 -19l93 -299l208 288q11 15 -5 25l-76 52v14h250v-14l-87 -53q-22 -14 -30 -26l-232 -321q-13 -19 -17 -39l-35 -172q-3 -13 8 -20l83 -44v-14h-293zM439 829
l-155 -63l-6 9l171 154h12l109 -154l-10 -9z" />
    <glyph glyph-name="ycircumflex" unicode="&#x177;" horiz-adv-x="509" 
d="M-58 -245q-36 0 -55 14l44 125h10l63 -76q9 -11 26 -3q43 20 90.5 58t77.5 75q4 5 4 15q-14 291 -53 441q-10 38 -30 38q-22 0 -46.5 -36t-36.5 -89l-12 1q12 85 52.5 134t90.5 49q33 0 51.5 -17t27.5 -54q31 -131 33 -381l3 -1q51 63 87 148.5t36 158.5q0 69 -28 96v10
l122 40q-6 -79 -25.5 -151.5t-50 -133t-58 -103.5t-63.5 -90q-128 -168 -255 -236q-59 -32 -105 -32zM350 630l-155 -63l-6 9l171 154h12l109 -154l-10 -9z" />
    <glyph glyph-name="Ydieresis" unicode="&#x178;" horiz-adv-x="621" 
d="M118 0v14l94 46q13 6 15 20l35 174q4 20 -3 40l-104 322q-7 22 -19 33l-49 40v14h261v-14l-90 -47q-12 -7 -7 -19l93 -299l208 288q11 15 -5 25l-76 52v14h250v-14l-87 -53q-22 -14 -30 -26l-232 -321q-13 -19 -17 -39l-35 -172q-3 -13 8 -20l83 -44v-14h-293zM353 906
q25 0 40.5 -14t15.5 -37q0 -30 -19 -50t-44 -20t-40.5 14t-15.5 37q0 30 19 50t44 20zM541 906q25 0 40.5 -14t15.5 -37q0 -30 -19 -50t-44 -20t-40.5 14t-15.5 37q0 30 19 50t44 20z" />
    <glyph glyph-name="Zacute" unicode="&#x179;" horiz-adv-x="545" 
d="M452 0h-469v9l502 654h-228q-15 0 -25 -13l-111 -150h-13l42 203h467v-9l-502 -654h230q14 0 25 13l122 158h13zM368 767h-14l87 155h133v-12z" />
    <glyph glyph-name="zacute" unicode="&#x17a;" horiz-adv-x="433" 
d="M8 -12l-13 3q9 56 56 104l263 278q-26 2 -82 22q-66 24 -86 24q-29 0 -51 -24.5t-32 -68.5l-14 3q36 172 127 172q31 0 81 -22l25 -11q33 -13 60 -13q55 0 87 35h15q-21 -51 -65 -98l-262 -279q14 -1 87 -24q43 -13 76 -13q36 0 63.5 19t35.5 59l12 -1q-6 -71 -36.5 -119
t-86.5 -48q-51 0 -132 29q-60 20 -72 20q-39 0 -56 -47zM266 568h-14l87 155h133v-12z" />
    <glyph glyph-name="Zdotaccent" unicode="&#x17b;" horiz-adv-x="545" 
d="M452 0h-469v9l502 654h-228q-15 0 -25 -13l-111 -150h-13l42 203h467v-9l-502 -654h230q14 0 25 13l122 158h13zM415 916q26 0 43 -15t17 -40q0 -32 -20 -53.5t-48 -21.5q-26 0 -43 15t-17 40q0 32 20 53.5t48 21.5z" />
    <glyph glyph-name="zdotaccent" unicode="&#x17c;" horiz-adv-x="433" 
d="M8 -12l-13 3q9 56 56 104l263 278q-26 2 -82 22q-66 24 -86 24q-29 0 -51 -24.5t-32 -68.5l-14 3q36 172 127 172q31 0 81 -22l25 -11q33 -13 60 -13q55 0 87 35h15q-21 -51 -65 -98l-262 -279q14 -1 87 -24q43 -13 76 -13q36 0 63.5 19t35.5 59l12 -1q-6 -71 -36.5 -119
t-86.5 -48q-51 0 -132 29q-60 20 -72 20q-39 0 -56 -47zM313 717q26 0 43 -15t17 -40q0 -32 -20 -53.5t-48 -21.5q-26 0 -43 15t-17 40q0 32 20 53.5t48 21.5z" />
    <glyph glyph-name="Zcaron" unicode="&#x17d;" horiz-adv-x="545" 
d="M452 0h-469v9l502 654h-228q-15 0 -25 -13l-111 -150h-13l42 203h467v-9l-502 -654h230q14 0 25 13l122 158h13zM412 870l155 63l6 -9l-171 -154h-12l-109 154l10 9z" />
    <glyph glyph-name="zcaron" unicode="&#x17e;" horiz-adv-x="433" 
d="M8 -12l-13 3q9 56 56 104l263 278q-26 2 -82 22q-66 24 -86 24q-29 0 -51 -24.5t-32 -68.5l-14 3q36 172 127 172q31 0 81 -22l25 -11q33 -13 60 -13q55 0 87 35h15q-21 -51 -65 -98l-262 -279q14 -1 87 -24q43 -13 76 -13q36 0 63.5 19t35.5 59l12 -1q-6 -71 -36.5 -119
t-86.5 -48q-51 0 -132 29q-60 20 -72 20q-39 0 -56 -47zM310 671l155 63l6 -9l-171 -154h-12l-109 154l10 9z" />
    <glyph glyph-name="florin" unicode="&#x192;" horiz-adv-x="389" 
d="M52 332h80l25 137q22 127 78.5 204t144.5 77q64 0 109 -22l-51 -134h-13l-33 104q-3 10 -7 13t-15 3q-61 0 -99 -99q-14 -38 -28 -120l-28 -163h129v-40h-136l-39 -229q-21 -124 -72 -207q-62 -101 -168 -101q-61 0 -94 22l51 133h13l31 -97q4 -15 8 -19t14 -4
q49 0 86 87q23 55 41 154l46 261h-73v40z" />
    <glyph glyph-name="uni01B5" unicode="&#x1b5;" horiz-adv-x="545" 
d="M121 336v38h142l222 289h-228q-15 0 -25 -13l-111 -150h-13l42 203h467v-9l-246 -320h119v-38h-148l-227 -296h230q14 0 25 13l122 158h13l-53 -211h-469v9l251 327h-113z" />
    <glyph glyph-name="uni01B6" unicode="&#x1b6;" horiz-adv-x="433" 
d="M85 227v36h126l103 110q-39 6 -93 26q-52 20 -75 20q-29 0 -51 -24.5t-32 -68.5l-14 3q36 172 127 172q32 0 72 -18l31 -14q33 -14 63 -14q55 0 87 35h15q-21 -51 -65 -98l-122 -129h93v-36h-127l-106 -114q20 -2 65 -17q62 -20 98 -20t63.5 19t35.5 59l12 -1
q-6 -71 -36.5 -119t-86.5 -48q-31 0 -87 16q-10 3 -55 17q-46 16 -62 16q-39 0 -56 -47l-13 3q9 56 56 104l126 132h-92z" />
    <glyph glyph-name="Aringacute" unicode="&#x1fa;" horiz-adv-x="659" 
d="M-46 0v14l91 57q20 13 31 32l280 499q8 14 3 25l-27 65v11h112l104 -623q3 -16 16 -26l52 -40v-14h-254v14l85 49q11 6 9 19l-21 134h-247l-66 -119q-6 -10 -5.5 -15t9.5 -12l76 -56v-14h-248zM383 562l-172 -306h218zM316 863q0 40 25 79l92 146h123v-12l-177 -119
q26 12 47 12q43 0 75.5 -29.5t32.5 -76.5t-32.5 -76.5t-75.5 -29.5q-44 0 -77 29.5t-33 76.5zM492 863q0 28 -19 48t-47 20t-47.5 -20t-19.5 -48t19.5 -48t47.5 -20t47 20t19 48z" />
    <glyph glyph-name="aringacute" unicode="&#x1fb;" horiz-adv-x="539" 
d="M392 442l78 57h11l-93 -375q-8 -32 -8 -48q0 -28 23 -28q28 0 53.5 33.5t38.5 87.5l12 -1q-10 -71 -47 -125t-92 -54q-32 0 -51 20t-19 52q0 44 21 100l-4 2q-74 -174 -177 -174q-48 0 -76.5 39.5t-28.5 112.5q0 146 91 253t188 107q69 0 80 -59zM174 46q26 0 56 29.5
t57 81.5q49 96 87 247q-5 54 -55 54q-66 0 -131.5 -98t-65.5 -220q0 -94 52 -94zM239 664q0 40 25 79l92 146h123v-12l-177 -119q26 12 47 12q43 0 75.5 -29.5t32.5 -76.5t-32.5 -76.5t-75.5 -29.5q-44 0 -77 29.5t-33 76.5zM415 664q0 28 -19 48t-47 20t-47.5 -20
t-19.5 -48t19.5 -48t47.5 -20t47 20t19 48z" />
    <glyph glyph-name="AEacute" unicode="&#x1fc;" horiz-adv-x="984" 
d="M-60 0v14l84 48q21 11 36 29l466 541q15 17 -1 25l-59 32v14h516l-40 -193h-13l-48 140q-4 9 -6.5 11t-12.5 2h-182q-14 0 -16 -14l-57 -276h121q14 0 26 12l73 80h12l-46 -225h-12l-40 81q-4 8 -7.5 10t-13.5 2h-122l-57 -279q-2 -9 0 -11.5t10 -2.5h184q15 0 26 13
l116 138h13l-39 -191h-506v14l93 46q13 6 15 20l28 136h-259l-111 -128q-12 -14 4 -25l73 -49v-14h-248zM257 256h232l72 350zM720 767h-14l87 155h133v-12z" />
    <glyph glyph-name="aeacute" unicode="&#x1fd;" horiz-adv-x="728" 
d="M455 -11q-61 0 -104 35t-56 97q-69 -132 -159 -132q-46 0 -74.5 39.5t-28.5 112.5q0 146 89.5 253t184.5 107q70 0 87 -73q73 73 162 73q60 0 96 -29t36 -74q0 -52 -45 -95t-114 -63.5t-140 -13.5q-3 -27 -3 -52q0 -60 27 -92.5t77 -32.5q48 0 96.5 36.5t69.5 95.5l13 -4
q-22 -88 -81 -138t-133 -50zM290 163q0 141 83 242q-13 53 -59 53q-64 0 -128 -98t-64 -220q0 -94 50 -94q28 0 59 30.5t59 86.5zM544 467q-50 0 -91.5 -63.5t-58.5 -149.5q87 -6 146 37t59 109q0 67 -55 67zM405 589h-14l87 155h133v-12z" />
    <glyph glyph-name="Oslashacute" unicode="&#x1fe;" horiz-adv-x="694" 
d="M113 -80l-32 19l68 105q-84 78 -84 232q0 180 109 311t255 131q76 0 132 -35l64 100l32 -19l-67 -103q87 -78 87 -234q0 -180 -109 -311t-255 -131q-77 0 -135 36zM193 112l334 519q-33 47 -97 47q-73 0 -133.5 -65t-92.5 -161.5t-32 -196.5q0 -87 21 -143zM312 25
q73 0 133.5 65t92.5 161.5t32 196.5q0 89 -23 146l-335 -520q35 -49 100 -49z" />
    <glyph glyph-name="oslashacute" unicode="&#x1ff;" horiz-adv-x="501" 
d="M35 191q0 121 78 215.5t185 94.5q41 0 74 -18l53 88l31 -17l-54 -91q64 -56 64 -161q0 -121 -78 -217.5t-185 -96.5q-36 0 -74 18l-56 -94l-31 17l58 97q-65 57 -65 165zM207 25q44 0 83.5 52t60 120.5t20.5 128.5q0 37 -8 72l-207 -347q20 -26 51 -26zM138 91l207 346
q-19 27 -51 27q-44 0 -83.5 -51t-60 -119t-20.5 -127q0 -45 8 -76zM288 568h-14l87 155h133v-12z" />
    <glyph glyph-name="Scommaaccent" unicode="&#x218;" horiz-adv-x="524" 
d="M208 -15q-113 0 -192 41l44 188h13l42 -158q3 -11 6.5 -15t12.5 -7q33 -11 71 -11q75 0 125 44t50 107q0 75 -77 118l-79 45q-110 63 -110 173q0 88 66.5 148t185.5 60q84 0 158 -27l-44 -180h-13l-42 148q-3 12 -15 15q-27 6 -55 6q-69 0 -110.5 -40.5t-41.5 -99.5
q0 -76 80 -121l80 -45q115 -65 115 -168q0 -94 -78 -157.5t-192 -63.5zM122 -275l-2 11q55 32 66 70q2 9 -6 11q-32 8 -32 45q0 27 17.5 45t44.5 18q24 0 39.5 -15.5t15.5 -40.5q0 -45 -44 -88.5t-99 -55.5z" />
    <glyph glyph-name="scommaaccent" unicode="&#x219;" horiz-adv-x="412" 
d="M162 21q44 0 75.5 25t31.5 63q0 26 -16 47t-60 53l-20 15q-49 35 -70 64t-21 69q0 60 45 102t128 42q68 0 134 -23l-32 -129h-12l-56 106q-5 11 -13 12q-10 2 -25 2q-40 0 -65.5 -22.5t-25.5 -56.5q0 -26 17 -46t62 -52l18 -13q52 -37 73 -64.5t21 -65.5
q0 -71 -55.5 -116t-133.5 -45q-84 0 -150 29l46 137h12l45 -111q5 -12 7.5 -15.5t11.5 -4.5q16 -2 28 -2zM57 -275l-2 11q55 32 66 70q2 9 -6 11q-32 8 -32 45q0 27 17.5 45t44.5 18q24 0 39.5 -15.5t15.5 -40.5q0 -45 -44 -88.5t-99 -55.5z" />
    <glyph glyph-name="uni021A" unicode="&#x21a;" horiz-adv-x="587" 
d="M422 663l-118 -583q-3 -13 7 -20l83 -46v-14h-292v14l93 46q13 6 15 20l118 583h-102q-11 0 -16 -2t-14 -13l-112 -138h-13l39 193h545l-40 -193h-13l-50 138q-4 11 -7.5 13t-14.5 2h-108zM131 -275l-2 11q55 32 66 70q2 9 -6 11q-32 8 -32 45q0 27 17.5 45t44.5 18
q24 0 39.5 -15.5t15.5 -40.5q0 -45 -44 -88.5t-99 -55.5z" />
    <glyph glyph-name="uni021B" unicode="&#x21b;" horiz-adv-x="380" 
d="M74 489h53q12 0 16 2.5t14 15.5l116 156h10l-39 -174h132v-42h-142l-64 -289q-9 -43 -9 -65q0 -45 42 -45q38 0 70.5 46t41.5 101l12 -1q-4 -50 -22.5 -94.5t-58 -77.5t-91.5 -33q-38 0 -60 24.5t-22 64.5q0 29 9 72l68 297h-76v42zM50 -275l-2 11q55 32 66 70q2 9 -6 11
q-32 8 -32 45q0 27 17.5 45t44.5 18q24 0 39.5 -15.5t15.5 -40.5q0 -45 -44 -88.5t-99 -55.5z" />
    <glyph glyph-name="dotlessj" unicode="&#x237;" horiz-adv-x="279" 
d="M130 428l-68 36v13l187 24l-90 -433q-31 -153 -82 -224q-62 -89 -162 -89q-59 0 -90 22l51 134h13l30 -97q5 -17 9 -21.5t14 -4.5q53 0 92 104q21 59 31 118l74 398q1 10 0 13t-9 7z" />
    <glyph glyph-name="circumflex" unicode="&#x2c6;" horiz-adv-x="402" 
d="M283 630l-155 -63l-6 9l171 154h12l109 -154l-10 -9z" />
    <glyph glyph-name="caron" unicode="&#x2c7;" horiz-adv-x="402" 
d="M283 671l155 63l6 -9l-171 -154h-12l-109 154l10 9z" />
    <glyph glyph-name="breve" unicode="&#x2d8;" horiz-adv-x="364" 
d="M256 568q-44 0 -74.5 24.5t-30.5 70.5q0 22 8 54h12q0 -40 26 -59.5t67 -19.5q88 0 121 79h12q-11 -73 -49.5 -111t-91.5 -38z" />
    <glyph glyph-name="dotaccent" unicode="&#x2d9;" horiz-adv-x="238" 
d="M206 717q26 0 43 -15t17 -40q0 -32 -20 -53.5t-48 -21.5q-26 0 -43 15t-17 40q0 32 20 53.5t48 21.5z" />
    <glyph glyph-name="ring" unicode="&#x2da;" horiz-adv-x="328" 
d="M312 664q0 28 -19 48t-47 20t-47.5 -20t-19.5 -48t19.5 -48t47.5 -20t47 20t19 48zM136 664q0 47 33 76.5t77 29.5q43 0 75.5 -29.5t32.5 -76.5t-32.5 -76.5t-75.5 -29.5q-44 0 -77 29.5t-33 76.5z" />
    <glyph glyph-name="ogonek" unicode="&#x2db;" horiz-adv-x="310" 
d="M161 -156l8 -5q-45 -74 -123 -74q-33 0 -54 19.5t-21 51.5q0 53 47 96t113 68h17q-39 -21 -70.5 -59t-31.5 -74q0 -26 14 -39t36 -13q34 0 65 29z" />
    <glyph glyph-name="tilde" unicode="&#x2dc;" horiz-adv-x="402" 
d="M327 578q-23 0 -61.5 26.5t-54.5 26.5q-18 0 -32.5 -11t-40.5 -39h-12q22 56 45.5 87t63.5 31q22 0 60.5 -26t55.5 -26t32 11t40 38h12q-14 -37 -25.5 -59t-33.5 -40.5t-49 -18.5z" />
    <glyph glyph-name="hungarumlaut" unicode="&#x2dd;" horiz-adv-x="414" 
d="M199 733h110v-12l-176 -149h-12zM346 733h110v-12l-176 -149h-12z" />
    <glyph glyph-name="pi" unicode="&#x3c0;" horiz-adv-x="654" 
d="M85 489h567v-12l-92 -69q-10 -8 -12 -20l-63 -311q-2 -13 7 -20l66 -45v-12h-257v12l79 45q13 8 15 20l76 372h-215l-76 -372q-2 -13 7 -20l61 -45v-12h-256v12l83 45q13 8 15 20l63 311q2 12 -4 20l-64 69v12z" />
    <glyph glyph-name="Wgrave" unicode="&#x1e80;" horiz-adv-x="951" 
d="M245 0l-96 623q-2 15 -15 25l-52 41v14h259v-14l-92 -49q-10 -6 -8 -18l70 -479l198 378l-12 104q-2 12 -4.5 15.5t-10.5 9.5l-50 39v14h248v-14l-85 -44q-9 -5 -8 -18l52 -482l247 463q5 9 4 13.5t-9 11.5l-76 56v14h251v-14l-89 -54q-20 -12 -30 -29l-329 -606h-37
l-53 446l-235 -446h-38zM604 769h-14l-145 142v12h121z" />
    <glyph glyph-name="wgrave" unicode="&#x1e81;" horiz-adv-x="744" 
d="M433 -11q-42 0 -63.5 25t-21.5 68q0 29 11 67h-3q-12 -29 -17 -40.5t-22 -39.5t-32.5 -41.5t-42.5 -26t-59 -12.5q-47 0 -71.5 31.5t-24.5 82.5q0 47 20 117l31 115q13 47 13 78q0 29 -23 29q-21 0 -45.5 -35.5t-36.5 -89.5l-12 1q15 91 55 137t85 46q68 0 68 -71
q0 -39 -24 -123l-29 -109q-13 -49 -13 -79q0 -72 49 -72q60 0 108 119q21 51 42.5 147.5t30.5 175.5h90q-15 -100 -65 -318q-8 -34 -8 -62q0 -62 50 -62q65 0 117 93.5t52 196.5q0 75 -32 114v10l117 40q3 -66 -17 -152.5t-56.5 -167t-95.5 -136t-125 -56.5zM510 570h-14
l-145 142v12h121z" />
    <glyph glyph-name="Wacute" unicode="&#x1e82;" horiz-adv-x="951" 
d="M245 0l-96 623q-2 15 -15 25l-52 41v14h259v-14l-92 -49q-10 -6 -8 -18l70 -479l198 378l-12 104q-2 12 -4.5 15.5t-10.5 9.5l-50 39v14h248v-14l-85 -44q-9 -5 -8 -18l52 -482l247 463q5 9 4 13.5t-9 11.5l-76 56v14h251v-14l-89 -54q-20 -12 -30 -29l-329 -606h-37
l-53 446l-235 -446h-38zM538 767h-14l87 155h133v-12z" />
    <glyph glyph-name="wacute" unicode="&#x1e83;" horiz-adv-x="744" 
d="M433 -11q-42 0 -63.5 25t-21.5 68q0 29 11 67h-3q-12 -29 -17 -40.5t-22 -39.5t-32.5 -41.5t-42.5 -26t-59 -12.5q-47 0 -71.5 31.5t-24.5 82.5q0 47 20 117l31 115q13 47 13 78q0 29 -23 29q-21 0 -45.5 -35.5t-36.5 -89.5l-12 1q15 91 55 137t85 46q68 0 68 -71
q0 -39 -24 -123l-29 -109q-13 -49 -13 -79q0 -72 49 -72q60 0 108 119q21 51 42.5 147.5t30.5 175.5h90q-15 -100 -65 -318q-8 -34 -8 -62q0 -62 50 -62q65 0 117 93.5t52 196.5q0 75 -32 114v10l117 40q3 -66 -17 -152.5t-56.5 -167t-95.5 -136t-125 -56.5zM444 568h-14
l87 155h133v-12z" />
    <glyph glyph-name="Wdieresis" unicode="&#x1e84;" horiz-adv-x="951" 
d="M245 0l-96 623q-2 15 -15 25l-52 41v14h259v-14l-92 -49q-10 -6 -8 -18l70 -479l198 378l-12 104q-2 12 -4.5 15.5t-10.5 9.5l-50 39v14h248v-14l-85 -44q-9 -5 -8 -18l52 -482l247 463q5 9 4 13.5t-9 11.5l-76 56v14h251v-14l-89 -54q-20 -12 -30 -29l-329 -606h-37
l-53 446l-235 -446h-38zM490 906q25 0 40.5 -14t15.5 -37q0 -30 -19 -50t-44 -20t-40.5 14t-15.5 37q0 30 19 50t44 20zM678 906q25 0 40.5 -14t15.5 -37q0 -30 -19 -50t-44 -20t-40.5 14t-15.5 37q0 30 19 50t44 20z" />
    <glyph glyph-name="wdieresis" unicode="&#x1e85;" horiz-adv-x="744" 
d="M433 -11q-42 0 -63.5 25t-21.5 68q0 29 11 67h-3q-12 -29 -17 -40.5t-22 -39.5t-32.5 -41.5t-42.5 -26t-59 -12.5q-47 0 -71.5 31.5t-24.5 82.5q0 47 20 117l31 115q13 47 13 78q0 29 -23 29q-21 0 -45.5 -35.5t-36.5 -89.5l-12 1q15 91 55 137t85 46q68 0 68 -71
q0 -39 -24 -123l-29 -109q-13 -49 -13 -79q0 -72 49 -72q60 0 108 119q21 51 42.5 147.5t30.5 175.5h90q-15 -100 -65 -318q-8 -34 -8 -62q0 -62 50 -62q65 0 117 93.5t52 196.5q0 75 -32 114v10l117 40q3 -66 -17 -152.5t-56.5 -167t-95.5 -136t-125 -56.5zM396 707
q25 0 40.5 -14t15.5 -37q0 -30 -19 -50t-44 -20t-40.5 14t-15.5 37q0 30 19 50t44 20zM584 707q25 0 40.5 -14t15.5 -37q0 -30 -19 -50t-44 -20t-40.5 14t-15.5 37q0 30 19 50t44 20z" />
    <glyph glyph-name="uni1E8A" unicode="&#x1e8a;" horiz-adv-x="672" 
d="M-39 0v14l100 53q27 14 43 34l206 244l-117 269q-13 25 -30 36l-60 39v14h256v-14l-66 -34q-15 -7 -7 -23l91 -209l166 189q13 15 1 27l-54 50v14h246v-14l-100 -53q-24 -12 -43 -34l-197 -224l127 -289q11 -24 30 -36l60 -39v-14h-256v14l68 35q13 7 6 21l-101 230
l-176 -209q-13 -15 -1 -27l54 -50v-14h-246zM453 916q26 0 43 -15t17 -40q0 -32 -20 -53.5t-48 -21.5q-26 0 -43 15t-17 40q0 32 20 53.5t48 21.5z" />
    <glyph glyph-name="uni1E8B" unicode="&#x1e8b;" horiz-adv-x="537" 
d="M273 70l-27 115q-39 -70 -44 -77q-77 -121 -143 -121q-42 0 -60 20l58 139h14l17 -75q4 -17 11 -17q40 0 140 165l-37 165q-8 35 -16.5 46.5t-23.5 11.5q-24 0 -50 -32t-39 -87l-12 2q10 74 53 125t94 51q29 0 45.5 -18t26.5 -63l22 -99q15 26 34 57q77 123 144 123
q41 0 60 -20l-57 -138h-14l-17 74q-3 17 -12 17q-38 0 -130 -150l41 -178q8 -35 16.5 -46.5t23.5 -11.5q23 0 49.5 32t39.5 87l12 -2q-10 -75 -51.5 -125.5t-92.5 -50.5q-29 0 -47 18t-28 63zM348 717q26 0 43 -15t17 -40q0 -32 -20 -53.5t-48 -21.5q-26 0 -43 15t-17 40
q0 32 20 53.5t48 21.5z" />
    <glyph glyph-name="Ygrave" unicode="&#x1ef2;" horiz-adv-x="621" 
d="M118 0v14l94 46q13 6 15 20l35 174q4 20 -3 40l-104 322q-7 22 -19 33l-49 40v14h261v-14l-90 -47q-12 -7 -7 -19l93 -299l208 288q11 15 -5 25l-76 52v14h250v-14l-87 -53q-22 -14 -30 -26l-232 -321q-13 -19 -17 -39l-35 -172q-3 -13 8 -20l83 -44v-14h-293zM467 769
h-14l-145 142v12h121z" />
    <glyph glyph-name="ygrave" unicode="&#x1ef3;" horiz-adv-x="509" 
d="M-58 -245q-36 0 -55 14l44 125h10l63 -76q9 -11 26 -3q43 20 90.5 58t77.5 75q4 5 4 15q-14 291 -53 441q-10 38 -30 38q-22 0 -46.5 -36t-36.5 -89l-12 1q12 85 52.5 134t90.5 49q33 0 51.5 -17t27.5 -54q31 -131 33 -381l3 -1q51 63 87 148.5t36 158.5q0 69 -28 96v10
l122 40q-6 -79 -25.5 -151.5t-50 -133t-58 -103.5t-63.5 -90q-128 -168 -255 -236q-59 -32 -105 -32zM378 570h-14l-145 142v12h121z" />
    <glyph glyph-name="endash" unicode="&#x2013;" horiz-adv-x="500" 
d="M485 222h-470v50h470v-50z" />
    <glyph glyph-name="emdash" unicode="&#x2014;" horiz-adv-x="1000" 
d="M985 222h-970v50h970v-50z" />
    <glyph glyph-name="quoteleft" unicode="&#x2018;" horiz-adv-x="240" 
d="M174 489q-27 0 -43.5 18.5t-16.5 50.5q0 67 55 124.5t123 74.5l3 -10q-39 -20 -73 -55.5t-34 -68.5q0 -9 12 -13q38 -13 38 -55q0 -28 -18.5 -47t-45.5 -19z" />
    <glyph glyph-name="quoteright" unicode="&#x2019;" horiz-adv-x="240" 
d="M213 750q27 0 43.5 -18.5t16.5 -50.5q0 -67 -55 -124.5t-123 -74.5l-3 10q39 20 73 55.5t34 68.5q0 9 -12 13q-38 13 -38 55q0 28 18.5 47t45.5 19z" />
    <glyph glyph-name="quotesinglbase" unicode="&#x201a;" horiz-adv-x="240" 
d="M84 127q27 0 43.5 -18.5t16.5 -50.5q0 -67 -55 -124.5t-123 -74.5l-3 10q39 20 73 55.5t34 68.5q0 9 -12 13q-38 13 -38 55q0 28 18.5 47t45.5 19z" />
    <glyph glyph-name="quotedblleft" unicode="&#x201c;" horiz-adv-x="427" 
d="M174 489q-27 0 -43.5 18.5t-16.5 50.5q0 67 55 124.5t123 74.5l3 -10q-39 -20 -73 -55.5t-34 -68.5q0 -9 12 -13q38 -13 38 -55q0 -28 -18.5 -47t-45.5 -19zM361 489q-27 0 -43.5 18.5t-16.5 50.5q0 67 55 124.5t123 74.5l3 -10q-39 -20 -73 -55.5t-34 -68.5q0 -9 12 -13
q38 -13 38 -55q0 -28 -18.5 -47t-45.5 -19z" />
    <glyph glyph-name="quotedblright" unicode="&#x201d;" horiz-adv-x="427" 
d="M400 750q27 0 43.5 -18.5t16.5 -50.5q0 -67 -55 -124.5t-123 -74.5l-3 10q39 20 73 55.5t34 68.5q0 9 -12 13q-38 13 -38 55q0 28 18.5 47t45.5 19zM213 750q27 0 43.5 -18.5t16.5 -50.5q0 -67 -55 -124.5t-123 -74.5l-3 10q39 20 73 55.5t34 68.5q0 9 -12 13
q-38 13 -38 55q0 28 18.5 47t45.5 19z" />
    <glyph glyph-name="quotedblbase" unicode="&#x201e;" horiz-adv-x="427" 
d="M84 127q27 0 43.5 -18.5t16.5 -50.5q0 -67 -55 -124.5t-123 -74.5l-3 10q39 20 73 55.5t34 68.5q0 9 -12 13q-38 13 -38 55q0 28 18.5 47t45.5 19zM268 127q27 0 43.5 -18.5t16.5 -50.5q0 -67 -55 -124.5t-123 -74.5l-3 10q39 20 73 55.5t34 68.5q0 9 -12 13
q-38 13 -38 55q0 28 18.5 47t45.5 19z" />
    <glyph glyph-name="dagger" unicode="&#x2020;" horiz-adv-x="410" 
d="M95 500v45h144l33 158h52l-33 -158h134v-45h-143l-77 -370h-52l77 370h-135z" />
    <glyph glyph-name="daggerdbl" unicode="&#x2021;" horiz-adv-x="410" 
d="M382 288h-144l-33 -158h-52l33 158h-134v45h143l35 167h-135v45h144l33 158h52l-33 -158h134v-45h-143l-35 -167h135v-45z" />
    <glyph glyph-name="bullet" unicode="&#x2022;" horiz-adv-x="349" 
d="M178 198q-43 0 -75.5 30t-32.5 75q0 51 36.5 87.5t84.5 36.5q47 0 77 -28.5t30 -74.5q0 -54 -35 -90t-85 -36z" />
    <glyph glyph-name="ellipsis" unicode="&#x2026;" horiz-adv-x="770" 
d="M100 131q28 0 46 -16.5t18 -42.5q0 -35 -21.5 -57.5t-51.5 -22.5q-28 0 -46 16.5t-18 42.5q0 35 21.5 57.5t51.5 22.5zM350 131q28 0 46 -16.5t18 -42.5q0 -35 -21.5 -57.5t-51.5 -22.5q-28 0 -46 16.5t-18 42.5q0 35 21.5 57.5t51.5 22.5zM600 131q28 0 46 -16.5
t18 -42.5q0 -35 -21.5 -57.5t-51.5 -22.5q-28 0 -46 16.5t-18 42.5q0 35 21.5 57.5t51.5 22.5z" />
    <glyph glyph-name="perthousand" unicode="&#x2030;" horiz-adv-x="1106" 
d="M773 125q0 100 55 170t132 70q55 0 88 -34t33 -100q0 -100 -54.5 -169.5t-132.5 -69.5q-55 0 -88 33.5t-33 99.5zM850 102q0 -79 44 -79t76.5 77t32.5 157q0 78 -43 78q-44 0 -77 -77t-33 -156zM63 471q0 100 55 170t132 70q55 0 88 -34t33 -100q0 -100 -54.5 -169.5
t-132.5 -69.5q-55 0 -88 33.5t-33 99.5zM140 448q0 -79 44 -79t76.5 77t32.5 157q0 78 -43 78q-44 0 -77 -77t-33 -156zM414 125q0 100 55 170t132 70q55 0 88 -34t33 -100q0 -100 -54.5 -169.5t-132.5 -69.5q-55 0 -88 33.5t-33 99.5zM491 102q0 -79 44 -79t76.5 77
t32.5 157q0 78 -43 78q-44 0 -77 -77t-33 -156zM713 693l-598 -708l-28 27l597 706z" />
    <glyph glyph-name="guilsinglleft" unicode="&#x2039;" horiz-adv-x="269" 
d="M177 65l-142 191v8l221 191l7 -9l-131 -191l55 -181z" />
    <glyph glyph-name="guilsinglright" unicode="&#x203a;" horiz-adv-x="269" 
d="M94 455l142 -191v-8l-221 -191l-7 9l131 191l-55 181z" />
    <glyph glyph-name="fraction" unicode="&#x2044;" horiz-adv-x="56" 
d="M373 693l-598 -708l-28 27l597 706z" />
    <glyph glyph-name="uni2070" unicode="&#x2070;" horiz-adv-x="340" 
d="M73 471q0 100 55 170t132 70q55 0 88 -34t33 -100q0 -100 -54.5 -169.5t-132.5 -69.5q-55 0 -88 33.5t-33 99.5zM150 448q0 -79 44 -79t76.5 77t32.5 157q0 78 -43 78q-44 0 -77 -77t-33 -156z" />
    <glyph glyph-name="uni2074" unicode="&#x2074;" horiz-adv-x="340" 
d="M311 346h-168v12l48 23q8 4 9 12l9 39h-153v10l215 261h63l-49 -241h19q8 0 21 13l40 43h11l-27 -86h-70l-8 -36q-2 -11 4 -15l36 -23v-12zM214 462l35 167l-139 -167h104z" />
    <glyph glyph-name="uni2075" unicode="&#x2075;" horiz-adv-x="340" 
d="M165 338q-61 0 -105 19l50 96h12l20 -74q2 -10 25 -10q35 0 64 27.5t29 63.5q0 32 -17 50.5t-48 18.5q-39 0 -71 -19h-10l47 191q27 -3 153 -3q29 0 45 13l14 14h11l-18 -52q-8 -23 -20 -30t-38 -7q-54 0 -129 3l-23 -90q34 14 81 14q45 0 75 -25.5t30 -69.5
q0 -58 -49.5 -94t-127.5 -36z" />
    <glyph glyph-name="uni2076" unicode="&#x2076;" horiz-adv-x="340" 
d="M285 711q57 0 96 -19l-47 -91h-11l-24 70q-4 9 -21 9q-38 0 -67.5 -44t-43.5 -106q34 37 90 37q41 0 67 -24.5t26 -67.5q0 -58 -44.5 -97.5t-105.5 -39.5q-54 0 -85 36t-31 96q0 102 56.5 171.5t144.5 69.5zM228 536q-35 0 -66 -33q-4 -24 -4 -50q0 -85 44 -85
q28 0 50.5 33.5t22.5 70.5q0 64 -47 64z" />
    <glyph glyph-name="uni2077" unicode="&#x2077;" horiz-adv-x="340" 
d="M205 346h-93v11q125 182 205 283h-133q-12 0 -20 -7l-39 -33h-11l34 103h249v-11l-44 -42q-9 -8 -16 -22q-67 -129 -132 -282z" />
    <glyph glyph-name="uni2078" unicode="&#x2078;" horiz-adv-x="340" 
d="M190 338q-47 0 -81.5 24t-34.5 61q0 35 29.5 59.5t71.5 33.5q-54 35 -54 84t41 80t96 31q45 0 76.5 -22t31.5 -58q0 -34 -28 -57t-65 -31l17 -10q54 -32 54 -79q0 -51 -45 -83.5t-109 -32.5zM226 484l-35 22q-58 -28 -58 -83q0 -22 18 -37.5t49 -15.5t51.5 14.5
t20.5 39.5q0 31 -46 60zM190 627q0 -33 36 -55l29 -18q55 31 55 74q0 52 -56 52q-27 0 -45.5 -16t-18.5 -37z" />
    <glyph glyph-name="uni2079" unicode="&#x2079;" horiz-adv-x="340" 
d="M166 338q-57 0 -96 19l47 91h11l24 -70q3 -9 21 -9q38 0 67 43.5t43 105.5q-34 -36 -89 -36q-41 0 -67 24.5t-26 67.5q0 58 44.5 97.5t105.5 39.5q54 0 85 -36t31 -96q0 -102 -56.5 -171.5t-144.5 -69.5zM223 513q33 0 65 32q5 30 5 51q0 85 -44 85q-28 0 -50.5 -33.5
t-22.5 -70.5q0 -64 47 -64z" />
    <glyph glyph-name="parenleft.sups" unicode="&#x207d;" horiz-adv-x="249" 
d="M334 755q-69 -57 -106 -152.5t-37 -196.5q0 -86 40 -137l-7 -9q-49 28 -78.5 80t-29.5 116q0 102 56 185.5t159 122.5z" />
    <glyph glyph-name="parenright.sups" unicode="&#x207e;" horiz-adv-x="249" 
d="M69 260l-3 9q69 57 106 152.5t37 196.5q0 86 -40 137l7 9q49 -28 78.5 -80t29.5 -116q0 -102 -56 -185.5t-159 -122.5z" />
    <glyph glyph-name="uni2080" unicode="&#x2080;" horiz-adv-x="340" 
d="M2 125q0 100 55 170t132 70q55 0 88 -34t33 -100q0 -100 -54.5 -169.5t-132.5 -69.5q-55 0 -88 33.5t-33 99.5zM79 102q0 -79 44 -79t76.5 77t32.5 157q0 78 -43 78q-44 0 -77 -77t-33 -156z" />
    <glyph glyph-name="uni2081" unicode="&#x2081;" horiz-adv-x="340" 
d="M171 47l61 -37v-10h-216v11l70 34q8 4 9 11l48 236q1 6 -4 9l-58 28v11l151 27l-64 -310q-2 -8 3 -10z" />
    <glyph glyph-name="uni2082" unicode="&#x2082;" horiz-adv-x="340" 
d="M169 333q-9 0 -15 -1q-8 -1 -12 -7l-59 -76h-11l-9 93q61 23 121 23q52 0 78.5 -23.5t26.5 -62.5q0 -23 -7 -44t-25 -41.5t-32.5 -35t-45.5 -35t-46.5 -30.5t-52.5 -32h111q16 0 28 11l36 35h11l-38 -107h-237v12l64 56q52 46 78.5 71.5t53.5 67.5t27 77q0 49 -45 49z
" />
    <glyph glyph-name="uni2083" unicode="&#x2083;" horiz-adv-x="340" 
d="M189 365q51 0 79 -23t28 -60q0 -38 -31 -64t-73 -31q35 -3 57 -24.5t22 -55.5q0 -49 -48.5 -82t-119.5 -33q-72 0 -115 19l53 100h11l21 -78q2 -10 22 -10q42 0 69 27t27 61q0 61 -71 66v11q46 7 73 33.5t27 64.5q0 22 -13.5 34.5t-35.5 12.5q-11 0 -17 -1q-7 -1 -12 -7
l-62 -77h-11l-8 94q61 23 128 23z" />
    <glyph glyph-name="uni2084" unicode="&#x2084;" horiz-adv-x="340" 
d="M240 0h-168v12l48 23q8 4 9 12l9 39h-153v10l215 261h63l-49 -241h19q8 0 21 13l40 43h11l-27 -86h-71l-7 -36q-3 -11 4 -15l36 -23v-12zM143 116l34 169l-139 -169h105z" />
    <glyph glyph-name="uni2085" unicode="&#x2085;" horiz-adv-x="340" 
d="M95 -7q-61 0 -105 19l50 96h12l20 -74q2 -10 25 -10q35 0 64 27.5t29 63.5q0 32 -17 50.5t-48 18.5q-39 0 -71 -19h-10l47 191q27 -3 153 -3q29 0 45 13l14 14h11l-18 -52q-8 -23 -20 -30t-38 -7q-54 0 -129 3l-23 -90q34 14 81 14q45 0 75 -25.5t30 -69.5
q0 -58 -49.5 -94t-127.5 -36z" />
    <glyph glyph-name="uni2086" unicode="&#x2086;" horiz-adv-x="340" 
d="M214 365q57 0 96 -19l-47 -91h-11l-24 70q-3 9 -21 9q-38 0 -67.5 -44t-43.5 -106q34 37 90 37q41 0 67 -24.5t26 -67.5q0 -58 -44.5 -97.5t-105.5 -39.5q-54 0 -85 36t-31 96q0 102 56.5 171.5t144.5 69.5zM157 190q-35 0 -66 -33q-4 -24 -4 -50q0 -85 44 -85
q28 0 50.5 33.5t22.5 70.5q0 64 -47 64z" />
    <glyph glyph-name="uni2087" unicode="&#x2087;" horiz-adv-x="340" 
d="M133 0h-93v11q125 182 205 283h-133q-12 0 -20 -7l-39 -33h-11l34 103h249v-11l-44 -42q-9 -8 -16 -22q-67 -129 -132 -282z" />
    <glyph glyph-name="uni2088" unicode="&#x2088;" horiz-adv-x="340" 
d="M119 -8q-47 0 -81.5 24t-34.5 61q0 35 29.5 59.5t71.5 33.5q-54 35 -54 84t41 80t96 31q45 0 76.5 -22t31.5 -58q0 -34 -28 -57t-65 -31l17 -10q54 -32 54 -79q0 -51 -45 -83.5t-109 -32.5zM155 138l-35 22q-58 -28 -58 -83q0 -22 18 -37.5t49 -15.5t51.5 14.5t20.5 39.5
q0 31 -46 60zM119 281q0 -33 36 -55l29 -18q55 31 55 74q0 52 -56 52q-27 0 -45.5 -16t-18.5 -37z" />
    <glyph glyph-name="uni2089" unicode="&#x2089;" horiz-adv-x="340" 
d="M95 -8q-57 0 -96 19l47 91h11l24 -70q3 -9 21 -9q38 0 67 43.5t43 105.5q-34 -36 -89 -36q-41 0 -67 24.5t-26 67.5q0 58 44.5 97.5t105.5 39.5q54 0 85 -36t31 -96q0 -102 -56.5 -171.5t-144.5 -69.5zM152 167q33 0 65 32q5 30 5 51q0 85 -44 85q-28 0 -50.5 -33.5
t-22.5 -70.5q0 -64 47 -64z" />
    <glyph glyph-name="Euro" unicode="&#x20ac;" horiz-adv-x="640" 
d="M30 292h73q1 31 10 69h-67v40h78q40 117 137 189.5t214 72.5q94 0 181 -23l-39 -192h-13l-52 149q-4 12 -7.5 16t-13.5 5q-23 5 -57 5q-84 0 -152.5 -61.5t-100.5 -160.5h234v-40h-245q-7 -33 -9 -69h238v-40h-239v-9q3 -97 44 -157.5t114 -60.5q28 0 47 3t31 18l117 154
h13l-39 -192q-73 -23 -171 -23q-119 0 -185 67t-69 200h-72v40z" />
    <glyph glyph-name="trademark" unicode="&#x2122;" horiz-adv-x="793" 
d="M826 405h-148v11l41 22q5 2 5 13v200l-103 -245h-5l-103 244v-191q0 -13 7 -18l37 -25v-11h-123v11l36 25q8 7 8 18v199q0 8 -4 11l-40 21v13h116l80 -188l81 188h115v-13l-41 -21q-5 -3 -5 -11v-207q0 -11 4 -13l42 -22v-11zM336 405h-147v11l38 23q7 3 7 14v215h-48
q-6 0 -10 -5l-36 -58h-12v98h270v-98h-14l-36 58q-2 5 -9 5h-48v-215q0 -11 7 -14l38 -23v-11z" />
    <glyph glyph-name="Omega" unicode="&#x2126;" horiz-adv-x="718" 
d="M303 99l-20 -99h-285l39 191h13l59 -139q4 -9 7 -11t13 -2h123l10 44q-78 21 -120 82t-42 155q0 162 107 279.5t249 117.5q117 0 183.5 -64.5t66.5 -181.5q0 -144 -86 -254.5t-211 -136.5l-8 -41h123q15 0 26 13l117 139h13l-40 -191h-286l21 100q94 27 159 146.5
t65 245.5q0 185 -142 185q-70 0 -128.5 -58.5t-90 -145t-31.5 -174.5q0 -80 22.5 -127.5t73.5 -72.5z" />
    <glyph glyph-name="uni2153" unicode="&#x2153;" horiz-adv-x="746" 
d="M242 393l61 -37v-10h-216v11l70 34q8 4 9 11l48 236q1 6 -4 9l-58 28v11l151 27l-64 -310q-2 -8 3 -10zM595 365q51 0 79 -23t28 -60q0 -38 -31 -64t-73 -31q35 -3 57 -24.5t22 -55.5q0 -49 -48.5 -82t-119.5 -33q-72 0 -115 19l53 100h11l21 -78q2 -10 22 -10
q42 0 69 27t27 61q0 61 -71 66v11q46 7 73 33.5t27 64.5q0 22 -13.5 34.5t-35.5 12.5q-11 0 -17 -1q-7 -1 -12 -7l-62 -77h-11l-8 94q61 23 128 23zM713 693l-598 -708l-28 27l597 706z" />
    <glyph glyph-name="uni2154" unicode="&#x2154;" horiz-adv-x="746" 
d="M241 679q-9 0 -15 -1q-8 -1 -12 -7l-59 -76h-11l-9 93q61 23 121 23q52 0 78.5 -23.5t26.5 -62.5q0 -23 -7 -44t-25 -41.5t-32.5 -35t-45.5 -35t-46.5 -30.5t-52.5 -32h111q16 0 28 11l36 35h11l-38 -107h-237v12l64 56q52 46 78.5 71.5t53.5 67.5t27 77q0 49 -45 49z
M595 365q51 0 79 -23t28 -60q0 -38 -31 -64t-73 -31q35 -3 57 -24.5t22 -55.5q0 -49 -48.5 -82t-119.5 -33q-72 0 -115 19l53 100h11l21 -78q2 -10 22 -10q42 0 69 27t27 61q0 61 -71 66v11q46 7 73 33.5t27 64.5q0 22 -13.5 34.5t-35.5 12.5q-11 0 -17 -1q-7 -1 -12 -7
l-62 -77h-11l-8 94q61 23 128 23zM713 693l-598 -708l-28 27l597 706z" />
    <glyph glyph-name="uni2155" unicode="&#x2155;" horiz-adv-x="746" 
d="M501 -7q-61 0 -105 19l50 96h12l20 -74q2 -10 25 -10q35 0 64 27.5t29 63.5q0 32 -17 50.5t-48 18.5q-39 0 -71 -19h-10l47 191q27 -3 153 -3q29 0 45 13l14 14h11l-18 -52q-8 -23 -20 -30t-38 -7q-54 0 -129 3l-23 -90q34 14 81 14q45 0 75 -25.5t30 -69.5
q0 -58 -49.5 -94t-127.5 -36zM242 393l61 -37v-10h-216v11l70 34q8 4 9 11l48 236q1 6 -4 9l-58 28v11l151 27l-64 -310q-2 -8 3 -10zM713 693l-598 -708l-28 27l597 706z" />
    <glyph glyph-name="uni2156" unicode="&#x2156;" horiz-adv-x="746" 
d="M501 -7q-61 0 -105 19l50 96h12l20 -74q2 -10 25 -10q35 0 64 27.5t29 63.5q0 32 -17 50.5t-48 18.5q-39 0 -71 -19h-10l47 191q27 -3 153 -3q29 0 45 13l14 14h11l-18 -52q-8 -23 -20 -30t-38 -7q-54 0 -129 3l-23 -90q34 14 81 14q45 0 75 -25.5t30 -69.5
q0 -58 -49.5 -94t-127.5 -36zM241 679q-9 0 -15 -1q-8 -1 -12 -7l-59 -76h-11l-9 93q61 23 121 23q52 0 78.5 -23.5t26.5 -62.5q0 -23 -7 -44t-25 -41.5t-32.5 -35t-45.5 -35t-46.5 -30.5t-52.5 -32h111q16 0 28 11l36 35h11l-38 -107h-237v12l64 56q52 46 78.5 71.5
t53.5 67.5t27 77q0 49 -45 49zM713 693l-598 -708l-28 27l597 706z" />
    <glyph glyph-name="uni2157" unicode="&#x2157;" horiz-adv-x="746" 
d="M501 -7q-61 0 -105 19l50 96h12l20 -74q2 -10 25 -10q35 0 64 27.5t29 63.5q0 32 -17 50.5t-48 18.5q-39 0 -71 -19h-10l47 191q27 -3 153 -3q29 0 45 13l14 14h11l-18 -52q-8 -23 -20 -30t-38 -7q-54 0 -129 3l-23 -90q34 14 81 14q45 0 75 -25.5t30 -69.5
q0 -58 -49.5 -94t-127.5 -36zM260 711q51 0 79 -23t28 -60q0 -38 -31 -64t-73 -31q35 -3 57 -24.5t22 -55.5q0 -49 -48.5 -82t-119.5 -33q-72 0 -115 19l53 100h11l21 -78q2 -10 22 -10q42 0 69 27t27 61q0 61 -71 66v11q46 7 73 33.5t27 64.5q0 22 -13.5 34.5t-35.5 12.5
q-11 0 -17 -1q-7 -1 -12 -7l-62 -77h-11l-8 94q61 23 128 23zM713 693l-598 -708l-28 27l597 706z" />
    <glyph glyph-name="uni2158" unicode="&#x2158;" horiz-adv-x="746" 
d="M311 346h-168v12l48 23q8 4 9 12l9 39h-153v10l215 261h63l-49 -241h19q8 0 21 13l40 43h11l-27 -86h-70l-8 -36q-2 -11 4 -15l36 -23v-12zM214 462l35 167l-139 -167h104zM501 -7q-61 0 -105 19l50 96h12l20 -74q2 -10 25 -10q35 0 64 27.5t29 63.5q0 32 -17 50.5
t-48 18.5q-39 0 -71 -19h-10l47 191q27 -3 153 -3q29 0 45 13l14 14h11l-18 -52q-8 -23 -20 -30t-38 -7q-54 0 -129 3l-23 -90q34 14 81 14q45 0 75 -25.5t30 -69.5q0 -58 -49.5 -94t-127.5 -36zM713 693l-598 -708l-28 27l597 706z" />
    <glyph glyph-name="uni2159" unicode="&#x2159;" horiz-adv-x="746" 
d="M620 365q57 0 96 -19l-47 -91h-11l-24 70q-3 9 -21 9q-38 0 -67.5 -44t-43.5 -106q34 37 90 37q41 0 67 -24.5t26 -67.5q0 -58 -44.5 -97.5t-105.5 -39.5q-54 0 -85 36t-31 96q0 102 56.5 171.5t144.5 69.5zM563 190q-35 0 -66 -33q-4 -24 -4 -50q0 -85 44 -85
q28 0 50.5 33.5t22.5 70.5q0 64 -47 64zM242 393l61 -37v-10h-216v11l70 34q8 4 9 11l48 236q1 6 -4 9l-58 28v11l151 27l-64 -310q-2 -8 3 -10zM713 693l-598 -708l-28 27l597 706z" />
    <glyph glyph-name="uni215A" unicode="&#x215a;" horiz-adv-x="746" 
d="M620 365q57 0 96 -19l-47 -91h-11l-24 70q-3 9 -21 9q-38 0 -67.5 -44t-43.5 -106q34 37 90 37q41 0 67 -24.5t26 -67.5q0 -58 -44.5 -97.5t-105.5 -39.5q-54 0 -85 36t-31 96q0 102 56.5 171.5t144.5 69.5zM563 190q-35 0 -66 -33q-4 -24 -4 -50q0 -85 44 -85
q28 0 50.5 33.5t22.5 70.5q0 64 -47 64zM165 338q-61 0 -105 19l50 96h12l20 -74q2 -10 25 -10q35 0 64 27.5t29 63.5q0 32 -17 50.5t-48 18.5q-39 0 -71 -19h-10l47 191q27 -3 153 -3q29 0 45 13l14 14h11l-18 -52q-8 -23 -20 -30t-38 -7q-54 0 -129 3l-23 -90q34 14 81 14
q45 0 75 -25.5t30 -69.5q0 -58 -49.5 -94t-127.5 -36zM713 693l-598 -708l-28 27l597 706z" />
    <glyph glyph-name="uni215B" unicode="&#x215b;" horiz-adv-x="746" 
d="M525 -8q-47 0 -81.5 24t-34.5 61q0 35 29.5 59.5t71.5 33.5q-54 35 -54 84t41 80t96 31q45 0 76.5 -22t31.5 -58q0 -34 -28 -57t-65 -31l17 -10q54 -32 54 -79q0 -51 -45 -83.5t-109 -32.5zM561 138l-35 22q-58 -28 -58 -83q0 -22 18 -37.5t49 -15.5t51.5 14.5t20.5 39.5
q0 31 -46 60zM525 281q0 -33 36 -55l29 -18q55 31 55 74q0 52 -56 52q-27 0 -45.5 -16t-18.5 -37zM242 393l61 -37v-10h-216v11l70 34q8 4 9 11l48 236q1 6 -4 9l-58 28v11l151 27l-64 -310q-2 -8 3 -10zM713 693l-598 -708l-28 27l597 706z" />
    <glyph glyph-name="uni215C" unicode="&#x215c;" horiz-adv-x="746" 
d="M525 -8q-47 0 -81.5 24t-34.5 61q0 35 29.5 59.5t71.5 33.5q-54 35 -54 84t41 80t96 31q45 0 76.5 -22t31.5 -58q0 -34 -28 -57t-65 -31l17 -10q54 -32 54 -79q0 -51 -45 -83.5t-109 -32.5zM561 138l-35 22q-58 -28 -58 -83q0 -22 18 -37.5t49 -15.5t51.5 14.5t20.5 39.5
q0 31 -46 60zM525 281q0 -33 36 -55l29 -18q55 31 55 74q0 52 -56 52q-27 0 -45.5 -16t-18.5 -37zM257 711q51 0 79 -23t28 -60q0 -38 -31 -64t-73 -31q35 -3 57 -24.5t22 -55.5q0 -49 -48.5 -82t-119.5 -33q-72 0 -115 19l53 100h11l21 -78q2 -10 22 -10q42 0 69 27t27 61
q0 61 -71 66v11q46 7 73 33.5t27 64.5q0 22 -13.5 34.5t-35.5 12.5q-11 0 -17 -1q-7 -1 -12 -7l-62 -77h-11l-8 94q61 23 128 23zM713 693l-598 -708l-28 27l597 706z" />
    <glyph glyph-name="uni215D" unicode="&#x215d;" horiz-adv-x="746" 
d="M525 -8q-47 0 -81.5 24t-34.5 61q0 35 29.5 59.5t71.5 33.5q-54 35 -54 84t41 80t96 31q45 0 76.5 -22t31.5 -58q0 -34 -28 -57t-65 -31l17 -10q54 -32 54 -79q0 -51 -45 -83.5t-109 -32.5zM561 138l-35 22q-58 -28 -58 -83q0 -22 18 -37.5t49 -15.5t51.5 14.5t20.5 39.5
q0 31 -46 60zM525 281q0 -33 36 -55l29 -18q55 31 55 74q0 52 -56 52q-27 0 -45.5 -16t-18.5 -37zM165 338q-61 0 -105 19l50 96h12l20 -74q2 -10 25 -10q35 0 64 27.5t29 63.5q0 32 -17 50.5t-48 18.5q-39 0 -71 -19h-10l47 191q27 -3 153 -3q29 0 45 13l14 14h11l-18 -52
q-8 -23 -20 -30t-38 -7q-54 0 -129 3l-23 -90q34 14 81 14q45 0 75 -25.5t30 -69.5q0 -58 -49.5 -94t-127.5 -36zM713 693l-598 -708l-28 27l597 706z" />
    <glyph glyph-name="uni215E" unicode="&#x215e;" horiz-adv-x="746" 
d="M525 -8q-47 0 -81.5 24t-34.5 61q0 35 29.5 59.5t71.5 33.5q-54 35 -54 84t41 80t96 31q45 0 76.5 -22t31.5 -58q0 -34 -28 -57t-65 -31l17 -10q54 -32 54 -79q0 -51 -45 -83.5t-109 -32.5zM561 138l-35 22q-58 -28 -58 -83q0 -22 18 -37.5t49 -15.5t51.5 14.5t20.5 39.5
q0 31 -46 60zM525 281q0 -33 36 -55l29 -18q55 31 55 74q0 52 -56 52q-27 0 -45.5 -16t-18.5 -37zM713 693l-598 -708l-28 27l597 706zM235 346h-93v11q125 182 205 283h-133q-12 0 -20 -7l-39 -33h-11l34 103h249v-11l-44 -42q-9 -8 -16 -22q-67 -129 -132 -282z" />
    <glyph glyph-name="partialdiff" unicode="&#x2202;" horiz-adv-x="501" 
d="M277 493q72 0 99 -66q-4 102 -42.5 190t-105.5 121l4 12q16 -3 41 -13q50 -20 89 -63t61.5 -97t34 -110.5t11.5 -111.5q0 -161 -77 -264t-188 -103q-77 0 -123 57.5t-46 139.5q0 117 74.5 212.5t167.5 95.5zM206 25q63 0 114.5 89t53.5 220q1 60 -23 90.5t-57 30.5
q-45 0 -83.5 -46.5t-58.5 -115t-20 -138.5q0 -62 20 -96t54 -34z" />
    <glyph glyph-name="Delta" unicode="&#x2206;" 
d="M-10 0l341 602q7 14 3 25l-27 65v11h112l119 -703h-548zM358 562l-296 -522h375z" />
    <glyph glyph-name="product" unicode="&#x220f;" horiz-adv-x="751" 
d="M698 623l-111 -543q-4 -12 7 -20l83 -46v-14h-292v14l93 46q13 6 15 20l118 581h-304l-118 -581q-2 -14 7 -20l83 -46v-14h-292v14l93 46q13 6 15 20l111 543q2 14 -7 20l-83 46v14h690v-14l-93 -46q-13 -6 -15 -20z" />
    <glyph glyph-name="summation" unicode="&#x2211;" horiz-adv-x="607" 
d="M-10 0v14l328 323l-187 352v14h496l-40 -193h-13l-48 140q-4 9 -7 11t-13 2h-248l153 -295l-337 -328h305q15 0 24 10l119 141h13l-39 -191h-506z" />
    <glyph glyph-name="minus" unicode="&#x2212;" 
d="M520 217h-440v50h440v-50z" />
    <glyph glyph-name="radical" unicode="&#x221a;" 
d="M521 735l-262 -750h-2l-156 444l79 29l97 -274l198 564z" />
    <glyph glyph-name="infinity" unicode="&#x221e;" horiz-adv-x="756" 
d="M378 281q38 39 58 57.5t56.5 37.5t73.5 19q61 0 108 -39.5t47 -110.5t-47 -110.5t-108 -39.5q-37 0 -73.5 19t-56.5 37.5t-58 57.5q-38 -39 -58 -57.5t-56.5 -37.5t-73.5 -19q-61 0 -108 39.5t-47 110.5t47 110.5t108 39.5q37 0 73.5 -19t56.5 -37.5t58 -57.5zM83 245
q0 -41 29.5 -73.5t74.5 -32.5q29 0 60 17.5t51 36t51 52.5q-31 34 -51 52.5t-51 36t-60 17.5q-45 0 -74.5 -32.5t-29.5 -73.5zM673 245q0 41 -29.5 73.5t-74.5 32.5q-29 0 -60 -17.5t-51 -36t-51 -52.5q31 -34 51 -52.5t51 -36t60 -17.5q45 0 74.5 32.5t29.5 73.5z" />
    <glyph glyph-name="integral" unicode="&#x222b;" horiz-adv-x="405" 
d="M96 31l72 406q22 127 78.5 204t144.5 77q64 0 109 -22l-51 -134h-13l-33 104q-3 10 -7 13t-15 3q-61 0 -99 -99q-14 -38 -28 -120l-68 -400q-21 -124 -72 -207q-62 -101 -168 -101q-61 0 -94 22l51 133h13l31 -97q4 -15 8 -19t14 -4q49 0 86 87q23 55 41 154z" />
    <glyph glyph-name="approxequal" unicode="&#x2248;" 
d="M415 285q-47 0 -120 35.5t-106 35.5q-59 0 -92 -54l-42 26q48 77 130 77q47 0 120 -35.5t106 -35.5q59 0 92 54l42 -26q-48 -77 -130 -77zM415 107q-47 0 -120 35.5t-106 35.5q-59 0 -92 -54l-42 26q48 77 130 77q47 0 120 -35.5t106 -35.5q59 0 92 54l42 -26
q-48 -77 -130 -77z" />
    <glyph glyph-name="notequal" unicode="&#x2260;" 
d="M520 131h-256l-56 -100l-42 24l43 76h-129v50h157l70 125h-227v50h256l61 108l42 -25l-47 -83h128v-50h-157l-70 -125h227v-50z" />
    <glyph glyph-name="lessequal" unicode="&#x2264;" 
d="M80 296v12l407 142l18 -47l-291 -99v-4l291 -99l-18 -47zM520 19h-440v50h440v-50z" />
    <glyph glyph-name="greaterequal" unicode="&#x2265;" 
d="M520 308v-12l-407 -142l-18 47l291 99v4l-291 99l18 47zM520 19h-440v50h440v-50z" />
    <glyph glyph-name="lozenge" unicode="&#x25ca;" horiz-adv-x="491" 
d="M351 730l106 -406l-275 -407h-12l-105 407l274 406h12zM324 629l-207 -310l76 -299h4l208 311l-77 298h-4z" />
    <glyph glyph-name="commaaccent" unicode="&#xf6c3;" horiz-adv-x="229" 
d="M-45 -275l-2 11q55 32 66 70q2 9 -6 11q-32 8 -32 45q0 27 17.5 45t44.5 18q24 0 39.5 -15.5t15.5 -40.5q0 -45 -44 -88.5t-99 -55.5z" />
    <glyph glyph-name="apple" unicode="&#xf8ff;" horiz-adv-x="1224" 
d="M810 436q-48 -114 -159 -114q-11 0 -40 1.5t-38 1.5q-48 0 -74 -21.5t-47 -67.5q-27 -59 -65.5 -92t-104.5 -33q-12 0 -40.5 2t-39.5 2q-51 0 -83 -27t-32 -67q0 -15 1 -21h-37q-1 7 -1 21q0 57 43 94t110 37q12 0 41 -2t39 -2q91 0 130 96q48 116 160 116
q10 0 39.5 -1.5t38.5 -1.5q46 0 73 21t48 66q27 59 65.5 92t104.5 33q12 0 41 -2t40 -2q50 0 82 27t32 67q0 15 -1 21h37q1 -7 1 -21q0 -57 -42.5 -94t-109.5 -37q-12 0 -41.5 2t-39.5 2q-90 0 -131 -96z" />
    <glyph glyph-name="cent.alt" horiz-adv-x="425" 
d="M325 599l-20 -98q78 0 118 -22l-53 -143h-13l-43 112q-5 13 -8 15.5t-11 2.5q-50 0 -90 -47.5t-59 -112t-19 -126.5q0 -60 26 -95.5t74 -35.5q40 0 83 36.5t60 93.5l13 -3q-20 -85 -69.5 -133.5t-114.5 -52.5l-20 -101h-36l21 102q-59 9 -96 59t-37 127q0 121 68.5 212
t168.5 108l21 102h36z" />
    <glyph glyph-name="dollar.alt" horiz-adv-x="521" 
d="M60 206h13l42 -151q5 -18 20 -22q37 -12 77 -12q64 0 114 42t50 106q0 63 -70 100l-80 43q-113 61 -113 164q0 76 58.5 129.5t158.5 57.5l15 73h39l-15 -73q83 -3 149 -25l-44 -172h-13l-43 140q-4 12 -19 15q-23 5 -55 5q-65 0 -105.5 -36t-40.5 -90q0 -66 84 -112
l79 -43q110 -60 110 -160q0 -80 -67.5 -136t-168.5 -63l-14 -74h-40l15 73q-100 3 -181 41z" />
    <glyph glyph-name="ringacute" horiz-adv-x="328" 
d="M136 664q0 40 25 79l92 146h123v-12l-177 -119q26 12 47 12q43 0 75.5 -29.5t32.5 -76.5t-32.5 -76.5t-75.5 -29.5q-44 0 -77 29.5t-33 76.5zM312 664q0 28 -19 48t-47 20t-47.5 -20t-19.5 -48t19.5 -48t47.5 -20t47 20t19 48z" />
    <glyph glyph-name="commatop" horiz-adv-x="229" 
d="M274 755q-55 -32 -66 -70q-2 -9 6 -11q32 -8 32 -45q0 -27 -17.5 -45t-44.5 -18q-24 0 -39.5 15.5t-15.5 40.5q0 45 44 88.5t99 55.5z" />
    <glyph glyph-name="caron.slovak" horiz-adv-x="224" 
d="M259 703v-12l-145 -209h-12l45 221h112z" />
    <glyph glyph-name="Jacute" horiz-adv-x="318" 
d="M63 9l124 612q2 14 -8 20l-82 48v14h292v-14l-94 -46q-12 -6 -14 -20l-120 -592q-21 -104 -83.5 -163t-172.5 -83l-2 13q128 51 160 211zM231 767h-14l87 155h133v-12z" />
    <glyph glyph-name="i.trk" horiz-adv-x="308" 
d="M132 -11q-33 0 -51.5 21.5t-18.5 53.5q0 33 11 77l64 266q4 15 -8 20l-70 37v13l188 24l-86 -341q-12 -48 -12 -75q0 -37 29 -37q28 0 52 34t37 87l12 -1q-14 -78 -50 -128.5t-97 -50.5zM231 729q26 0 43 -15t17 -40q0 -32 -20 -53.5t-48 -21.5q-26 0 -43 15t-17 40
q0 32 20 53.5t48 21.5z" />
    <glyph glyph-name="jacute" horiz-adv-x="279" 
d="M130 428l-68 36v13l187 24l-90 -433q-31 -153 -82 -224q-62 -89 -162 -89q-59 0 -90 22l51 134h13l30 -97q5 -17 9 -21.5t14 -4.5q53 0 92 104q21 59 31 118l74 398q1 10 0 13t-9 7zM193 568h-14l87 155h133v-12z" />
    <glyph glyph-name="zero.lf" horiz-adv-x="630" 
d="M71 271q0 118 42 221t115 164.5t159 61.5q97 0 154.5 -69t57.5 -205q0 -121 -42.5 -226.5t-116 -169t-159.5 -63.5q-96 0 -153 73t-57 213zM172 231q0 -103 30 -156t82 -53q59 0 109.5 73t77.5 178.5t27 210.5q0 98 -31 147.5t-83 49.5q-59 0 -109 -71t-76.5 -173.5
t-26.5 -205.5z" />
    <glyph glyph-name="one.lf" horiz-adv-x="411" 
d="M328 0h-319v12l111 45q14 6 17 20l107 525q1 9 -0.5 12.5t-9.5 5.5l-103 32v12l226 54l-131 -641q-3 -14 9 -20l93 -45v-12z" />
    <glyph glyph-name="two.lf" horiz-adv-x="543" 
d="M309 679q-25 0 -45 -4q-13 -3 -21 -14l-88 -126h-12l-12 140q100 43 197 43q88 0 135.5 -48t47.5 -125q0 -34 -9.5 -66.5t-23 -60t-40.5 -59t-49.5 -54t-62.5 -55.5t-67.5 -53.5t-77 -58t-78.5 -59.5h215q16 0 22 2.5t17 14.5l73 79h13l-48 -175h-410v14l103 91
q156 139 207 194q120 131 120 246q0 61 -27 97.5t-79 36.5z" />
    <glyph glyph-name="three.lf" horiz-adv-x="544" 
d="M330 718q86 0 137.5 -47t51.5 -119q0 -76 -53 -124.5t-128 -59.5q60 -1 100.5 -44.5t40.5 -104.5q0 -103 -86.5 -168.5t-206.5 -65.5q-110 0 -179 34l77 147h12l28 -126q4 -11 14 -13q15 -4 40 -4q93 0 147.5 52t54.5 139q0 65 -38.5 100.5t-106.5 35.5v18q80 6 134 56
t54 128q0 56 -27 91.5t-75 35.5q-28 0 -49 -4q-13 -3 -20 -13l-89 -127h-12l-12 140q98 43 191 43z" />
    <glyph glyph-name="four.lf" 
d="M443 0h-250v12l80 45q14 9 16 21l19 92h-297v12l423 521h67l-101 -491h47q15 0 28 13l94 107h12l-50 -162h-139l-19 -92q-2 -12 9 -21l61 -45v-12zM316 212l78 378l-308 -378h230z" />
    <glyph glyph-name="five.lf" horiz-adv-x="536" 
d="M173 -15q-100 0 -169 37l77 144h12l29 -125q2 -10 13 -12q22 -6 40 -6q94 0 153.5 56.5t59.5 147.5q0 64 -34 104t-94 40q-71 0 -146 -46h-9l89 375q180 -6 232 -6q43 0 58.5 4t30.5 18l35 34h11l-34 -89q-12 -32 -28.5 -41.5t-52.5 -9.5q-67 0 -225 5l-56 -233
q60 41 143 41q81 0 130 -51.5t49 -129.5q0 -112 -85 -184.5t-229 -72.5z" />
    <glyph glyph-name="six.lf" horiz-adv-x="584" 
d="M411 718q91 0 160 -35l-77 -145h-12l-34 125q-3 11 -13 13q-15 4 -34 4q-65 0 -115.5 -56.5t-76 -131.5t-36.5 -162q30 44 79.5 72.5t102.5 28.5q76 0 126 -49t50 -138q0 -107 -78.5 -183t-179.5 -76q-87 0 -145 72.5t-58 191.5q0 125 40 231t119 172t182 66zM326 378
q-42 0 -85 -23.5t-72 -60.5q-2 -19 -2 -55q0 -217 117 -217q54 0 101 64.5t47 149.5q0 142 -106 142z" />
    <glyph glyph-name="seven.lf" horiz-adv-x="479" 
d="M169 0h-105v11q254 447 365 611h-243q-19 0 -27 -3t-18 -13l-68 -70h-12l49 167h431v-12l-56 -50q-19 -17 -26 -29q-20 -33 -45 -81.5t-44 -88t-52 -111t-48 -105t-53 -119t-48 -107.5z" />
    <glyph glyph-name="eight.lf" horiz-adv-x="556" 
d="M232 -14q-93 0 -154.5 51t-61.5 125q0 69 59.5 119.5t137.5 70.5q-106 73 -106 167q0 90 65.5 144.5t153.5 54.5q81 0 138.5 -43.5t57.5 -120.5q0 -69 -55 -117.5t-127 -62.5l37 -24q49 -32 76.5 -68.5t27.5 -89.5q0 -84 -71.5 -145t-177.5 -61zM304 291l-71 47
q-128 -56 -128 -179q0 -58 34.5 -96.5t93.5 -38.5q64 0 107.5 42t43.5 100q0 41 -19.5 69t-60.5 56zM197 550q0 -81 67 -126l50 -33q125 57 125 174q0 53 -32 84t-81 31q-53 0 -91 -36.5t-38 -93.5z" />
    <glyph glyph-name="nine.lf" horiz-adv-x="588" 
d="M216 -15q-91 0 -160 35l77 145h12l34 -125q3 -11 13 -13q15 -4 34 -4q65 0 115.5 56.5t76 131.5t36.5 162q-30 -44 -79.5 -72.5t-102.5 -28.5q-76 0 -126 49t-50 138q0 107 78.5 183t179.5 76q87 0 145 -72.5t58 -191.5q0 -125 -40 -231t-119 -172t-182 -66zM301 325
q42 0 85 23t72 61q2 38 2 55q0 217 -117 217q-54 0 -101 -64.5t-47 -149.5q0 -142 106 -142z" />
    <glyph glyph-name="dollar.lf" horiz-adv-x="524" 
d="M165 -118l21 104q-101 4 -170 40l44 188h13l42 -158q3 -11 6.5 -15t12.5 -7q27 -9 60 -11l61 296l-31 18q-110 63 -110 173q0 82 58.5 140.5t165.5 66.5l21 102h40l-21 -101q74 -2 146 -27l-44 -180h-13l-42 148q-3 12 -15 15q-22 5 -40 6l-58 -278l51 -28
q115 -65 115 -168q0 -89 -72.5 -152t-179.5 -68l-21 -104h-40zM291 298l-57 -273q64 9 105 50.5t41 98.5q0 77 -89 124zM203 540q0 -73 74 -118l53 256q-58 -7 -92.5 -46t-34.5 -92z" />
    <glyph glyph-name="dollar.lf_alt" horiz-adv-x="524" 
d="M399 819l-21 -101q74 -2 146 -27l-44 -180h-13l-42 148q-3 12 -15 15q-27 6 -55 6q-69 0 -110.5 -40.5t-41.5 -99.5q0 -76 80 -121l80 -45q115 -65 115 -168q0 -89 -72.5 -152t-179.5 -68l-21 -104h-40l21 104q-101 4 -170 40l44 188h13l42 -158q3 -11 6.5 -15t12.5 -7
q33 -11 71 -11q75 0 125 44t50 107q0 75 -77 118l-79 45q-110 63 -110 173q0 82 58.5 140.5t164.5 66.5l22 102h40z" />
    <glyph glyph-name="cent.lf" horiz-adv-x="425" 
d="M163 0l21 102q-59 9 -96 59t-37 127q0 121 68.5 212t168.5 108l20 95h36l-20 -91q79 0 119 -22l-53 -143h-13l-43 112q-5 12 -7.5 14.5t-9.5 3.5l-85 -416q5 -1 15 -1q40 0 83 36.5t60 93.5l13 -3q-20 -85 -69.5 -133.5t-114.5 -53.5l-20 -100h-36zM147 291
q0 -89 51 -119l82 398q-60 -22 -96.5 -107t-36.5 -172z" />
    <glyph glyph-name="cent.lf_alt" horiz-adv-x="425" 
d="M345 710l-21 -98q79 0 119 -22l-53 -143h-13l-43 112q-5 13 -8 15.5t-11 2.5q-50 0 -90 -47.5t-59 -112t-19 -126.5q0 -60 26 -95.5t74 -35.5q40 0 83 36.5t60 93.5l13 -3q-20 -85 -69.5 -133.5t-114.5 -53.5l-20 -100h-36l21 102q-59 9 -96 59t-37 127q0 121 68.5 212
t168.5 108l21 102h36z" />
    <glyph glyph-name="sterling.lf" horiz-adv-x="527" 
d="M434 0h-437v15l67 55q31 26 53.5 71t22.5 92q0 20 -3 41h-94v38h87q-15 77 -15 117q0 133 78 211t194 78q78 0 135 -24l-72 -145h-12l-36 114q-3 10 -7 12.5t-19 2.5q-79 0 -127 -53.5t-48 -149.5q0 -32 8 -90t9 -73h139v-38h-137q0 -141 -114 -200h253q15 0 20 2t14 11
l75 79h13z" />
    <glyph glyph-name="yen.lf" horiz-adv-x="639" 
d="M611 608l-231 -318h137v-40h-154l-14 -69h145v-40h-153l-13 -63q-3 -13 8 -20l83 -44v-14h-293v14l94 46q13 6 15 20l12 61h-137v40h145l14 69h-136v40h135l-105 326q-7 22 -19 33l-49 40v14h261v-14l-90 -47q-12 -7 -7 -19l93 -299l207 286q11 15 -5 25l-75 54v14h250
v-14l-88 -55q-22 -14 -30 -26z" />
    <glyph glyph-name="Euro.lf" horiz-adv-x="652" 
d="M33 378v40h102q38 134 139 217t224 83q99 0 192 -25l-40 -199h-13l-55 158q-4 11 -7 14.5t-13 5.5q-23 5 -64 5q-86 0 -155.5 -72.5t-100.5 -186.5h200v-40h-209q-5 -23 -9 -69h195v-40h-196v-12q3 -97 45 -165t115 -68q30 0 47 4q17 3 28 17l128 165h13l-43 -200
q-83 -25 -181 -25q-117 0 -186 76.5t-72 207.5h-107v40h108q2 42 8 69h-93z" />
    <glyph glyph-name="zero.tf" 
d="M50 271q0 118 42 221t115 164.5t159 61.5q97 0 154.5 -69t57.5 -205q0 -121 -42.5 -226.5t-116 -169t-159.5 -63.5q-96 0 -153 73t-57 213zM151 231q0 -103 30 -156t82 -53q59 0 109.5 73t77.5 178.5t27 210.5q0 98 -31 147.5t-83 49.5q-59 0 -109 -71t-76.5 -173.5
t-26.5 -205.5z" />
    <glyph glyph-name="one.tf" 
d="M439 0h-319v12l111 45q14 6 17 20l107 525q1 9 -0.5 12.5t-9.5 5.5l-103 32v12l226 54l-131 -641q-3 -14 9 -20l93 -45v-12z" />
    <glyph glyph-name="two.tf" 
d="M355 679q-25 0 -45 -4q-13 -3 -21 -14l-88 -126h-12l-12 140q100 43 197 43q88 0 135.5 -48t47.5 -125q0 -34 -9.5 -66.5t-23 -60t-40.5 -59t-49.5 -54t-62.5 -55.5t-67.5 -53.5t-77 -58t-78.5 -59.5h215q16 0 22 2.5t17 14.5l73 79h13l-48 -175h-410v14l103 91
q156 139 207 194q120 131 120 246q0 61 -27 97.5t-79 36.5z" />
    <glyph glyph-name="three.tf" 
d="M381 718q86 0 137.5 -47t51.5 -119q0 -76 -53 -124.5t-128 -59.5q60 -1 100.5 -44.5t40.5 -104.5q0 -103 -86.5 -168.5t-206.5 -65.5q-110 0 -179 34l77 147h12l28 -126q4 -11 14 -13q15 -4 40 -4q93 0 147.5 52t54.5 139q0 65 -38.5 100.5t-106.5 35.5v18q80 6 134 56
t54 128q0 56 -27 91.5t-75 35.5q-28 0 -49 -4q-13 -3 -20 -13l-89 -127h-12l-12 140q98 43 191 43z" />
    <glyph glyph-name="four.tf" 
d="M441 0h-250v12l80 45q14 9 16 21l19 92h-297v12l423 521h67l-101 -491h47q15 0 28 13l94 107h12l-50 -162h-139l-19 -92q-2 -12 9 -21l61 -45v-12zM314 212l78 378l-308 -378h230z" />
    <glyph glyph-name="five.tf" 
d="M204 -15q-100 0 -169 37l77 144h12l29 -125q2 -10 13 -12q22 -6 40 -6q94 0 153.5 56.5t59.5 147.5q0 64 -34 104t-94 40q-71 0 -146 -46h-9l89 375q180 -6 232 -6q43 0 58.5 4t30.5 18l35 34h11l-34 -89q-12 -32 -28.5 -41.5t-52.5 -9.5q-67 0 -225 5l-56 -233
q60 41 143 41q81 0 130 -51.5t49 -129.5q0 -112 -85 -184.5t-229 -72.5z" />
    <glyph glyph-name="six.tf" 
d="M414 718q91 0 160 -35l-77 -145h-12l-34 125q-3 11 -13 13q-15 4 -34 4q-65 0 -115.5 -56.5t-76 -131.5t-36.5 -162q30 44 79.5 72.5t102.5 28.5q76 0 126 -49t50 -138q0 -107 -78.5 -183t-179.5 -76q-87 0 -145 72.5t-58 191.5q0 125 40 231t119 172t182 66zM329 378
q-42 0 -85 -23.5t-72 -60.5q-2 -19 -2 -55q0 -217 117 -217q54 0 101 64.5t47 149.5q0 142 -106 142z" />
    <glyph glyph-name="seven.tf" 
d="M243 0h-105v11q254 447 365 611h-243q-19 0 -27 -3t-18 -13l-68 -70h-12l49 167h431v-12l-56 -50q-19 -17 -26 -29q-20 -33 -45 -81.5t-44 -88t-52 -111t-48 -105t-53 -119t-48 -107.5z" />
    <glyph glyph-name="eight.tf" 
d="M277 -14q-93 0 -154.5 51t-61.5 125q0 69 59.5 119.5t137.5 70.5q-106 73 -106 167q0 90 65.5 144.5t153.5 54.5q81 0 138.5 -43.5t57.5 -120.5q0 -69 -55 -117.5t-127 -62.5l37 -24q49 -32 76.5 -68.5t27.5 -89.5q0 -84 -71.5 -145t-177.5 -61zM349 291l-71 47
q-128 -56 -128 -179q0 -58 34.5 -96.5t93.5 -38.5q64 0 107.5 42t43.5 100q0 41 -19.5 69t-60.5 56zM242 550q0 -81 67 -126l50 -33q125 57 125 174q0 53 -32 84t-81 31q-53 0 -91 -36.5t-38 -93.5z" />
    <glyph glyph-name="nine.tf" 
d="M223 -15q-91 0 -160 35l77 145h12l34 -125q3 -11 13 -13q15 -4 34 -4q65 0 115.5 56.5t76 131.5t36.5 162q-30 -44 -79.5 -72.5t-102.5 -28.5q-76 0 -126 49t-50 138q0 107 78.5 183t179.5 76q87 0 145 -72.5t58 -191.5q0 -125 -40 -231t-119 -172t-182 -66zM308 325
q42 0 85 23t72 61q2 38 2 55q0 217 -117 217q-54 0 -101 -64.5t-47 -149.5q0 -142 106 -142z" />
    <glyph glyph-name="cent.tf" 
d="M240 0l21 102q-59 9 -96 59t-37 127q0 121 68.5 212t168.5 108l20 95h36l-20 -91q79 0 119 -22l-53 -143h-13l-43 112q-5 12 -7.5 14.5t-9.5 3.5l-85 -416q5 -1 15 -1q40 0 83 36.5t60 93.5l13 -3q-20 -85 -69.5 -133.5t-114.5 -53.5l-20 -100h-36zM224 291
q0 -89 51 -119l82 398q-60 -22 -96.5 -107t-36.5 -172z" />
    <glyph glyph-name="cent.tf_alt" 
d="M422 710l-21 -98q79 0 119 -22l-53 -143h-13l-43 112q-5 13 -8 15.5t-11 2.5q-50 0 -90 -47.5t-59 -112t-19 -126.5q0 -60 26 -95.5t74 -35.5q40 0 83 36.5t60 93.5l13 -3q-20 -85 -69.5 -133.5t-114.5 -53.5l-20 -100h-36l21 102q-59 9 -96 59t-37 127q0 121 68.5 212
t168.5 108l21 102h36z" />
    <glyph glyph-name="dollar.tf" 
d="M207 -118l21 104q-101 4 -170 40l44 188h13l42 -158q3 -11 6.5 -15t12.5 -7q27 -9 60 -11l61 296l-31 18q-110 63 -110 173q0 82 58.5 140.5t165.5 66.5l21 102h40l-21 -101q74 -2 146 -27l-44 -180h-13l-42 148q-3 12 -15 15q-22 5 -40 6l-58 -278l51 -28
q115 -65 115 -168q0 -89 -72.5 -152t-179.5 -68l-21 -104h-40zM333 298l-57 -273q64 9 105 50.5t41 98.5q0 77 -89 124zM245 540q0 -73 74 -118l53 256q-58 -7 -92.5 -46t-34.5 -92z" />
    <glyph glyph-name="dollar.tf_alt" 
d="M441 819l-21 -101q74 -2 146 -27l-44 -180h-13l-42 148q-3 12 -15 15q-27 6 -55 6q-69 0 -110.5 -40.5t-41.5 -99.5q0 -76 80 -121l80 -45q115 -65 115 -168q0 -89 -72.5 -152t-179.5 -68l-21 -104h-40l21 104q-101 4 -170 40l44 188h13l42 -158q3 -11 6.5 -15t12.5 -7
q33 -11 71 -11q75 0 125 44t50 107q0 75 -77 118l-79 45q-110 63 -110 173q0 82 58.5 140.5t164.5 66.5l22 102h40z" />
    <glyph glyph-name="yen.tf" 
d="M576 608l-221 -318h137v-40h-154l-14 -69h145v-40h-153l-13 -63q-3 -13 8 -20l83 -44v-14h-293v14l94 46q13 6 15 20l12 61h-137v40h145l14 69h-136v40h135l-95 326q-9 24 -19 33l-49 40v14h261v-14l-90 -47q-12 -7 -7 -19l83 -299l197 286q11 15 -5 25l-75 54v14h250
v-14l-88 -55q-22 -14 -30 -26z" />
    <glyph glyph-name="sterling.tf" 
d="M476 0h-437v15l67 55q31 26 53.5 71t22.5 92q0 20 -3 41h-94v38h87q-15 77 -15 117q0 133 78 211t194 78q78 0 135 -24l-72 -145h-12l-36 114q-3 10 -7 12.5t-19 2.5q-79 0 -127 -53.5t-48 -149.5q0 -32 8 -90t9 -73h139v-38h-137q0 -141 -114 -200h253q15 0 20 2t14 11
l75 79h13z" />
    <glyph glyph-name="Euro.tf" 
d="M30 378v40h82q38 135 130 217.5t203 82.5q94 0 180 -25l-40 -199h-13l-55 158q-4 11 -7 14.5t-13 5.5q-22 5 -52 5q-75 0 -135 -72t-91 -187h170v-40h-179q-2 -10 -3.5 -21.5t-3 -25.5t-2.5 -22h165v-40h-166v-16q2 -62 15.5 -112t43 -83.5t71.5 -33.5q21 0 35 3
q17 4 28 18l128 165h13l-43 -200q-73 -25 -169 -25q-105 0 -165 76.5t-63 207.5h-87v40h88q2 42 8 69h-73z" />
    <glyph glyph-name="florin.tf" 
d="M190 332h80l25 137q22 127 78.5 204t144.5 77q64 0 109 -22l-51 -134h-13l-33 104q-3 10 -7 13t-15 3q-61 0 -99 -99q-14 -38 -28 -120l-28 -163h129v-40h-136l-39 -229q-21 -124 -72 -207q-62 -101 -168 -101q-61 0 -94 22l51 133h13l31 -97q4 -15 8 -19t14 -4
q49 0 86 87q23 55 41 154l46 261h-73v40z" />
    <glyph glyph-name="zero.tosf" 
d="M264 29q81 0 135 75.5t54 177.5q0 87 -30.5 140t-87.5 53q-81 0 -135 -75.5t-54 -177.5q0 -87 30.5 -140t87.5 -53zM271 -10q-97 0 -160 64.5t-63 163.5q0 130 82 213.5t198 83.5q97 0 160 -65.5t63 -165.5q0 -129 -82.5 -211.5t-197.5 -82.5z" />
    <glyph glyph-name="one.tosf" 
d="M427 12v-12h-300v12l101 45q14 6 17 20l67 332q3 14 -10 18l-92 32v12l214 46l-89 -440q-3 -14 9 -20z" />
    <glyph glyph-name="two.tosf" 
d="M436 91l70 76h12l-48 -167h-409v15l100 80q58 47 88 72t75.5 69.5t66.5 82.5t21 72q0 86 -89 87q-19 0 -33 -3q-9 -2 -17 -12l-89 -119h-11l-7 133q96 40 193 40q71 0 109.5 -37.5t38.5 -94.5q0 -43 -23 -82.5t-64.5 -73t-80.5 -58t-90 -53.5t-73 -44h224h8t6 0.5t4 1
t3.5 2t3.5 3t4.5 5t6.5 5.5z" />
    <glyph glyph-name="three.tosf" 
d="M326 478q-22 0 -36 -3q-9 -2 -17 -12l-88 -119h-12l-7 134q86 39 180 39q71 0 116 -37.5t45 -98.5q0 -102 -150 -157q53 -7 86 -38.5t33 -89.5q0 -61 -46 -111.5t-115 -81t-143.5 -47t-140.5 -16.5h-5v20q42 4 98 21.5t115.5 46t100 75.5t40.5 100q0 40 -27.5 63
t-70.5 23q-27 0 -51 -5v20q89 20 134 73.5t45 107.5q0 45 -23.5 69t-60.5 24z" />
    <glyph glyph-name="four.tosf" 
d="M297 -148l36 177h-285v12l401 464h60l-89 -436h99l-8 -40h-99l-36 -177h-79zM127 69h214l66 326z" />
    <glyph glyph-name="five.tosf" 
d="M36 -160v20q60 8 119.5 27.5t113.5 49.5t87.5 74t33.5 95q0 46 -30 75t-83 29q-59 0 -106 -29h-12l71 321q3 0 97 -0.5t126 -0.5q29 0 43 6t30 24l26 29h12l-33 -85q-11 -30 -23 -41t-35 -11q-26 0 -119.5 0.5t-94.5 0.5l-45 -196q20 12 56 22.5t67 10.5
q72 0 111.5 -41.5t39.5 -101.5q0 -58 -30.5 -106.5t-78 -78.5t-109 -51.5t-118.5 -30.5t-112 -11h-4z" />
    <glyph glyph-name="six.tosf" 
d="M599 664l-1 -20q-150 -12 -244 -76q-85 -59 -130.5 -152.5t-45.5 -208.5q0 -85 32 -132.5t85 -47.5q54 0 93.5 55t39.5 145q0 60 -27.5 97.5t-72.5 37.5q-33 0 -72 -23l-7 9q51 62 134 62q61 0 103.5 -48.5t42.5 -124.5q0 -112 -68 -180.5t-175 -68.5q-96 0 -150.5 66
t-54.5 172q0 133 67.5 234.5t178 153t244.5 51.5q5 0 14 -0.5t14 -0.5z" />
    <glyph glyph-name="seven.tosf" 
d="M202 -148h-109v12q152 238 377 561h-236q-15 0 -20 -2t-16 -14l-72 -72h-12l49 168h409v-12l-54 -50q-17 -15 -24 -28q-104 -182 -292 -563z" />
    <glyph glyph-name="eight.tosf" 
d="M268 -12q-100 0 -153 42t-53 111q0 59 54 105.5t134 76.5l-32 23q-68 49 -68 127q0 87 65 138t152 51q74 0 122 -40.5t48 -101.5q0 -62 -52 -103t-126 -64l41 -28q92 -63 92 -149q0 -81 -68.5 -134.5t-155.5 -53.5zM331 265l-61 44q-122 -64 -122 -166q0 -50 32.5 -84.5
t85.5 -34.5q52 0 91.5 38.5t39.5 95.5q0 34 -16 58t-50 49zM237 506q0 -67 59 -109l43 -30q59 34 88 69.5t29 89.5q0 45 -26 72t-73 27q-50 0 -85 -32.5t-35 -86.5z" />
    <glyph glyph-name="nine.tosf" 
d="M1 -158l1 20q151 12 244 75q85 59 130.5 152.5t45.5 208.5q0 85 -32 132.5t-85 47.5q-54 0 -93.5 -55t-39.5 -145q0 -60 27.5 -97.5t72.5 -37.5q33 0 72 23l7 -9q-51 -62 -134 -62q-61 0 -103.5 48.5t-42.5 124.5q0 112 68 180.5t175 68.5q96 0 150.5 -66t54.5 -172
q0 -100 -39.5 -184t-106.5 -139t-155.5 -85t-188.5 -30q-19 0 -28 1z" />
    <glyph glyph-name="dollar.tosf" 
d="M90 206h13l42 -151q5 -18 20 -22q38 -12 68 -12l54 274l-31 17q-113 61 -113 164q0 76 58.5 129.5t158.5 57.5l15 73h39l-15 -73q83 -3 149 -25l-44 -172h-13l-43 140q-4 12 -19 15q-14 3 -37 5l-51 -254l50 -27q110 -60 110 -160q0 -80 -67.5 -136t-168.5 -63l-15 -74
h-39l15 73q-100 3 -181 41zM272 23q56 10 95 50t39 96q0 63 -84 107zM228 500q0 -64 78 -109l46 234q-56 -6 -90 -41t-34 -84z" />
    <glyph glyph-name="dollar.tosf_alt" 
d="M90 206h13l42 -151q5 -18 20 -22q38 -12 77 -12q64 0 114 42t50 106q0 63 -70 100l-80 43q-113 61 -113 164q0 76 58.5 129.5t158.5 57.5l15 73h39l-15 -73q83 -3 149 -25l-44 -172h-13l-43 140q-4 12 -19 15q-22 5 -55 5q-65 0 -105.5 -36t-40.5 -90q0 -66 84 -112
l79 -43q110 -60 110 -160q0 -80 -67.5 -136t-168.5 -63l-14 -74h-40l15 73q-100 3 -181 41z" />
    <glyph glyph-name="cent.tosf" 
d="M457 176q-20 -85 -69.5 -133.5t-114.5 -52.5l-20 -101h-36l21 102q-59 9 -96 59t-37 127q0 121 68.5 212t168.5 108l21 102h36l-21 -98q73 0 119 -22l-53 -143h-13l-43 112q-5 12 -7.5 14.5t-9.5 3.5l-85 -416q5 -1 15 -1q40 0 83 36.5t60 93.5zM201 180q0 -89 51 -119
l82 398q-60 -22 -96.5 -107t-36.5 -172z" />
    <glyph glyph-name="cent.tosf_alt" 
d="M399 599l-20 -98q78 0 118 -22l-53 -143h-13l-43 112q-5 13 -8 15.5t-11 2.5q-50 0 -90 -47.5t-59 -112t-19 -126.5q0 -60 26 -95.5t74 -35.5q40 0 83 36.5t60 93.5l13 -3q-20 -85 -69.5 -133.5t-114.5 -52.5l-20 -101h-36l21 102q-59 9 -96 59t-37 127q0 121 68.5 212
t168.5 108l21 102h36z" />
    <glyph glyph-name="sterling.tosf" 
d="M468 0h-437v15l67 55q31 26 53.5 68t22.5 85q0 18 -5 41h-92v38h83q-11 44 -11 81q0 127 78.5 203.5t193.5 76.5q78 0 135 -24l-72 -145h-12l-36 114q-3 10 -7 12.5t-19 2.5q-78 0 -126.5 -52.5t-48.5 -141.5q0 -25 7.5 -72.5t8.5 -54.5h140v-38h-137v-2
q0 -63 -30.5 -111.5t-83.5 -76.5h253q15 0 20 2t14 11l75 79h13z" />
    <glyph glyph-name="yen.tosf" 
d="M129 185h139l14 66h-123v38h117l-114 282q-13 25 -21 32l-44 36v14h251v-14l-81 -45q-12 -7 -7 -19l105 -258l179 253q7 10 -4 17l-76 52v14h252v-14l-88 -48q-22 -11 -38 -32l-192 -270h125v-38h-147l-14 -66h131v-38h-139l-14 -69q-3 -13 8 -20l83 -44v-14h-293v14
l94 46q13 6 15 20l13 67h-131v38z" />
    <glyph glyph-name="Euro.tosf" 
d="M-14 292h73q1 31 10 69h-67v40h78q40 117 137 189.5t214 72.5q94 0 181 -23l-39 -192h-13l-52 149q-4 12 -7.5 16t-13.5 5q-23 5 -57 5q-84 0 -152.5 -61.5t-100.5 -160.5h234v-40h-245q-7 -33 -9 -69h238v-40h-239v-9q3 -97 44 -157.5t114 -60.5q28 0 47 3t31 18
l117 154h13l-39 -192q-73 -23 -171 -23q-119 0 -185 67t-69 200h-72v40z" />
    <glyph glyph-name="parenleft.subs" horiz-adv-x="249" 
d="M259 419q-69 -57 -106 -152.5t-37 -196.5q0 -86 40 -137l-7 -9q-49 28 -78.5 80t-29.5 116q0 102 56 185.5t159 122.5z" />
    <glyph glyph-name="parenright.subs" horiz-adv-x="249" 
d="M3 -76l-3 9q69 57 106 152.5t37 196.5q0 86 -40 137l7 9q49 -28 78.5 -80t29.5 -116q0 -102 -56 -185.5t-159 -122.5z" />
    <glyph glyph-name="backslash.case" horiz-adv-x="390" 
d="M247 -100l-118 885l47 6l118 -885z" />
    <glyph glyph-name="bar.case" horiz-adv-x="344" 
d="M59 -150h-51l200 974h52z" />
    <glyph glyph-name="braceleft.case" horiz-adv-x="376" 
d="M190 -105q-59 0 -91 31t-32 88q0 30 11 65l59 188q5 17 5 28q0 55 -75 55v12q46 0 75.5 24t33.5 63l18 195q8 86 59 129.5t127 43.5q33 0 63 -8l-3 -13q-87 -2 -124.5 -43.5t-45.5 -114.5l-18 -178q-5 -45 -31.5 -72.5t-72.5 -30.5v-2q65 -12 65 -74q0 -17 -6 -38
l-53 -172q-14 -44 -14 -68q0 -87 115 -88v-12q-34 -8 -65 -8z" />
    <glyph glyph-name="braceright.case" horiz-adv-x="376" 
d="M28 -105q-33 0 -63 8l3 13q87 2 124.5 43.5t45.5 114.5l18 178q5 45 31.5 72.5t72.5 30.5v2q-65 12 -65 74q0 17 6 38l53 173q14 50 14 67q0 87 -115 88v12q34 8 65 8q59 0 91 -31t32 -88q0 -30 -11 -65l-59 -188q-5 -17 -5 -28q0 -55 75 -55v-12q-46 0 -75.5 -24
t-33.5 -63l-18 -195q-8 -86 -59 -129.5t-127 -43.5z" />
    <glyph glyph-name="bracketleft.case" horiz-adv-x="376" 
d="M49 -104l190 919l203 -6v-12l-132 -36q-17 -4 -18 -19l-160 -772q-5 -15 10 -19l116 -36v-12z" />
    <glyph glyph-name="bracketright.case" horiz-adv-x="376" 
d="M359 815l-190 -919l-203 6v12l132 36q17 4 18 19l160 772q5 15 -10 19l-116 36v12z" />
    <glyph glyph-name="emdash.case" horiz-adv-x="1000" 
d="M993 332h-970v50h970v-50z" />
    <glyph glyph-name="endash.case" horiz-adv-x="500" 
d="M493 332h-470v50h470v-50z" />
    <glyph glyph-name="guillemotleft.case" horiz-adv-x="437" 
d="M189 165l-142 191v8l221 191l7 -9l-131 -191l55 -181zM357 165l-142 191v8l221 191l7 -9l-131 -191l55 -181z" />
    <glyph glyph-name="guillemotright.case" horiz-adv-x="437" 
d="M274 555l142 -191v-8l-221 -191l-7 9l131 191l-55 181zM106 555l142 -191v-8l-221 -191l-7 9l131 191l-55 181z" />
    <glyph glyph-name="guilsinglleft.case" horiz-adv-x="269" 
d="M189 165l-142 191v8l221 191l7 -9l-131 -191l55 -181z" />
    <glyph glyph-name="guilsinglright.case" horiz-adv-x="269" 
d="M106 555l142 -191v-8l-221 -191l-7 9l131 191l-55 181z" />
    <glyph glyph-name="hyphen.case" horiz-adv-x="315" 
d="M56 327v59h237v-59h-237z" />
    <glyph glyph-name="parenleft.case" horiz-adv-x="376" 
d="M258 -87l-11 -13q-154 91 -154 338q0 185 92.5 343t250.5 229l5 -13q-122 -91 -196.5 -258t-74.5 -337q0 -179 88 -289z" />
    <glyph glyph-name="parenright.case" horiz-adv-x="376" 
d="M151 797l11 13q154 -91 154 -338q0 -185 -92.5 -343t-250.5 -229l-5 13q122 91 196.5 258t74.5 337q0 179 -88 289z" />
    <glyph glyph-name="slash.case" horiz-adv-x="390" 
d="M471 778l-477 -885l-40 22l478 885z" />
    <glyph glyph-name="questiondown.case" horiz-adv-x="420" 
d="M319 564q-28 0 -46 16.5t-18 42.5q0 35 21.5 57.5t51.5 22.5q28 0 46 -16.5t18 -42.5q0 -35 -21.5 -57.5t-51.5 -22.5zM286 480h12q15 -22 15 -46q0 -36 -18 -61.5t-66 -63.5l-57 -45q-36 -28 -61 -70t-25 -85q0 -41 24 -67.5t68 -26.5q33 0 49 4q14 4 24 19l78 116h12
l23 -129q-101 -48 -193 -48q-81 0 -129.5 41.5t-48.5 108.5q0 45 30 92t73 78l115 86q28 21 51 48.5t24 48.5z" />
    <glyph glyph-name="exclamdown.case" horiz-adv-x="286" 
d="M208 524l-47 -519h-139l174 519h12zM223 577q-28 0 -46 16.5t-18 42.5q0 35 21.5 57.5t51.5 22.5q28 0 46 -16.5t18 -42.5q0 -35 -21.5 -57.5t-51.5 -22.5z" />
    <glyph glyph-name="plus.case" 
d="M282 132v195h-194v50h194v195h52v-195h194v-50h-194v-195h-52z" />
    <glyph glyph-name="multiply.case" 
d="M462 143l-163 163l-162 -162l-35 35l162 162l-163 163l37 37l163 -163l162 162l35 -35l-162 -162l163 -163z" />
    <glyph glyph-name="minus.case" 
d="M528 327h-440v50h440v-50z" />
    <glyph glyph-name="notequal.case" 
d="M528 241h-256l-56 -100l-42 24l43 76h-129v50h157l70 125h-227v50h256l61 108l42 -25l-47 -83h128v-50h-157l-70 -125h227v-50z" />
    <glyph glyph-name="approxequal.case" 
d="M423 395q-47 0 -120 35.5t-106 35.5q-59 0 -92 -54l-42 26q48 77 130 77q47 0 120 -35.5t106 -35.5q59 0 92 54l42 -26q-48 -77 -130 -77zM423 217q-47 0 -120 35.5t-106 35.5q-59 0 -92 -54l-42 26q48 77 130 77q47 0 120 -35.5t106 -35.5q59 0 92 54l42 -26
q-48 -77 -130 -77z" />
    <glyph glyph-name="divide.case" 
d="M247 496q0 29 16.5 46t44.5 17t44.5 -17t16.5 -45q0 -29 -16.5 -46.5t-44.5 -17.5t-44.5 17t-16.5 46zM528 327h-440v50h440v-50zM247 208q0 29 16.5 46t44.5 17t44.5 -17t16.5 -45q0 -29 -16.5 -46.5t-44.5 -17.5t-44.5 17t-16.5 46z" />
    <glyph glyph-name="plusminus.case" 
d="M283 242v148h-195v50h195v143h52v-143h193v-50h-193v-148h-52zM528 129h-440v50h440v-50z" />
    <glyph glyph-name="lessequal.case" 
d="M88 406v12l407 142l18 -47l-291 -99v-4l291 -99l-18 -47zM528 129h-440v50h440v-50z" />
    <glyph glyph-name="greaterequal.case" 
d="M528 418v-12l-407 -142l-18 47l291 99v4l-291 99l18 47zM528 129h-440v50h440v-50z" />
    <glyph glyph-name="uni00AD.case" horiz-adv-x="315" 
d="M56 327v59h237v-59h-237z" />
    <glyph glyph-name="less.case" 
d="M195 354v-2l307 -140l-18 -46l-396 181v12l396 181l18 -46z" />
    <glyph glyph-name="equal.case" 
d="M528 416h-440v50h440v-50zM528 241h-440v50h440v-50z" />
    <glyph glyph-name="greater.case" 
d="M421 352v2l-307 140l18 46l396 -181v-12l-396 -181l-18 46z" />
    <glyph glyph-name="a.smcp" horiz-adv-x="560" 
d="M364 73l-16 91h-198l-47 -79q-8 -14 3 -22l57 -50v-13h-212v13l80 50q15 9 24 24l225 366q7 10 3 21l-25 50v12h108l85 -460q2 -12 12 -21l53 -43v-12h-235v13l76 46q8 5 7 14zM305 421l-132 -219h169z" />
    <glyph glyph-name="b.smcp" horiz-adv-x="528" 
d="M89 536h246q78 0 123 -30.5t45 -87.5q0 -54 -42.5 -92.5t-103.5 -43.5q53 -8 85.5 -39t32.5 -74q0 -85 -71.5 -127t-180.5 -42h-242v12l85 46q10 5 12 16l84 386q3 12 -7 19l-66 45v12zM232 38q67 0 106 36t39 93q0 88 -108 88h-63l-45 -207q-1 -8 0 -9t8 -1h63zM257 488
l-43 -197h69q49 0 86.5 34.5t37.5 93.5q0 38 -24 58.5t-63 20.5h-50q-12 0 -13 -10z" />
    <glyph glyph-name="c.smcp" horiz-adv-x="531" 
d="M268 -11q-103 0 -160.5 61t-57.5 164q0 143 94.5 238t237.5 95q68 0 146 -18l-34 -157h-13l-50 119q-5 12 -18 15t-38 3q-98 0 -162.5 -95t-64.5 -218q0 -72 34 -121t96 -49q18 0 32 3q12 3 20 12l112 125h13l-36 -158q-66 -19 -151 -19z" />
    <glyph glyph-name="d.smcp" horiz-adv-x="588" 
d="M224 38q92 0 165 82t73 208q0 85 -42.5 127t-118.5 42h-32q-12 0 -13 -11l-95 -438q-1 -8 0 -9t8 -1h55zM-19 0v12l85 46q10 5 12 16l84 386q3 12 -7 19l-66 45v12h249q105 0 163.5 -58.5t58.5 -162.5q0 -135 -97.5 -225t-226.5 -90h-255z" />
    <glyph glyph-name="e.smcp" horiz-adv-x="513" 
d="M-19 0v12l85 46q10 5 12 16l84 386q3 12 -7 19l-66 45v12h429l-33 -153h-13l-46 104q-5 10 -16 10h-141q-12 0 -13 -11l-43 -198h93q12 0 23 9l63 60h13l-39 -176h-12l-36 60q-6 9 -18 9h-96l-43 -201q-1 -7 0.5 -8.5t8.5 -1.5h143q13 0 22 10l96 103h13l-33 -152h-430z
" />
    <glyph glyph-name="f.smcp" horiz-adv-x="483" 
d="M366 181h-12l-36 60q-6 9 -18 9h-95l-37 -170q-4 -16 7 -21l84 -46v-13h-278v12l85 46q10 5 12 16l84 386q3 12 -7 19l-66 45v12h429l-33 -153h-13l-46 104q-5 10 -16 10h-141q-11 0 -13 -11l-43 -198h93q12 0 23 9l63 60h13z" />
    <glyph glyph-name="g.smcp" horiz-adv-x="578" 
d="M478 162l-38 -173l-82 15q-45 -15 -94 -15q-96 0 -155 59.5t-59 164.5q0 147 95.5 240.5t236.5 93.5q75 0 171 -22l-34 -154h-13l-50 120q-5 12 -16 14q-16 4 -53 4q-70 0 -125.5 -45t-84.5 -114.5t-29 -146.5q0 -79 33.5 -128t101.5 -49q37 0 68 11q9 3 11 5t3 9l25 111
q2 11 -5 16l-64 47v12h248v-13l-80 -46q-10 -6 -11 -16z" />
    <glyph glyph-name="h.smcp" horiz-adv-x="634" 
d="M409 74l39 180h-242l-38 -178q-3 -12 7 -19l66 -45v-12h-259v12l85 46q9 5 12 16l84 386q3 12 -7 19l-66 45v12h259v-12l-85 -46q-10 -5 -12 -16l-37 -169h241l37 167q3 12 -7 19l-66 45v12h259v-12l-85 -46q-10 -5 -12 -16l-84 -386q-3 -12 7 -19l66 -45v-12h-259v12
l85 46q9 5 12 16z" />
    <glyph glyph-name="i.smcp" horiz-adv-x="304" 
d="M79 74l84 386q3 12 -7 19l-66 45v12h259v-12l-85 -46q-10 -5 -12 -16l-84 -386q-3 -12 7 -19l66 -45v-12h-259v12l85 46q9 5 12 16z" />
    <glyph glyph-name="j.smcp" horiz-adv-x="282" 
d="M55 14l96 446q3 12 -7 19l-66 45v12h259v-12l-85 -46q-10 -5 -12 -16l-93 -429q-18 -85 -74 -132.5t-151 -64.5l-2 12q107 40 135 166z" />
    <glyph glyph-name="k.smcp" horiz-adv-x="547" 
d="M79 74l84 386q3 12 -7 19l-66 45v12h259v-12l-85 -46q-10 -5 -12 -16l-40 -184l230 182q13 9 5 20l-32 43v13h217v-13l-95 -48q-36 -17 -53 -31l-181 -144l124 -226q7 -14 30 -27l59 -35v-12h-150l-154 278l-44 -202q-3 -12 7 -19l66 -45v-12h-259v12l85 46q9 5 12 16z
" />
    <glyph glyph-name="l.smcp" horiz-adv-x="467" 
d="M-18 0v12l85 46q9 5 12 16l84 386q3 12 -7 19l-66 45v12h259v-12l-85 -46q-10 -5 -12 -16l-90 -414q-1 -7 0 -8.5t9 -1.5h120q13 0 22 10l106 120h11l-39 -168h-409z" />
    <glyph glyph-name="m.smcp" horiz-adv-x="750" 
d="M306 -1l-102 439l-74 -347q-3 -13 4 -20l72 -59v-12h-224v12l92 59q11 8 13 18l81 371q3 12 -7 19l-66 45v12h178l91 -401l258 401h173v-12l-85 -46q-10 -5 -12 -16l-84 -386q-3 -12 7 -19l66 -45v-12h-259v12l85 46q9 5 12 16l80 365l-282 -440h-17z" />
    <glyph glyph-name="n.smcp" horiz-adv-x="598" 
d="M552 447l-97 -447h-39l-218 429l-72 -338q-3 -13 4 -20l72 -59v-12h-224v12l92 59q11 8 13 18l81 370q2 13 -9 21l-64 44v12h148l202 -398l68 305q3 13 -4 20l-69 61v12h221v-12l-92 -59q-11 -8 -13 -18z" />
    <glyph glyph-name="o.smcp" horiz-adv-x="589" 
d="M249 -11q-93 0 -146 59t-53 162q0 139 92.5 238t218.5 99q94 0 147 -59t53 -163q0 -139 -92.5 -237.5t-219.5 -98.5zM354 509q-57 0 -105.5 -50t-74 -122.5t-25.5 -145.5q0 -164 108 -164q57 0 105.5 50t74 122.5t25.5 145.5q0 164 -108 164z" />
    <glyph glyph-name="p.smcp" horiz-adv-x="495" 
d="M-18 0v12l85 46q9 5 12 16l84 386q3 12 -7 19l-66 45v12h255q82 0 126 -35.5t44 -99.5q0 -91 -73.5 -146t-174.5 -55h-72l-27 -124q-2 -11 6 -16l82 -48v-12h-274zM257 486l-54 -247h74q58 0 100 45t42 117q0 96 -100 96h-48q-12 0 -14 -11z" />
    <glyph glyph-name="q.smcp" horiz-adv-x="590" 
d="M250 -11q-23 0 -48 5l-56 -40l140 -49q47 -15 97 -15q45 0 84 28l42 32l10 -7l-36 -48q-58 -76 -137 -76q-45 0 -111 24l-139 51q-33 13 -69 3l-4 11l139 98q-53 23 -82 76t-29 128q0 139 92.5 238t218.5 99q94 0 147 -59t53 -163q0 -139 -92.5 -237.5t-219.5 -98.5z
M355 509q-57 0 -105.5 -48.5t-74 -118.5t-25.5 -141q0 -174 108 -174q57 0 105.5 48.5t74 118.5t25.5 141q0 174 -108 174z" />
    <glyph glyph-name="r.smcp" horiz-adv-x="535" 
d="M-18 0v12l84 46q11 5 13 15l84 387q3 12 -7 19l-66 45v12h257q81 0 124.5 -32.5t43.5 -95.5q0 -60 -42 -99t-108 -53l67 -190q7 -16 24 -27l42 -27v-12h-137l-76 224q-3 10 -17 10h-66l-34 -158q-2 -11 7 -19l66 -45v-12h-259zM257 487l-47 -215h72q57 0 97 38t40 103
q0 50 -26 67t-70 17h-52q-12 0 -14 -10z" />
    <glyph glyph-name="s.smcp" horiz-adv-x="468" 
d="M189 -11q-94 0 -161 30l37 148h10l40 -117q5 -15 15 -17q27 -7 57 -7q60 0 100.5 29.5t40.5 73.5q0 55 -66 89l-64 34q-91 47 -91 137q0 67 56.5 112.5t154.5 45.5q72 0 135 -20l-36 -141h-10l-40 108q-3 9 -13 12q-19 4 -45 4q-54 0 -88 -27.5t-34 -68.5q0 -59 63 -90
l69 -33q97 -47 97 -129q0 -74 -65.5 -123.5t-161.5 -49.5z" />
    <glyph glyph-name="t.smcp" horiz-adv-x="508" 
d="M178 73l91 423h-78q-15 0 -26 -12l-93 -101h-13l33 153h459l-33 -153h-13l-46 101q-4 9 -6.5 10.5t-11.5 1.5h-83l-91 -420q-2 -11 7 -19l66 -45v-12h-259v12l84 46q11 5 13 15z" />
    <glyph glyph-name="u.smcp" horiz-adv-x="582" 
d="M537 447l-57 -257q-22 -99 -73.5 -150t-154.5 -51q-87 0 -127.5 44t-40.5 109q0 42 9 80l51 238q3 12 -7 19l-66 45v12h259v-12l-85 -46q-9 -5 -12 -16l-51 -234q-9 -40 -9 -83q0 -46 27.5 -78.5t80.5 -32.5q60 0 99.5 37.5t57.5 119.5l56 252q3 13 -4 20l-69 61v12h221
v-12l-92 -59q-11 -8 -13 -18z" />
    <glyph glyph-name="v.smcp" horiz-adv-x="533" 
d="M201 0l-79 460q-2 15 -12 21l-53 43v12h235v-13l-76 -46q-8 -5 -7 -14l58 -349l200 337q8 14 -3 22l-60 50v13h214v-13l-81 -50q-15 -9 -24 -24l-269 -449h-43z" />
    <glyph glyph-name="w.smcp" horiz-adv-x="802" 
d="M201 0l-79 460q-2 15 -12 21l-53 43v12h235v-13l-76 -46q-9 -5 -7 -14l58 -349l155 274l-9 72q-2 12 -12 21l-53 43v12h235v-13l-76 -46q-8 -5 -7 -15l39 -348l197 337q8 14 -3 22l-60 50v13h214v-13l-81 -50q-15 -9 -24 -24l-268 -449h-43l-41 325l-187 -325h-42z" />
    <glyph glyph-name="x.smcp" horiz-adv-x="548" 
d="M-40 11l88 47q18 9 36 29l162 178l-91 190q-7 14 -23 27l-52 41v13h223v-13l-54 -35q-10 -7 -5 -18l69 -145l129 134q7 8 7.5 12t-5.5 10l-42 44v11h209v-11l-88 -47q-18 -9 -36 -29l-155 -162l99 -206q7 -14 23 -27l52 -41v-13h-223v13l54 35q10 7 5 18l-78 161
l-135 -150q-7 -8 -7.5 -12t5.5 -10l42 -44v-11h-209v11z" />
    <glyph glyph-name="y.smcp" horiz-adv-x="515" 
d="M178 74l26 119q4 16 -2 31l-82 233q-6 15 -16 25l-52 42v12h232v-13l-67 -43q-11 -7 -7 -17l72 -209l162 206q6 7 -3 15l-56 48v13h215v-13l-87 -53q-20 -13 -31 -27l-176 -223q-10 -13 -14 -30l-25 -114q-3 -12 7 -19l66 -45v-12h-259v12l85 46q10 5 12 16z" />
    <glyph glyph-name="z.smcp" horiz-adv-x="498" 
d="M392 0h-397v10l406 487h-176q-14 0 -22 -9l-97 -122h-13l37 170h396v-10l-406 -488h177q14 0 22 9l103 129h14z" />
    <glyph glyph-name="zero.smcp" horiz-adv-x="527" 
d="M237 27q47 0 87.5 56t62 136.5t21.5 158.5q0 66 -23 98.5t-63 32.5q-47 0 -87 -55t-61.5 -133.5t-21.5 -154.5q0 -69 22.5 -104t62.5 -35zM325 547q80 0 127.5 -51.5t47.5 -154.5q0 -144 -78 -248t-188 -104q-80 0 -126.5 54t-46.5 160q0 141 77 242.5t187 101.5z" />
    <glyph glyph-name="one.smcp" horiz-adv-x="345" 
d="M274 0h-265v11l92 45q12 5 13 15l84 385q1 11 -8 14l-80 27v13l190 37l-103 -476q-3 -10 6 -15l71 -45v-11z" />
    <glyph glyph-name="two.smcp" horiz-adv-x="453" 
d="M257 508q-19 0 -34 -3q-11 -2 -16 -10l-75 -103h-13l-11 122q83 33 167 33q73 0 112 -36t39 -94q0 -29 -8 -56.5t-28 -54.5t-37 -47t-53 -48.5t-57 -44t-68.5 -49t-68.5 -48.5h165q14 0 19.5 2t15.5 12l58 58h14l-45 -141h-341v13l87 73q49 42 68.5 58.5t58.5 52
t55.5 56.5t38.5 51.5t30 58t8 56.5q0 40 -21 64.5t-60 24.5z" />
    <glyph glyph-name="three.smcp" horiz-adv-x="455" 
d="M278 547q72 0 114 -35t42 -90q0 -58 -43 -95.5t-105 -45.5q50 -1 82 -33.5t32 -80.5q0 -78 -71 -128t-172 -50q-92 0 -150 26l67 127h11l25 -102q3 -8 11 -10q12 -3 30 -3q71 0 114 39t43 98q0 48 -30.5 74.5t-84.5 27.5v15q66 6 109.5 45t43.5 97q0 38 -21 62t-58 24
q-24 0 -36 -2q-11 -3 -16 -10l-77 -99h-10l-13 116q83 33 163 33z" />
    <glyph glyph-name="four.smcp" horiz-adv-x="500" 
d="M381 0h-232v12l75 38q11 6 13 16l14 64h-238v12l342 394h66l-82 -367h34q13 0 22 9l80 84h13l-45 -132h-111l-14 -64q-2 -9 7 -16l56 -38v-12zM258 169l59 265l-227 -265h168z" />
    <glyph glyph-name="five.smcp" horiz-adv-x="448" 
d="M147 -11q-81 0 -142 28l67 126h10l26 -99q2 -8 12 -11q16 -4 31 -4q70 0 116.5 40.5t46.5 103.5q0 49 -27.5 78.5t-75.5 29.5q-53 0 -115 -33h-8l73 286l39 -2q38 -1 86.5 -2t72.5 -1q33 0 45.5 3.5t24.5 14.5l27 24h12l-28 -70q-11 -27 -25.5 -35.5t-46.5 -8.5
q-31 0 -185 4l-42 -162q51 24 117 24q67 0 107.5 -38t40.5 -99q0 -86 -71 -141.5t-188 -55.5z" />
    <glyph glyph-name="six.smcp" horiz-adv-x="488" 
d="M345 547q73 0 132 -22l-63 -122h-10l-32 92q-5 14 -32 14q-51 0 -90.5 -39t-60 -90.5t-32.5 -114.5q65 65 147 65q60 0 99.5 -37.5t39.5 -104.5q0 -83 -64.5 -141t-149.5 -58q-74 0 -121 54.5t-47 145.5q0 149 78 253.5t206 104.5zM271 282q-30 0 -63.5 -15.5
t-55.5 -39.5q-3 -27 -3 -51q0 -149 88 -149q43 0 80 48.5t37 107.5q0 99 -83 99z" />
    <glyph glyph-name="seven.smcp" horiz-adv-x="404" 
d="M155 0h-101v12q225 358 298 454h-193q-23 0 -35 -12l-56 -53h-13l43 135h355v-12l-51 -44q-15 -13 -22 -25q-59 -97 -225 -455z" />
    <glyph glyph-name="eight.smcp" horiz-adv-x="464" 
d="M204 -11q-74 0 -125 38.5t-51 94.5q0 52 46.5 90.5t108.5 54.5q-82 53 -82 125q0 70 56 112.5t131 42.5q67 0 113.5 -33t46.5 -90q0 -52 -43 -89t-100 -49q56 -31 83 -62.5t27 -72.5q0 -67 -61 -114.5t-150 -47.5zM261 218l-55 35q-101 -43 -101 -133q0 -38 28 -65
t75 -27q51 0 85.5 28.5t34.5 66.5q0 31 -16 52t-51 43zM183 407q0 -45 55 -79l40 -25q98 43 98 122q0 38 -25 61.5t-65 23.5q-43 0 -73 -27.5t-30 -75.5z" />
    <glyph glyph-name="nine.smcp" horiz-adv-x="488" 
d="M181 -11q-73 0 -132 22l63 122h10l32 -92q5 -14 31 -14q50 0 90 38.5t61 90t32 114.5q-66 -64 -146 -64q-60 0 -99.5 37.5t-39.5 104.5q0 83 64.5 141t149.5 58q74 0 121 -54.5t47 -145.5q0 -149 -78 -253.5t-206 -104.5zM255 254q29 0 62.5 15.5t56.5 38.5q3 29 3 52
q0 149 -88 149q-43 0 -80 -48.5t-37 -107.5q0 -99 83 -99z" />
    <glyph glyph-name="dollar.smcp" horiz-adv-x="433" 
d="M177 -11q-94 0 -161 30l37 148h10l40 -117q5 -15 15 -17q27 -7 67 -7l42 204l-41 22q-91 47 -91 137q0 65 52.5 109.5t144.5 48.5l15 70h33l-15 -70q65 -3 116 -20l-36 -141h-10l-40 108q-4 11 -13 12q-12 3 -24 3l-42 -203l31 -15q97 -47 97 -129q0 -67 -55 -115
t-138 -56l-16 -77h-33zM175 414q0 -59 70 -94l39 189q-49 -3 -79 -30t-30 -65zM316 129q0 52 -59 85l-38 -184q43 10 70 37t27 62z" />
    <glyph glyph-name="dollar.smcp_alt" horiz-adv-x="433" 
d="M177 -11q-94 0 -161 30l37 148h10l40 -117q5 -15 15 -17q27 -7 57 -7q60 0 100.5 29.5t40.5 73.5q0 55 -66 89l-64 34q-91 47 -91 137q0 65 52.5 109.5t144.5 48.5l15 70h33l-15 -70q65 -3 116 -20l-36 -141h-10l-40 108q-3 9 -13 12q-19 4 -45 4q-54 0 -88 -27.5
t-34 -68.5q0 -59 63 -90l69 -33q97 -47 97 -129q0 -67 -55 -115t-138 -56l-16 -77h-33z" />
    <glyph glyph-name="cent.smcp" horiz-adv-x="404" 
d="M152 -21l15 75q-62 5 -99.5 50t-37.5 120q0 89 63 158t158 76l16 78h31l-16 -75q65 0 122 -19l-57 -112h-12l-31 89q-4 12 -28 12l-67 -323q5 -1 16 -1q60 0 113 45l9 -8q-50 -86 -148 -89l-16 -76h-31zM121 230q0 -86 59 -115l64 311q-55 -15 -89 -75t-34 -121z" />
    <glyph glyph-name="cent.smcp_alt" horiz-adv-x="404" 
d="M271 431q-65 0 -107.5 -66.5t-42.5 -137.5q0 -58 28 -89t74 -31q61 0 115 45l9 -8q-21 -38 -61 -63.5t-87 -25.5l-16 -76h-31l15 75q-61 4 -99 49.5t-38 120.5q0 89 62.5 158t157.5 76l17 78h31l-16 -75q65 0 122 -19l-57 -112h-12l-30 87q-5 14 -34 14z" />
    <glyph glyph-name="sterling.smcp" horiz-adv-x="451" 
d="M35 237h64q-12 70 -12 93q0 94 67.5 154.5t168.5 60.5q71 0 123 -19l-55 -119h-10l-36 97q-3 10 -18 10q-63 0 -106.5 -49t-43.5 -116q0 -21 5 -58.5t6 -53.5h105v-29h-106q-3 -51 -28 -81.5t-76 -62.5h219q21 0 34 13l58 58h11l-40 -135h-374v11l58 50q57 48 57 120
q0 9 -2 27h-69v29z" />
    <glyph glyph-name="yen.smcp" horiz-adv-x="526" 
d="M89 205v38h112l-75 214q-6 15 -16 25l-52 42v12h232v-13l-67 -43q-11 -7 -7 -17l72 -209l162 206q6 7 -3 15l-56 48v13h215v-13l-87 -53q-20 -13 -31 -27l-158 -200h106v-38h-135l-11 -52h128v-38h-137l-8 -39q-3 -12 7 -19l66 -45v-12h-259v12l85 46q10 5 12 16l9 41
h-122v38h130l12 52h-124z" />
    <glyph glyph-name="Euro.smcp" horiz-adv-x="590" 
d="M62 303v38h70q36 94 118.5 150t190.5 56q68 0 146 -18l-34 -157h-13l-50 119q-5 12 -18 15t-38 3q-67 0 -119.5 -46.5t-81.5 -121.5h176v-38h-188q-9 -33 -12 -68h178v-38h-180v-1q0 -72 34 -121t96 -49q19 0 32 3q12 3 20 12l112 125h13l-36 -158q-66 -19 -151 -19
q-99 0 -156 55.5t-62 152.5h-69v38h69q3 39 10 68h-57z" />
    <glyph glyph-name="zero.smcpt" 
d="M256 27q47 0 87.5 56t62 136.5t21.5 158.5q0 66 -23 98.5t-63 32.5q-47 0 -87 -55t-61.5 -133.5t-21.5 -154.5q0 -69 22.5 -104t62.5 -35zM344 547q80 0 127.5 -51.5t47.5 -154.5q0 -144 -78 -248t-188 -104q-80 0 -126.5 54t-46.5 160q0 141 77 242.5t187 101.5z" />
    <glyph glyph-name="one.smcpt" 
d="M406 0h-265v11l92 45q12 5 13 15l84 385q1 11 -8 14l-80 27v13l190 37l-103 -476q-3 -10 6 -15l71 -45v-11z" />
    <glyph glyph-name="two.smcpt" 
d="M345 508q-19 0 -34 -3q-11 -2 -16 -10l-75 -103h-13l-11 122q83 33 167 33q73 0 112 -36t39 -94q0 -29 -8 -56.5t-28 -54.5t-37 -47t-53 -48.5t-57 -44t-68.5 -49t-68.5 -48.5h165q14 0 19.5 2t15.5 12l58 58h14l-45 -141h-341v13l87 73q49 42 68.5 58.5t58.5 52
t55.5 56.5t38.5 51.5t30 58t8 56.5q0 40 -21 64.5t-60 24.5z" />
    <glyph glyph-name="three.smcpt" 
d="M357 547q72 0 114 -35t42 -90q0 -58 -43 -95.5t-105 -45.5q50 -1 82 -33.5t32 -80.5q0 -78 -71 -128t-172 -50q-92 0 -150 26l67 127h11l25 -102q3 -8 11 -10q12 -3 30 -3q71 0 114 39t43 98q0 48 -30.5 74.5t-84.5 27.5v15q66 6 109.5 45t43.5 97q0 38 -21 62t-58 24
q-24 0 -36 -2q-11 -3 -16 -10l-77 -99h-10l-13 116q83 33 163 33z" />
    <glyph glyph-name="four.smcpt" 
d="M430 0h-232v12l75 38q11 6 13 16l14 64h-238v12l342 394h66l-82 -367h34q13 0 22 9l80 84h13l-45 -132h-111l-14 -64q-2 -9 7 -16l56 -38v-12zM307 169l59 265l-227 -265h168z" />
    <glyph glyph-name="five.smcpt" 
d="M210 -11q-81 0 -142 28l67 126h10l26 -99q2 -8 12 -11q16 -4 31 -4q70 0 116.5 40.5t46.5 103.5q0 49 -27.5 78.5t-75.5 29.5q-53 0 -115 -33h-8l73 286l38 -2q39 -1 87.5 -2t72.5 -1q33 0 45.5 3.5t24.5 14.5l27 24h12l-28 -70q-11 -27 -25.5 -35.5t-46.5 -8.5
q-31 0 -185 4l-42 -162q51 24 117 24q67 0 107.5 -38t40.5 -99q0 -86 -71 -141.5t-188 -55.5z" />
    </font>
</defs>
</svg>
